<?xml version="1.0" encoding="utf-8" standalone="no"?>
<!DOCTYPE svg PUBLIC "-//W3C//DTD SVG 1.1//EN"
  "http://www.w3.org/Graphics/SVG/1.1/DTD/svg11.dtd">
<svg xmlns:xlink="http://www.w3.org/1999/xlink" width="864pt" height="576pt" viewBox="0 0 864 576" xmlns="http://www.w3.org/2000/svg" version="1.1">
 <metadata>
  <rdf:RDF xmlns:dc="http://purl.org/dc/elements/1.1/" xmlns:cc="http://creativecommons.org/ns#" xmlns:rdf="http://www.w3.org/1999/02/22-rdf-syntax-ns#">
   <cc:Work>
    <dc:type rdf:resource="http://purl.org/dc/dcmitype/StillImage"/>
    <dc:date>2024-05-21T01:47:06.242282</dc:date>
    <dc:format>image/svg+xml</dc:format>
    <dc:creator>
     <cc:Agent>
      <dc:title>Matplotlib v3.8.3, https://matplotlib.org/</dc:title>
     </cc:Agent>
    </dc:creator>
   </cc:Work>
  </rdf:RDF>
 </metadata>
 <defs>
  <style type="text/css">*{stroke-linejoin: round; stroke-linecap: butt}</style>
 </defs>
 <g id="figure_1">
  <g id="patch_1">
   <path d="M 0 576 
L 864 576 
L 864 0 
L 0 0 
z
" style="fill: #ffffff"/>
  </g>
  <g id="axes_1">
   <g id="patch_2">
    <path d="M 106.13 482.875 
L 810.405 482.875 
L 810.405 40.32 
L 106.13 40.32 
z
" style="fill: #ffffff"/>
   </g>
   <g id="matplotlib.axis_1">
    <g id="xtick_1">
     <g id="line2d_1">
      <path d="M 106.13 482.875 
L 106.13 40.32 
" clip-path="url(#p2c93227577)" style="fill: none; stroke: #b0b0b0; stroke-width: 0.8; stroke-linecap: square"/>
     </g>
     <g id="line2d_2">
      <defs>
       <path id="md74e995738" d="M 0 0 
L 0 3.5 
" style="stroke: #000000; stroke-width: 0.8"/>
      </defs>
      <g>
       <use xlink:href="#md74e995738" x="106.13" y="482.875" style="stroke: #000000; stroke-width: 0.8"/>
      </g>
     </g>
     <g id="text_1">
      <!-- 0 -->
      <g transform="translate(98.344688 509.960625) scale(0.28 -0.28)">
       <defs>
        <path id="Helvetica-30" d="M 1731 4475 
Q 2600 4475 2988 3759 
Q 3288 3206 3288 2244 
Q 3288 1331 3016 734 
Q 2622 -122 1728 -122 
Q 922 -122 528 578 
Q 200 1163 200 2147 
Q 200 2909 397 3456 
Q 766 4475 1731 4475 
z
M 1725 391 
Q 2163 391 2422 778 
Q 2681 1166 2681 2222 
Q 2681 2984 2493 3476 
Q 2306 3969 1766 3969 
Q 1269 3969 1039 3501 
Q 809 3034 809 2125 
Q 809 1441 956 1025 
Q 1181 391 1725 391 
z
" transform="scale(0.015625)"/>
       </defs>
       <use xlink:href="#Helvetica-30"/>
      </g>
     </g>
    </g>
    <g id="xtick_2">
     <g id="line2d_3">
      <path d="M 246.985 482.875 
L 246.985 40.32 
" clip-path="url(#p2c93227577)" style="fill: none; stroke: #b0b0b0; stroke-width: 0.8; stroke-linecap: square"/>
     </g>
     <g id="line2d_4">
      <g>
       <use xlink:href="#md74e995738" x="246.985" y="482.875" style="stroke: #000000; stroke-width: 0.8"/>
      </g>
     </g>
     <g id="text_2">
      <!-- 20 -->
      <g transform="translate(231.414375 509.960625) scale(0.28 -0.28)">
       <defs>
        <path id="Helvetica-32" d="M 200 0 
Q 231 578 439 1006 
Q 647 1434 1250 1784 
L 1850 2131 
Q 2253 2366 2416 2531 
Q 2672 2791 2672 3125 
Q 2672 3516 2437 3745 
Q 2203 3975 1813 3975 
Q 1234 3975 1013 3538 
Q 894 3303 881 2888 
L 309 2888 
Q 319 3472 525 3841 
Q 891 4491 1816 4491 
Q 2584 4491 2939 4075 
Q 3294 3659 3294 3150 
Q 3294 2613 2916 2231 
Q 2697 2009 2131 1694 
L 1703 1456 
Q 1397 1288 1222 1134 
Q 909 863 828 531 
L 3272 531 
L 3272 0 
L 200 0 
z
" transform="scale(0.015625)"/>
       </defs>
       <use xlink:href="#Helvetica-32"/>
       <use xlink:href="#Helvetica-30" x="55.615234"/>
      </g>
     </g>
    </g>
    <g id="xtick_3">
     <g id="line2d_5">
      <path d="M 387.84 482.875 
L 387.84 40.32 
" clip-path="url(#p2c93227577)" style="fill: none; stroke: #b0b0b0; stroke-width: 0.8; stroke-linecap: square"/>
     </g>
     <g id="line2d_6">
      <g>
       <use xlink:href="#md74e995738" x="387.84" y="482.875" style="stroke: #000000; stroke-width: 0.8"/>
      </g>
     </g>
     <g id="text_3">
      <!-- 40 -->
      <g transform="translate(372.269375 509.960625) scale(0.28 -0.28)">
       <defs>
        <path id="Helvetica-34" d="M 2116 1584 
L 2116 3613 
L 681 1584 
L 2116 1584 
z
M 2125 0 
L 2125 1094 
L 163 1094 
L 163 1644 
L 2213 4488 
L 2688 4488 
L 2688 1584 
L 3347 1584 
L 3347 1094 
L 2688 1094 
L 2688 0 
L 2125 0 
z
" transform="scale(0.015625)"/>
       </defs>
       <use xlink:href="#Helvetica-34"/>
       <use xlink:href="#Helvetica-30" x="55.615234"/>
      </g>
     </g>
    </g>
    <g id="xtick_4">
     <g id="line2d_7">
      <path d="M 528.695 482.875 
L 528.695 40.32 
" clip-path="url(#p2c93227577)" style="fill: none; stroke: #b0b0b0; stroke-width: 0.8; stroke-linecap: square"/>
     </g>
     <g id="line2d_8">
      <g>
       <use xlink:href="#md74e995738" x="528.695" y="482.875" style="stroke: #000000; stroke-width: 0.8"/>
      </g>
     </g>
     <g id="text_4">
      <!-- 60 -->
      <g transform="translate(513.124375 509.960625) scale(0.28 -0.28)">
       <defs>
        <path id="Helvetica-36" d="M 1872 4494 
Q 2622 4494 2917 4105 
Q 3213 3716 3213 3303 
L 2656 3303 
Q 2606 3569 2497 3719 
Q 2294 4000 1881 4000 
Q 1409 4000 1131 3564 
Q 853 3128 822 2316 
Q 1016 2600 1309 2741 
Q 1578 2866 1909 2866 
Q 2472 2866 2890 2506 
Q 3309 2147 3309 1434 
Q 3309 825 2912 354 
Q 2516 -116 1781 -116 
Q 1153 -116 697 361 
Q 241 838 241 1966 
Q 241 2800 444 3381 
Q 834 4494 1872 4494 
z
M 1831 384 
Q 2275 384 2495 682 
Q 2716 981 2716 1388 
Q 2716 1731 2519 2042 
Q 2322 2353 1803 2353 
Q 1441 2353 1167 2112 
Q 894 1872 894 1388 
Q 894 963 1142 673 
Q 1391 384 1831 384 
z
" transform="scale(0.015625)"/>
       </defs>
       <use xlink:href="#Helvetica-36"/>
       <use xlink:href="#Helvetica-30" x="55.615234"/>
      </g>
     </g>
    </g>
    <g id="xtick_5">
     <g id="line2d_9">
      <path d="M 669.55 482.875 
L 669.55 40.32 
" clip-path="url(#p2c93227577)" style="fill: none; stroke: #b0b0b0; stroke-width: 0.8; stroke-linecap: square"/>
     </g>
     <g id="line2d_10">
      <g>
       <use xlink:href="#md74e995738" x="669.55" y="482.875" style="stroke: #000000; stroke-width: 0.8"/>
      </g>
     </g>
     <g id="text_5">
      <!-- 80 -->
      <g transform="translate(653.979375 509.960625) scale(0.28 -0.28)">
       <defs>
        <path id="Helvetica-38" d="M 1741 2600 
Q 2113 2600 2322 2808 
Q 2531 3016 2531 3303 
Q 2531 3553 2331 3762 
Q 2131 3972 1722 3972 
Q 1316 3972 1134 3762 
Q 953 3553 953 3272 
Q 953 2956 1187 2778 
Q 1422 2600 1741 2600 
z
M 1775 384 
Q 2166 384 2423 595 
Q 2681 806 2681 1225 
Q 2681 1659 2415 1884 
Q 2150 2109 1734 2109 
Q 1331 2109 1076 1879 
Q 822 1650 822 1244 
Q 822 894 1055 639 
Q 1288 384 1775 384 
z
M 975 2384 
Q 741 2484 609 2619 
Q 363 2869 363 3269 
Q 363 3769 725 4128 
Q 1088 4488 1753 4488 
Q 2397 4488 2762 4148 
Q 3128 3809 3128 3356 
Q 3128 2938 2916 2678 
Q 2797 2531 2547 2391 
Q 2825 2263 2984 2097 
Q 3281 1784 3281 1284 
Q 3281 694 2884 283 
Q 2488 -128 1763 -128 
Q 1109 -128 657 226 
Q 206 581 206 1256 
Q 206 1653 400 1942 
Q 594 2231 975 2384 
z
" transform="scale(0.015625)"/>
       </defs>
       <use xlink:href="#Helvetica-38"/>
       <use xlink:href="#Helvetica-30" x="55.615234"/>
      </g>
     </g>
    </g>
    <g id="xtick_6">
     <g id="line2d_11">
      <path d="M 810.405 482.875 
L 810.405 40.32 
" clip-path="url(#p2c93227577)" style="fill: none; stroke: #b0b0b0; stroke-width: 0.8; stroke-linecap: square"/>
     </g>
     <g id="line2d_12">
      <g>
       <use xlink:href="#md74e995738" x="810.405" y="482.875" style="stroke: #000000; stroke-width: 0.8"/>
      </g>
     </g>
     <g id="text_6">
      <!-- 100 -->
      <g transform="translate(787.049062 509.960625) scale(0.28 -0.28)">
       <defs>
        <path id="Helvetica-31" d="M 613 3169 
L 613 3600 
Q 1222 3659 1462 3798 
Q 1703 3938 1822 4456 
L 2266 4456 
L 2266 0 
L 1666 0 
L 1666 3169 
L 613 3169 
z
" transform="scale(0.015625)"/>
       </defs>
       <use xlink:href="#Helvetica-31"/>
       <use xlink:href="#Helvetica-30" x="55.615234"/>
       <use xlink:href="#Helvetica-30" x="111.230469"/>
      </g>
     </g>
    </g>
    <g id="text_7">
     <!-- Epochs -->
     <g transform="translate(411.573125 539.948125) scale(0.28 -0.28)">
      <defs>
       <path id="Helvetica-45" d="M 547 4591 
L 3894 4591 
L 3894 4028 
L 1153 4028 
L 1153 2634 
L 3688 2634 
L 3688 2103 
L 1153 2103 
L 1153 547 
L 3941 547 
L 3941 0 
L 547 0 
L 547 4591 
z
M 2244 4591 
L 2244 4591 
z
" transform="scale(0.015625)"/>
       <path id="Helvetica-70" d="M 1825 378 
Q 2219 378 2480 708 
Q 2741 1038 2741 1694 
Q 2741 2094 2625 2381 
Q 2406 2934 1825 2934 
Q 1241 2934 1025 2350 
Q 909 2038 909 1556 
Q 909 1169 1025 897 
Q 1244 378 1825 378 
z
M 369 3331 
L 916 3331 
L 916 2888 
Q 1084 3116 1284 3241 
Q 1569 3428 1953 3428 
Q 2522 3428 2919 2992 
Q 3316 2556 3316 1747 
Q 3316 653 2744 184 
Q 2381 -113 1900 -113 
Q 1522 -113 1266 53 
Q 1116 147 931 375 
L 931 -1334 
L 369 -1334 
L 369 3331 
z
" transform="scale(0.015625)"/>
       <path id="Helvetica-6f" d="M 1741 363 
Q 2300 363 2508 786 
Q 2716 1209 2716 1728 
Q 2716 2197 2566 2491 
Q 2328 2953 1747 2953 
Q 1231 2953 997 2559 
Q 763 2166 763 1609 
Q 763 1075 997 719 
Q 1231 363 1741 363 
z
M 1763 3444 
Q 2409 3444 2856 3012 
Q 3303 2581 3303 1744 
Q 3303 934 2909 406 
Q 2516 -122 1688 -122 
Q 997 -122 590 345 
Q 184 813 184 1600 
Q 184 2444 612 2944 
Q 1041 3444 1763 3444 
z
M 1744 3428 
L 1744 3428 
z
" transform="scale(0.015625)"/>
       <path id="Helvetica-63" d="M 1703 3444 
Q 2269 3444 2623 3169 
Q 2978 2894 3050 2222 
L 2503 2222 
Q 2453 2531 2275 2736 
Q 2097 2941 1703 2941 
Q 1166 2941 934 2416 
Q 784 2075 784 1575 
Q 784 1072 996 728 
Q 1209 384 1666 384 
Q 2016 384 2220 598 
Q 2425 813 2503 1184 
L 3050 1184 
Q 2956 519 2581 211 
Q 2206 -97 1622 -97 
Q 966 -97 575 383 
Q 184 863 184 1581 
Q 184 2463 612 2953 
Q 1041 3444 1703 3444 
z
M 1616 3428 
L 1616 3428 
z
" transform="scale(0.015625)"/>
       <path id="Helvetica-68" d="M 413 4606 
L 975 4606 
L 975 2894 
Q 1175 3147 1334 3250 
Q 1606 3428 2013 3428 
Q 2741 3428 3000 2919 
Q 3141 2641 3141 2147 
L 3141 0 
L 2563 0 
L 2563 2109 
Q 2563 2478 2469 2650 
Q 2316 2925 1894 2925 
Q 1544 2925 1259 2684 
Q 975 2444 975 1775 
L 975 0 
L 413 0 
L 413 4606 
z
" transform="scale(0.015625)"/>
       <path id="Helvetica-73" d="M 747 1050 
Q 772 769 888 619 
Q 1100 347 1625 347 
Q 1938 347 2175 483 
Q 2413 619 2413 903 
Q 2413 1119 2222 1231 
Q 2100 1300 1741 1391 
L 1294 1503 
Q 866 1609 663 1741 
Q 300 1969 300 2372 
Q 300 2847 642 3140 
Q 984 3434 1563 3434 
Q 2319 3434 2653 2991 
Q 2863 2709 2856 2384 
L 2325 2384 
Q 2309 2575 2191 2731 
Q 1997 2953 1519 2953 
Q 1200 2953 1036 2831 
Q 872 2709 872 2509 
Q 872 2291 1088 2159 
Q 1213 2081 1456 2022 
L 1828 1931 
Q 2434 1784 2641 1647 
Q 2969 1431 2969 969 
Q 2969 522 2630 197 
Q 2291 -128 1597 -128 
Q 850 -128 539 211 
Q 228 550 206 1050 
L 747 1050 
z
M 1578 3428 
L 1578 3428 
z
" transform="scale(0.015625)"/>
      </defs>
      <use xlink:href="#Helvetica-45"/>
      <use xlink:href="#Helvetica-70" x="66.699219"/>
      <use xlink:href="#Helvetica-6f" x="122.314453"/>
      <use xlink:href="#Helvetica-63" x="177.929688"/>
      <use xlink:href="#Helvetica-68" x="227.929688"/>
      <use xlink:href="#Helvetica-73" x="283.544922"/>
     </g>
    </g>
   </g>
   <g id="matplotlib.axis_2">
    <g id="ytick_1">
     <g id="line2d_13">
      <path d="M 106.13 482.875 
L 810.405 482.875 
" clip-path="url(#p2c93227577)" style="fill: none; stroke: #b0b0b0; stroke-width: 0.8; stroke-linecap: square"/>
     </g>
     <g id="line2d_14">
      <defs>
       <path id="m4dc296b288" d="M 0 0 
L -3.5 0 
" style="stroke: #000000; stroke-width: 0.8"/>
      </defs>
      <g>
       <use xlink:href="#m4dc296b288" x="106.13" y="482.875" style="stroke: #000000; stroke-width: 0.8"/>
      </g>
     </g>
     <g id="text_8">
      <!-- 0.0 -->
      <g transform="translate(60.21 492.917812) scale(0.28 -0.28)">
       <defs>
        <path id="Helvetica-2e" d="M 547 681 
L 1200 681 
L 1200 0 
L 547 0 
L 547 681 
z
" transform="scale(0.015625)"/>
       </defs>
       <use xlink:href="#Helvetica-30"/>
       <use xlink:href="#Helvetica-2e" x="55.615234"/>
       <use xlink:href="#Helvetica-30" x="83.398438"/>
      </g>
     </g>
    </g>
    <g id="ytick_2">
     <g id="line2d_15">
      <path d="M 106.13 394.364 
L 810.405 394.364 
" clip-path="url(#p2c93227577)" style="fill: none; stroke: #b0b0b0; stroke-width: 0.8; stroke-linecap: square"/>
     </g>
     <g id="line2d_16">
      <g>
       <use xlink:href="#m4dc296b288" x="106.13" y="394.364" style="stroke: #000000; stroke-width: 0.8"/>
      </g>
     </g>
     <g id="text_9">
      <!-- 0.2 -->
      <g transform="translate(60.21 404.406813) scale(0.28 -0.28)">
       <use xlink:href="#Helvetica-30"/>
       <use xlink:href="#Helvetica-2e" x="55.615234"/>
       <use xlink:href="#Helvetica-32" x="83.398438"/>
      </g>
     </g>
    </g>
    <g id="ytick_3">
     <g id="line2d_17">
      <path d="M 106.13 305.853 
L 810.405 305.853 
" clip-path="url(#p2c93227577)" style="fill: none; stroke: #b0b0b0; stroke-width: 0.8; stroke-linecap: square"/>
     </g>
     <g id="line2d_18">
      <g>
       <use xlink:href="#m4dc296b288" x="106.13" y="305.853" style="stroke: #000000; stroke-width: 0.8"/>
      </g>
     </g>
     <g id="text_10">
      <!-- 0.4 -->
      <g transform="translate(60.21 315.895812) scale(0.28 -0.28)">
       <use xlink:href="#Helvetica-30"/>
       <use xlink:href="#Helvetica-2e" x="55.615234"/>
       <use xlink:href="#Helvetica-34" x="83.398438"/>
      </g>
     </g>
    </g>
    <g id="ytick_4">
     <g id="line2d_19">
      <path d="M 106.13 217.342 
L 810.405 217.342 
" clip-path="url(#p2c93227577)" style="fill: none; stroke: #b0b0b0; stroke-width: 0.8; stroke-linecap: square"/>
     </g>
     <g id="line2d_20">
      <g>
       <use xlink:href="#m4dc296b288" x="106.13" y="217.342" style="stroke: #000000; stroke-width: 0.8"/>
      </g>
     </g>
     <g id="text_11">
      <!-- 0.6 -->
      <g transform="translate(60.21 227.384812) scale(0.28 -0.28)">
       <use xlink:href="#Helvetica-30"/>
       <use xlink:href="#Helvetica-2e" x="55.615234"/>
       <use xlink:href="#Helvetica-36" x="83.398438"/>
      </g>
     </g>
    </g>
    <g id="ytick_5">
     <g id="line2d_21">
      <path d="M 106.13 128.831 
L 810.405 128.831 
" clip-path="url(#p2c93227577)" style="fill: none; stroke: #b0b0b0; stroke-width: 0.8; stroke-linecap: square"/>
     </g>
     <g id="line2d_22">
      <g>
       <use xlink:href="#m4dc296b288" x="106.13" y="128.831" style="stroke: #000000; stroke-width: 0.8"/>
      </g>
     </g>
     <g id="text_12">
      <!-- 0.8 -->
      <g transform="translate(60.21 138.873812) scale(0.28 -0.28)">
       <use xlink:href="#Helvetica-30"/>
       <use xlink:href="#Helvetica-2e" x="55.615234"/>
       <use xlink:href="#Helvetica-38" x="83.398438"/>
      </g>
     </g>
    </g>
    <g id="ytick_6">
     <g id="line2d_23">
      <path d="M 106.13 40.32 
L 810.405 40.32 
" clip-path="url(#p2c93227577)" style="fill: none; stroke: #b0b0b0; stroke-width: 0.8; stroke-linecap: square"/>
     </g>
     <g id="line2d_24">
      <g>
       <use xlink:href="#m4dc296b288" x="106.13" y="40.32" style="stroke: #000000; stroke-width: 0.8"/>
      </g>
     </g>
     <g id="text_13">
      <!-- 1.0 -->
      <g transform="translate(60.21 50.362812) scale(0.28 -0.28)">
       <use xlink:href="#Helvetica-31"/>
       <use xlink:href="#Helvetica-2e" x="55.615234"/>
       <use xlink:href="#Helvetica-30" x="83.398438"/>
      </g>
     </g>
    </g>
    <g id="text_14">
     <!-- Loss/accuracy -->
     <g transform="translate(50.2075 351.075) rotate(-90) scale(0.28 -0.28)">
      <defs>
       <path id="Helvetica-4c" d="M 488 4591 
L 1109 4591 
L 1109 547 
L 3434 547 
L 3434 0 
L 488 0 
L 488 4591 
z
" transform="scale(0.015625)"/>
       <path id="Helvetica-2f" d="M 1456 4591 
L 1931 4591 
L 475 0 
L 0 0 
L 1456 4591 
z
" transform="scale(0.015625)"/>
       <path id="Helvetica-61" d="M 844 891 
Q 844 647 1022 506 
Q 1200 366 1444 366 
Q 1741 366 2019 503 
Q 2488 731 2488 1250 
L 2488 1703 
Q 2384 1638 2221 1594 
Q 2059 1550 1903 1531 
L 1563 1488 
Q 1256 1447 1103 1359 
Q 844 1213 844 891 
z
M 2206 2028 
Q 2400 2053 2466 2191 
Q 2503 2266 2503 2406 
Q 2503 2694 2298 2823 
Q 2094 2953 1713 2953 
Q 1272 2953 1088 2716 
Q 984 2584 953 2325 
L 428 2325 
Q 444 2944 830 3186 
Q 1216 3428 1725 3428 
Q 2316 3428 2684 3203 
Q 3050 2978 3050 2503 
L 3050 575 
Q 3050 488 3086 434 
Q 3122 381 3238 381 
Q 3275 381 3322 386 
Q 3369 391 3422 400 
L 3422 -16 
Q 3291 -53 3222 -62 
Q 3153 -72 3034 -72 
Q 2744 -72 2613 134 
Q 2544 244 2516 444 
Q 2344 219 2022 53 
Q 1700 -113 1313 -113 
Q 847 -113 551 170 
Q 256 453 256 878 
Q 256 1344 547 1600 
Q 838 1856 1309 1916 
L 2206 2028 
z
M 1741 3428 
L 1741 3428 
z
" transform="scale(0.015625)"/>
       <path id="Helvetica-75" d="M 975 3347 
L 975 1125 
Q 975 869 1056 706 
Q 1206 406 1616 406 
Q 2203 406 2416 931 
Q 2531 1213 2531 1703 
L 2531 3347 
L 3094 3347 
L 3094 0 
L 2563 0 
L 2569 494 
Q 2459 303 2297 172 
Q 1975 -91 1516 -91 
Q 800 -91 541 388 
Q 400 644 400 1072 
L 400 3347 
L 975 3347 
z
M 1747 3428 
L 1747 3428 
z
" transform="scale(0.015625)"/>
       <path id="Helvetica-72" d="M 428 3347 
L 963 3347 
L 963 2769 
Q 1028 2938 1284 3180 
Q 1541 3422 1875 3422 
Q 1891 3422 1928 3419 
Q 1966 3416 2056 3406 
L 2056 2813 
Q 2006 2822 1964 2825 
Q 1922 2828 1872 2828 
Q 1447 2828 1219 2554 
Q 991 2281 991 1925 
L 991 0 
L 428 0 
L 428 3347 
z
" transform="scale(0.015625)"/>
       <path id="Helvetica-79" d="M 2503 3347 
L 3125 3347 
Q 3006 3025 2597 1878 
Q 2291 1016 2084 472 
Q 1597 -809 1397 -1090 
Q 1197 -1372 709 -1372 
Q 591 -1372 527 -1362 
Q 463 -1353 369 -1328 
L 369 -816 
Q 516 -856 581 -865 
Q 647 -875 697 -875 
Q 853 -875 926 -823 
Q 1000 -772 1050 -697 
Q 1066 -672 1162 -440 
Q 1259 -209 1303 -97 
L 66 3347 
L 703 3347 
L 1600 622 
L 2503 3347 
z
M 1597 3428 
L 1597 3428 
z
" transform="scale(0.015625)"/>
      </defs>
      <use xlink:href="#Helvetica-4c"/>
      <use xlink:href="#Helvetica-6f" x="55.615234"/>
      <use xlink:href="#Helvetica-73" x="111.230469"/>
      <use xlink:href="#Helvetica-73" x="161.230469"/>
      <use xlink:href="#Helvetica-2f" x="211.230469"/>
      <use xlink:href="#Helvetica-61" x="239.013672"/>
      <use xlink:href="#Helvetica-63" x="294.628906"/>
      <use xlink:href="#Helvetica-63" x="344.628906"/>
      <use xlink:href="#Helvetica-75" x="394.628906"/>
      <use xlink:href="#Helvetica-72" x="450.244141"/>
      <use xlink:href="#Helvetica-61" x="483.544922"/>
      <use xlink:href="#Helvetica-63" x="539.160156"/>
      <use xlink:href="#Helvetica-79" x="589.160156"/>
     </g>
    </g>
   </g>
   <g id="line2d_25">
    <path d="M 113.17275 66.630963 
L 120.2155 66.982666 
L 127.25825 67.191556 
L 134.301 67.36101 
L 141.34375 67.422181 
L 148.3865 67.527668 
L 155.42925 67.754496 
L 162.472 67.806514 
L 169.51475 67.97333 
L 176.5575 68.233975 
L 183.60025 68.529069 
L 190.643 68.620734 
L 197.68575 68.681562 
L 204.7285 68.881695 
L 211.77125 69.134135 
L 218.814 69.407916 
L 225.85675 69.618626 
L 232.8995 69.745189 
L 239.94225 70.011215 
L 246.985 70.125433 
L 254.02775 70.604807 
L 261.0705 73.536521 
L 268.11325 74.347549 
L 275.156 74.955332 
L 282.19875 75.116214 
L 289.2415 75.443859 
L 296.28425 75.674221 
L 303.327 75.702288 
L 310.36975 75.858764 
L 317.4125 76.069421 
L 324.45525 76.052091 
L 331.498 76.412577 
L 338.54075 76.375542 
L 345.5835 76.526716 
L 352.62625 76.551564 
L 359.669 76.699441 
L 366.71175 76.659689 
L 373.7545 76.76668 
L 380.79725 76.663356 
L 387.84 76.833865 
L 394.88275 76.934393 
L 401.9255 77.089603 
L 408.96825 77.082191 
L 416.011 77.074198 
L 423.05375 77.076863 
L 430.0965 77.118065 
L 437.13925 77.276916 
L 444.182 77.073961 
L 451.22475 77.238272 
L 458.2675 77.330385 
L 465.31025 77.212658 
L 472.353 77.216826 
L 479.39575 77.432495 
L 486.4385 77.325637 
L 493.48125 77.299258 
L 500.524 77.51651 
L 507.56675 77.490343 
L 514.6095 77.509309 
L 521.65225 77.434843 
L 528.695 77.477787 
L 535.73775 77.554706 
L 542.7805 77.542572 
L 549.82325 77.457502 
L 556.866 77.503005 
L 563.90875 77.518911 
L 570.9515 77.676521 
L 577.99425 77.571377 
L 585.037 77.657898 
L 592.07975 77.628935 
L 599.1225 77.629752 
L 606.16525 77.577945 
L 613.208 77.673699 
L 620.25075 77.59277 
L 627.2935 77.836163 
L 634.33625 77.630517 
L 641.379 77.651567 
L 648.42175 77.674121 
L 655.4645 77.653044 
L 662.50725 77.703533 
L 669.55 77.735925 
L 676.59275 77.736875 
L 683.6355 77.763649 
L 690.67825 77.720863 
L 697.721 77.605036 
L 704.76375 77.865337 
L 711.8065 77.872037 
L 718.84925 77.706962 
L 725.892 77.800104 
L 732.93475 77.863755 
L 739.9775 77.764598 
L 747.02025 77.842151 
L 754.063 77.764546 
L 761.10575 77.838642 
L 768.1485 77.721021 
L 775.19125 77.83305 
L 782.234 77.798442 
L 789.27675 77.848271 
L 796.3195 77.851489 
L 803.36225 77.742362 
L 810.405 77.868661 
" clip-path="url(#p2c93227577)" style="fill: none; stroke-dasharray: 5.55,2.4; stroke-dashoffset: 0; stroke: #0000ff; stroke-width: 1.5"/>
   </g>
   <g id="line2d_26">
    <path d="M 113.17275 150.729839 
L 120.2155 140.287211 
L 127.25825 139.327277 
L 134.301 136.095561 
L 141.34375 134.459973 
L 148.3865 133.372763 
L 155.42925 131.371624 
L 162.472 131.484998 
L 169.51475 129.756268 
L 176.5575 128.446873 
L 183.60025 125.339453 
L 190.643 126.183929 
L 197.68575 124.640374 
L 204.7285 123.181679 
L 211.77125 121.63124 
L 218.814 119.537591 
L 225.85675 118.600422 
L 232.8995 115.809357 
L 239.94225 114.260527 
L 246.985 111.784419 
L 254.02775 113.625257 
L 261.0705 112.875031 
L 268.11325 106.727323 
L 275.156 102.352687 
L 282.19875 100.263813 
L 289.2415 97.374832 
L 296.28425 96.114053 
L 303.327 95.448686 
L 310.36975 93.457386 
L 317.4125 92.714677 
L 324.45525 91.955852 
L 331.498 90.812061 
L 338.54075 89.48866 
L 345.5835 88.231337 
L 352.62625 88.016459 
L 359.669 86.722443 
L 366.71175 86.326109 
L 373.7545 85.928666 
L 380.79725 84.757099 
L 387.84 84.029479 
L 394.88275 83.086137 
L 401.9255 82.53876 
L 408.96825 82.003729 
L 416.011 82.417367 
L 423.05375 81.394626 
L 430.0965 81.319395 
L 437.13925 80.279878 
L 444.182 79.974865 
L 451.22475 79.555608 
L 458.2675 79.163626 
L 465.31025 78.66439 
L 472.353 78.656503 
L 479.39575 78.225929 
L 486.4385 77.621575 
L 493.48125 77.638747 
L 500.524 77.370928 
L 507.56675 77.058556 
L 514.6095 76.284246 
L 521.65225 76.019619 
L 528.695 75.820779 
L 535.73775 75.950982 
L 542.7805 76.04328 
L 549.82325 75.845812 
L 556.866 75.462007 
L 563.90875 74.748948 
L 570.9515 74.509881 
L 577.99425 74.660027 
L 585.037 74.488383 
L 592.07975 74.853011 
L 599.1225 74.122727 
L 606.16525 74.077804 
L 613.208 73.91323 
L 620.25075 73.624018 
L 627.2935 73.394157 
L 634.33625 73.610855 
L 641.379 73.685611 
L 648.42175 73.030479 
L 655.4645 73.051951 
L 662.50725 72.907107 
L 669.55 72.9151 
L 676.59275 72.744986 
L 683.6355 72.552583 
L 690.67825 72.482311 
L 697.721 72.327259 
L 704.76375 72.029157 
L 711.8065 72.144774 
L 718.84925 71.6721 
L 725.892 71.952317 
L 732.93475 71.707553 
L 739.9775 71.767854 
L 747.02025 71.300245 
L 754.063 71.650998 
L 761.10575 71.295418 
L 768.1485 71.846224 
L 775.19125 70.86983 
L 782.234 70.978192 
L 789.27675 71.12744 
L 796.3195 70.72678 
L 803.36225 71.337649 
L 810.405 71.062814 
" clip-path="url(#p2c93227577)" style="fill: none; stroke: #0000ff; stroke-width: 1.5; stroke-linecap: square"/>
    <defs>
     <path id="m250a58fb99" d="M 0 1.5 
C 0.397805 1.5 0.77937 1.341951 1.06066 1.06066 
C 1.341951 0.77937 1.5 0.397805 1.5 0 
C 1.5 -0.397805 1.341951 -0.77937 1.06066 -1.06066 
C 0.77937 -1.341951 0.397805 -1.5 0 -1.5 
C -0.397805 -1.5 -0.77937 -1.341951 -1.06066 -1.06066 
C -1.341951 -0.77937 -1.5 -0.397805 -1.5 0 
C -1.5 0.397805 -1.341951 0.77937 -1.06066 1.06066 
C -0.77937 1.341951 -0.397805 1.5 0 1.5 
z
" style="stroke: #0000ff"/>
    </defs>
    <g clip-path="url(#p2c93227577)">
     <use xlink:href="#m250a58fb99" x="113.17275" y="150.729839" style="fill: #0000ff; stroke: #0000ff"/>
     <use xlink:href="#m250a58fb99" x="120.2155" y="140.287211" style="fill: #0000ff; stroke: #0000ff"/>
     <use xlink:href="#m250a58fb99" x="127.25825" y="139.327277" style="fill: #0000ff; stroke: #0000ff"/>
     <use xlink:href="#m250a58fb99" x="134.301" y="136.095561" style="fill: #0000ff; stroke: #0000ff"/>
     <use xlink:href="#m250a58fb99" x="141.34375" y="134.459973" style="fill: #0000ff; stroke: #0000ff"/>
     <use xlink:href="#m250a58fb99" x="148.3865" y="133.372763" style="fill: #0000ff; stroke: #0000ff"/>
     <use xlink:href="#m250a58fb99" x="155.42925" y="131.371624" style="fill: #0000ff; stroke: #0000ff"/>
     <use xlink:href="#m250a58fb99" x="162.472" y="131.484998" style="fill: #0000ff; stroke: #0000ff"/>
     <use xlink:href="#m250a58fb99" x="169.51475" y="129.756268" style="fill: #0000ff; stroke: #0000ff"/>
     <use xlink:href="#m250a58fb99" x="176.5575" y="128.446873" style="fill: #0000ff; stroke: #0000ff"/>
     <use xlink:href="#m250a58fb99" x="183.60025" y="125.339453" style="fill: #0000ff; stroke: #0000ff"/>
     <use xlink:href="#m250a58fb99" x="190.643" y="126.183929" style="fill: #0000ff; stroke: #0000ff"/>
     <use xlink:href="#m250a58fb99" x="197.68575" y="124.640374" style="fill: #0000ff; stroke: #0000ff"/>
     <use xlink:href="#m250a58fb99" x="204.7285" y="123.181679" style="fill: #0000ff; stroke: #0000ff"/>
     <use xlink:href="#m250a58fb99" x="211.77125" y="121.63124" style="fill: #0000ff; stroke: #0000ff"/>
     <use xlink:href="#m250a58fb99" x="218.814" y="119.537591" style="fill: #0000ff; stroke: #0000ff"/>
     <use xlink:href="#m250a58fb99" x="225.85675" y="118.600422" style="fill: #0000ff; stroke: #0000ff"/>
     <use xlink:href="#m250a58fb99" x="232.8995" y="115.809357" style="fill: #0000ff; stroke: #0000ff"/>
     <use xlink:href="#m250a58fb99" x="239.94225" y="114.260527" style="fill: #0000ff; stroke: #0000ff"/>
     <use xlink:href="#m250a58fb99" x="246.985" y="111.784419" style="fill: #0000ff; stroke: #0000ff"/>
     <use xlink:href="#m250a58fb99" x="254.02775" y="113.625257" style="fill: #0000ff; stroke: #0000ff"/>
     <use xlink:href="#m250a58fb99" x="261.0705" y="112.875031" style="fill: #0000ff; stroke: #0000ff"/>
     <use xlink:href="#m250a58fb99" x="268.11325" y="106.727323" style="fill: #0000ff; stroke: #0000ff"/>
     <use xlink:href="#m250a58fb99" x="275.156" y="102.352687" style="fill: #0000ff; stroke: #0000ff"/>
     <use xlink:href="#m250a58fb99" x="282.19875" y="100.263813" style="fill: #0000ff; stroke: #0000ff"/>
     <use xlink:href="#m250a58fb99" x="289.2415" y="97.374832" style="fill: #0000ff; stroke: #0000ff"/>
     <use xlink:href="#m250a58fb99" x="296.28425" y="96.114053" style="fill: #0000ff; stroke: #0000ff"/>
     <use xlink:href="#m250a58fb99" x="303.327" y="95.448686" style="fill: #0000ff; stroke: #0000ff"/>
     <use xlink:href="#m250a58fb99" x="310.36975" y="93.457386" style="fill: #0000ff; stroke: #0000ff"/>
     <use xlink:href="#m250a58fb99" x="317.4125" y="92.714677" style="fill: #0000ff; stroke: #0000ff"/>
     <use xlink:href="#m250a58fb99" x="324.45525" y="91.955852" style="fill: #0000ff; stroke: #0000ff"/>
     <use xlink:href="#m250a58fb99" x="331.498" y="90.812061" style="fill: #0000ff; stroke: #0000ff"/>
     <use xlink:href="#m250a58fb99" x="338.54075" y="89.48866" style="fill: #0000ff; stroke: #0000ff"/>
     <use xlink:href="#m250a58fb99" x="345.5835" y="88.231337" style="fill: #0000ff; stroke: #0000ff"/>
     <use xlink:href="#m250a58fb99" x="352.62625" y="88.016459" style="fill: #0000ff; stroke: #0000ff"/>
     <use xlink:href="#m250a58fb99" x="359.669" y="86.722443" style="fill: #0000ff; stroke: #0000ff"/>
     <use xlink:href="#m250a58fb99" x="366.71175" y="86.326109" style="fill: #0000ff; stroke: #0000ff"/>
     <use xlink:href="#m250a58fb99" x="373.7545" y="85.928666" style="fill: #0000ff; stroke: #0000ff"/>
     <use xlink:href="#m250a58fb99" x="380.79725" y="84.757099" style="fill: #0000ff; stroke: #0000ff"/>
     <use xlink:href="#m250a58fb99" x="387.84" y="84.029479" style="fill: #0000ff; stroke: #0000ff"/>
     <use xlink:href="#m250a58fb99" x="394.88275" y="83.086137" style="fill: #0000ff; stroke: #0000ff"/>
     <use xlink:href="#m250a58fb99" x="401.9255" y="82.53876" style="fill: #0000ff; stroke: #0000ff"/>
     <use xlink:href="#m250a58fb99" x="408.96825" y="82.003729" style="fill: #0000ff; stroke: #0000ff"/>
     <use xlink:href="#m250a58fb99" x="416.011" y="82.417367" style="fill: #0000ff; stroke: #0000ff"/>
     <use xlink:href="#m250a58fb99" x="423.05375" y="81.394626" style="fill: #0000ff; stroke: #0000ff"/>
     <use xlink:href="#m250a58fb99" x="430.0965" y="81.319395" style="fill: #0000ff; stroke: #0000ff"/>
     <use xlink:href="#m250a58fb99" x="437.13925" y="80.279878" style="fill: #0000ff; stroke: #0000ff"/>
     <use xlink:href="#m250a58fb99" x="444.182" y="79.974865" style="fill: #0000ff; stroke: #0000ff"/>
     <use xlink:href="#m250a58fb99" x="451.22475" y="79.555608" style="fill: #0000ff; stroke: #0000ff"/>
     <use xlink:href="#m250a58fb99" x="458.2675" y="79.163626" style="fill: #0000ff; stroke: #0000ff"/>
     <use xlink:href="#m250a58fb99" x="465.31025" y="78.66439" style="fill: #0000ff; stroke: #0000ff"/>
     <use xlink:href="#m250a58fb99" x="472.353" y="78.656503" style="fill: #0000ff; stroke: #0000ff"/>
     <use xlink:href="#m250a58fb99" x="479.39575" y="78.225929" style="fill: #0000ff; stroke: #0000ff"/>
     <use xlink:href="#m250a58fb99" x="486.4385" y="77.621575" style="fill: #0000ff; stroke: #0000ff"/>
     <use xlink:href="#m250a58fb99" x="493.48125" y="77.638747" style="fill: #0000ff; stroke: #0000ff"/>
     <use xlink:href="#m250a58fb99" x="500.524" y="77.370928" style="fill: #0000ff; stroke: #0000ff"/>
     <use xlink:href="#m250a58fb99" x="507.56675" y="77.058556" style="fill: #0000ff; stroke: #0000ff"/>
     <use xlink:href="#m250a58fb99" x="514.6095" y="76.284246" style="fill: #0000ff; stroke: #0000ff"/>
     <use xlink:href="#m250a58fb99" x="521.65225" y="76.019619" style="fill: #0000ff; stroke: #0000ff"/>
     <use xlink:href="#m250a58fb99" x="528.695" y="75.820779" style="fill: #0000ff; stroke: #0000ff"/>
     <use xlink:href="#m250a58fb99" x="535.73775" y="75.950982" style="fill: #0000ff; stroke: #0000ff"/>
     <use xlink:href="#m250a58fb99" x="542.7805" y="76.04328" style="fill: #0000ff; stroke: #0000ff"/>
     <use xlink:href="#m250a58fb99" x="549.82325" y="75.845812" style="fill: #0000ff; stroke: #0000ff"/>
     <use xlink:href="#m250a58fb99" x="556.866" y="75.462007" style="fill: #0000ff; stroke: #0000ff"/>
     <use xlink:href="#m250a58fb99" x="563.90875" y="74.748948" style="fill: #0000ff; stroke: #0000ff"/>
     <use xlink:href="#m250a58fb99" x="570.9515" y="74.509881" style="fill: #0000ff; stroke: #0000ff"/>
     <use xlink:href="#m250a58fb99" x="577.99425" y="74.660027" style="fill: #0000ff; stroke: #0000ff"/>
     <use xlink:href="#m250a58fb99" x="585.037" y="74.488383" style="fill: #0000ff; stroke: #0000ff"/>
     <use xlink:href="#m250a58fb99" x="592.07975" y="74.853011" style="fill: #0000ff; stroke: #0000ff"/>
     <use xlink:href="#m250a58fb99" x="599.1225" y="74.122727" style="fill: #0000ff; stroke: #0000ff"/>
     <use xlink:href="#m250a58fb99" x="606.16525" y="74.077804" style="fill: #0000ff; stroke: #0000ff"/>
     <use xlink:href="#m250a58fb99" x="613.208" y="73.91323" style="fill: #0000ff; stroke: #0000ff"/>
     <use xlink:href="#m250a58fb99" x="620.25075" y="73.624018" style="fill: #0000ff; stroke: #0000ff"/>
     <use xlink:href="#m250a58fb99" x="627.2935" y="73.394157" style="fill: #0000ff; stroke: #0000ff"/>
     <use xlink:href="#m250a58fb99" x="634.33625" y="73.610855" style="fill: #0000ff; stroke: #0000ff"/>
     <use xlink:href="#m250a58fb99" x="641.379" y="73.685611" style="fill: #0000ff; stroke: #0000ff"/>
     <use xlink:href="#m250a58fb99" x="648.42175" y="73.030479" style="fill: #0000ff; stroke: #0000ff"/>
     <use xlink:href="#m250a58fb99" x="655.4645" y="73.051951" style="fill: #0000ff; stroke: #0000ff"/>
     <use xlink:href="#m250a58fb99" x="662.50725" y="72.907107" style="fill: #0000ff; stroke: #0000ff"/>
     <use xlink:href="#m250a58fb99" x="669.55" y="72.9151" style="fill: #0000ff; stroke: #0000ff"/>
     <use xlink:href="#m250a58fb99" x="676.59275" y="72.744986" style="fill: #0000ff; stroke: #0000ff"/>
     <use xlink:href="#m250a58fb99" x="683.6355" y="72.552583" style="fill: #0000ff; stroke: #0000ff"/>
     <use xlink:href="#m250a58fb99" x="690.67825" y="72.482311" style="fill: #0000ff; stroke: #0000ff"/>
     <use xlink:href="#m250a58fb99" x="697.721" y="72.327259" style="fill: #0000ff; stroke: #0000ff"/>
     <use xlink:href="#m250a58fb99" x="704.76375" y="72.029157" style="fill: #0000ff; stroke: #0000ff"/>
     <use xlink:href="#m250a58fb99" x="711.8065" y="72.144774" style="fill: #0000ff; stroke: #0000ff"/>
     <use xlink:href="#m250a58fb99" x="718.84925" y="71.6721" style="fill: #0000ff; stroke: #0000ff"/>
     <use xlink:href="#m250a58fb99" x="725.892" y="71.952317" style="fill: #0000ff; stroke: #0000ff"/>
     <use xlink:href="#m250a58fb99" x="732.93475" y="71.707553" style="fill: #0000ff; stroke: #0000ff"/>
     <use xlink:href="#m250a58fb99" x="739.9775" y="71.767854" style="fill: #0000ff; stroke: #0000ff"/>
     <use xlink:href="#m250a58fb99" x="747.02025" y="71.300245" style="fill: #0000ff; stroke: #0000ff"/>
     <use xlink:href="#m250a58fb99" x="754.063" y="71.650998" style="fill: #0000ff; stroke: #0000ff"/>
     <use xlink:href="#m250a58fb99" x="761.10575" y="71.295418" style="fill: #0000ff; stroke: #0000ff"/>
     <use xlink:href="#m250a58fb99" x="768.1485" y="71.846224" style="fill: #0000ff; stroke: #0000ff"/>
     <use xlink:href="#m250a58fb99" x="775.19125" y="70.86983" style="fill: #0000ff; stroke: #0000ff"/>
     <use xlink:href="#m250a58fb99" x="782.234" y="70.978192" style="fill: #0000ff; stroke: #0000ff"/>
     <use xlink:href="#m250a58fb99" x="789.27675" y="71.12744" style="fill: #0000ff; stroke: #0000ff"/>
     <use xlink:href="#m250a58fb99" x="796.3195" y="70.72678" style="fill: #0000ff; stroke: #0000ff"/>
     <use xlink:href="#m250a58fb99" x="803.36225" y="71.337649" style="fill: #0000ff; stroke: #0000ff"/>
     <use xlink:href="#m250a58fb99" x="810.405" y="71.062814" style="fill: #0000ff; stroke: #0000ff"/>
    </g>
   </g>
   <g id="line2d_27">
    <path d="M 113.17275 73.693314 
L 120.2155 73.66282 
L 127.25825 73.605289 
L 134.301 74.123623 
L 141.34375 73.266064 
L 148.3865 74.32671 
L 155.42925 74.037525 
L 162.472 73.701755 
L 169.51475 73.325283 
L 176.5575 73.886825 
L 183.60025 73.658653 
L 190.643 74.532646 
L 197.68575 73.790333 
L 204.7285 73.895372 
L 211.77125 74.379203 
L 218.814 73.614733 
L 225.85675 73.718452 
L 232.8995 73.465167 
L 239.94225 73.615814 
L 246.985 73.745358 
L 254.02775 73.564561 
L 261.0705 75.259052 
L 268.11325 74.426288 
L 275.156 74.659948 
L 282.19875 74.886168 
L 289.2415 74.246705 
L 296.28425 74.466067 
L 303.327 75.169261 
L 310.36975 74.276539 
L 317.4125 74.438871 
L 324.45525 74.539874 
L 331.498 74.140954 
L 338.54075 74.316027 
L 345.5835 74.363798 
L 352.62625 73.995794 
L 359.669 73.875693 
L 366.71175 74.123861 
L 373.7545 73.79735 
L 380.79725 73.005235 
L 387.84 73.411699 
L 394.88275 73.70186 
L 401.9255 73.651662 
L 408.96825 73.824414 
L 416.011 73.679755 
L 423.05375 73.534885 
L 430.0965 74.003708 
L 437.13925 73.188327 
L 444.182 72.599536 
L 451.22475 72.934383 
L 458.2675 73.659127 
L 465.31025 72.958018 
L 472.353 73.455645 
L 479.39575 73.365589 
L 486.4385 72.903045 
L 493.48125 73.484687 
L 500.524 72.488589 
L 507.56675 72.426864 
L 514.6095 71.871283 
L 521.65225 72.179303 
L 528.695 71.121584 
L 535.73775 72.755669 
L 542.7805 72.642717 
L 549.82325 72.364795 
L 556.866 71.451023 
L 563.90875 71.611826 
L 570.9515 70.922534 
L 577.99425 71.925965 
L 585.037 71.138941 
L 592.07975 71.750444 
L 599.1225 71.950893 
L 606.16525 71.085288 
L 613.208 71.492939 
L 620.25075 70.89088 
L 627.2935 71.402355 
L 634.33625 71.295233 
L 641.379 71.276452 
L 648.42175 71.003673 
L 655.4645 71.262735 
L 662.50725 71.181068 
L 669.55 71.308475 
L 676.59275 71.213539 
L 683.6355 70.882518 
L 690.67825 72.587587 
L 697.721 71.158804 
L 704.76375 70.694361 
L 711.8065 71.598188 
L 718.84925 71.237544 
L 725.892 71.278641 
L 732.93475 71.532955 
L 739.9775 71.018181 
L 747.02025 70.781357 
L 754.063 71.472812 
L 761.10575 71.315017 
L 768.1485 70.819684 
L 775.19125 71.546619 
L 782.234 70.466927 
L 789.27675 70.382806 
L 796.3195 70.912932 
L 803.36225 70.639151 
L 810.405 70.823034 
" clip-path="url(#p2c93227577)" style="fill: none; stroke-dasharray: 5.55,2.4; stroke-dashoffset: 0; stroke: #ff0000; stroke-width: 1.5"/>
   </g>
   <g id="line2d_28">
    <path d="M 113.17275 168.922738 
L 120.2155 161.017494 
L 127.25825 158.084092 
L 134.301 156.833073 
L 141.34375 152.91779 
L 148.3865 153.661289 
L 155.42925 158.6024 
L 162.472 156.960269 
L 169.51475 163.653402 
L 176.5575 148.71005 
L 183.60025 150.384626 
L 190.643 154.164746 
L 197.68575 170.75168 
L 204.7285 155.871741 
L 211.77125 154.312439 
L 218.814 156.962934 
L 225.85675 148.147585 
L 232.8995 156.745048 
L 239.94225 153.793287 
L 246.985 149.572938 
L 254.02775 168.298205 
L 261.0705 156.14721 
L 268.11325 152.827681 
L 275.156 154.193973 
L 282.19875 162.675742 
L 289.2415 156.807328 
L 296.28425 151.603859 
L 303.327 148.809865 
L 310.36975 157.720361 
L 317.4125 156.490629 
L 324.45525 158.18797 
L 331.498 156.642252 
L 338.54075 152.449337 
L 345.5835 149.115247 
L 352.62625 152.407527 
L 359.669 154.804606 
L 366.71175 156.609279 
L 373.7545 144.575536 
L 380.79725 156.17095 
L 387.84 149.383832 
L 394.88275 149.467847 
L 401.9255 152.499825 
L 408.96825 155.328875 
L 416.011 152.045485 
L 423.05375 153.529292 
L 430.0965 154.866885 
L 437.13925 151.782413 
L 444.182 147.695407 
L 451.22475 156.670345 
L 458.2675 150.772651 
L 465.31025 153.022248 
L 472.353 149.447483 
L 479.39575 156.039296 
L 486.4385 151.77785 
L 493.48125 148.830203 
L 500.524 150.62211 
L 507.56675 154.279729 
L 514.6095 151.3396 
L 521.65225 155.229613 
L 528.695 155.407509 
L 535.73775 156.858792 
L 542.7805 159.364153 
L 549.82325 152.993627 
L 556.866 151.074208 
L 563.90875 152.617446 
L 570.9515 154.033382 
L 577.99425 150.748752 
L 585.037 155.088146 
L 592.07975 153.438155 
L 599.1225 149.823769 
L 606.16525 154.645386 
L 613.208 150.775051 
L 620.25075 154.888937 
L 627.2935 153.735439 
L 634.33625 153.517897 
L 641.379 157.417459 
L 648.42175 152.851211 
L 655.4645 150.138463 
L 662.50725 156.779024 
L 669.55 159.126142 
L 676.59275 153.163029 
L 683.6355 155.97095 
L 690.67825 153.670337 
L 697.721 150.950441 
L 704.76375 156.770873 
L 711.8065 154.828821 
L 718.84925 155.552906 
L 725.892 154.51112 
L 732.93475 155.892633 
L 739.9775 152.331294 
L 747.02025 152.512038 
L 754.063 151.931926 
L 761.10575 153.202887 
L 768.1485 155.862931 
L 775.19125 150.607575 
L 782.234 153.206949 
L 789.27675 151.031238 
L 796.3195 153.60149 
L 803.36225 155.364011 
L 810.405 155.258418 
" clip-path="url(#p2c93227577)" style="fill: none; stroke: #ff0000; stroke-width: 1.5; stroke-linecap: square"/>
    <defs>
     <path id="m08819b67c6" d="M 0 1.5 
C 0.397805 1.5 0.77937 1.341951 1.06066 1.06066 
C 1.341951 0.77937 1.5 0.397805 1.5 0 
C 1.5 -0.397805 1.341951 -0.77937 1.06066 -1.06066 
C 0.77937 -1.341951 0.397805 -1.5 0 -1.5 
C -0.397805 -1.5 -0.77937 -1.341951 -1.06066 -1.06066 
C -1.341951 -0.77937 -1.5 -0.397805 -1.5 0 
C -1.5 0.397805 -1.341951 0.77937 -1.06066 1.06066 
C -0.77937 1.341951 -0.397805 1.5 0 1.5 
z
" style="stroke: #ff0000"/>
    </defs>
    <g clip-path="url(#p2c93227577)">
     <use xlink:href="#m08819b67c6" x="113.17275" y="168.922738" style="fill: #ff0000; stroke: #ff0000"/>
     <use xlink:href="#m08819b67c6" x="120.2155" y="161.017494" style="fill: #ff0000; stroke: #ff0000"/>
     <use xlink:href="#m08819b67c6" x="127.25825" y="158.084092" style="fill: #ff0000; stroke: #ff0000"/>
     <use xlink:href="#m08819b67c6" x="134.301" y="156.833073" style="fill: #ff0000; stroke: #ff0000"/>
     <use xlink:href="#m08819b67c6" x="141.34375" y="152.91779" style="fill: #ff0000; stroke: #ff0000"/>
     <use xlink:href="#m08819b67c6" x="148.3865" y="153.661289" style="fill: #ff0000; stroke: #ff0000"/>
     <use xlink:href="#m08819b67c6" x="155.42925" y="158.6024" style="fill: #ff0000; stroke: #ff0000"/>
     <use xlink:href="#m08819b67c6" x="162.472" y="156.960269" style="fill: #ff0000; stroke: #ff0000"/>
     <use xlink:href="#m08819b67c6" x="169.51475" y="163.653402" style="fill: #ff0000; stroke: #ff0000"/>
     <use xlink:href="#m08819b67c6" x="176.5575" y="148.71005" style="fill: #ff0000; stroke: #ff0000"/>
     <use xlink:href="#m08819b67c6" x="183.60025" y="150.384626" style="fill: #ff0000; stroke: #ff0000"/>
     <use xlink:href="#m08819b67c6" x="190.643" y="154.164746" style="fill: #ff0000; stroke: #ff0000"/>
     <use xlink:href="#m08819b67c6" x="197.68575" y="170.75168" style="fill: #ff0000; stroke: #ff0000"/>
     <use xlink:href="#m08819b67c6" x="204.7285" y="155.871741" style="fill: #ff0000; stroke: #ff0000"/>
     <use xlink:href="#m08819b67c6" x="211.77125" y="154.312439" style="fill: #ff0000; stroke: #ff0000"/>
     <use xlink:href="#m08819b67c6" x="218.814" y="156.962934" style="fill: #ff0000; stroke: #ff0000"/>
     <use xlink:href="#m08819b67c6" x="225.85675" y="148.147585" style="fill: #ff0000; stroke: #ff0000"/>
     <use xlink:href="#m08819b67c6" x="232.8995" y="156.745048" style="fill: #ff0000; stroke: #ff0000"/>
     <use xlink:href="#m08819b67c6" x="239.94225" y="153.793287" style="fill: #ff0000; stroke: #ff0000"/>
     <use xlink:href="#m08819b67c6" x="246.985" y="149.572938" style="fill: #ff0000; stroke: #ff0000"/>
     <use xlink:href="#m08819b67c6" x="254.02775" y="168.298205" style="fill: #ff0000; stroke: #ff0000"/>
     <use xlink:href="#m08819b67c6" x="261.0705" y="156.14721" style="fill: #ff0000; stroke: #ff0000"/>
     <use xlink:href="#m08819b67c6" x="268.11325" y="152.827681" style="fill: #ff0000; stroke: #ff0000"/>
     <use xlink:href="#m08819b67c6" x="275.156" y="154.193973" style="fill: #ff0000; stroke: #ff0000"/>
     <use xlink:href="#m08819b67c6" x="282.19875" y="162.675742" style="fill: #ff0000; stroke: #ff0000"/>
     <use xlink:href="#m08819b67c6" x="289.2415" y="156.807328" style="fill: #ff0000; stroke: #ff0000"/>
     <use xlink:href="#m08819b67c6" x="296.28425" y="151.603859" style="fill: #ff0000; stroke: #ff0000"/>
     <use xlink:href="#m08819b67c6" x="303.327" y="148.809865" style="fill: #ff0000; stroke: #ff0000"/>
     <use xlink:href="#m08819b67c6" x="310.36975" y="157.720361" style="fill: #ff0000; stroke: #ff0000"/>
     <use xlink:href="#m08819b67c6" x="317.4125" y="156.490629" style="fill: #ff0000; stroke: #ff0000"/>
     <use xlink:href="#m08819b67c6" x="324.45525" y="158.18797" style="fill: #ff0000; stroke: #ff0000"/>
     <use xlink:href="#m08819b67c6" x="331.498" y="156.642252" style="fill: #ff0000; stroke: #ff0000"/>
     <use xlink:href="#m08819b67c6" x="338.54075" y="152.449337" style="fill: #ff0000; stroke: #ff0000"/>
     <use xlink:href="#m08819b67c6" x="345.5835" y="149.115247" style="fill: #ff0000; stroke: #ff0000"/>
     <use xlink:href="#m08819b67c6" x="352.62625" y="152.407527" style="fill: #ff0000; stroke: #ff0000"/>
     <use xlink:href="#m08819b67c6" x="359.669" y="154.804606" style="fill: #ff0000; stroke: #ff0000"/>
     <use xlink:href="#m08819b67c6" x="366.71175" y="156.609279" style="fill: #ff0000; stroke: #ff0000"/>
     <use xlink:href="#m08819b67c6" x="373.7545" y="144.575536" style="fill: #ff0000; stroke: #ff0000"/>
     <use xlink:href="#m08819b67c6" x="380.79725" y="156.17095" style="fill: #ff0000; stroke: #ff0000"/>
     <use xlink:href="#m08819b67c6" x="387.84" y="149.383832" style="fill: #ff0000; stroke: #ff0000"/>
     <use xlink:href="#m08819b67c6" x="394.88275" y="149.467847" style="fill: #ff0000; stroke: #ff0000"/>
     <use xlink:href="#m08819b67c6" x="401.9255" y="152.499825" style="fill: #ff0000; stroke: #ff0000"/>
     <use xlink:href="#m08819b67c6" x="408.96825" y="155.328875" style="fill: #ff0000; stroke: #ff0000"/>
     <use xlink:href="#m08819b67c6" x="416.011" y="152.045485" style="fill: #ff0000; stroke: #ff0000"/>
     <use xlink:href="#m08819b67c6" x="423.05375" y="153.529292" style="fill: #ff0000; stroke: #ff0000"/>
     <use xlink:href="#m08819b67c6" x="430.0965" y="154.866885" style="fill: #ff0000; stroke: #ff0000"/>
     <use xlink:href="#m08819b67c6" x="437.13925" y="151.782413" style="fill: #ff0000; stroke: #ff0000"/>
     <use xlink:href="#m08819b67c6" x="444.182" y="147.695407" style="fill: #ff0000; stroke: #ff0000"/>
     <use xlink:href="#m08819b67c6" x="451.22475" y="156.670345" style="fill: #ff0000; stroke: #ff0000"/>
     <use xlink:href="#m08819b67c6" x="458.2675" y="150.772651" style="fill: #ff0000; stroke: #ff0000"/>
     <use xlink:href="#m08819b67c6" x="465.31025" y="153.022248" style="fill: #ff0000; stroke: #ff0000"/>
     <use xlink:href="#m08819b67c6" x="472.353" y="149.447483" style="fill: #ff0000; stroke: #ff0000"/>
     <use xlink:href="#m08819b67c6" x="479.39575" y="156.039296" style="fill: #ff0000; stroke: #ff0000"/>
     <use xlink:href="#m08819b67c6" x="486.4385" y="151.77785" style="fill: #ff0000; stroke: #ff0000"/>
     <use xlink:href="#m08819b67c6" x="493.48125" y="148.830203" style="fill: #ff0000; stroke: #ff0000"/>
     <use xlink:href="#m08819b67c6" x="500.524" y="150.62211" style="fill: #ff0000; stroke: #ff0000"/>
     <use xlink:href="#m08819b67c6" x="507.56675" y="154.279729" style="fill: #ff0000; stroke: #ff0000"/>
     <use xlink:href="#m08819b67c6" x="514.6095" y="151.3396" style="fill: #ff0000; stroke: #ff0000"/>
     <use xlink:href="#m08819b67c6" x="521.65225" y="155.229613" style="fill: #ff0000; stroke: #ff0000"/>
     <use xlink:href="#m08819b67c6" x="528.695" y="155.407509" style="fill: #ff0000; stroke: #ff0000"/>
     <use xlink:href="#m08819b67c6" x="535.73775" y="156.858792" style="fill: #ff0000; stroke: #ff0000"/>
     <use xlink:href="#m08819b67c6" x="542.7805" y="159.364153" style="fill: #ff0000; stroke: #ff0000"/>
     <use xlink:href="#m08819b67c6" x="549.82325" y="152.993627" style="fill: #ff0000; stroke: #ff0000"/>
     <use xlink:href="#m08819b67c6" x="556.866" y="151.074208" style="fill: #ff0000; stroke: #ff0000"/>
     <use xlink:href="#m08819b67c6" x="563.90875" y="152.617446" style="fill: #ff0000; stroke: #ff0000"/>
     <use xlink:href="#m08819b67c6" x="570.9515" y="154.033382" style="fill: #ff0000; stroke: #ff0000"/>
     <use xlink:href="#m08819b67c6" x="577.99425" y="150.748752" style="fill: #ff0000; stroke: #ff0000"/>
     <use xlink:href="#m08819b67c6" x="585.037" y="155.088146" style="fill: #ff0000; stroke: #ff0000"/>
     <use xlink:href="#m08819b67c6" x="592.07975" y="153.438155" style="fill: #ff0000; stroke: #ff0000"/>
     <use xlink:href="#m08819b67c6" x="599.1225" y="149.823769" style="fill: #ff0000; stroke: #ff0000"/>
     <use xlink:href="#m08819b67c6" x="606.16525" y="154.645386" style="fill: #ff0000; stroke: #ff0000"/>
     <use xlink:href="#m08819b67c6" x="613.208" y="150.775051" style="fill: #ff0000; stroke: #ff0000"/>
     <use xlink:href="#m08819b67c6" x="620.25075" y="154.888937" style="fill: #ff0000; stroke: #ff0000"/>
     <use xlink:href="#m08819b67c6" x="627.2935" y="153.735439" style="fill: #ff0000; stroke: #ff0000"/>
     <use xlink:href="#m08819b67c6" x="634.33625" y="153.517897" style="fill: #ff0000; stroke: #ff0000"/>
     <use xlink:href="#m08819b67c6" x="641.379" y="157.417459" style="fill: #ff0000; stroke: #ff0000"/>
     <use xlink:href="#m08819b67c6" x="648.42175" y="152.851211" style="fill: #ff0000; stroke: #ff0000"/>
     <use xlink:href="#m08819b67c6" x="655.4645" y="150.138463" style="fill: #ff0000; stroke: #ff0000"/>
     <use xlink:href="#m08819b67c6" x="662.50725" y="156.779024" style="fill: #ff0000; stroke: #ff0000"/>
     <use xlink:href="#m08819b67c6" x="669.55" y="159.126142" style="fill: #ff0000; stroke: #ff0000"/>
     <use xlink:href="#m08819b67c6" x="676.59275" y="153.163029" style="fill: #ff0000; stroke: #ff0000"/>
     <use xlink:href="#m08819b67c6" x="683.6355" y="155.97095" style="fill: #ff0000; stroke: #ff0000"/>
     <use xlink:href="#m08819b67c6" x="690.67825" y="153.670337" style="fill: #ff0000; stroke: #ff0000"/>
     <use xlink:href="#m08819b67c6" x="697.721" y="150.950441" style="fill: #ff0000; stroke: #ff0000"/>
     <use xlink:href="#m08819b67c6" x="704.76375" y="156.770873" style="fill: #ff0000; stroke: #ff0000"/>
     <use xlink:href="#m08819b67c6" x="711.8065" y="154.828821" style="fill: #ff0000; stroke: #ff0000"/>
     <use xlink:href="#m08819b67c6" x="718.84925" y="155.552906" style="fill: #ff0000; stroke: #ff0000"/>
     <use xlink:href="#m08819b67c6" x="725.892" y="154.51112" style="fill: #ff0000; stroke: #ff0000"/>
     <use xlink:href="#m08819b67c6" x="732.93475" y="155.892633" style="fill: #ff0000; stroke: #ff0000"/>
     <use xlink:href="#m08819b67c6" x="739.9775" y="152.331294" style="fill: #ff0000; stroke: #ff0000"/>
     <use xlink:href="#m08819b67c6" x="747.02025" y="152.512038" style="fill: #ff0000; stroke: #ff0000"/>
     <use xlink:href="#m08819b67c6" x="754.063" y="151.931926" style="fill: #ff0000; stroke: #ff0000"/>
     <use xlink:href="#m08819b67c6" x="761.10575" y="153.202887" style="fill: #ff0000; stroke: #ff0000"/>
     <use xlink:href="#m08819b67c6" x="768.1485" y="155.862931" style="fill: #ff0000; stroke: #ff0000"/>
     <use xlink:href="#m08819b67c6" x="775.19125" y="150.607575" style="fill: #ff0000; stroke: #ff0000"/>
     <use xlink:href="#m08819b67c6" x="782.234" y="153.206949" style="fill: #ff0000; stroke: #ff0000"/>
     <use xlink:href="#m08819b67c6" x="789.27675" y="151.031238" style="fill: #ff0000; stroke: #ff0000"/>
     <use xlink:href="#m08819b67c6" x="796.3195" y="153.60149" style="fill: #ff0000; stroke: #ff0000"/>
     <use xlink:href="#m08819b67c6" x="803.36225" y="155.364011" style="fill: #ff0000; stroke: #ff0000"/>
     <use xlink:href="#m08819b67c6" x="810.405" y="155.258418" style="fill: #ff0000; stroke: #ff0000"/>
    </g>
   </g>
   <g id="line2d_29">
    <path d="M 113.17275 394.428362 
L 120.2155 394.344841 
L 127.25825 394.349141 
L 134.301 394.423805 
L 141.34375 394.398772 
L 148.3865 394.328995 
L 155.42925 394.338069 
L 162.472 394.373403 
L 169.51475 394.339711 
L 176.5575 394.348027 
L 183.60025 394.341979 
L 190.643 394.361282 
L 197.68575 394.360972 
L 204.7285 394.334363 
L 211.77125 394.377201 
L 218.814 394.407035 
L 225.85675 394.342335 
L 232.8995 394.365384 
L 239.94225 394.340087 
L 246.985 394.296094 
L 254.02775 394.372895 
L 261.0705 394.352366 
L 268.11325 394.364757 
L 275.156 394.414638 
L 282.19875 394.376713 
L 289.2415 394.383466 
L 296.28425 394.399135 
L 303.327 394.398323 
L 310.36975 394.3761 
L 317.4125 394.302808 
L 324.45525 394.36328 
L 331.498 394.397961 
L 338.54075 394.408176 
L 345.5835 394.331408 
L 352.62625 394.358578 
L 359.669 394.352999 
L 366.71175 394.375869 
L 373.7545 394.436282 
L 380.79725 394.390291 
L 387.84 394.373205 
L 394.88275 394.392975 
L 401.9255 394.349069 
L 408.96825 394.337904 
L 416.011 394.369657 
L 423.05375 394.419209 
L 430.0965 394.379615 
L 437.13925 394.405452 
L 444.182 394.324345 
L 451.22475 394.341782 
L 458.2675 394.387482 
L 465.31025 394.382569 
L 472.353 394.381699 
L 479.39575 394.3047 
L 486.4385 394.364632 
L 493.48125 394.354311 
L 500.524 394.379575 
L 507.56675 394.417824 
L 514.6095 394.439091 
L 521.65225 394.375882 
L 528.695 394.364539 
L 535.73775 394.34653 
L 542.7805 394.325948 
L 549.82325 394.392362 
L 556.866 394.298198 
L 563.90875 394.385754 
L 570.9515 394.344248 
L 577.99425 394.332918 
L 585.037 394.405274 
L 592.07975 394.383809 
L 599.1225 394.369492 
L 606.16525 394.426594 
L 613.208 394.354799 
L 620.25075 394.370666 
L 627.2935 394.409376 
L 634.33625 394.352729 
L 641.379 394.377274 
L 648.42175 394.405564 
L 655.4645 394.357661 
L 662.50725 394.39312 
L 669.55 394.322565 
L 676.59275 394.365173 
L 683.6355 394.345237 
L 690.67825 394.370283 
L 697.721 394.377973 
L 704.76375 394.328869 
L 711.8065 394.305531 
L 718.84925 394.358829 
L 725.892 394.298686 
L 732.93475 394.382226 
L 739.9775 394.343417 
L 747.02025 394.321879 
L 754.063 394.465601 
L 761.10575 394.348785 
L 768.1485 394.370376 
L 775.19125 394.383538 
L 782.234 394.372229 
L 789.27675 394.323752 
L 796.3195 394.350981 
L 803.36225 394.37329 
L 810.405 394.361552 
" clip-path="url(#p2c93227577)" style="fill: none; stroke: #008000; stroke-width: 1.5; stroke-linecap: square"/>
    <defs>
     <path id="m754ce6dbf5" d="M 0 1.5 
C 0.397805 1.5 0.77937 1.341951 1.06066 1.06066 
C 1.341951 0.77937 1.5 0.397805 1.5 0 
C 1.5 -0.397805 1.341951 -0.77937 1.06066 -1.06066 
C 0.77937 -1.341951 0.397805 -1.5 0 -1.5 
C -0.397805 -1.5 -0.77937 -1.341951 -1.06066 -1.06066 
C -1.341951 -0.77937 -1.5 -0.397805 -1.5 0 
C -1.5 0.397805 -1.341951 0.77937 -1.06066 1.06066 
C -0.77937 1.341951 -0.397805 1.5 0 1.5 
z
" style="stroke: #008000"/>
    </defs>
    <g clip-path="url(#p2c93227577)">
     <use xlink:href="#m754ce6dbf5" x="113.17275" y="394.428362" style="fill: #008000; stroke: #008000"/>
     <use xlink:href="#m754ce6dbf5" x="120.2155" y="394.344841" style="fill: #008000; stroke: #008000"/>
     <use xlink:href="#m754ce6dbf5" x="127.25825" y="394.349141" style="fill: #008000; stroke: #008000"/>
     <use xlink:href="#m754ce6dbf5" x="134.301" y="394.423805" style="fill: #008000; stroke: #008000"/>
     <use xlink:href="#m754ce6dbf5" x="141.34375" y="394.398772" style="fill: #008000; stroke: #008000"/>
     <use xlink:href="#m754ce6dbf5" x="148.3865" y="394.328995" style="fill: #008000; stroke: #008000"/>
     <use xlink:href="#m754ce6dbf5" x="155.42925" y="394.338069" style="fill: #008000; stroke: #008000"/>
     <use xlink:href="#m754ce6dbf5" x="162.472" y="394.373403" style="fill: #008000; stroke: #008000"/>
     <use xlink:href="#m754ce6dbf5" x="169.51475" y="394.339711" style="fill: #008000; stroke: #008000"/>
     <use xlink:href="#m754ce6dbf5" x="176.5575" y="394.348027" style="fill: #008000; stroke: #008000"/>
     <use xlink:href="#m754ce6dbf5" x="183.60025" y="394.341979" style="fill: #008000; stroke: #008000"/>
     <use xlink:href="#m754ce6dbf5" x="190.643" y="394.361282" style="fill: #008000; stroke: #008000"/>
     <use xlink:href="#m754ce6dbf5" x="197.68575" y="394.360972" style="fill: #008000; stroke: #008000"/>
     <use xlink:href="#m754ce6dbf5" x="204.7285" y="394.334363" style="fill: #008000; stroke: #008000"/>
     <use xlink:href="#m754ce6dbf5" x="211.77125" y="394.377201" style="fill: #008000; stroke: #008000"/>
     <use xlink:href="#m754ce6dbf5" x="218.814" y="394.407035" style="fill: #008000; stroke: #008000"/>
     <use xlink:href="#m754ce6dbf5" x="225.85675" y="394.342335" style="fill: #008000; stroke: #008000"/>
     <use xlink:href="#m754ce6dbf5" x="232.8995" y="394.365384" style="fill: #008000; stroke: #008000"/>
     <use xlink:href="#m754ce6dbf5" x="239.94225" y="394.340087" style="fill: #008000; stroke: #008000"/>
     <use xlink:href="#m754ce6dbf5" x="246.985" y="394.296094" style="fill: #008000; stroke: #008000"/>
     <use xlink:href="#m754ce6dbf5" x="254.02775" y="394.372895" style="fill: #008000; stroke: #008000"/>
     <use xlink:href="#m754ce6dbf5" x="261.0705" y="394.352366" style="fill: #008000; stroke: #008000"/>
     <use xlink:href="#m754ce6dbf5" x="268.11325" y="394.364757" style="fill: #008000; stroke: #008000"/>
     <use xlink:href="#m754ce6dbf5" x="275.156" y="394.414638" style="fill: #008000; stroke: #008000"/>
     <use xlink:href="#m754ce6dbf5" x="282.19875" y="394.376713" style="fill: #008000; stroke: #008000"/>
     <use xlink:href="#m754ce6dbf5" x="289.2415" y="394.383466" style="fill: #008000; stroke: #008000"/>
     <use xlink:href="#m754ce6dbf5" x="296.28425" y="394.399135" style="fill: #008000; stroke: #008000"/>
     <use xlink:href="#m754ce6dbf5" x="303.327" y="394.398323" style="fill: #008000; stroke: #008000"/>
     <use xlink:href="#m754ce6dbf5" x="310.36975" y="394.3761" style="fill: #008000; stroke: #008000"/>
     <use xlink:href="#m754ce6dbf5" x="317.4125" y="394.302808" style="fill: #008000; stroke: #008000"/>
     <use xlink:href="#m754ce6dbf5" x="324.45525" y="394.36328" style="fill: #008000; stroke: #008000"/>
     <use xlink:href="#m754ce6dbf5" x="331.498" y="394.397961" style="fill: #008000; stroke: #008000"/>
     <use xlink:href="#m754ce6dbf5" x="338.54075" y="394.408176" style="fill: #008000; stroke: #008000"/>
     <use xlink:href="#m754ce6dbf5" x="345.5835" y="394.331408" style="fill: #008000; stroke: #008000"/>
     <use xlink:href="#m754ce6dbf5" x="352.62625" y="394.358578" style="fill: #008000; stroke: #008000"/>
     <use xlink:href="#m754ce6dbf5" x="359.669" y="394.352999" style="fill: #008000; stroke: #008000"/>
     <use xlink:href="#m754ce6dbf5" x="366.71175" y="394.375869" style="fill: #008000; stroke: #008000"/>
     <use xlink:href="#m754ce6dbf5" x="373.7545" y="394.436282" style="fill: #008000; stroke: #008000"/>
     <use xlink:href="#m754ce6dbf5" x="380.79725" y="394.390291" style="fill: #008000; stroke: #008000"/>
     <use xlink:href="#m754ce6dbf5" x="387.84" y="394.373205" style="fill: #008000; stroke: #008000"/>
     <use xlink:href="#m754ce6dbf5" x="394.88275" y="394.392975" style="fill: #008000; stroke: #008000"/>
     <use xlink:href="#m754ce6dbf5" x="401.9255" y="394.349069" style="fill: #008000; stroke: #008000"/>
     <use xlink:href="#m754ce6dbf5" x="408.96825" y="394.337904" style="fill: #008000; stroke: #008000"/>
     <use xlink:href="#m754ce6dbf5" x="416.011" y="394.369657" style="fill: #008000; stroke: #008000"/>
     <use xlink:href="#m754ce6dbf5" x="423.05375" y="394.419209" style="fill: #008000; stroke: #008000"/>
     <use xlink:href="#m754ce6dbf5" x="430.0965" y="394.379615" style="fill: #008000; stroke: #008000"/>
     <use xlink:href="#m754ce6dbf5" x="437.13925" y="394.405452" style="fill: #008000; stroke: #008000"/>
     <use xlink:href="#m754ce6dbf5" x="444.182" y="394.324345" style="fill: #008000; stroke: #008000"/>
     <use xlink:href="#m754ce6dbf5" x="451.22475" y="394.341782" style="fill: #008000; stroke: #008000"/>
     <use xlink:href="#m754ce6dbf5" x="458.2675" y="394.387482" style="fill: #008000; stroke: #008000"/>
     <use xlink:href="#m754ce6dbf5" x="465.31025" y="394.382569" style="fill: #008000; stroke: #008000"/>
     <use xlink:href="#m754ce6dbf5" x="472.353" y="394.381699" style="fill: #008000; stroke: #008000"/>
     <use xlink:href="#m754ce6dbf5" x="479.39575" y="394.3047" style="fill: #008000; stroke: #008000"/>
     <use xlink:href="#m754ce6dbf5" x="486.4385" y="394.364632" style="fill: #008000; stroke: #008000"/>
     <use xlink:href="#m754ce6dbf5" x="493.48125" y="394.354311" style="fill: #008000; stroke: #008000"/>
     <use xlink:href="#m754ce6dbf5" x="500.524" y="394.379575" style="fill: #008000; stroke: #008000"/>
     <use xlink:href="#m754ce6dbf5" x="507.56675" y="394.417824" style="fill: #008000; stroke: #008000"/>
     <use xlink:href="#m754ce6dbf5" x="514.6095" y="394.439091" style="fill: #008000; stroke: #008000"/>
     <use xlink:href="#m754ce6dbf5" x="521.65225" y="394.375882" style="fill: #008000; stroke: #008000"/>
     <use xlink:href="#m754ce6dbf5" x="528.695" y="394.364539" style="fill: #008000; stroke: #008000"/>
     <use xlink:href="#m754ce6dbf5" x="535.73775" y="394.34653" style="fill: #008000; stroke: #008000"/>
     <use xlink:href="#m754ce6dbf5" x="542.7805" y="394.325948" style="fill: #008000; stroke: #008000"/>
     <use xlink:href="#m754ce6dbf5" x="549.82325" y="394.392362" style="fill: #008000; stroke: #008000"/>
     <use xlink:href="#m754ce6dbf5" x="556.866" y="394.298198" style="fill: #008000; stroke: #008000"/>
     <use xlink:href="#m754ce6dbf5" x="563.90875" y="394.385754" style="fill: #008000; stroke: #008000"/>
     <use xlink:href="#m754ce6dbf5" x="570.9515" y="394.344248" style="fill: #008000; stroke: #008000"/>
     <use xlink:href="#m754ce6dbf5" x="577.99425" y="394.332918" style="fill: #008000; stroke: #008000"/>
     <use xlink:href="#m754ce6dbf5" x="585.037" y="394.405274" style="fill: #008000; stroke: #008000"/>
     <use xlink:href="#m754ce6dbf5" x="592.07975" y="394.383809" style="fill: #008000; stroke: #008000"/>
     <use xlink:href="#m754ce6dbf5" x="599.1225" y="394.369492" style="fill: #008000; stroke: #008000"/>
     <use xlink:href="#m754ce6dbf5" x="606.16525" y="394.426594" style="fill: #008000; stroke: #008000"/>
     <use xlink:href="#m754ce6dbf5" x="613.208" y="394.354799" style="fill: #008000; stroke: #008000"/>
     <use xlink:href="#m754ce6dbf5" x="620.25075" y="394.370666" style="fill: #008000; stroke: #008000"/>
     <use xlink:href="#m754ce6dbf5" x="627.2935" y="394.409376" style="fill: #008000; stroke: #008000"/>
     <use xlink:href="#m754ce6dbf5" x="634.33625" y="394.352729" style="fill: #008000; stroke: #008000"/>
     <use xlink:href="#m754ce6dbf5" x="641.379" y="394.377274" style="fill: #008000; stroke: #008000"/>
     <use xlink:href="#m754ce6dbf5" x="648.42175" y="394.405564" style="fill: #008000; stroke: #008000"/>
     <use xlink:href="#m754ce6dbf5" x="655.4645" y="394.357661" style="fill: #008000; stroke: #008000"/>
     <use xlink:href="#m754ce6dbf5" x="662.50725" y="394.39312" style="fill: #008000; stroke: #008000"/>
     <use xlink:href="#m754ce6dbf5" x="669.55" y="394.322565" style="fill: #008000; stroke: #008000"/>
     <use xlink:href="#m754ce6dbf5" x="676.59275" y="394.365173" style="fill: #008000; stroke: #008000"/>
     <use xlink:href="#m754ce6dbf5" x="683.6355" y="394.345237" style="fill: #008000; stroke: #008000"/>
     <use xlink:href="#m754ce6dbf5" x="690.67825" y="394.370283" style="fill: #008000; stroke: #008000"/>
     <use xlink:href="#m754ce6dbf5" x="697.721" y="394.377973" style="fill: #008000; stroke: #008000"/>
     <use xlink:href="#m754ce6dbf5" x="704.76375" y="394.328869" style="fill: #008000; stroke: #008000"/>
     <use xlink:href="#m754ce6dbf5" x="711.8065" y="394.305531" style="fill: #008000; stroke: #008000"/>
     <use xlink:href="#m754ce6dbf5" x="718.84925" y="394.358829" style="fill: #008000; stroke: #008000"/>
     <use xlink:href="#m754ce6dbf5" x="725.892" y="394.298686" style="fill: #008000; stroke: #008000"/>
     <use xlink:href="#m754ce6dbf5" x="732.93475" y="394.382226" style="fill: #008000; stroke: #008000"/>
     <use xlink:href="#m754ce6dbf5" x="739.9775" y="394.343417" style="fill: #008000; stroke: #008000"/>
     <use xlink:href="#m754ce6dbf5" x="747.02025" y="394.321879" style="fill: #008000; stroke: #008000"/>
     <use xlink:href="#m754ce6dbf5" x="754.063" y="394.465601" style="fill: #008000; stroke: #008000"/>
     <use xlink:href="#m754ce6dbf5" x="761.10575" y="394.348785" style="fill: #008000; stroke: #008000"/>
     <use xlink:href="#m754ce6dbf5" x="768.1485" y="394.370376" style="fill: #008000; stroke: #008000"/>
     <use xlink:href="#m754ce6dbf5" x="775.19125" y="394.383538" style="fill: #008000; stroke: #008000"/>
     <use xlink:href="#m754ce6dbf5" x="782.234" y="394.372229" style="fill: #008000; stroke: #008000"/>
     <use xlink:href="#m754ce6dbf5" x="789.27675" y="394.323752" style="fill: #008000; stroke: #008000"/>
     <use xlink:href="#m754ce6dbf5" x="796.3195" y="394.350981" style="fill: #008000; stroke: #008000"/>
     <use xlink:href="#m754ce6dbf5" x="803.36225" y="394.37329" style="fill: #008000; stroke: #008000"/>
     <use xlink:href="#m754ce6dbf5" x="810.405" y="394.361552" style="fill: #008000; stroke: #008000"/>
    </g>
   </g>
   <g id="line2d_30">
    <path d="M 113.17275 289.221155 
L 120.2155 284.83763 
L 127.25825 284.718835 
L 134.301 282.562881 
L 141.34375 284.327459 
L 148.3865 281.985024 
L 155.42925 284.109271 
L 162.472 283.913346 
L 169.51475 288.146304 
L 176.5575 280.318559 
L 183.60025 281.980803 
L 190.643 281.045968 
L 197.68575 287.375384 
L 204.7285 283.494142 
L 211.77125 281.527439 
L 218.814 284.618887 
L 225.85675 281.962708 
L 232.8995 286.082792 
L 239.94225 283.458386 
L 246.985 281.937028 
L 254.02775 263.27073 
L 261.0705 260.209103 
L 268.11325 264.067396 
L 275.156 265.886617 
L 282.19875 266.007614 
L 289.2415 268.603651 
L 296.28425 265.860634 
L 303.327 263.394089 
L 310.36975 271.005399 
L 317.4125 269.723926 
L 324.45525 268.813623 
L 331.498 269.536904 
L 338.54075 270.673137 
L 345.5835 269.216315 
L 352.62625 275.336273 
L 359.669 266.14829 
L 366.71175 267.597569 
L 373.7545 270.563601 
L 380.79725 281.464883 
L 387.84 274.194117 
L 394.88275 273.761592 
L 401.9255 270.694398 
L 408.96825 275.347787 
L 416.011 272.571942 
L 423.05375 275.237604 
L 430.0965 272.248227 
L 437.13925 273.293007 
L 444.182 281.158577 
L 451.22475 276.838928 
L 458.2675 266.095744 
L 465.31025 278.590805 
L 472.353 273.486795 
L 479.39575 275.569404 
L 486.4385 279.317225 
L 493.48125 267.329222 
L 500.524 278.881046 
L 507.56675 274.068095 
L 514.6095 282.049664 
L 521.65225 281.050914 
L 528.695 285.04925 
L 535.73775 278.016166 
L 542.7805 278.808004 
L 549.82325 276.519473 
L 556.866 281.923839 
L 563.90875 284.731153 
L 570.9515 287.930885 
L 577.99425 278.307436 
L 585.037 290.945348 
L 592.07975 282.35254 
L 599.1225 277.082281 
L 606.16525 287.718843 
L 613.208 282.752792 
L 620.25075 288.082481 
L 627.2935 287.743309 
L 634.33625 282.763607 
L 641.379 287.878168 
L 648.42175 289.86592 
L 655.4645 278.441359 
L 662.50725 289.106501 
L 669.55 283.946358 
L 676.59275 285.08585 
L 683.6355 285.816266 
L 690.67825 274.002162 
L 697.721 287.928379 
L 704.76375 291.441287 
L 711.8065 281.635999 
L 718.84925 284.76778 
L 725.892 287.110862 
L 732.93475 285.16418 
L 739.9775 282.804968 
L 747.02025 289.303798 
L 754.063 284.280546 
L 761.10575 285.18374 
L 768.1485 288.554759 
L 775.19125 283.983367 
L 782.234 288.213779 
L 789.27675 288.072972 
L 796.3195 286.097195 
L 803.36225 288.977195 
L 810.405 291.208696 
" clip-path="url(#p2c93227577)" style="fill: none; stroke: #2ca02c; stroke-width: 1.5; stroke-linecap: square"/>
   </g>
   <g id="line2d_31">
    <path d="M 113.17275 335.791918 
L 120.2155 330.961333 
L 127.25825 329.576787 
L 134.301 327.982573 
L 141.34375 327.535196 
L 148.3865 326.139835 
L 155.42925 329.756252 
L 162.472 329.006725 
L 169.51475 334.500725 
L 176.5575 322.992043 
L 183.60025 324.90186 
L 190.643 325.90979 
L 197.68575 336.656692 
L 204.7285 327.811944 
L 211.77125 326.199951 
L 218.814 329.150671 
L 225.85675 323.073789 
L 232.8995 329.404892 
L 239.94225 326.709752 
L 246.985 323.926403 
L 254.02775 321.698093 
L 261.0705 312.372389 
L 268.11325 312.832533 
L 275.156 314.031586 
L 282.19875 318.545341 
L 289.2415 317.100587 
L 296.28425 312.626967 
L 303.327 309.609641 
L 310.36975 317.908661 
L 317.4125 316.15218 
L 324.45525 317.039007 
L 331.498 316.359369 
L 338.54075 315.340836 
L 345.5835 312.856062 
L 352.62625 317.955575 
L 359.669 315.186166 
L 366.71175 316.156427 
L 373.7545 311.294412 
L 380.79725 322.769555 
L 387.84 316.038556 
L 394.88275 315.341416 
L 401.9255 315.177765 
L 408.96825 319.338076 
L 416.011 315.678122 
L 423.05375 318.322524 
L 430.0965 317.328087 
L 437.13925 316.521319 
L 444.182 319.567383 
L 451.22475 320.450002 
L 458.2675 312.743321 
L 465.31025 319.518359 
L 472.353 314.951148 
L 479.39575 319.121391 
L 486.4385 319.747033 
L 493.48125 311.705057 
L 500.524 318.828988 
L 507.56675 318.861881 
L 514.6095 321.171318 
L 521.65225 322.311548 
L 528.695 325.331062 
L 535.73775 321.2339 
L 542.7805 322.55589 
L 549.82325 318.982008 
L 556.866 321.363497 
L 563.90875 323.535304 
L 570.9515 326.819829 
L 577.99425 319.258242 
L 585.037 328.822591 
L 592.07975 322.382334 
L 599.1225 317.889827 
L 606.16525 326.651417 
L 613.208 321.784654 
L 620.25075 326.952327 
L 627.2935 325.981591 
L 634.33625 323.018856 
L 641.379 326.911995 
L 648.42175 327.471347 
L 655.4645 319.152228 
L 662.50725 327.599744 
L 669.55 326.384362 
L 676.59275 324.310049 
L 683.6355 326.017928 
L 690.67825 317.721203 
L 697.721 325.514339 
L 704.76375 329.640807 
L 711.8065 322.294639 
L 718.84925 324.540161 
L 725.892 325.861122 
L 732.93475 324.820153 
L 739.9775 322.35341 
L 747.02025 326.831317 
L 754.063 322.634049 
L 761.10575 323.589631 
L 768.1485 327.415293 
L 775.19125 322.168973 
L 782.234 326.450519 
L 789.27675 325.783266 
L 796.3195 324.917067 
L 803.36225 327.61966 
L 810.405 328.930887 
" clip-path="url(#p2c93227577)" style="fill: none; stroke: #ff7f0e; stroke-width: 1.5; stroke-linecap: square"/>
   </g>
   <g id="patch_3">
    <path d="M 106.13 482.875 
L 106.13 40.32 
" style="fill: none; stroke: #000000; stroke-width: 0.8; stroke-linejoin: miter; stroke-linecap: square"/>
   </g>
   <g id="patch_4">
    <path d="M 810.405 482.875 
L 810.405 40.32 
" style="fill: none; stroke: #000000; stroke-width: 0.8; stroke-linejoin: miter; stroke-linecap: square"/>
   </g>
   <g id="patch_5">
    <path d="M 106.13 482.875 
L 810.405 482.875 
" style="fill: none; stroke: #000000; stroke-width: 0.8; stroke-linejoin: miter; stroke-linecap: square"/>
   </g>
   <g id="patch_6">
    <path d="M 106.13 40.32 
L 810.405 40.32 
" style="fill: none; stroke: #000000; stroke-width: 0.8; stroke-linejoin: miter; stroke-linecap: square"/>
   </g>
   <g id="legend_1">
    <g id="patch_7">
     <path d="M 443.395625 365.445938 
L 796.405 365.445938 
Q 800.405 365.445938 800.405 361.445938 
L 800.405 161.749062 
Q 800.405 157.749062 796.405 157.749062 
L 443.395625 157.749062 
Q 439.395625 157.749062 439.395625 161.749062 
L 439.395625 361.445938 
Q 439.395625 365.445938 443.395625 365.445938 
z
" style="fill: #ffffff; opacity: 0.8; stroke: #cccccc; stroke-linejoin: miter"/>
    </g>
    <g id="line2d_32">
     <path d="M 447.395625 173.095937 
L 467.395625 173.095937 
L 487.395625 173.095937 
" style="fill: none; stroke-dasharray: 5.55,2.4; stroke-dashoffset: 0; stroke: #0000ff; stroke-width: 1.5"/>
    </g>
    <g id="text_15">
     <!-- Training Loss -->
     <g transform="translate(503.395625 180.095937) scale(0.2 -0.2)">
      <defs>
       <path id="Helvetica-54" d="M 3828 4591 
L 3828 4044 
L 2281 4044 
L 2281 0 
L 1650 0 
L 1650 4044 
L 103 4044 
L 103 4591 
L 3828 4591 
z
" transform="scale(0.015625)"/>
       <path id="Helvetica-69" d="M 413 3331 
L 984 3331 
L 984 0 
L 413 0 
L 413 3331 
z
M 413 4591 
L 984 4591 
L 984 3953 
L 413 3953 
L 413 4591 
z
" transform="scale(0.015625)"/>
       <path id="Helvetica-6e" d="M 413 3347 
L 947 3347 
L 947 2872 
Q 1184 3166 1450 3294 
Q 1716 3422 2041 3422 
Q 2753 3422 3003 2925 
Q 3141 2653 3141 2147 
L 3141 0 
L 2569 0 
L 2569 2109 
Q 2569 2416 2478 2603 
Q 2328 2916 1934 2916 
Q 1734 2916 1606 2875 
Q 1375 2806 1200 2600 
Q 1059 2434 1017 2257 
Q 975 2081 975 1753 
L 975 0 
L 413 0 
L 413 3347 
z
M 1734 3428 
L 1734 3428 
z
" transform="scale(0.015625)"/>
       <path id="Helvetica-67" d="M 1594 3406 
Q 1988 3406 2281 3213 
Q 2441 3103 2606 2894 
L 2606 3316 
L 3125 3316 
L 3125 272 
Q 3125 -366 2938 -734 
Q 2588 -1416 1616 -1416 
Q 1075 -1416 706 -1173 
Q 338 -931 294 -416 
L 866 -416 
Q 906 -641 1028 -763 
Q 1219 -950 1628 -950 
Q 2275 -950 2475 -494 
Q 2594 -225 2584 466 
Q 2416 209 2178 84 
Q 1941 -41 1550 -41 
Q 1006 -41 598 345 
Q 191 731 191 1622 
Q 191 2463 602 2934 
Q 1013 3406 1594 3406 
z
M 2606 1688 
Q 2606 2309 2350 2609 
Q 2094 2909 1697 2909 
Q 1103 2909 884 2353 
Q 769 2056 769 1575 
Q 769 1009 998 714 
Q 1228 419 1616 419 
Q 2222 419 2469 966 
Q 2606 1275 2606 1688 
z
M 1659 3428 
L 1659 3428 
z
" transform="scale(0.015625)"/>
       <path id="Helvetica-20" transform="scale(0.015625)"/>
      </defs>
      <use xlink:href="#Helvetica-54"/>
      <use xlink:href="#Helvetica-72" x="61.083984"/>
      <use xlink:href="#Helvetica-61" x="94.384766"/>
      <use xlink:href="#Helvetica-69" x="150"/>
      <use xlink:href="#Helvetica-6e" x="172.216797"/>
      <use xlink:href="#Helvetica-69" x="227.832031"/>
      <use xlink:href="#Helvetica-6e" x="250.048828"/>
      <use xlink:href="#Helvetica-67" x="305.664062"/>
      <use xlink:href="#Helvetica-20" x="361.279297"/>
      <use xlink:href="#Helvetica-4c" x="389.0625"/>
      <use xlink:href="#Helvetica-6f" x="444.677734"/>
      <use xlink:href="#Helvetica-73" x="500.292969"/>
      <use xlink:href="#Helvetica-73" x="550.292969"/>
     </g>
    </g>
    <g id="line2d_33">
     <path d="M 447.395625 202.258438 
L 467.395625 202.258438 
L 487.395625 202.258438 
" style="fill: none; stroke: #0000ff; stroke-width: 1.5; stroke-linecap: square"/>
     <g>
      <use xlink:href="#m250a58fb99" x="467.395625" y="202.258438" style="fill: #0000ff; stroke: #0000ff"/>
     </g>
    </g>
    <g id="text_16">
     <!-- Training Overall pixel accuracy -->
     <g transform="translate(503.395625 209.258438) scale(0.2 -0.2)">
      <defs>
       <path id="Helvetica-4f" d="M 2469 4716 
Q 3684 4716 4269 3934 
Q 4725 3325 4725 2375 
Q 4725 1347 4203 666 
Q 3591 -134 2456 -134 
Q 1397 -134 791 566 
Q 250 1241 250 2272 
Q 250 3203 713 3866 
Q 1306 4716 2469 4716 
z
M 2531 422 
Q 3353 422 3720 1011 
Q 4088 1600 4088 2366 
Q 4088 3175 3664 3669 
Q 3241 4163 2506 4163 
Q 1794 4163 1344 3673 
Q 894 3184 894 2231 
Q 894 1469 1280 945 
Q 1666 422 2531 422 
z
M 2488 4716 
L 2488 4716 
z
" transform="scale(0.015625)"/>
       <path id="Helvetica-76" d="M 688 3347 
L 1581 622 
L 2516 3347 
L 3131 3347 
L 1869 0 
L 1269 0 
L 34 3347 
L 688 3347 
z
" transform="scale(0.015625)"/>
       <path id="Helvetica-65" d="M 1806 3422 
Q 2163 3422 2497 3255 
Q 2831 3088 3006 2822 
Q 3175 2569 3231 2231 
Q 3281 2000 3281 1494 
L 828 1494 
Q 844 984 1069 676 
Q 1294 369 1766 369 
Q 2206 369 2469 659 
Q 2619 828 2681 1050 
L 3234 1050 
Q 3213 866 3089 639 
Q 2966 413 2813 269 
Q 2556 19 2178 -69 
Q 1975 -119 1719 -119 
Q 1094 -119 659 336 
Q 225 791 225 1609 
Q 225 2416 662 2919 
Q 1100 3422 1806 3422 
z
M 2703 1941 
Q 2669 2306 2544 2525 
Q 2313 2931 1772 2931 
Q 1384 2931 1121 2651 
Q 859 2372 844 1941 
L 2703 1941 
z
M 1753 3428 
L 1753 3428 
z
" transform="scale(0.015625)"/>
       <path id="Helvetica-6c" d="M 428 4591 
L 991 4591 
L 991 0 
L 428 0 
L 428 4591 
z
" transform="scale(0.015625)"/>
       <path id="Helvetica-78" d="M 94 3347 
L 822 3347 
L 1591 2169 
L 2369 3347 
L 3053 3331 
L 1925 1716 
L 3103 0 
L 2384 0 
L 1553 1256 
L 747 0 
L 34 0 
L 1213 1716 
L 94 3347 
z
" transform="scale(0.015625)"/>
      </defs>
      <use xlink:href="#Helvetica-54"/>
      <use xlink:href="#Helvetica-72" x="61.083984"/>
      <use xlink:href="#Helvetica-61" x="94.384766"/>
      <use xlink:href="#Helvetica-69" x="150"/>
      <use xlink:href="#Helvetica-6e" x="172.216797"/>
      <use xlink:href="#Helvetica-69" x="227.832031"/>
      <use xlink:href="#Helvetica-6e" x="250.048828"/>
      <use xlink:href="#Helvetica-67" x="305.664062"/>
      <use xlink:href="#Helvetica-20" x="361.279297"/>
      <use xlink:href="#Helvetica-4f" x="389.0625"/>
      <use xlink:href="#Helvetica-76" x="466.845703"/>
      <use xlink:href="#Helvetica-65" x="516.845703"/>
      <use xlink:href="#Helvetica-72" x="572.460938"/>
      <use xlink:href="#Helvetica-61" x="605.761719"/>
      <use xlink:href="#Helvetica-6c" x="661.376953"/>
      <use xlink:href="#Helvetica-6c" x="683.59375"/>
      <use xlink:href="#Helvetica-20" x="705.810547"/>
      <use xlink:href="#Helvetica-70" x="733.59375"/>
      <use xlink:href="#Helvetica-69" x="789.208984"/>
      <use xlink:href="#Helvetica-78" x="811.425781"/>
      <use xlink:href="#Helvetica-65" x="861.425781"/>
      <use xlink:href="#Helvetica-6c" x="917.041016"/>
      <use xlink:href="#Helvetica-20" x="939.257812"/>
      <use xlink:href="#Helvetica-61" x="967.041016"/>
      <use xlink:href="#Helvetica-63" x="1022.65625"/>
      <use xlink:href="#Helvetica-63" x="1072.65625"/>
      <use xlink:href="#Helvetica-75" x="1122.65625"/>
      <use xlink:href="#Helvetica-72" x="1178.271484"/>
      <use xlink:href="#Helvetica-61" x="1211.572266"/>
      <use xlink:href="#Helvetica-63" x="1267.1875"/>
      <use xlink:href="#Helvetica-79" x="1317.1875"/>
     </g>
    </g>
    <g id="line2d_34">
     <path d="M 447.395625 231.030312 
L 467.395625 231.030312 
L 487.395625 231.030312 
" style="fill: none; stroke-dasharray: 5.55,2.4; stroke-dashoffset: 0; stroke: #ff0000; stroke-width: 1.5"/>
    </g>
    <g id="text_17">
     <!-- Validation Loss -->
     <g transform="translate(503.395625 238.030312) scale(0.2 -0.2)">
      <defs>
       <path id="Helvetica-56" d="M 850 4591 
L 2169 681 
L 3472 4591 
L 4169 4591 
L 2494 0 
L 1834 0 
L 163 4591 
L 850 4591 
z
" transform="scale(0.015625)"/>
       <path id="Helvetica-64" d="M 769 1634 
Q 769 1097 997 734 
Q 1225 372 1728 372 
Q 2119 372 2370 708 
Q 2622 1044 2622 1672 
Q 2622 2306 2362 2611 
Q 2103 2916 1722 2916 
Q 1297 2916 1033 2591 
Q 769 2266 769 1634 
z
M 1616 3406 
Q 2000 3406 2259 3244 
Q 2409 3150 2600 2916 
L 2600 4606 
L 3141 4606 
L 3141 0 
L 2634 0 
L 2634 466 
Q 2438 156 2169 18 
Q 1900 -119 1553 -119 
Q 994 -119 584 351 
Q 175 822 175 1603 
Q 175 2334 548 2870 
Q 922 3406 1616 3406 
z
" transform="scale(0.015625)"/>
       <path id="Helvetica-74" d="M 525 4281 
L 1094 4281 
L 1094 3347 
L 1628 3347 
L 1628 2888 
L 1094 2888 
L 1094 703 
Q 1094 528 1213 469 
Q 1278 434 1431 434 
Q 1472 434 1519 436 
Q 1566 438 1628 444 
L 1628 0 
Q 1531 -28 1426 -40 
Q 1322 -53 1200 -53 
Q 806 -53 665 148 
Q 525 350 525 672 
L 525 2888 
L 72 2888 
L 72 3347 
L 525 3347 
L 525 4281 
z
" transform="scale(0.015625)"/>
      </defs>
      <use xlink:href="#Helvetica-56"/>
      <use xlink:href="#Helvetica-61" x="66.699219"/>
      <use xlink:href="#Helvetica-6c" x="122.314453"/>
      <use xlink:href="#Helvetica-69" x="144.53125"/>
      <use xlink:href="#Helvetica-64" x="166.748047"/>
      <use xlink:href="#Helvetica-61" x="222.363281"/>
      <use xlink:href="#Helvetica-74" x="277.978516"/>
      <use xlink:href="#Helvetica-69" x="305.761719"/>
      <use xlink:href="#Helvetica-6f" x="327.978516"/>
      <use xlink:href="#Helvetica-6e" x="383.59375"/>
      <use xlink:href="#Helvetica-20" x="439.208984"/>
      <use xlink:href="#Helvetica-4c" x="466.992188"/>
      <use xlink:href="#Helvetica-6f" x="522.607422"/>
      <use xlink:href="#Helvetica-73" x="578.222656"/>
      <use xlink:href="#Helvetica-73" x="628.222656"/>
     </g>
    </g>
    <g id="line2d_35">
     <path d="M 447.395625 259.936562 
L 467.395625 259.936562 
L 487.395625 259.936562 
" style="fill: none; stroke: #ff0000; stroke-width: 1.5; stroke-linecap: square"/>
     <g>
      <use xlink:href="#m08819b67c6" x="467.395625" y="259.936562" style="fill: #ff0000; stroke: #ff0000"/>
     </g>
    </g>
    <g id="text_18">
     <!-- Validation Overall pixel accuracy -->
     <g transform="translate(503.395625 266.936562) scale(0.2 -0.2)">
      <use xlink:href="#Helvetica-56"/>
      <use xlink:href="#Helvetica-61" x="66.699219"/>
      <use xlink:href="#Helvetica-6c" x="122.314453"/>
      <use xlink:href="#Helvetica-69" x="144.53125"/>
      <use xlink:href="#Helvetica-64" x="166.748047"/>
      <use xlink:href="#Helvetica-61" x="222.363281"/>
      <use xlink:href="#Helvetica-74" x="277.978516"/>
      <use xlink:href="#Helvetica-69" x="305.761719"/>
      <use xlink:href="#Helvetica-6f" x="327.978516"/>
      <use xlink:href="#Helvetica-6e" x="383.59375"/>
      <use xlink:href="#Helvetica-20" x="439.208984"/>
      <use xlink:href="#Helvetica-4f" x="466.992188"/>
      <use xlink:href="#Helvetica-76" x="544.775391"/>
      <use xlink:href="#Helvetica-65" x="594.775391"/>
      <use xlink:href="#Helvetica-72" x="650.390625"/>
      <use xlink:href="#Helvetica-61" x="683.691406"/>
      <use xlink:href="#Helvetica-6c" x="739.306641"/>
      <use xlink:href="#Helvetica-6c" x="761.523438"/>
      <use xlink:href="#Helvetica-20" x="783.740234"/>
      <use xlink:href="#Helvetica-70" x="811.523438"/>
      <use xlink:href="#Helvetica-69" x="867.138672"/>
      <use xlink:href="#Helvetica-78" x="889.355469"/>
      <use xlink:href="#Helvetica-65" x="939.355469"/>
      <use xlink:href="#Helvetica-6c" x="994.970703"/>
      <use xlink:href="#Helvetica-20" x="1017.1875"/>
      <use xlink:href="#Helvetica-61" x="1044.970703"/>
      <use xlink:href="#Helvetica-63" x="1100.585938"/>
      <use xlink:href="#Helvetica-63" x="1150.585938"/>
      <use xlink:href="#Helvetica-75" x="1200.585938"/>
      <use xlink:href="#Helvetica-72" x="1256.201172"/>
      <use xlink:href="#Helvetica-61" x="1289.501953"/>
      <use xlink:href="#Helvetica-63" x="1345.117188"/>
      <use xlink:href="#Helvetica-79" x="1395.117188"/>
     </g>
    </g>
    <g id="line2d_36">
     <path d="M 447.395625 288.617813 
L 467.395625 288.617813 
L 487.395625 288.617813 
" style="fill: none; stroke: #008000; stroke-width: 1.5; stroke-linecap: square"/>
     <g>
      <use xlink:href="#m754ce6dbf5" x="467.395625" y="288.617813" style="fill: #008000; stroke: #008000"/>
     </g>
    </g>
    <g id="text_19">
     <!-- Random pixel accuracy -->
     <g transform="translate(503.395625 295.617813) scale(0.2 -0.2)">
      <defs>
       <path id="Helvetica-52" d="M 2622 2488 
Q 3059 2488 3314 2663 
Q 3569 2838 3569 3294 
Q 3569 3784 3213 3963 
Q 3022 4056 2703 4056 
L 1184 4056 
L 1184 2488 
L 2622 2488 
z
M 563 4591 
L 2688 4591 
Q 3213 4591 3553 4438 
Q 4200 4144 4200 3353 
Q 4200 2941 4029 2678 
Q 3859 2416 3553 2256 
Q 3822 2147 3958 1969 
Q 4094 1791 4109 1391 
L 4131 775 
Q 4141 513 4175 384 
Q 4231 166 4375 103 
L 4375 0 
L 3613 0 
Q 3581 59 3562 153 
Q 3544 247 3531 516 
L 3494 1281 
Q 3472 1731 3159 1884 
Q 2981 1969 2600 1969 
L 1184 1969 
L 1184 0 
L 563 0 
L 563 4591 
z
" transform="scale(0.015625)"/>
       <path id="Helvetica-6d" d="M 413 3347 
L 969 3347 
L 969 2872 
Q 1169 3119 1331 3231 
Q 1609 3422 1963 3422 
Q 2363 3422 2606 3225 
Q 2744 3113 2856 2894 
Q 3044 3163 3297 3292 
Q 3550 3422 3866 3422 
Q 4541 3422 4784 2934 
Q 4916 2672 4916 2228 
L 4916 0 
L 4331 0 
L 4331 2325 
Q 4331 2659 4164 2784 
Q 3997 2909 3756 2909 
Q 3425 2909 3186 2687 
Q 2947 2466 2947 1947 
L 2947 0 
L 2375 0 
L 2375 2184 
Q 2375 2525 2294 2681 
Q 2166 2916 1816 2916 
Q 1497 2916 1236 2669 
Q 975 2422 975 1775 
L 975 0 
L 413 0 
L 413 3347 
z
" transform="scale(0.015625)"/>
      </defs>
      <use xlink:href="#Helvetica-52"/>
      <use xlink:href="#Helvetica-61" x="72.216797"/>
      <use xlink:href="#Helvetica-6e" x="127.832031"/>
      <use xlink:href="#Helvetica-64" x="183.447266"/>
      <use xlink:href="#Helvetica-6f" x="239.0625"/>
      <use xlink:href="#Helvetica-6d" x="294.677734"/>
      <use xlink:href="#Helvetica-20" x="377.978516"/>
      <use xlink:href="#Helvetica-70" x="405.761719"/>
      <use xlink:href="#Helvetica-69" x="461.376953"/>
      <use xlink:href="#Helvetica-78" x="483.59375"/>
      <use xlink:href="#Helvetica-65" x="533.59375"/>
      <use xlink:href="#Helvetica-6c" x="589.208984"/>
      <use xlink:href="#Helvetica-20" x="611.425781"/>
      <use xlink:href="#Helvetica-61" x="639.208984"/>
      <use xlink:href="#Helvetica-63" x="694.824219"/>
      <use xlink:href="#Helvetica-63" x="744.824219"/>
      <use xlink:href="#Helvetica-75" x="794.824219"/>
      <use xlink:href="#Helvetica-72" x="850.439453"/>
      <use xlink:href="#Helvetica-61" x="883.740234"/>
      <use xlink:href="#Helvetica-63" x="939.355469"/>
      <use xlink:href="#Helvetica-79" x="989.355469"/>
     </g>
    </g>
    <g id="line2d_37">
     <path d="M 447.395625 317.642812 
L 467.395625 317.642812 
L 487.395625 317.642812 
" style="fill: none; stroke: #2ca02c; stroke-width: 1.5; stroke-linecap: square"/>
    </g>
    <g id="text_20">
     <!-- Validation PerClass accuracy -->
     <g transform="translate(503.395625 324.642812) scale(0.2 -0.2)">
      <defs>
       <path id="Helvetica-50" d="M 547 4591 
L 2613 4591 
Q 3225 4591 3600 4245 
Q 3975 3900 3975 3275 
Q 3975 2738 3640 2339 
Q 3306 1941 2613 1941 
L 1169 1941 
L 1169 0 
L 547 0 
L 547 4591 
z
M 3347 3272 
Q 3347 3778 2972 3959 
Q 2766 4056 2406 4056 
L 1169 4056 
L 1169 2466 
L 2406 2466 
Q 2825 2466 3086 2644 
Q 3347 2822 3347 3272 
z
" transform="scale(0.015625)"/>
       <path id="Helvetica-43" d="M 2422 4716 
Q 3294 4716 3775 4256 
Q 4256 3797 4309 3213 
L 3703 3213 
Q 3600 3656 3292 3915 
Q 2984 4175 2428 4175 
Q 1750 4175 1333 3698 
Q 916 3222 916 2238 
Q 916 1431 1292 929 
Q 1669 428 2416 428 
Q 3103 428 3463 956 
Q 3653 1234 3747 1688 
L 4353 1688 
Q 4272 963 3816 472 
Q 3269 -119 2341 -119 
Q 1541 -119 997 366 
Q 281 1006 281 2344 
Q 281 3359 819 4009 
Q 1400 4716 2422 4716 
z
M 2297 4716 
L 2297 4716 
z
" transform="scale(0.015625)"/>
      </defs>
      <use xlink:href="#Helvetica-56"/>
      <use xlink:href="#Helvetica-61" x="66.699219"/>
      <use xlink:href="#Helvetica-6c" x="122.314453"/>
      <use xlink:href="#Helvetica-69" x="144.53125"/>
      <use xlink:href="#Helvetica-64" x="166.748047"/>
      <use xlink:href="#Helvetica-61" x="222.363281"/>
      <use xlink:href="#Helvetica-74" x="277.978516"/>
      <use xlink:href="#Helvetica-69" x="305.761719"/>
      <use xlink:href="#Helvetica-6f" x="327.978516"/>
      <use xlink:href="#Helvetica-6e" x="383.59375"/>
      <use xlink:href="#Helvetica-20" x="439.208984"/>
      <use xlink:href="#Helvetica-50" x="466.992188"/>
      <use xlink:href="#Helvetica-65" x="533.691406"/>
      <use xlink:href="#Helvetica-72" x="589.306641"/>
      <use xlink:href="#Helvetica-43" x="622.607422"/>
      <use xlink:href="#Helvetica-6c" x="694.824219"/>
      <use xlink:href="#Helvetica-61" x="717.041016"/>
      <use xlink:href="#Helvetica-73" x="772.65625"/>
      <use xlink:href="#Helvetica-73" x="822.65625"/>
      <use xlink:href="#Helvetica-20" x="872.65625"/>
      <use xlink:href="#Helvetica-61" x="900.439453"/>
      <use xlink:href="#Helvetica-63" x="956.054688"/>
      <use xlink:href="#Helvetica-63" x="1006.054688"/>
      <use xlink:href="#Helvetica-75" x="1056.054688"/>
      <use xlink:href="#Helvetica-72" x="1111.669922"/>
      <use xlink:href="#Helvetica-61" x="1144.970703"/>
      <use xlink:href="#Helvetica-63" x="1200.585938"/>
      <use xlink:href="#Helvetica-79" x="1250.585938"/>
     </g>
    </g>
    <g id="line2d_38">
     <path d="M 447.395625 346.277187 
L 467.395625 346.277187 
L 487.395625 346.277187 
" style="fill: none; stroke: #ff7f0e; stroke-width: 1.5; stroke-linecap: square"/>
    </g>
    <g id="text_21">
     <!-- Validation Jaccard index -->
     <g transform="translate(503.395625 353.277187) scale(0.2 -0.2)">
      <defs>
       <path id="Helvetica-4a" d="M 2741 1369 
Q 2741 788 2569 466 
Q 2250 -122 1356 -122 
Q 841 -122 475 158 
Q 109 438 109 1153 
L 109 1481 
L 694 1481 
L 694 1153 
Q 694 778 861 589 
Q 1028 400 1381 400 
Q 1878 400 2031 741 
Q 2125 950 2125 1531 
L 2125 4591 
L 2741 4591 
L 2741 1369 
z
" transform="scale(0.015625)"/>
      </defs>
      <use xlink:href="#Helvetica-56"/>
      <use xlink:href="#Helvetica-61" x="66.699219"/>
      <use xlink:href="#Helvetica-6c" x="122.314453"/>
      <use xlink:href="#Helvetica-69" x="144.53125"/>
      <use xlink:href="#Helvetica-64" x="166.748047"/>
      <use xlink:href="#Helvetica-61" x="222.363281"/>
      <use xlink:href="#Helvetica-74" x="277.978516"/>
      <use xlink:href="#Helvetica-69" x="305.761719"/>
      <use xlink:href="#Helvetica-6f" x="327.978516"/>
      <use xlink:href="#Helvetica-6e" x="383.59375"/>
      <use xlink:href="#Helvetica-20" x="439.208984"/>
      <use xlink:href="#Helvetica-4a" x="466.992188"/>
      <use xlink:href="#Helvetica-61" x="516.992188"/>
      <use xlink:href="#Helvetica-63" x="572.607422"/>
      <use xlink:href="#Helvetica-63" x="622.607422"/>
      <use xlink:href="#Helvetica-61" x="672.607422"/>
      <use xlink:href="#Helvetica-72" x="728.222656"/>
      <use xlink:href="#Helvetica-64" x="761.523438"/>
      <use xlink:href="#Helvetica-20" x="817.138672"/>
      <use xlink:href="#Helvetica-69" x="844.921875"/>
      <use xlink:href="#Helvetica-6e" x="867.138672"/>
      <use xlink:href="#Helvetica-64" x="922.753906"/>
      <use xlink:href="#Helvetica-65" x="978.369141"/>
      <use xlink:href="#Helvetica-78" x="1033.984375"/>
     </g>
    </g>
   </g>
  </g>
 </g>
 <defs>
  <clipPath id="p2c93227577">
   <rect x="106.13" y="40.32" width="704.275" height="442.555"/>
  </clipPath>
 </defs>
</svg>
