<?xml version="1.0" encoding="utf-8" standalone="no"?>
<!DOCTYPE svg PUBLIC "-//W3C//DTD SVG 1.1//EN"
  "http://www.w3.org/Graphics/SVG/1.1/DTD/svg11.dtd">
<svg xmlns:xlink="http://www.w3.org/1999/xlink" width="864pt" height="576pt" viewBox="0 0 864 576" xmlns="http://www.w3.org/2000/svg" version="1.1">
 <metadata>
  <rdf:RDF xmlns:dc="http://purl.org/dc/elements/1.1/" xmlns:cc="http://creativecommons.org/ns#" xmlns:rdf="http://www.w3.org/1999/02/22-rdf-syntax-ns#">
   <cc:Work>
    <dc:type rdf:resource="http://purl.org/dc/dcmitype/StillImage"/>
    <dc:date>2024-05-21T01:46:28.105329</dc:date>
    <dc:format>image/svg+xml</dc:format>
    <dc:creator>
     <cc:Agent>
      <dc:title>Matplotlib v3.8.3, https://matplotlib.org/</dc:title>
     </cc:Agent>
    </dc:creator>
   </cc:Work>
  </rdf:RDF>
 </metadata>
 <defs>
  <style type="text/css">*{stroke-linejoin: round; stroke-linecap: butt}</style>
 </defs>
 <g id="figure_1">
  <g id="patch_1">
   <path d="M 0 576 
L 864 576 
L 864 0 
L 0 0 
z
" style="fill: #ffffff"/>
  </g>
  <g id="axes_1">
   <g id="patch_2">
    <path d="M 106.13 482.875 
L 810.405 482.875 
L 810.405 40.32 
L 106.13 40.32 
z
" style="fill: #ffffff"/>
   </g>
   <g id="matplotlib.axis_1">
    <g id="xtick_1">
     <g id="line2d_1">
      <path d="M 106.13 482.875 
L 106.13 40.32 
" clip-path="url(#pa8846a75cc)" style="fill: none; stroke: #b0b0b0; stroke-width: 0.8; stroke-linecap: square"/>
     </g>
     <g id="line2d_2">
      <defs>
       <path id="m568a436eb6" d="M 0 0 
L 0 3.5 
" style="stroke: #000000; stroke-width: 0.8"/>
      </defs>
      <g>
       <use xlink:href="#m568a436eb6" x="106.13" y="482.875" style="stroke: #000000; stroke-width: 0.8"/>
      </g>
     </g>
     <g id="text_1">
      <!-- 0 -->
      <g transform="translate(98.344688 509.960625) scale(0.28 -0.28)">
       <defs>
        <path id="Helvetica-30" d="M 1731 4475 
Q 2600 4475 2988 3759 
Q 3288 3206 3288 2244 
Q 3288 1331 3016 734 
Q 2622 -122 1728 -122 
Q 922 -122 528 578 
Q 200 1163 200 2147 
Q 200 2909 397 3456 
Q 766 4475 1731 4475 
z
M 1725 391 
Q 2163 391 2422 778 
Q 2681 1166 2681 2222 
Q 2681 2984 2493 3476 
Q 2306 3969 1766 3969 
Q 1269 3969 1039 3501 
Q 809 3034 809 2125 
Q 809 1441 956 1025 
Q 1181 391 1725 391 
z
" transform="scale(0.015625)"/>
       </defs>
       <use xlink:href="#Helvetica-30"/>
      </g>
     </g>
    </g>
    <g id="xtick_2">
     <g id="line2d_3">
      <path d="M 246.985 482.875 
L 246.985 40.32 
" clip-path="url(#pa8846a75cc)" style="fill: none; stroke: #b0b0b0; stroke-width: 0.8; stroke-linecap: square"/>
     </g>
     <g id="line2d_4">
      <g>
       <use xlink:href="#m568a436eb6" x="246.985" y="482.875" style="stroke: #000000; stroke-width: 0.8"/>
      </g>
     </g>
     <g id="text_2">
      <!-- 20 -->
      <g transform="translate(231.414375 509.960625) scale(0.28 -0.28)">
       <defs>
        <path id="Helvetica-32" d="M 200 0 
Q 231 578 439 1006 
Q 647 1434 1250 1784 
L 1850 2131 
Q 2253 2366 2416 2531 
Q 2672 2791 2672 3125 
Q 2672 3516 2437 3745 
Q 2203 3975 1813 3975 
Q 1234 3975 1013 3538 
Q 894 3303 881 2888 
L 309 2888 
Q 319 3472 525 3841 
Q 891 4491 1816 4491 
Q 2584 4491 2939 4075 
Q 3294 3659 3294 3150 
Q 3294 2613 2916 2231 
Q 2697 2009 2131 1694 
L 1703 1456 
Q 1397 1288 1222 1134 
Q 909 863 828 531 
L 3272 531 
L 3272 0 
L 200 0 
z
" transform="scale(0.015625)"/>
       </defs>
       <use xlink:href="#Helvetica-32"/>
       <use xlink:href="#Helvetica-30" x="55.615234"/>
      </g>
     </g>
    </g>
    <g id="xtick_3">
     <g id="line2d_5">
      <path d="M 387.84 482.875 
L 387.84 40.32 
" clip-path="url(#pa8846a75cc)" style="fill: none; stroke: #b0b0b0; stroke-width: 0.8; stroke-linecap: square"/>
     </g>
     <g id="line2d_6">
      <g>
       <use xlink:href="#m568a436eb6" x="387.84" y="482.875" style="stroke: #000000; stroke-width: 0.8"/>
      </g>
     </g>
     <g id="text_3">
      <!-- 40 -->
      <g transform="translate(372.269375 509.960625) scale(0.28 -0.28)">
       <defs>
        <path id="Helvetica-34" d="M 2116 1584 
L 2116 3613 
L 681 1584 
L 2116 1584 
z
M 2125 0 
L 2125 1094 
L 163 1094 
L 163 1644 
L 2213 4488 
L 2688 4488 
L 2688 1584 
L 3347 1584 
L 3347 1094 
L 2688 1094 
L 2688 0 
L 2125 0 
z
" transform="scale(0.015625)"/>
       </defs>
       <use xlink:href="#Helvetica-34"/>
       <use xlink:href="#Helvetica-30" x="55.615234"/>
      </g>
     </g>
    </g>
    <g id="xtick_4">
     <g id="line2d_7">
      <path d="M 528.695 482.875 
L 528.695 40.32 
" clip-path="url(#pa8846a75cc)" style="fill: none; stroke: #b0b0b0; stroke-width: 0.8; stroke-linecap: square"/>
     </g>
     <g id="line2d_8">
      <g>
       <use xlink:href="#m568a436eb6" x="528.695" y="482.875" style="stroke: #000000; stroke-width: 0.8"/>
      </g>
     </g>
     <g id="text_4">
      <!-- 60 -->
      <g transform="translate(513.124375 509.960625) scale(0.28 -0.28)">
       <defs>
        <path id="Helvetica-36" d="M 1872 4494 
Q 2622 4494 2917 4105 
Q 3213 3716 3213 3303 
L 2656 3303 
Q 2606 3569 2497 3719 
Q 2294 4000 1881 4000 
Q 1409 4000 1131 3564 
Q 853 3128 822 2316 
Q 1016 2600 1309 2741 
Q 1578 2866 1909 2866 
Q 2472 2866 2890 2506 
Q 3309 2147 3309 1434 
Q 3309 825 2912 354 
Q 2516 -116 1781 -116 
Q 1153 -116 697 361 
Q 241 838 241 1966 
Q 241 2800 444 3381 
Q 834 4494 1872 4494 
z
M 1831 384 
Q 2275 384 2495 682 
Q 2716 981 2716 1388 
Q 2716 1731 2519 2042 
Q 2322 2353 1803 2353 
Q 1441 2353 1167 2112 
Q 894 1872 894 1388 
Q 894 963 1142 673 
Q 1391 384 1831 384 
z
" transform="scale(0.015625)"/>
       </defs>
       <use xlink:href="#Helvetica-36"/>
       <use xlink:href="#Helvetica-30" x="55.615234"/>
      </g>
     </g>
    </g>
    <g id="xtick_5">
     <g id="line2d_9">
      <path d="M 669.55 482.875 
L 669.55 40.32 
" clip-path="url(#pa8846a75cc)" style="fill: none; stroke: #b0b0b0; stroke-width: 0.8; stroke-linecap: square"/>
     </g>
     <g id="line2d_10">
      <g>
       <use xlink:href="#m568a436eb6" x="669.55" y="482.875" style="stroke: #000000; stroke-width: 0.8"/>
      </g>
     </g>
     <g id="text_5">
      <!-- 80 -->
      <g transform="translate(653.979375 509.960625) scale(0.28 -0.28)">
       <defs>
        <path id="Helvetica-38" d="M 1741 2600 
Q 2113 2600 2322 2808 
Q 2531 3016 2531 3303 
Q 2531 3553 2331 3762 
Q 2131 3972 1722 3972 
Q 1316 3972 1134 3762 
Q 953 3553 953 3272 
Q 953 2956 1187 2778 
Q 1422 2600 1741 2600 
z
M 1775 384 
Q 2166 384 2423 595 
Q 2681 806 2681 1225 
Q 2681 1659 2415 1884 
Q 2150 2109 1734 2109 
Q 1331 2109 1076 1879 
Q 822 1650 822 1244 
Q 822 894 1055 639 
Q 1288 384 1775 384 
z
M 975 2384 
Q 741 2484 609 2619 
Q 363 2869 363 3269 
Q 363 3769 725 4128 
Q 1088 4488 1753 4488 
Q 2397 4488 2762 4148 
Q 3128 3809 3128 3356 
Q 3128 2938 2916 2678 
Q 2797 2531 2547 2391 
Q 2825 2263 2984 2097 
Q 3281 1784 3281 1284 
Q 3281 694 2884 283 
Q 2488 -128 1763 -128 
Q 1109 -128 657 226 
Q 206 581 206 1256 
Q 206 1653 400 1942 
Q 594 2231 975 2384 
z
" transform="scale(0.015625)"/>
       </defs>
       <use xlink:href="#Helvetica-38"/>
       <use xlink:href="#Helvetica-30" x="55.615234"/>
      </g>
     </g>
    </g>
    <g id="xtick_6">
     <g id="line2d_11">
      <path d="M 810.405 482.875 
L 810.405 40.32 
" clip-path="url(#pa8846a75cc)" style="fill: none; stroke: #b0b0b0; stroke-width: 0.8; stroke-linecap: square"/>
     </g>
     <g id="line2d_12">
      <g>
       <use xlink:href="#m568a436eb6" x="810.405" y="482.875" style="stroke: #000000; stroke-width: 0.8"/>
      </g>
     </g>
     <g id="text_6">
      <!-- 100 -->
      <g transform="translate(787.049062 509.960625) scale(0.28 -0.28)">
       <defs>
        <path id="Helvetica-31" d="M 613 3169 
L 613 3600 
Q 1222 3659 1462 3798 
Q 1703 3938 1822 4456 
L 2266 4456 
L 2266 0 
L 1666 0 
L 1666 3169 
L 613 3169 
z
" transform="scale(0.015625)"/>
       </defs>
       <use xlink:href="#Helvetica-31"/>
       <use xlink:href="#Helvetica-30" x="55.615234"/>
       <use xlink:href="#Helvetica-30" x="111.230469"/>
      </g>
     </g>
    </g>
    <g id="text_7">
     <!-- Epochs -->
     <g transform="translate(411.573125 539.948125) scale(0.28 -0.28)">
      <defs>
       <path id="Helvetica-45" d="M 547 4591 
L 3894 4591 
L 3894 4028 
L 1153 4028 
L 1153 2634 
L 3688 2634 
L 3688 2103 
L 1153 2103 
L 1153 547 
L 3941 547 
L 3941 0 
L 547 0 
L 547 4591 
z
M 2244 4591 
L 2244 4591 
z
" transform="scale(0.015625)"/>
       <path id="Helvetica-70" d="M 1825 378 
Q 2219 378 2480 708 
Q 2741 1038 2741 1694 
Q 2741 2094 2625 2381 
Q 2406 2934 1825 2934 
Q 1241 2934 1025 2350 
Q 909 2038 909 1556 
Q 909 1169 1025 897 
Q 1244 378 1825 378 
z
M 369 3331 
L 916 3331 
L 916 2888 
Q 1084 3116 1284 3241 
Q 1569 3428 1953 3428 
Q 2522 3428 2919 2992 
Q 3316 2556 3316 1747 
Q 3316 653 2744 184 
Q 2381 -113 1900 -113 
Q 1522 -113 1266 53 
Q 1116 147 931 375 
L 931 -1334 
L 369 -1334 
L 369 3331 
z
" transform="scale(0.015625)"/>
       <path id="Helvetica-6f" d="M 1741 363 
Q 2300 363 2508 786 
Q 2716 1209 2716 1728 
Q 2716 2197 2566 2491 
Q 2328 2953 1747 2953 
Q 1231 2953 997 2559 
Q 763 2166 763 1609 
Q 763 1075 997 719 
Q 1231 363 1741 363 
z
M 1763 3444 
Q 2409 3444 2856 3012 
Q 3303 2581 3303 1744 
Q 3303 934 2909 406 
Q 2516 -122 1688 -122 
Q 997 -122 590 345 
Q 184 813 184 1600 
Q 184 2444 612 2944 
Q 1041 3444 1763 3444 
z
M 1744 3428 
L 1744 3428 
z
" transform="scale(0.015625)"/>
       <path id="Helvetica-63" d="M 1703 3444 
Q 2269 3444 2623 3169 
Q 2978 2894 3050 2222 
L 2503 2222 
Q 2453 2531 2275 2736 
Q 2097 2941 1703 2941 
Q 1166 2941 934 2416 
Q 784 2075 784 1575 
Q 784 1072 996 728 
Q 1209 384 1666 384 
Q 2016 384 2220 598 
Q 2425 813 2503 1184 
L 3050 1184 
Q 2956 519 2581 211 
Q 2206 -97 1622 -97 
Q 966 -97 575 383 
Q 184 863 184 1581 
Q 184 2463 612 2953 
Q 1041 3444 1703 3444 
z
M 1616 3428 
L 1616 3428 
z
" transform="scale(0.015625)"/>
       <path id="Helvetica-68" d="M 413 4606 
L 975 4606 
L 975 2894 
Q 1175 3147 1334 3250 
Q 1606 3428 2013 3428 
Q 2741 3428 3000 2919 
Q 3141 2641 3141 2147 
L 3141 0 
L 2563 0 
L 2563 2109 
Q 2563 2478 2469 2650 
Q 2316 2925 1894 2925 
Q 1544 2925 1259 2684 
Q 975 2444 975 1775 
L 975 0 
L 413 0 
L 413 4606 
z
" transform="scale(0.015625)"/>
       <path id="Helvetica-73" d="M 747 1050 
Q 772 769 888 619 
Q 1100 347 1625 347 
Q 1938 347 2175 483 
Q 2413 619 2413 903 
Q 2413 1119 2222 1231 
Q 2100 1300 1741 1391 
L 1294 1503 
Q 866 1609 663 1741 
Q 300 1969 300 2372 
Q 300 2847 642 3140 
Q 984 3434 1563 3434 
Q 2319 3434 2653 2991 
Q 2863 2709 2856 2384 
L 2325 2384 
Q 2309 2575 2191 2731 
Q 1997 2953 1519 2953 
Q 1200 2953 1036 2831 
Q 872 2709 872 2509 
Q 872 2291 1088 2159 
Q 1213 2081 1456 2022 
L 1828 1931 
Q 2434 1784 2641 1647 
Q 2969 1431 2969 969 
Q 2969 522 2630 197 
Q 2291 -128 1597 -128 
Q 850 -128 539 211 
Q 228 550 206 1050 
L 747 1050 
z
M 1578 3428 
L 1578 3428 
z
" transform="scale(0.015625)"/>
      </defs>
      <use xlink:href="#Helvetica-45"/>
      <use xlink:href="#Helvetica-70" x="66.699219"/>
      <use xlink:href="#Helvetica-6f" x="122.314453"/>
      <use xlink:href="#Helvetica-63" x="177.929688"/>
      <use xlink:href="#Helvetica-68" x="227.929688"/>
      <use xlink:href="#Helvetica-73" x="283.544922"/>
     </g>
    </g>
   </g>
   <g id="matplotlib.axis_2">
    <g id="ytick_1">
     <g id="line2d_13">
      <path d="M 106.13 482.875 
L 810.405 482.875 
" clip-path="url(#pa8846a75cc)" style="fill: none; stroke: #b0b0b0; stroke-width: 0.8; stroke-linecap: square"/>
     </g>
     <g id="line2d_14">
      <defs>
       <path id="mc71180c139" d="M 0 0 
L -3.5 0 
" style="stroke: #000000; stroke-width: 0.8"/>
      </defs>
      <g>
       <use xlink:href="#mc71180c139" x="106.13" y="482.875" style="stroke: #000000; stroke-width: 0.8"/>
      </g>
     </g>
     <g id="text_8">
      <!-- 0.0 -->
      <g transform="translate(60.21 492.917812) scale(0.28 -0.28)">
       <defs>
        <path id="Helvetica-2e" d="M 547 681 
L 1200 681 
L 1200 0 
L 547 0 
L 547 681 
z
" transform="scale(0.015625)"/>
       </defs>
       <use xlink:href="#Helvetica-30"/>
       <use xlink:href="#Helvetica-2e" x="55.615234"/>
       <use xlink:href="#Helvetica-30" x="83.398438"/>
      </g>
     </g>
    </g>
    <g id="ytick_2">
     <g id="line2d_15">
      <path d="M 106.13 394.364 
L 810.405 394.364 
" clip-path="url(#pa8846a75cc)" style="fill: none; stroke: #b0b0b0; stroke-width: 0.8; stroke-linecap: square"/>
     </g>
     <g id="line2d_16">
      <g>
       <use xlink:href="#mc71180c139" x="106.13" y="394.364" style="stroke: #000000; stroke-width: 0.8"/>
      </g>
     </g>
     <g id="text_9">
      <!-- 0.2 -->
      <g transform="translate(60.21 404.406813) scale(0.28 -0.28)">
       <use xlink:href="#Helvetica-30"/>
       <use xlink:href="#Helvetica-2e" x="55.615234"/>
       <use xlink:href="#Helvetica-32" x="83.398438"/>
      </g>
     </g>
    </g>
    <g id="ytick_3">
     <g id="line2d_17">
      <path d="M 106.13 305.853 
L 810.405 305.853 
" clip-path="url(#pa8846a75cc)" style="fill: none; stroke: #b0b0b0; stroke-width: 0.8; stroke-linecap: square"/>
     </g>
     <g id="line2d_18">
      <g>
       <use xlink:href="#mc71180c139" x="106.13" y="305.853" style="stroke: #000000; stroke-width: 0.8"/>
      </g>
     </g>
     <g id="text_10">
      <!-- 0.4 -->
      <g transform="translate(60.21 315.895812) scale(0.28 -0.28)">
       <use xlink:href="#Helvetica-30"/>
       <use xlink:href="#Helvetica-2e" x="55.615234"/>
       <use xlink:href="#Helvetica-34" x="83.398438"/>
      </g>
     </g>
    </g>
    <g id="ytick_4">
     <g id="line2d_19">
      <path d="M 106.13 217.342 
L 810.405 217.342 
" clip-path="url(#pa8846a75cc)" style="fill: none; stroke: #b0b0b0; stroke-width: 0.8; stroke-linecap: square"/>
     </g>
     <g id="line2d_20">
      <g>
       <use xlink:href="#mc71180c139" x="106.13" y="217.342" style="stroke: #000000; stroke-width: 0.8"/>
      </g>
     </g>
     <g id="text_11">
      <!-- 0.6 -->
      <g transform="translate(60.21 227.384812) scale(0.28 -0.28)">
       <use xlink:href="#Helvetica-30"/>
       <use xlink:href="#Helvetica-2e" x="55.615234"/>
       <use xlink:href="#Helvetica-36" x="83.398438"/>
      </g>
     </g>
    </g>
    <g id="ytick_5">
     <g id="line2d_21">
      <path d="M 106.13 128.831 
L 810.405 128.831 
" clip-path="url(#pa8846a75cc)" style="fill: none; stroke: #b0b0b0; stroke-width: 0.8; stroke-linecap: square"/>
     </g>
     <g id="line2d_22">
      <g>
       <use xlink:href="#mc71180c139" x="106.13" y="128.831" style="stroke: #000000; stroke-width: 0.8"/>
      </g>
     </g>
     <g id="text_12">
      <!-- 0.8 -->
      <g transform="translate(60.21 138.873812) scale(0.28 -0.28)">
       <use xlink:href="#Helvetica-30"/>
       <use xlink:href="#Helvetica-2e" x="55.615234"/>
       <use xlink:href="#Helvetica-38" x="83.398438"/>
      </g>
     </g>
    </g>
    <g id="ytick_6">
     <g id="line2d_23">
      <path d="M 106.13 40.32 
L 810.405 40.32 
" clip-path="url(#pa8846a75cc)" style="fill: none; stroke: #b0b0b0; stroke-width: 0.8; stroke-linecap: square"/>
     </g>
     <g id="line2d_24">
      <g>
       <use xlink:href="#mc71180c139" x="106.13" y="40.32" style="stroke: #000000; stroke-width: 0.8"/>
      </g>
     </g>
     <g id="text_13">
      <!-- 1.0 -->
      <g transform="translate(60.21 50.362812) scale(0.28 -0.28)">
       <use xlink:href="#Helvetica-31"/>
       <use xlink:href="#Helvetica-2e" x="55.615234"/>
       <use xlink:href="#Helvetica-30" x="83.398438"/>
      </g>
     </g>
    </g>
    <g id="text_14">
     <!-- Loss/accuracy -->
     <g transform="translate(50.2075 351.075) rotate(-90) scale(0.28 -0.28)">
      <defs>
       <path id="Helvetica-4c" d="M 488 4591 
L 1109 4591 
L 1109 547 
L 3434 547 
L 3434 0 
L 488 0 
L 488 4591 
z
" transform="scale(0.015625)"/>
       <path id="Helvetica-2f" d="M 1456 4591 
L 1931 4591 
L 475 0 
L 0 0 
L 1456 4591 
z
" transform="scale(0.015625)"/>
       <path id="Helvetica-61" d="M 844 891 
Q 844 647 1022 506 
Q 1200 366 1444 366 
Q 1741 366 2019 503 
Q 2488 731 2488 1250 
L 2488 1703 
Q 2384 1638 2221 1594 
Q 2059 1550 1903 1531 
L 1563 1488 
Q 1256 1447 1103 1359 
Q 844 1213 844 891 
z
M 2206 2028 
Q 2400 2053 2466 2191 
Q 2503 2266 2503 2406 
Q 2503 2694 2298 2823 
Q 2094 2953 1713 2953 
Q 1272 2953 1088 2716 
Q 984 2584 953 2325 
L 428 2325 
Q 444 2944 830 3186 
Q 1216 3428 1725 3428 
Q 2316 3428 2684 3203 
Q 3050 2978 3050 2503 
L 3050 575 
Q 3050 488 3086 434 
Q 3122 381 3238 381 
Q 3275 381 3322 386 
Q 3369 391 3422 400 
L 3422 -16 
Q 3291 -53 3222 -62 
Q 3153 -72 3034 -72 
Q 2744 -72 2613 134 
Q 2544 244 2516 444 
Q 2344 219 2022 53 
Q 1700 -113 1313 -113 
Q 847 -113 551 170 
Q 256 453 256 878 
Q 256 1344 547 1600 
Q 838 1856 1309 1916 
L 2206 2028 
z
M 1741 3428 
L 1741 3428 
z
" transform="scale(0.015625)"/>
       <path id="Helvetica-75" d="M 975 3347 
L 975 1125 
Q 975 869 1056 706 
Q 1206 406 1616 406 
Q 2203 406 2416 931 
Q 2531 1213 2531 1703 
L 2531 3347 
L 3094 3347 
L 3094 0 
L 2563 0 
L 2569 494 
Q 2459 303 2297 172 
Q 1975 -91 1516 -91 
Q 800 -91 541 388 
Q 400 644 400 1072 
L 400 3347 
L 975 3347 
z
M 1747 3428 
L 1747 3428 
z
" transform="scale(0.015625)"/>
       <path id="Helvetica-72" d="M 428 3347 
L 963 3347 
L 963 2769 
Q 1028 2938 1284 3180 
Q 1541 3422 1875 3422 
Q 1891 3422 1928 3419 
Q 1966 3416 2056 3406 
L 2056 2813 
Q 2006 2822 1964 2825 
Q 1922 2828 1872 2828 
Q 1447 2828 1219 2554 
Q 991 2281 991 1925 
L 991 0 
L 428 0 
L 428 3347 
z
" transform="scale(0.015625)"/>
       <path id="Helvetica-79" d="M 2503 3347 
L 3125 3347 
Q 3006 3025 2597 1878 
Q 2291 1016 2084 472 
Q 1597 -809 1397 -1090 
Q 1197 -1372 709 -1372 
Q 591 -1372 527 -1362 
Q 463 -1353 369 -1328 
L 369 -816 
Q 516 -856 581 -865 
Q 647 -875 697 -875 
Q 853 -875 926 -823 
Q 1000 -772 1050 -697 
Q 1066 -672 1162 -440 
Q 1259 -209 1303 -97 
L 66 3347 
L 703 3347 
L 1600 622 
L 2503 3347 
z
M 1597 3428 
L 1597 3428 
z
" transform="scale(0.015625)"/>
      </defs>
      <use xlink:href="#Helvetica-4c"/>
      <use xlink:href="#Helvetica-6f" x="55.615234"/>
      <use xlink:href="#Helvetica-73" x="111.230469"/>
      <use xlink:href="#Helvetica-73" x="161.230469"/>
      <use xlink:href="#Helvetica-2f" x="211.230469"/>
      <use xlink:href="#Helvetica-61" x="239.013672"/>
      <use xlink:href="#Helvetica-63" x="294.628906"/>
      <use xlink:href="#Helvetica-63" x="344.628906"/>
      <use xlink:href="#Helvetica-75" x="394.628906"/>
      <use xlink:href="#Helvetica-72" x="450.244141"/>
      <use xlink:href="#Helvetica-61" x="483.544922"/>
      <use xlink:href="#Helvetica-63" x="539.160156"/>
      <use xlink:href="#Helvetica-79" x="589.160156"/>
     </g>
    </g>
   </g>
   <g id="line2d_25">
    <path d="M 113.17275 130.416491 
L 120.2155 163.065324 
L 127.25825 173.679939 
L 134.301 178.602848 
L 141.34375 183.107792 
L 148.3865 186.561903 
L 155.42925 189.289608 
L 162.472 191.906418 
L 169.51475 192.994207 
L 176.5575 196.281792 
L 183.60025 197.679632 
L 190.643 200.265157 
L 197.68575 203.197241 
L 204.7285 205.158681 
L 211.77125 206.915294 
L 218.814 208.319228 
L 225.85675 208.598733 
L 232.8995 211.41855 
L 239.94225 214.351557 
L 246.985 215.407693 
L 254.02775 216.872429 
L 261.0705 217.286806 
L 268.11325 218.643338 
L 275.156 221.018971 
L 282.19875 223.302227 
L 289.2415 223.537732 
L 296.28425 224.959103 
L 303.327 225.881447 
L 310.36975 226.34713 
L 317.4125 228.732866 
L 324.45525 230.026565 
L 331.498 231.667508 
L 338.54075 231.501721 
L 345.5835 232.865217 
L 352.62625 232.597477 
L 359.669 234.838184 
L 366.71175 235.745783 
L 373.7545 235.961004 
L 380.79725 236.120013 
L 387.84 236.627769 
L 394.88275 238.63247 
L 401.9255 238.477339 
L 408.96825 239.215932 
L 416.011 241.145956 
L 423.05375 240.343316 
L 430.0965 240.239464 
L 437.13925 240.877899 
L 444.182 241.546036 
L 451.22475 242.353108 
L 458.2675 242.49861 
L 465.31025 242.992782 
L 472.353 242.960363 
L 479.39575 243.688484 
L 486.4385 245.023334 
L 493.48125 244.828134 
L 500.524 244.499592 
L 507.56675 244.752797 
L 514.6095 245.885166 
L 521.65225 245.642961 
L 528.695 245.908195 
L 535.73775 246.65428 
L 542.7805 246.12178 
L 549.82325 247.189575 
L 556.866 246.255914 
L 563.90875 246.79849 
L 570.9515 247.819938 
L 577.99425 247.207354 
L 585.037 248.269847 
L 592.07975 247.847002 
L 599.1225 248.193587 
L 606.16525 248.506065 
L 613.208 249.302664 
L 620.25075 247.845525 
L 627.2935 248.408676 
L 634.33625 248.986283 
L 641.379 248.223289 
L 648.42175 249.699342 
L 655.4645 249.353944 
L 662.50725 250.135138 
L 669.55 250.832608 
L 676.59275 250.384387 
L 683.6355 249.789186 
L 690.67825 250.515118 
L 697.721 251.393543 
L 704.76375 250.200266 
L 711.8065 250.066607 
L 718.84925 250.920447 
L 725.892 250.372886 
L 732.93475 251.120369 
L 739.9775 250.961888 
L 747.02025 251.803726 
L 754.063 250.955742 
L 761.10575 252.240287 
L 768.1485 252.421929 
L 775.19125 251.633058 
L 782.234 251.957037 
L 789.27675 252.045167 
L 796.3195 251.90887 
L 803.36225 252.659914 
L 810.405 252.648149 
" clip-path="url(#pa8846a75cc)" style="fill: none; stroke-dasharray: 5.55,2.4; stroke-dashoffset: 0; stroke: #0000ff; stroke-width: 1.5"/>
   </g>
   <g id="line2d_26">
    <path d="M 113.17275 137.080001 
L 120.2155 116.015187 
L 127.25825 109.746191 
L 134.301 108.259245 
L 141.34375 105.5791 
L 148.3865 103.59909 
L 155.42925 101.518683 
L 162.472 99.141521 
L 169.51475 97.681559 
L 176.5575 96.016691 
L 183.60025 94.619773 
L 190.643 93.049946 
L 197.68575 91.479855 
L 204.7285 89.500952 
L 211.77125 88.526827 
L 218.814 87.702319 
L 225.85675 86.937928 
L 232.8995 85.55267 
L 239.94225 84.016105 
L 246.985 83.485637 
L 254.02775 83.496426 
L 261.0705 82.45828 
L 268.11325 82.022193 
L 275.156 80.382384 
L 282.19875 79.2813 
L 289.2415 79.045715 
L 296.28425 78.635031 
L 303.327 77.98433 
L 310.36975 78.207807 
L 317.4125 76.975306 
L 324.45525 76.369237 
L 331.498 75.191709 
L 338.54075 75.640615 
L 345.5835 74.580232 
L 352.62625 75.052062 
L 359.669 73.687669 
L 366.71175 73.684108 
L 373.7545 73.405869 
L 380.79725 72.970442 
L 387.84 73.536969 
L 394.88275 72.360205 
L 401.9255 72.276955 
L 408.96825 71.723749 
L 416.011 71.213223 
L 423.05375 71.531926 
L 430.0965 70.890669 
L 437.13925 71.019052 
L 444.182 70.128757 
L 451.22475 70.000927 
L 458.2675 69.473229 
L 465.31025 69.621369 
L 472.353 69.723876 
L 479.39575 69.070695 
L 486.4385 68.850384 
L 493.48125 68.161381 
L 500.524 68.244895 
L 507.56675 68.280295 
L 514.6095 67.747769 
L 521.65225 67.719887 
L 528.695 67.745712 
L 535.73775 67.566418 
L 542.7805 67.552227 
L 549.82325 66.955048 
L 556.866 67.2082 
L 563.90875 67.149852 
L 570.9515 66.672456 
L 577.99425 66.770742 
L 585.037 66.146921 
L 592.07975 66.296196 
L 599.1225 66.42508 
L 606.16525 66.244785 
L 613.208 66.051379 
L 620.25075 66.033705 
L 627.2935 66.130672 
L 634.33625 66.13149 
L 641.379 65.849874 
L 648.42175 65.977414 
L 655.4645 65.399755 
L 662.50725 65.361691 
L 669.55 65.416109 
L 676.59275 65.164011 
L 683.6355 65.629853 
L 690.67825 65.238952 
L 697.721 64.813417 
L 704.76375 65.385748 
L 711.8065 65.133993 
L 718.84925 64.893 
L 725.892 64.792921 
L 732.93475 64.581103 
L 739.9775 64.880497 
L 747.02025 64.530615 
L 754.063 64.748869 
L 761.10575 64.255805 
L 768.1485 64.363007 
L 775.19125 64.538476 
L 782.234 64.220775 
L 789.27675 64.161503 
L 796.3195 64.056042 
L 803.36225 63.946414 
L 810.405 63.860895 
" clip-path="url(#pa8846a75cc)" style="fill: none; stroke: #0000ff; stroke-width: 1.5; stroke-linecap: square"/>
    <defs>
     <path id="m81f3408034" d="M 0 1.5 
C 0.397805 1.5 0.77937 1.341951 1.06066 1.06066 
C 1.341951 0.77937 1.5 0.397805 1.5 0 
C 1.5 -0.397805 1.341951 -0.77937 1.06066 -1.06066 
C 0.77937 -1.341951 0.397805 -1.5 0 -1.5 
C -0.397805 -1.5 -0.77937 -1.341951 -1.06066 -1.06066 
C -1.341951 -0.77937 -1.5 -0.397805 -1.5 0 
C -1.5 0.397805 -1.341951 0.77937 -1.06066 1.06066 
C -0.77937 1.341951 -0.397805 1.5 0 1.5 
z
" style="stroke: #0000ff"/>
    </defs>
    <g clip-path="url(#pa8846a75cc)">
     <use xlink:href="#m81f3408034" x="113.17275" y="137.080001" style="fill: #0000ff; stroke: #0000ff"/>
     <use xlink:href="#m81f3408034" x="120.2155" y="116.015187" style="fill: #0000ff; stroke: #0000ff"/>
     <use xlink:href="#m81f3408034" x="127.25825" y="109.746191" style="fill: #0000ff; stroke: #0000ff"/>
     <use xlink:href="#m81f3408034" x="134.301" y="108.259245" style="fill: #0000ff; stroke: #0000ff"/>
     <use xlink:href="#m81f3408034" x="141.34375" y="105.5791" style="fill: #0000ff; stroke: #0000ff"/>
     <use xlink:href="#m81f3408034" x="148.3865" y="103.59909" style="fill: #0000ff; stroke: #0000ff"/>
     <use xlink:href="#m81f3408034" x="155.42925" y="101.518683" style="fill: #0000ff; stroke: #0000ff"/>
     <use xlink:href="#m81f3408034" x="162.472" y="99.141521" style="fill: #0000ff; stroke: #0000ff"/>
     <use xlink:href="#m81f3408034" x="169.51475" y="97.681559" style="fill: #0000ff; stroke: #0000ff"/>
     <use xlink:href="#m81f3408034" x="176.5575" y="96.016691" style="fill: #0000ff; stroke: #0000ff"/>
     <use xlink:href="#m81f3408034" x="183.60025" y="94.619773" style="fill: #0000ff; stroke: #0000ff"/>
     <use xlink:href="#m81f3408034" x="190.643" y="93.049946" style="fill: #0000ff; stroke: #0000ff"/>
     <use xlink:href="#m81f3408034" x="197.68575" y="91.479855" style="fill: #0000ff; stroke: #0000ff"/>
     <use xlink:href="#m81f3408034" x="204.7285" y="89.500952" style="fill: #0000ff; stroke: #0000ff"/>
     <use xlink:href="#m81f3408034" x="211.77125" y="88.526827" style="fill: #0000ff; stroke: #0000ff"/>
     <use xlink:href="#m81f3408034" x="218.814" y="87.702319" style="fill: #0000ff; stroke: #0000ff"/>
     <use xlink:href="#m81f3408034" x="225.85675" y="86.937928" style="fill: #0000ff; stroke: #0000ff"/>
     <use xlink:href="#m81f3408034" x="232.8995" y="85.55267" style="fill: #0000ff; stroke: #0000ff"/>
     <use xlink:href="#m81f3408034" x="239.94225" y="84.016105" style="fill: #0000ff; stroke: #0000ff"/>
     <use xlink:href="#m81f3408034" x="246.985" y="83.485637" style="fill: #0000ff; stroke: #0000ff"/>
     <use xlink:href="#m81f3408034" x="254.02775" y="83.496426" style="fill: #0000ff; stroke: #0000ff"/>
     <use xlink:href="#m81f3408034" x="261.0705" y="82.45828" style="fill: #0000ff; stroke: #0000ff"/>
     <use xlink:href="#m81f3408034" x="268.11325" y="82.022193" style="fill: #0000ff; stroke: #0000ff"/>
     <use xlink:href="#m81f3408034" x="275.156" y="80.382384" style="fill: #0000ff; stroke: #0000ff"/>
     <use xlink:href="#m81f3408034" x="282.19875" y="79.2813" style="fill: #0000ff; stroke: #0000ff"/>
     <use xlink:href="#m81f3408034" x="289.2415" y="79.045715" style="fill: #0000ff; stroke: #0000ff"/>
     <use xlink:href="#m81f3408034" x="296.28425" y="78.635031" style="fill: #0000ff; stroke: #0000ff"/>
     <use xlink:href="#m81f3408034" x="303.327" y="77.98433" style="fill: #0000ff; stroke: #0000ff"/>
     <use xlink:href="#m81f3408034" x="310.36975" y="78.207807" style="fill: #0000ff; stroke: #0000ff"/>
     <use xlink:href="#m81f3408034" x="317.4125" y="76.975306" style="fill: #0000ff; stroke: #0000ff"/>
     <use xlink:href="#m81f3408034" x="324.45525" y="76.369237" style="fill: #0000ff; stroke: #0000ff"/>
     <use xlink:href="#m81f3408034" x="331.498" y="75.191709" style="fill: #0000ff; stroke: #0000ff"/>
     <use xlink:href="#m81f3408034" x="338.54075" y="75.640615" style="fill: #0000ff; stroke: #0000ff"/>
     <use xlink:href="#m81f3408034" x="345.5835" y="74.580232" style="fill: #0000ff; stroke: #0000ff"/>
     <use xlink:href="#m81f3408034" x="352.62625" y="75.052062" style="fill: #0000ff; stroke: #0000ff"/>
     <use xlink:href="#m81f3408034" x="359.669" y="73.687669" style="fill: #0000ff; stroke: #0000ff"/>
     <use xlink:href="#m81f3408034" x="366.71175" y="73.684108" style="fill: #0000ff; stroke: #0000ff"/>
     <use xlink:href="#m81f3408034" x="373.7545" y="73.405869" style="fill: #0000ff; stroke: #0000ff"/>
     <use xlink:href="#m81f3408034" x="380.79725" y="72.970442" style="fill: #0000ff; stroke: #0000ff"/>
     <use xlink:href="#m81f3408034" x="387.84" y="73.536969" style="fill: #0000ff; stroke: #0000ff"/>
     <use xlink:href="#m81f3408034" x="394.88275" y="72.360205" style="fill: #0000ff; stroke: #0000ff"/>
     <use xlink:href="#m81f3408034" x="401.9255" y="72.276955" style="fill: #0000ff; stroke: #0000ff"/>
     <use xlink:href="#m81f3408034" x="408.96825" y="71.723749" style="fill: #0000ff; stroke: #0000ff"/>
     <use xlink:href="#m81f3408034" x="416.011" y="71.213223" style="fill: #0000ff; stroke: #0000ff"/>
     <use xlink:href="#m81f3408034" x="423.05375" y="71.531926" style="fill: #0000ff; stroke: #0000ff"/>
     <use xlink:href="#m81f3408034" x="430.0965" y="70.890669" style="fill: #0000ff; stroke: #0000ff"/>
     <use xlink:href="#m81f3408034" x="437.13925" y="71.019052" style="fill: #0000ff; stroke: #0000ff"/>
     <use xlink:href="#m81f3408034" x="444.182" y="70.128757" style="fill: #0000ff; stroke: #0000ff"/>
     <use xlink:href="#m81f3408034" x="451.22475" y="70.000927" style="fill: #0000ff; stroke: #0000ff"/>
     <use xlink:href="#m81f3408034" x="458.2675" y="69.473229" style="fill: #0000ff; stroke: #0000ff"/>
     <use xlink:href="#m81f3408034" x="465.31025" y="69.621369" style="fill: #0000ff; stroke: #0000ff"/>
     <use xlink:href="#m81f3408034" x="472.353" y="69.723876" style="fill: #0000ff; stroke: #0000ff"/>
     <use xlink:href="#m81f3408034" x="479.39575" y="69.070695" style="fill: #0000ff; stroke: #0000ff"/>
     <use xlink:href="#m81f3408034" x="486.4385" y="68.850384" style="fill: #0000ff; stroke: #0000ff"/>
     <use xlink:href="#m81f3408034" x="493.48125" y="68.161381" style="fill: #0000ff; stroke: #0000ff"/>
     <use xlink:href="#m81f3408034" x="500.524" y="68.244895" style="fill: #0000ff; stroke: #0000ff"/>
     <use xlink:href="#m81f3408034" x="507.56675" y="68.280295" style="fill: #0000ff; stroke: #0000ff"/>
     <use xlink:href="#m81f3408034" x="514.6095" y="67.747769" style="fill: #0000ff; stroke: #0000ff"/>
     <use xlink:href="#m81f3408034" x="521.65225" y="67.719887" style="fill: #0000ff; stroke: #0000ff"/>
     <use xlink:href="#m81f3408034" x="528.695" y="67.745712" style="fill: #0000ff; stroke: #0000ff"/>
     <use xlink:href="#m81f3408034" x="535.73775" y="67.566418" style="fill: #0000ff; stroke: #0000ff"/>
     <use xlink:href="#m81f3408034" x="542.7805" y="67.552227" style="fill: #0000ff; stroke: #0000ff"/>
     <use xlink:href="#m81f3408034" x="549.82325" y="66.955048" style="fill: #0000ff; stroke: #0000ff"/>
     <use xlink:href="#m81f3408034" x="556.866" y="67.2082" style="fill: #0000ff; stroke: #0000ff"/>
     <use xlink:href="#m81f3408034" x="563.90875" y="67.149852" style="fill: #0000ff; stroke: #0000ff"/>
     <use xlink:href="#m81f3408034" x="570.9515" y="66.672456" style="fill: #0000ff; stroke: #0000ff"/>
     <use xlink:href="#m81f3408034" x="577.99425" y="66.770742" style="fill: #0000ff; stroke: #0000ff"/>
     <use xlink:href="#m81f3408034" x="585.037" y="66.146921" style="fill: #0000ff; stroke: #0000ff"/>
     <use xlink:href="#m81f3408034" x="592.07975" y="66.296196" style="fill: #0000ff; stroke: #0000ff"/>
     <use xlink:href="#m81f3408034" x="599.1225" y="66.42508" style="fill: #0000ff; stroke: #0000ff"/>
     <use xlink:href="#m81f3408034" x="606.16525" y="66.244785" style="fill: #0000ff; stroke: #0000ff"/>
     <use xlink:href="#m81f3408034" x="613.208" y="66.051379" style="fill: #0000ff; stroke: #0000ff"/>
     <use xlink:href="#m81f3408034" x="620.25075" y="66.033705" style="fill: #0000ff; stroke: #0000ff"/>
     <use xlink:href="#m81f3408034" x="627.2935" y="66.130672" style="fill: #0000ff; stroke: #0000ff"/>
     <use xlink:href="#m81f3408034" x="634.33625" y="66.13149" style="fill: #0000ff; stroke: #0000ff"/>
     <use xlink:href="#m81f3408034" x="641.379" y="65.849874" style="fill: #0000ff; stroke: #0000ff"/>
     <use xlink:href="#m81f3408034" x="648.42175" y="65.977414" style="fill: #0000ff; stroke: #0000ff"/>
     <use xlink:href="#m81f3408034" x="655.4645" y="65.399755" style="fill: #0000ff; stroke: #0000ff"/>
     <use xlink:href="#m81f3408034" x="662.50725" y="65.361691" style="fill: #0000ff; stroke: #0000ff"/>
     <use xlink:href="#m81f3408034" x="669.55" y="65.416109" style="fill: #0000ff; stroke: #0000ff"/>
     <use xlink:href="#m81f3408034" x="676.59275" y="65.164011" style="fill: #0000ff; stroke: #0000ff"/>
     <use xlink:href="#m81f3408034" x="683.6355" y="65.629853" style="fill: #0000ff; stroke: #0000ff"/>
     <use xlink:href="#m81f3408034" x="690.67825" y="65.238952" style="fill: #0000ff; stroke: #0000ff"/>
     <use xlink:href="#m81f3408034" x="697.721" y="64.813417" style="fill: #0000ff; stroke: #0000ff"/>
     <use xlink:href="#m81f3408034" x="704.76375" y="65.385748" style="fill: #0000ff; stroke: #0000ff"/>
     <use xlink:href="#m81f3408034" x="711.8065" y="65.133993" style="fill: #0000ff; stroke: #0000ff"/>
     <use xlink:href="#m81f3408034" x="718.84925" y="64.893" style="fill: #0000ff; stroke: #0000ff"/>
     <use xlink:href="#m81f3408034" x="725.892" y="64.792921" style="fill: #0000ff; stroke: #0000ff"/>
     <use xlink:href="#m81f3408034" x="732.93475" y="64.581103" style="fill: #0000ff; stroke: #0000ff"/>
     <use xlink:href="#m81f3408034" x="739.9775" y="64.880497" style="fill: #0000ff; stroke: #0000ff"/>
     <use xlink:href="#m81f3408034" x="747.02025" y="64.530615" style="fill: #0000ff; stroke: #0000ff"/>
     <use xlink:href="#m81f3408034" x="754.063" y="64.748869" style="fill: #0000ff; stroke: #0000ff"/>
     <use xlink:href="#m81f3408034" x="761.10575" y="64.255805" style="fill: #0000ff; stroke: #0000ff"/>
     <use xlink:href="#m81f3408034" x="768.1485" y="64.363007" style="fill: #0000ff; stroke: #0000ff"/>
     <use xlink:href="#m81f3408034" x="775.19125" y="64.538476" style="fill: #0000ff; stroke: #0000ff"/>
     <use xlink:href="#m81f3408034" x="782.234" y="64.220775" style="fill: #0000ff; stroke: #0000ff"/>
     <use xlink:href="#m81f3408034" x="789.27675" y="64.161503" style="fill: #0000ff; stroke: #0000ff"/>
     <use xlink:href="#m81f3408034" x="796.3195" y="64.056042" style="fill: #0000ff; stroke: #0000ff"/>
     <use xlink:href="#m81f3408034" x="803.36225" y="63.946414" style="fill: #0000ff; stroke: #0000ff"/>
     <use xlink:href="#m81f3408034" x="810.405" y="63.860895" style="fill: #0000ff; stroke: #0000ff"/>
    </g>
   </g>
   <g id="line2d_27">
    <path d="M 113.17275 119.576974 
L 120.2155 137.824345 
L 127.25825 139.962704 
L 134.301 136.516982 
L 141.34375 123.436203 
L 148.3865 127.775545 
L 155.42925 150.734824 
L 162.472 142.446515 
L 169.51475 120.298844 
L 176.5575 132.225728 
L 183.60025 151.826887 
L 190.643 139.140228 
L 197.68575 135.712073 
L 204.7285 133.32982 
L 211.77125 123.81708 
L 218.814 124.399092 
L 225.85675 122.672524 
L 232.8995 130.887107 
L 239.94225 128.774598 
L 246.985 130.721609 
L 254.02775 129.361357 
L 261.0705 128.342283 
L 268.11325 139.249962 
L 275.156 130.564763 
L 282.19875 139.174652 
L 289.2415 132.162948 
L 296.28425 134.831775 
L 303.327 129.559221 
L 310.36975 130.612798 
L 317.4125 122.947809 
L 324.45525 124.309907 
L 331.498 126.247369 
L 338.54075 126.382452 
L 345.5835 129.688291 
L 352.62625 119.54379 
L 359.669 126.0274 
L 366.71175 131.70407 
L 373.7545 118.97816 
L 380.79725 128.840676 
L 387.84 120.267401 
L 394.88275 124.395636 
L 401.9255 111.386053 
L 408.96825 120.558828 
L 416.011 121.939365 
L 423.05375 121.647884 
L 430.0965 119.935429 
L 437.13925 110.719763 
L 444.182 122.725888 
L 451.22475 120.04912 
L 458.2675 114.360184 
L 465.31025 110.026989 
L 472.353 107.19844 
L 479.39575 113.3127 
L 486.4385 113.865326 
L 493.48125 106.059529 
L 500.524 104.692947 
L 507.56675 103.15567 
L 514.6095 103.334278 
L 521.65225 111.655033 
L 528.695 105.354251 
L 535.73775 112.340606 
L 542.7805 108.81224 
L 549.82325 104.953908 
L 556.866 108.30174 
L 563.90875 101.784735 
L 570.9515 115.404687 
L 577.99425 106.103845 
L 585.037 113.353481 
L 592.07975 101.95535 
L 599.1225 108.73176 
L 606.16525 103.395845 
L 613.208 103.585083 
L 620.25075 110.344584 
L 627.2935 106.228614 
L 634.33625 104.809143 
L 641.379 104.906004 
L 648.42175 102.930056 
L 655.4645 103.288933 
L 662.50725 102.402384 
L 669.55 101.54551 
L 676.59275 107.221943 
L 683.6355 111.711931 
L 690.67825 106.134918 
L 697.721 99.405489 
L 704.76375 103.28313 
L 711.8065 104.18796 
L 718.84925 106.286119 
L 725.892 104.615526 
L 732.93475 100.426884 
L 739.9775 103.273001 
L 747.02025 100.198026 
L 754.063 102.586294 
L 761.10575 105.937951 
L 768.1485 98.930521 
L 775.19125 102.024488 
L 782.234 101.142766 
L 789.27675 100.788136 
L 796.3195 101.834327 
L 803.36225 98.041412 
L 810.405 99.166369 
" clip-path="url(#pa8846a75cc)" style="fill: none; stroke-dasharray: 5.55,2.4; stroke-dashoffset: 0; stroke: #ff0000; stroke-width: 1.5"/>
   </g>
   <g id="line2d_28">
    <path d="M 113.17275 175.297432 
L 120.2155 139.386918 
L 127.25825 155.092525 
L 134.301 142.831374 
L 141.34375 144.861741 
L 148.3865 144.009484 
L 155.42925 142.456776 
L 162.472 136.09237 
L 169.51475 145.858156 
L 176.5575 150.542368 
L 183.60025 133.930058 
L 190.643 137.695882 
L 197.68575 137.534262 
L 204.7285 139.981064 
L 211.77125 138.672012 
L 218.814 139.557955 
L 225.85675 140.839494 
L 232.8995 138.371352 
L 239.94225 139.399632 
L 246.985 139.123609 
L 254.02775 140.575948 
L 261.0705 142.342188 
L 268.11325 136.404663 
L 275.156 137.376678 
L 282.19875 135.176065 
L 289.2415 137.580371 
L 296.28425 134.707718 
L 303.327 136.46441 
L 310.36975 138.827117 
L 317.4125 138.734265 
L 324.45525 139.113375 
L 331.498 136.45829 
L 338.54075 138.342837 
L 345.5835 136.291078 
L 352.62625 140.094517 
L 359.669 143.913176 
L 366.71175 138.052966 
L 373.7545 138.497572 
L 380.79725 137.494932 
L 387.84 141.256324 
L 394.88275 135.801496 
L 401.9255 140.570303 
L 408.96825 142.050338 
L 416.011 139.504513 
L 423.05375 140.458037 
L 430.0965 139.860435 
L 437.13925 141.088162 
L 444.182 138.54996 
L 451.22475 137.872116 
L 458.2675 141.72206 
L 465.31025 143.084844 
L 472.353 143.68015 
L 479.39575 141.145667 
L 486.4385 144.400437 
L 493.48125 140.447274 
L 500.524 143.97746 
L 507.56675 143.303467 
L 514.6095 142.246883 
L 521.65225 140.980196 
L 528.695 141.465636 
L 535.73775 141.903042 
L 542.7805 144.04396 
L 549.82325 141.273681 
L 556.866 142.532851 
L 563.90875 143.306738 
L 570.9515 141.498767 
L 577.99425 144.079993 
L 585.037 140.68038 
L 592.07975 143.512305 
L 599.1225 142.144878 
L 606.16525 145.382001 
L 613.208 142.739103 
L 620.25075 144.250713 
L 627.2935 144.346124 
L 634.33625 142.319476 
L 641.379 142.619899 
L 648.42175 145.11463 
L 655.4645 144.867386 
L 662.50725 143.842403 
L 669.55 144.078674 
L 676.59275 143.943696 
L 683.6355 142.471811 
L 690.67825 144.236759 
L 697.721 145.489941 
L 704.76375 143.43127 
L 711.8065 142.928631 
L 718.84925 143.730823 
L 725.892 142.496501 
L 732.93475 145.80904 
L 739.9775 141.122428 
L 747.02025 144.214364 
L 754.063 144.033277 
L 761.10575 141.012113 
L 768.1485 144.072158 
L 775.19125 145.387962 
L 782.234 144.917109 
L 789.27675 143.865352 
L 796.3195 144.05802 
L 803.36225 146.790578 
L 810.405 144.792709 
" clip-path="url(#pa8846a75cc)" style="fill: none; stroke: #ff0000; stroke-width: 1.5; stroke-linecap: square"/>
    <defs>
     <path id="m61ebd38294" d="M 0 1.5 
C 0.397805 1.5 0.77937 1.341951 1.06066 1.06066 
C 1.341951 0.77937 1.5 0.397805 1.5 0 
C 1.5 -0.397805 1.341951 -0.77937 1.06066 -1.06066 
C 0.77937 -1.341951 0.397805 -1.5 0 -1.5 
C -0.397805 -1.5 -0.77937 -1.341951 -1.06066 -1.06066 
C -1.341951 -0.77937 -1.5 -0.397805 -1.5 0 
C -1.5 0.397805 -1.341951 0.77937 -1.06066 1.06066 
C -0.77937 1.341951 -0.397805 1.5 0 1.5 
z
" style="stroke: #ff0000"/>
    </defs>
    <g clip-path="url(#pa8846a75cc)">
     <use xlink:href="#m61ebd38294" x="113.17275" y="175.297432" style="fill: #ff0000; stroke: #ff0000"/>
     <use xlink:href="#m61ebd38294" x="120.2155" y="139.386918" style="fill: #ff0000; stroke: #ff0000"/>
     <use xlink:href="#m61ebd38294" x="127.25825" y="155.092525" style="fill: #ff0000; stroke: #ff0000"/>
     <use xlink:href="#m61ebd38294" x="134.301" y="142.831374" style="fill: #ff0000; stroke: #ff0000"/>
     <use xlink:href="#m61ebd38294" x="141.34375" y="144.861741" style="fill: #ff0000; stroke: #ff0000"/>
     <use xlink:href="#m61ebd38294" x="148.3865" y="144.009484" style="fill: #ff0000; stroke: #ff0000"/>
     <use xlink:href="#m61ebd38294" x="155.42925" y="142.456776" style="fill: #ff0000; stroke: #ff0000"/>
     <use xlink:href="#m61ebd38294" x="162.472" y="136.09237" style="fill: #ff0000; stroke: #ff0000"/>
     <use xlink:href="#m61ebd38294" x="169.51475" y="145.858156" style="fill: #ff0000; stroke: #ff0000"/>
     <use xlink:href="#m61ebd38294" x="176.5575" y="150.542368" style="fill: #ff0000; stroke: #ff0000"/>
     <use xlink:href="#m61ebd38294" x="183.60025" y="133.930058" style="fill: #ff0000; stroke: #ff0000"/>
     <use xlink:href="#m61ebd38294" x="190.643" y="137.695882" style="fill: #ff0000; stroke: #ff0000"/>
     <use xlink:href="#m61ebd38294" x="197.68575" y="137.534262" style="fill: #ff0000; stroke: #ff0000"/>
     <use xlink:href="#m61ebd38294" x="204.7285" y="139.981064" style="fill: #ff0000; stroke: #ff0000"/>
     <use xlink:href="#m61ebd38294" x="211.77125" y="138.672012" style="fill: #ff0000; stroke: #ff0000"/>
     <use xlink:href="#m61ebd38294" x="218.814" y="139.557955" style="fill: #ff0000; stroke: #ff0000"/>
     <use xlink:href="#m61ebd38294" x="225.85675" y="140.839494" style="fill: #ff0000; stroke: #ff0000"/>
     <use xlink:href="#m61ebd38294" x="232.8995" y="138.371352" style="fill: #ff0000; stroke: #ff0000"/>
     <use xlink:href="#m61ebd38294" x="239.94225" y="139.399632" style="fill: #ff0000; stroke: #ff0000"/>
     <use xlink:href="#m61ebd38294" x="246.985" y="139.123609" style="fill: #ff0000; stroke: #ff0000"/>
     <use xlink:href="#m61ebd38294" x="254.02775" y="140.575948" style="fill: #ff0000; stroke: #ff0000"/>
     <use xlink:href="#m61ebd38294" x="261.0705" y="142.342188" style="fill: #ff0000; stroke: #ff0000"/>
     <use xlink:href="#m61ebd38294" x="268.11325" y="136.404663" style="fill: #ff0000; stroke: #ff0000"/>
     <use xlink:href="#m61ebd38294" x="275.156" y="137.376678" style="fill: #ff0000; stroke: #ff0000"/>
     <use xlink:href="#m61ebd38294" x="282.19875" y="135.176065" style="fill: #ff0000; stroke: #ff0000"/>
     <use xlink:href="#m61ebd38294" x="289.2415" y="137.580371" style="fill: #ff0000; stroke: #ff0000"/>
     <use xlink:href="#m61ebd38294" x="296.28425" y="134.707718" style="fill: #ff0000; stroke: #ff0000"/>
     <use xlink:href="#m61ebd38294" x="303.327" y="136.46441" style="fill: #ff0000; stroke: #ff0000"/>
     <use xlink:href="#m61ebd38294" x="310.36975" y="138.827117" style="fill: #ff0000; stroke: #ff0000"/>
     <use xlink:href="#m61ebd38294" x="317.4125" y="138.734265" style="fill: #ff0000; stroke: #ff0000"/>
     <use xlink:href="#m61ebd38294" x="324.45525" y="139.113375" style="fill: #ff0000; stroke: #ff0000"/>
     <use xlink:href="#m61ebd38294" x="331.498" y="136.45829" style="fill: #ff0000; stroke: #ff0000"/>
     <use xlink:href="#m61ebd38294" x="338.54075" y="138.342837" style="fill: #ff0000; stroke: #ff0000"/>
     <use xlink:href="#m61ebd38294" x="345.5835" y="136.291078" style="fill: #ff0000; stroke: #ff0000"/>
     <use xlink:href="#m61ebd38294" x="352.62625" y="140.094517" style="fill: #ff0000; stroke: #ff0000"/>
     <use xlink:href="#m61ebd38294" x="359.669" y="143.913176" style="fill: #ff0000; stroke: #ff0000"/>
     <use xlink:href="#m61ebd38294" x="366.71175" y="138.052966" style="fill: #ff0000; stroke: #ff0000"/>
     <use xlink:href="#m61ebd38294" x="373.7545" y="138.497572" style="fill: #ff0000; stroke: #ff0000"/>
     <use xlink:href="#m61ebd38294" x="380.79725" y="137.494932" style="fill: #ff0000; stroke: #ff0000"/>
     <use xlink:href="#m61ebd38294" x="387.84" y="141.256324" style="fill: #ff0000; stroke: #ff0000"/>
     <use xlink:href="#m61ebd38294" x="394.88275" y="135.801496" style="fill: #ff0000; stroke: #ff0000"/>
     <use xlink:href="#m61ebd38294" x="401.9255" y="140.570303" style="fill: #ff0000; stroke: #ff0000"/>
     <use xlink:href="#m61ebd38294" x="408.96825" y="142.050338" style="fill: #ff0000; stroke: #ff0000"/>
     <use xlink:href="#m61ebd38294" x="416.011" y="139.504513" style="fill: #ff0000; stroke: #ff0000"/>
     <use xlink:href="#m61ebd38294" x="423.05375" y="140.458037" style="fill: #ff0000; stroke: #ff0000"/>
     <use xlink:href="#m61ebd38294" x="430.0965" y="139.860435" style="fill: #ff0000; stroke: #ff0000"/>
     <use xlink:href="#m61ebd38294" x="437.13925" y="141.088162" style="fill: #ff0000; stroke: #ff0000"/>
     <use xlink:href="#m61ebd38294" x="444.182" y="138.54996" style="fill: #ff0000; stroke: #ff0000"/>
     <use xlink:href="#m61ebd38294" x="451.22475" y="137.872116" style="fill: #ff0000; stroke: #ff0000"/>
     <use xlink:href="#m61ebd38294" x="458.2675" y="141.72206" style="fill: #ff0000; stroke: #ff0000"/>
     <use xlink:href="#m61ebd38294" x="465.31025" y="143.084844" style="fill: #ff0000; stroke: #ff0000"/>
     <use xlink:href="#m61ebd38294" x="472.353" y="143.68015" style="fill: #ff0000; stroke: #ff0000"/>
     <use xlink:href="#m61ebd38294" x="479.39575" y="141.145667" style="fill: #ff0000; stroke: #ff0000"/>
     <use xlink:href="#m61ebd38294" x="486.4385" y="144.400437" style="fill: #ff0000; stroke: #ff0000"/>
     <use xlink:href="#m61ebd38294" x="493.48125" y="140.447274" style="fill: #ff0000; stroke: #ff0000"/>
     <use xlink:href="#m61ebd38294" x="500.524" y="143.97746" style="fill: #ff0000; stroke: #ff0000"/>
     <use xlink:href="#m61ebd38294" x="507.56675" y="143.303467" style="fill: #ff0000; stroke: #ff0000"/>
     <use xlink:href="#m61ebd38294" x="514.6095" y="142.246883" style="fill: #ff0000; stroke: #ff0000"/>
     <use xlink:href="#m61ebd38294" x="521.65225" y="140.980196" style="fill: #ff0000; stroke: #ff0000"/>
     <use xlink:href="#m61ebd38294" x="528.695" y="141.465636" style="fill: #ff0000; stroke: #ff0000"/>
     <use xlink:href="#m61ebd38294" x="535.73775" y="141.903042" style="fill: #ff0000; stroke: #ff0000"/>
     <use xlink:href="#m61ebd38294" x="542.7805" y="144.04396" style="fill: #ff0000; stroke: #ff0000"/>
     <use xlink:href="#m61ebd38294" x="549.82325" y="141.273681" style="fill: #ff0000; stroke: #ff0000"/>
     <use xlink:href="#m61ebd38294" x="556.866" y="142.532851" style="fill: #ff0000; stroke: #ff0000"/>
     <use xlink:href="#m61ebd38294" x="563.90875" y="143.306738" style="fill: #ff0000; stroke: #ff0000"/>
     <use xlink:href="#m61ebd38294" x="570.9515" y="141.498767" style="fill: #ff0000; stroke: #ff0000"/>
     <use xlink:href="#m61ebd38294" x="577.99425" y="144.079993" style="fill: #ff0000; stroke: #ff0000"/>
     <use xlink:href="#m61ebd38294" x="585.037" y="140.68038" style="fill: #ff0000; stroke: #ff0000"/>
     <use xlink:href="#m61ebd38294" x="592.07975" y="143.512305" style="fill: #ff0000; stroke: #ff0000"/>
     <use xlink:href="#m61ebd38294" x="599.1225" y="142.144878" style="fill: #ff0000; stroke: #ff0000"/>
     <use xlink:href="#m61ebd38294" x="606.16525" y="145.382001" style="fill: #ff0000; stroke: #ff0000"/>
     <use xlink:href="#m61ebd38294" x="613.208" y="142.739103" style="fill: #ff0000; stroke: #ff0000"/>
     <use xlink:href="#m61ebd38294" x="620.25075" y="144.250713" style="fill: #ff0000; stroke: #ff0000"/>
     <use xlink:href="#m61ebd38294" x="627.2935" y="144.346124" style="fill: #ff0000; stroke: #ff0000"/>
     <use xlink:href="#m61ebd38294" x="634.33625" y="142.319476" style="fill: #ff0000; stroke: #ff0000"/>
     <use xlink:href="#m61ebd38294" x="641.379" y="142.619899" style="fill: #ff0000; stroke: #ff0000"/>
     <use xlink:href="#m61ebd38294" x="648.42175" y="145.11463" style="fill: #ff0000; stroke: #ff0000"/>
     <use xlink:href="#m61ebd38294" x="655.4645" y="144.867386" style="fill: #ff0000; stroke: #ff0000"/>
     <use xlink:href="#m61ebd38294" x="662.50725" y="143.842403" style="fill: #ff0000; stroke: #ff0000"/>
     <use xlink:href="#m61ebd38294" x="669.55" y="144.078674" style="fill: #ff0000; stroke: #ff0000"/>
     <use xlink:href="#m61ebd38294" x="676.59275" y="143.943696" style="fill: #ff0000; stroke: #ff0000"/>
     <use xlink:href="#m61ebd38294" x="683.6355" y="142.471811" style="fill: #ff0000; stroke: #ff0000"/>
     <use xlink:href="#m61ebd38294" x="690.67825" y="144.236759" style="fill: #ff0000; stroke: #ff0000"/>
     <use xlink:href="#m61ebd38294" x="697.721" y="145.489941" style="fill: #ff0000; stroke: #ff0000"/>
     <use xlink:href="#m61ebd38294" x="704.76375" y="143.43127" style="fill: #ff0000; stroke: #ff0000"/>
     <use xlink:href="#m61ebd38294" x="711.8065" y="142.928631" style="fill: #ff0000; stroke: #ff0000"/>
     <use xlink:href="#m61ebd38294" x="718.84925" y="143.730823" style="fill: #ff0000; stroke: #ff0000"/>
     <use xlink:href="#m61ebd38294" x="725.892" y="142.496501" style="fill: #ff0000; stroke: #ff0000"/>
     <use xlink:href="#m61ebd38294" x="732.93475" y="145.80904" style="fill: #ff0000; stroke: #ff0000"/>
     <use xlink:href="#m61ebd38294" x="739.9775" y="141.122428" style="fill: #ff0000; stroke: #ff0000"/>
     <use xlink:href="#m61ebd38294" x="747.02025" y="144.214364" style="fill: #ff0000; stroke: #ff0000"/>
     <use xlink:href="#m61ebd38294" x="754.063" y="144.033277" style="fill: #ff0000; stroke: #ff0000"/>
     <use xlink:href="#m61ebd38294" x="761.10575" y="141.012113" style="fill: #ff0000; stroke: #ff0000"/>
     <use xlink:href="#m61ebd38294" x="768.1485" y="144.072158" style="fill: #ff0000; stroke: #ff0000"/>
     <use xlink:href="#m61ebd38294" x="775.19125" y="145.387962" style="fill: #ff0000; stroke: #ff0000"/>
     <use xlink:href="#m61ebd38294" x="782.234" y="144.917109" style="fill: #ff0000; stroke: #ff0000"/>
     <use xlink:href="#m61ebd38294" x="789.27675" y="143.865352" style="fill: #ff0000; stroke: #ff0000"/>
     <use xlink:href="#m61ebd38294" x="796.3195" y="144.05802" style="fill: #ff0000; stroke: #ff0000"/>
     <use xlink:href="#m61ebd38294" x="803.36225" y="146.790578" style="fill: #ff0000; stroke: #ff0000"/>
     <use xlink:href="#m61ebd38294" x="810.405" y="144.792709" style="fill: #ff0000; stroke: #ff0000"/>
    </g>
   </g>
   <g id="line2d_29">
    <path d="M 113.17275 394.428362 
L 120.2155 394.344841 
L 127.25825 394.349141 
L 134.301 394.423805 
L 141.34375 394.398772 
L 148.3865 394.328995 
L 155.42925 394.338069 
L 162.472 394.373403 
L 169.51475 394.339711 
L 176.5575 394.348027 
L 183.60025 394.341979 
L 190.643 394.361282 
L 197.68575 394.360972 
L 204.7285 394.334363 
L 211.77125 394.377201 
L 218.814 394.407035 
L 225.85675 394.342335 
L 232.8995 394.365384 
L 239.94225 394.340087 
L 246.985 394.296094 
L 254.02775 394.372895 
L 261.0705 394.352366 
L 268.11325 394.364757 
L 275.156 394.414638 
L 282.19875 394.376713 
L 289.2415 394.383466 
L 296.28425 394.399135 
L 303.327 394.398323 
L 310.36975 394.3761 
L 317.4125 394.302808 
L 324.45525 394.36328 
L 331.498 394.397961 
L 338.54075 394.408176 
L 345.5835 394.331408 
L 352.62625 394.358578 
L 359.669 394.352999 
L 366.71175 394.375869 
L 373.7545 394.436282 
L 380.79725 394.390291 
L 387.84 394.373205 
L 394.88275 394.392975 
L 401.9255 394.349069 
L 408.96825 394.337904 
L 416.011 394.369657 
L 423.05375 394.419209 
L 430.0965 394.379615 
L 437.13925 394.405452 
L 444.182 394.324345 
L 451.22475 394.341782 
L 458.2675 394.387482 
L 465.31025 394.382569 
L 472.353 394.381699 
L 479.39575 394.3047 
L 486.4385 394.364632 
L 493.48125 394.354311 
L 500.524 394.379575 
L 507.56675 394.417824 
L 514.6095 394.439091 
L 521.65225 394.375882 
L 528.695 394.364539 
L 535.73775 394.34653 
L 542.7805 394.325948 
L 549.82325 394.392362 
L 556.866 394.298198 
L 563.90875 394.385754 
L 570.9515 394.344248 
L 577.99425 394.332918 
L 585.037 394.405274 
L 592.07975 394.383809 
L 599.1225 394.369492 
L 606.16525 394.426594 
L 613.208 394.354799 
L 620.25075 394.370666 
L 627.2935 394.409376 
L 634.33625 394.352729 
L 641.379 394.377274 
L 648.42175 394.405564 
L 655.4645 394.357661 
L 662.50725 394.39312 
L 669.55 394.322565 
L 676.59275 394.365173 
L 683.6355 394.345237 
L 690.67825 394.370283 
L 697.721 394.377973 
L 704.76375 394.328869 
L 711.8065 394.305531 
L 718.84925 394.358829 
L 725.892 394.298686 
L 732.93475 394.382226 
L 739.9775 394.343417 
L 747.02025 394.321879 
L 754.063 394.465601 
L 761.10575 394.348785 
L 768.1485 394.370376 
L 775.19125 394.383538 
L 782.234 394.372229 
L 789.27675 394.323752 
L 796.3195 394.350981 
L 803.36225 394.37329 
L 810.405 394.361552 
" clip-path="url(#pa8846a75cc)" style="fill: none; stroke: #008000; stroke-width: 1.5; stroke-linecap: square"/>
    <defs>
     <path id="me9a78b6514" d="M 0 1.5 
C 0.397805 1.5 0.77937 1.341951 1.06066 1.06066 
C 1.341951 0.77937 1.5 0.397805 1.5 0 
C 1.5 -0.397805 1.341951 -0.77937 1.06066 -1.06066 
C 0.77937 -1.341951 0.397805 -1.5 0 -1.5 
C -0.397805 -1.5 -0.77937 -1.341951 -1.06066 -1.06066 
C -1.341951 -0.77937 -1.5 -0.397805 -1.5 0 
C -1.5 0.397805 -1.341951 0.77937 -1.06066 1.06066 
C -0.77937 1.341951 -0.397805 1.5 0 1.5 
z
" style="stroke: #008000"/>
    </defs>
    <g clip-path="url(#pa8846a75cc)">
     <use xlink:href="#me9a78b6514" x="113.17275" y="394.428362" style="fill: #008000; stroke: #008000"/>
     <use xlink:href="#me9a78b6514" x="120.2155" y="394.344841" style="fill: #008000; stroke: #008000"/>
     <use xlink:href="#me9a78b6514" x="127.25825" y="394.349141" style="fill: #008000; stroke: #008000"/>
     <use xlink:href="#me9a78b6514" x="134.301" y="394.423805" style="fill: #008000; stroke: #008000"/>
     <use xlink:href="#me9a78b6514" x="141.34375" y="394.398772" style="fill: #008000; stroke: #008000"/>
     <use xlink:href="#me9a78b6514" x="148.3865" y="394.328995" style="fill: #008000; stroke: #008000"/>
     <use xlink:href="#me9a78b6514" x="155.42925" y="394.338069" style="fill: #008000; stroke: #008000"/>
     <use xlink:href="#me9a78b6514" x="162.472" y="394.373403" style="fill: #008000; stroke: #008000"/>
     <use xlink:href="#me9a78b6514" x="169.51475" y="394.339711" style="fill: #008000; stroke: #008000"/>
     <use xlink:href="#me9a78b6514" x="176.5575" y="394.348027" style="fill: #008000; stroke: #008000"/>
     <use xlink:href="#me9a78b6514" x="183.60025" y="394.341979" style="fill: #008000; stroke: #008000"/>
     <use xlink:href="#me9a78b6514" x="190.643" y="394.361282" style="fill: #008000; stroke: #008000"/>
     <use xlink:href="#me9a78b6514" x="197.68575" y="394.360972" style="fill: #008000; stroke: #008000"/>
     <use xlink:href="#me9a78b6514" x="204.7285" y="394.334363" style="fill: #008000; stroke: #008000"/>
     <use xlink:href="#me9a78b6514" x="211.77125" y="394.377201" style="fill: #008000; stroke: #008000"/>
     <use xlink:href="#me9a78b6514" x="218.814" y="394.407035" style="fill: #008000; stroke: #008000"/>
     <use xlink:href="#me9a78b6514" x="225.85675" y="394.342335" style="fill: #008000; stroke: #008000"/>
     <use xlink:href="#me9a78b6514" x="232.8995" y="394.365384" style="fill: #008000; stroke: #008000"/>
     <use xlink:href="#me9a78b6514" x="239.94225" y="394.340087" style="fill: #008000; stroke: #008000"/>
     <use xlink:href="#me9a78b6514" x="246.985" y="394.296094" style="fill: #008000; stroke: #008000"/>
     <use xlink:href="#me9a78b6514" x="254.02775" y="394.372895" style="fill: #008000; stroke: #008000"/>
     <use xlink:href="#me9a78b6514" x="261.0705" y="394.352366" style="fill: #008000; stroke: #008000"/>
     <use xlink:href="#me9a78b6514" x="268.11325" y="394.364757" style="fill: #008000; stroke: #008000"/>
     <use xlink:href="#me9a78b6514" x="275.156" y="394.414638" style="fill: #008000; stroke: #008000"/>
     <use xlink:href="#me9a78b6514" x="282.19875" y="394.376713" style="fill: #008000; stroke: #008000"/>
     <use xlink:href="#me9a78b6514" x="289.2415" y="394.383466" style="fill: #008000; stroke: #008000"/>
     <use xlink:href="#me9a78b6514" x="296.28425" y="394.399135" style="fill: #008000; stroke: #008000"/>
     <use xlink:href="#me9a78b6514" x="303.327" y="394.398323" style="fill: #008000; stroke: #008000"/>
     <use xlink:href="#me9a78b6514" x="310.36975" y="394.3761" style="fill: #008000; stroke: #008000"/>
     <use xlink:href="#me9a78b6514" x="317.4125" y="394.302808" style="fill: #008000; stroke: #008000"/>
     <use xlink:href="#me9a78b6514" x="324.45525" y="394.36328" style="fill: #008000; stroke: #008000"/>
     <use xlink:href="#me9a78b6514" x="331.498" y="394.397961" style="fill: #008000; stroke: #008000"/>
     <use xlink:href="#me9a78b6514" x="338.54075" y="394.408176" style="fill: #008000; stroke: #008000"/>
     <use xlink:href="#me9a78b6514" x="345.5835" y="394.331408" style="fill: #008000; stroke: #008000"/>
     <use xlink:href="#me9a78b6514" x="352.62625" y="394.358578" style="fill: #008000; stroke: #008000"/>
     <use xlink:href="#me9a78b6514" x="359.669" y="394.352999" style="fill: #008000; stroke: #008000"/>
     <use xlink:href="#me9a78b6514" x="366.71175" y="394.375869" style="fill: #008000; stroke: #008000"/>
     <use xlink:href="#me9a78b6514" x="373.7545" y="394.436282" style="fill: #008000; stroke: #008000"/>
     <use xlink:href="#me9a78b6514" x="380.79725" y="394.390291" style="fill: #008000; stroke: #008000"/>
     <use xlink:href="#me9a78b6514" x="387.84" y="394.373205" style="fill: #008000; stroke: #008000"/>
     <use xlink:href="#me9a78b6514" x="394.88275" y="394.392975" style="fill: #008000; stroke: #008000"/>
     <use xlink:href="#me9a78b6514" x="401.9255" y="394.349069" style="fill: #008000; stroke: #008000"/>
     <use xlink:href="#me9a78b6514" x="408.96825" y="394.337904" style="fill: #008000; stroke: #008000"/>
     <use xlink:href="#me9a78b6514" x="416.011" y="394.369657" style="fill: #008000; stroke: #008000"/>
     <use xlink:href="#me9a78b6514" x="423.05375" y="394.419209" style="fill: #008000; stroke: #008000"/>
     <use xlink:href="#me9a78b6514" x="430.0965" y="394.379615" style="fill: #008000; stroke: #008000"/>
     <use xlink:href="#me9a78b6514" x="437.13925" y="394.405452" style="fill: #008000; stroke: #008000"/>
     <use xlink:href="#me9a78b6514" x="444.182" y="394.324345" style="fill: #008000; stroke: #008000"/>
     <use xlink:href="#me9a78b6514" x="451.22475" y="394.341782" style="fill: #008000; stroke: #008000"/>
     <use xlink:href="#me9a78b6514" x="458.2675" y="394.387482" style="fill: #008000; stroke: #008000"/>
     <use xlink:href="#me9a78b6514" x="465.31025" y="394.382569" style="fill: #008000; stroke: #008000"/>
     <use xlink:href="#me9a78b6514" x="472.353" y="394.381699" style="fill: #008000; stroke: #008000"/>
     <use xlink:href="#me9a78b6514" x="479.39575" y="394.3047" style="fill: #008000; stroke: #008000"/>
     <use xlink:href="#me9a78b6514" x="486.4385" y="394.364632" style="fill: #008000; stroke: #008000"/>
     <use xlink:href="#me9a78b6514" x="493.48125" y="394.354311" style="fill: #008000; stroke: #008000"/>
     <use xlink:href="#me9a78b6514" x="500.524" y="394.379575" style="fill: #008000; stroke: #008000"/>
     <use xlink:href="#me9a78b6514" x="507.56675" y="394.417824" style="fill: #008000; stroke: #008000"/>
     <use xlink:href="#me9a78b6514" x="514.6095" y="394.439091" style="fill: #008000; stroke: #008000"/>
     <use xlink:href="#me9a78b6514" x="521.65225" y="394.375882" style="fill: #008000; stroke: #008000"/>
     <use xlink:href="#me9a78b6514" x="528.695" y="394.364539" style="fill: #008000; stroke: #008000"/>
     <use xlink:href="#me9a78b6514" x="535.73775" y="394.34653" style="fill: #008000; stroke: #008000"/>
     <use xlink:href="#me9a78b6514" x="542.7805" y="394.325948" style="fill: #008000; stroke: #008000"/>
     <use xlink:href="#me9a78b6514" x="549.82325" y="394.392362" style="fill: #008000; stroke: #008000"/>
     <use xlink:href="#me9a78b6514" x="556.866" y="394.298198" style="fill: #008000; stroke: #008000"/>
     <use xlink:href="#me9a78b6514" x="563.90875" y="394.385754" style="fill: #008000; stroke: #008000"/>
     <use xlink:href="#me9a78b6514" x="570.9515" y="394.344248" style="fill: #008000; stroke: #008000"/>
     <use xlink:href="#me9a78b6514" x="577.99425" y="394.332918" style="fill: #008000; stroke: #008000"/>
     <use xlink:href="#me9a78b6514" x="585.037" y="394.405274" style="fill: #008000; stroke: #008000"/>
     <use xlink:href="#me9a78b6514" x="592.07975" y="394.383809" style="fill: #008000; stroke: #008000"/>
     <use xlink:href="#me9a78b6514" x="599.1225" y="394.369492" style="fill: #008000; stroke: #008000"/>
     <use xlink:href="#me9a78b6514" x="606.16525" y="394.426594" style="fill: #008000; stroke: #008000"/>
     <use xlink:href="#me9a78b6514" x="613.208" y="394.354799" style="fill: #008000; stroke: #008000"/>
     <use xlink:href="#me9a78b6514" x="620.25075" y="394.370666" style="fill: #008000; stroke: #008000"/>
     <use xlink:href="#me9a78b6514" x="627.2935" y="394.409376" style="fill: #008000; stroke: #008000"/>
     <use xlink:href="#me9a78b6514" x="634.33625" y="394.352729" style="fill: #008000; stroke: #008000"/>
     <use xlink:href="#me9a78b6514" x="641.379" y="394.377274" style="fill: #008000; stroke: #008000"/>
     <use xlink:href="#me9a78b6514" x="648.42175" y="394.405564" style="fill: #008000; stroke: #008000"/>
     <use xlink:href="#me9a78b6514" x="655.4645" y="394.357661" style="fill: #008000; stroke: #008000"/>
     <use xlink:href="#me9a78b6514" x="662.50725" y="394.39312" style="fill: #008000; stroke: #008000"/>
     <use xlink:href="#me9a78b6514" x="669.55" y="394.322565" style="fill: #008000; stroke: #008000"/>
     <use xlink:href="#me9a78b6514" x="676.59275" y="394.365173" style="fill: #008000; stroke: #008000"/>
     <use xlink:href="#me9a78b6514" x="683.6355" y="394.345237" style="fill: #008000; stroke: #008000"/>
     <use xlink:href="#me9a78b6514" x="690.67825" y="394.370283" style="fill: #008000; stroke: #008000"/>
     <use xlink:href="#me9a78b6514" x="697.721" y="394.377973" style="fill: #008000; stroke: #008000"/>
     <use xlink:href="#me9a78b6514" x="704.76375" y="394.328869" style="fill: #008000; stroke: #008000"/>
     <use xlink:href="#me9a78b6514" x="711.8065" y="394.305531" style="fill: #008000; stroke: #008000"/>
     <use xlink:href="#me9a78b6514" x="718.84925" y="394.358829" style="fill: #008000; stroke: #008000"/>
     <use xlink:href="#me9a78b6514" x="725.892" y="394.298686" style="fill: #008000; stroke: #008000"/>
     <use xlink:href="#me9a78b6514" x="732.93475" y="394.382226" style="fill: #008000; stroke: #008000"/>
     <use xlink:href="#me9a78b6514" x="739.9775" y="394.343417" style="fill: #008000; stroke: #008000"/>
     <use xlink:href="#me9a78b6514" x="747.02025" y="394.321879" style="fill: #008000; stroke: #008000"/>
     <use xlink:href="#me9a78b6514" x="754.063" y="394.465601" style="fill: #008000; stroke: #008000"/>
     <use xlink:href="#me9a78b6514" x="761.10575" y="394.348785" style="fill: #008000; stroke: #008000"/>
     <use xlink:href="#me9a78b6514" x="768.1485" y="394.370376" style="fill: #008000; stroke: #008000"/>
     <use xlink:href="#me9a78b6514" x="775.19125" y="394.383538" style="fill: #008000; stroke: #008000"/>
     <use xlink:href="#me9a78b6514" x="782.234" y="394.372229" style="fill: #008000; stroke: #008000"/>
     <use xlink:href="#me9a78b6514" x="789.27675" y="394.323752" style="fill: #008000; stroke: #008000"/>
     <use xlink:href="#me9a78b6514" x="796.3195" y="394.350981" style="fill: #008000; stroke: #008000"/>
     <use xlink:href="#me9a78b6514" x="803.36225" y="394.37329" style="fill: #008000; stroke: #008000"/>
     <use xlink:href="#me9a78b6514" x="810.405" y="394.361552" style="fill: #008000; stroke: #008000"/>
    </g>
   </g>
   <g id="line2d_30">
    <path d="M 113.17275 255.691259 
L 120.2155 235.93394 
L 127.25825 235.777437 
L 134.301 241.961891 
L 141.34375 259.877 
L 148.3865 248.763676 
L 155.42925 224.845623 
L 162.472 233.170388 
L 169.51475 252.741555 
L 176.5575 236.846736 
L 183.60025 223.869387 
L 190.643 237.02326 
L 197.68575 240.266344 
L 204.7285 245.693317 
L 211.77125 261.542923 
L 218.814 251.83625 
L 225.85675 256.281079 
L 232.8995 248.201211 
L 239.94225 249.578845 
L 246.985 245.101941 
L 254.02775 247.820993 
L 261.0705 247.880107 
L 268.11325 235.17063 
L 275.156 242.33554 
L 282.19875 237.301947 
L 289.2415 249.719547 
L 296.28425 245.009564 
L 303.327 246.812339 
L 310.36975 245.982503 
L 317.4125 254.690782 
L 324.45525 253.68334 
L 331.498 253.072234 
L 338.54075 250.710133 
L 345.5835 248.714612 
L 352.62625 260.340546 
L 359.669 251.369802 
L 366.71175 247.7996 
L 373.7545 258.749115 
L 380.79725 250.330127 
L 387.84 252.876876 
L 394.88275 255.529059 
L 401.9255 270.487368 
L 408.96825 258.122128 
L 416.011 260.284624 
L 423.05375 259.011474 
L 430.0965 262.885277 
L 437.13925 267.00213 
L 444.182 256.905296 
L 451.22475 259.179952 
L 458.2675 263.708716 
L 465.31025 272.050178 
L 472.353 271.305769 
L 479.39575 265.807574 
L 486.4385 268.131387 
L 493.48125 273.600117 
L 500.524 276.847672 
L 507.56675 277.979316 
L 514.6095 281.131012 
L 521.65225 266.039625 
L 528.695 275.916517 
L 535.73775 270.196349 
L 542.7805 271.438399 
L 549.82325 276.71243 
L 556.866 272.210757 
L 563.90875 280.854805 
L 570.9515 270.818534 
L 577.99425 278.717658 
L 585.037 264.060537 
L 592.07975 278.797031 
L 599.1225 274.175336 
L 606.16525 278.248995 
L 613.208 276.315845 
L 620.25075 269.907598 
L 627.2935 276.945694 
L 634.33625 278.700539 
L 641.379 279.551596 
L 648.42175 279.860447 
L 655.4645 277.61635 
L 662.50725 281.904834 
L 669.55 281.569512 
L 676.59275 276.566004 
L 683.6355 270.165539 
L 690.67825 277.366217 
L 697.721 282.374249 
L 704.76375 280.428887 
L 711.8065 277.514622 
L 718.84925 275.559222 
L 725.892 278.763583 
L 732.93475 283.032349 
L 739.9775 278.530372 
L 747.02025 283.805854 
L 754.063 281.911705 
L 761.10575 275.591654 
L 768.1485 283.274489 
L 775.19125 282.293123 
L 782.234 283.418014 
L 789.27675 284.713467 
L 796.3195 282.95386 
L 803.36225 285.736775 
L 810.405 284.917991 
" clip-path="url(#pa8846a75cc)" style="fill: none; stroke: #2ca02c; stroke-width: 1.5; stroke-linecap: square"/>
   </g>
   <g id="line2d_31">
    <path d="M 113.17275 314.354853 
L 120.2155 284.361105 
L 127.25825 296.172756 
L 134.301 290.634862 
L 141.34375 304.416288 
L 148.3865 294.382405 
L 155.42925 282.003937 
L 162.472 281.184507 
L 169.51475 299.864971 
L 176.5575 292.989221 
L 183.60025 273.606012 
L 190.643 283.656606 
L 197.68575 286.673707 
L 204.7285 288.905538 
L 211.77125 299.543511 
L 218.814 294.657426 
L 225.85675 299.124465 
L 232.8995 290.894293 
L 239.94225 292.947556 
L 246.985 290.778175 
L 254.02775 292.388586 
L 261.0705 293.138298 
L 268.11325 281.522968 
L 275.156 287.906801 
L 282.19875 285.033528 
L 289.2415 291.608354 
L 296.28425 285.446995 
L 303.327 288.920283 
L 310.36975 288.381902 
L 317.4125 295.191996 
L 324.45525 294.206079 
L 331.498 292.333402 
L 338.54075 292.34522 
L 345.5835 288.753018 
L 352.62625 300.284689 
L 359.669 296.231381 
L 366.71175 289.641968 
L 373.7545 297.225423 
L 380.79725 290.625023 
L 387.84 296.181249 
L 394.88275 293.596832 
L 401.9255 306.65292 
L 408.96825 298.451382 
L 416.011 299.08491 
L 423.05375 298.374647 
L 430.0965 300.856835 
L 437.13925 304.843947 
L 444.182 296.372519 
L 451.22475 297.621902 
L 458.2675 302.78161 
L 465.31025 309.324795 
L 472.353 308.965285 
L 479.39575 303.387243 
L 486.4385 307.903544 
L 493.48125 309.634028 
L 500.524 313.646265 
L 507.56675 314.142033 
L 514.6095 316.724959 
L 521.65225 304.108756 
L 528.695 312.264251 
L 535.73775 307.190392 
L 542.7805 309.317488 
L 549.82325 312.75295 
L 556.866 309.38168 
L 563.90875 316.570356 
L 570.9515 307.496249 
L 577.99425 314.886733 
L 585.037 302.345576 
L 592.07975 315.088527 
L 599.1225 310.671224 
L 606.16525 315.250793 
L 613.208 312.631649 
L 620.25075 308.047411 
L 627.2935 314.017105 
L 634.33625 314.536758 
L 641.379 315.043539 
L 648.42175 316.214776 
L 655.4645 314.62444 
L 662.50725 317.556114 
L 669.55 317.188545 
L 676.59275 312.854783 
L 683.6355 307.330065 
L 690.67825 313.676481 
L 697.721 318.389327 
L 704.76375 316.289559 
L 711.8065 313.776864 
L 718.84925 312.291962 
L 725.892 314.669665 
L 732.93475 319.234093 
L 739.9775 314.153652 
L 747.02025 319.532353 
L 754.063 317.779117 
L 761.10575 311.536829 
L 768.1485 318.824503 
L 775.19125 318.254072 
L 782.234 319.1359 
L 789.27675 320.030349 
L 796.3195 318.654957 
L 803.36225 321.668602 
L 810.405 320.487684 
" clip-path="url(#pa8846a75cc)" style="fill: none; stroke: #ff7f0e; stroke-width: 1.5; stroke-linecap: square"/>
   </g>
   <g id="patch_3">
    <path d="M 106.13 482.875 
L 106.13 40.32 
" style="fill: none; stroke: #000000; stroke-width: 0.8; stroke-linejoin: miter; stroke-linecap: square"/>
   </g>
   <g id="patch_4">
    <path d="M 810.405 482.875 
L 810.405 40.32 
" style="fill: none; stroke: #000000; stroke-width: 0.8; stroke-linejoin: miter; stroke-linecap: square"/>
   </g>
   <g id="patch_5">
    <path d="M 106.13 482.875 
L 810.405 482.875 
" style="fill: none; stroke: #000000; stroke-width: 0.8; stroke-linejoin: miter; stroke-linecap: square"/>
   </g>
   <g id="patch_6">
    <path d="M 106.13 40.32 
L 810.405 40.32 
" style="fill: none; stroke: #000000; stroke-width: 0.8; stroke-linejoin: miter; stroke-linecap: square"/>
   </g>
   <g id="legend_1">
    <g id="patch_7">
     <path d="M 120.13 472.875 
L 473.139375 472.875 
Q 477.139375 472.875 477.139375 468.875 
L 477.139375 269.178125 
Q 477.139375 265.178125 473.139375 265.178125 
L 120.13 265.178125 
Q 116.13 265.178125 116.13 269.178125 
L 116.13 468.875 
Q 116.13 472.875 120.13 472.875 
z
" style="fill: #ffffff; opacity: 0.8; stroke: #cccccc; stroke-linejoin: miter"/>
    </g>
    <g id="line2d_32">
     <path d="M 124.13 280.525 
L 144.13 280.525 
L 164.13 280.525 
" style="fill: none; stroke-dasharray: 5.55,2.4; stroke-dashoffset: 0; stroke: #0000ff; stroke-width: 1.5"/>
    </g>
    <g id="text_15">
     <!-- Training Loss -->
     <g transform="translate(180.13 287.525) scale(0.2 -0.2)">
      <defs>
       <path id="Helvetica-54" d="M 3828 4591 
L 3828 4044 
L 2281 4044 
L 2281 0 
L 1650 0 
L 1650 4044 
L 103 4044 
L 103 4591 
L 3828 4591 
z
" transform="scale(0.015625)"/>
       <path id="Helvetica-69" d="M 413 3331 
L 984 3331 
L 984 0 
L 413 0 
L 413 3331 
z
M 413 4591 
L 984 4591 
L 984 3953 
L 413 3953 
L 413 4591 
z
" transform="scale(0.015625)"/>
       <path id="Helvetica-6e" d="M 413 3347 
L 947 3347 
L 947 2872 
Q 1184 3166 1450 3294 
Q 1716 3422 2041 3422 
Q 2753 3422 3003 2925 
Q 3141 2653 3141 2147 
L 3141 0 
L 2569 0 
L 2569 2109 
Q 2569 2416 2478 2603 
Q 2328 2916 1934 2916 
Q 1734 2916 1606 2875 
Q 1375 2806 1200 2600 
Q 1059 2434 1017 2257 
Q 975 2081 975 1753 
L 975 0 
L 413 0 
L 413 3347 
z
M 1734 3428 
L 1734 3428 
z
" transform="scale(0.015625)"/>
       <path id="Helvetica-67" d="M 1594 3406 
Q 1988 3406 2281 3213 
Q 2441 3103 2606 2894 
L 2606 3316 
L 3125 3316 
L 3125 272 
Q 3125 -366 2938 -734 
Q 2588 -1416 1616 -1416 
Q 1075 -1416 706 -1173 
Q 338 -931 294 -416 
L 866 -416 
Q 906 -641 1028 -763 
Q 1219 -950 1628 -950 
Q 2275 -950 2475 -494 
Q 2594 -225 2584 466 
Q 2416 209 2178 84 
Q 1941 -41 1550 -41 
Q 1006 -41 598 345 
Q 191 731 191 1622 
Q 191 2463 602 2934 
Q 1013 3406 1594 3406 
z
M 2606 1688 
Q 2606 2309 2350 2609 
Q 2094 2909 1697 2909 
Q 1103 2909 884 2353 
Q 769 2056 769 1575 
Q 769 1009 998 714 
Q 1228 419 1616 419 
Q 2222 419 2469 966 
Q 2606 1275 2606 1688 
z
M 1659 3428 
L 1659 3428 
z
" transform="scale(0.015625)"/>
       <path id="Helvetica-20" transform="scale(0.015625)"/>
      </defs>
      <use xlink:href="#Helvetica-54"/>
      <use xlink:href="#Helvetica-72" x="61.083984"/>
      <use xlink:href="#Helvetica-61" x="94.384766"/>
      <use xlink:href="#Helvetica-69" x="150"/>
      <use xlink:href="#Helvetica-6e" x="172.216797"/>
      <use xlink:href="#Helvetica-69" x="227.832031"/>
      <use xlink:href="#Helvetica-6e" x="250.048828"/>
      <use xlink:href="#Helvetica-67" x="305.664062"/>
      <use xlink:href="#Helvetica-20" x="361.279297"/>
      <use xlink:href="#Helvetica-4c" x="389.0625"/>
      <use xlink:href="#Helvetica-6f" x="444.677734"/>
      <use xlink:href="#Helvetica-73" x="500.292969"/>
      <use xlink:href="#Helvetica-73" x="550.292969"/>
     </g>
    </g>
    <g id="line2d_33">
     <path d="M 124.13 309.6875 
L 144.13 309.6875 
L 164.13 309.6875 
" style="fill: none; stroke: #0000ff; stroke-width: 1.5; stroke-linecap: square"/>
     <g>
      <use xlink:href="#m81f3408034" x="144.13" y="309.6875" style="fill: #0000ff; stroke: #0000ff"/>
     </g>
    </g>
    <g id="text_16">
     <!-- Training Overall pixel accuracy -->
     <g transform="translate(180.13 316.6875) scale(0.2 -0.2)">
      <defs>
       <path id="Helvetica-4f" d="M 2469 4716 
Q 3684 4716 4269 3934 
Q 4725 3325 4725 2375 
Q 4725 1347 4203 666 
Q 3591 -134 2456 -134 
Q 1397 -134 791 566 
Q 250 1241 250 2272 
Q 250 3203 713 3866 
Q 1306 4716 2469 4716 
z
M 2531 422 
Q 3353 422 3720 1011 
Q 4088 1600 4088 2366 
Q 4088 3175 3664 3669 
Q 3241 4163 2506 4163 
Q 1794 4163 1344 3673 
Q 894 3184 894 2231 
Q 894 1469 1280 945 
Q 1666 422 2531 422 
z
M 2488 4716 
L 2488 4716 
z
" transform="scale(0.015625)"/>
       <path id="Helvetica-76" d="M 688 3347 
L 1581 622 
L 2516 3347 
L 3131 3347 
L 1869 0 
L 1269 0 
L 34 3347 
L 688 3347 
z
" transform="scale(0.015625)"/>
       <path id="Helvetica-65" d="M 1806 3422 
Q 2163 3422 2497 3255 
Q 2831 3088 3006 2822 
Q 3175 2569 3231 2231 
Q 3281 2000 3281 1494 
L 828 1494 
Q 844 984 1069 676 
Q 1294 369 1766 369 
Q 2206 369 2469 659 
Q 2619 828 2681 1050 
L 3234 1050 
Q 3213 866 3089 639 
Q 2966 413 2813 269 
Q 2556 19 2178 -69 
Q 1975 -119 1719 -119 
Q 1094 -119 659 336 
Q 225 791 225 1609 
Q 225 2416 662 2919 
Q 1100 3422 1806 3422 
z
M 2703 1941 
Q 2669 2306 2544 2525 
Q 2313 2931 1772 2931 
Q 1384 2931 1121 2651 
Q 859 2372 844 1941 
L 2703 1941 
z
M 1753 3428 
L 1753 3428 
z
" transform="scale(0.015625)"/>
       <path id="Helvetica-6c" d="M 428 4591 
L 991 4591 
L 991 0 
L 428 0 
L 428 4591 
z
" transform="scale(0.015625)"/>
       <path id="Helvetica-78" d="M 94 3347 
L 822 3347 
L 1591 2169 
L 2369 3347 
L 3053 3331 
L 1925 1716 
L 3103 0 
L 2384 0 
L 1553 1256 
L 747 0 
L 34 0 
L 1213 1716 
L 94 3347 
z
" transform="scale(0.015625)"/>
      </defs>
      <use xlink:href="#Helvetica-54"/>
      <use xlink:href="#Helvetica-72" x="61.083984"/>
      <use xlink:href="#Helvetica-61" x="94.384766"/>
      <use xlink:href="#Helvetica-69" x="150"/>
      <use xlink:href="#Helvetica-6e" x="172.216797"/>
      <use xlink:href="#Helvetica-69" x="227.832031"/>
      <use xlink:href="#Helvetica-6e" x="250.048828"/>
      <use xlink:href="#Helvetica-67" x="305.664062"/>
      <use xlink:href="#Helvetica-20" x="361.279297"/>
      <use xlink:href="#Helvetica-4f" x="389.0625"/>
      <use xlink:href="#Helvetica-76" x="466.845703"/>
      <use xlink:href="#Helvetica-65" x="516.845703"/>
      <use xlink:href="#Helvetica-72" x="572.460938"/>
      <use xlink:href="#Helvetica-61" x="605.761719"/>
      <use xlink:href="#Helvetica-6c" x="661.376953"/>
      <use xlink:href="#Helvetica-6c" x="683.59375"/>
      <use xlink:href="#Helvetica-20" x="705.810547"/>
      <use xlink:href="#Helvetica-70" x="733.59375"/>
      <use xlink:href="#Helvetica-69" x="789.208984"/>
      <use xlink:href="#Helvetica-78" x="811.425781"/>
      <use xlink:href="#Helvetica-65" x="861.425781"/>
      <use xlink:href="#Helvetica-6c" x="917.041016"/>
      <use xlink:href="#Helvetica-20" x="939.257812"/>
      <use xlink:href="#Helvetica-61" x="967.041016"/>
      <use xlink:href="#Helvetica-63" x="1022.65625"/>
      <use xlink:href="#Helvetica-63" x="1072.65625"/>
      <use xlink:href="#Helvetica-75" x="1122.65625"/>
      <use xlink:href="#Helvetica-72" x="1178.271484"/>
      <use xlink:href="#Helvetica-61" x="1211.572266"/>
      <use xlink:href="#Helvetica-63" x="1267.1875"/>
      <use xlink:href="#Helvetica-79" x="1317.1875"/>
     </g>
    </g>
    <g id="line2d_34">
     <path d="M 124.13 338.459375 
L 144.13 338.459375 
L 164.13 338.459375 
" style="fill: none; stroke-dasharray: 5.55,2.4; stroke-dashoffset: 0; stroke: #ff0000; stroke-width: 1.5"/>
    </g>
    <g id="text_17">
     <!-- Validation Loss -->
     <g transform="translate(180.13 345.459375) scale(0.2 -0.2)">
      <defs>
       <path id="Helvetica-56" d="M 850 4591 
L 2169 681 
L 3472 4591 
L 4169 4591 
L 2494 0 
L 1834 0 
L 163 4591 
L 850 4591 
z
" transform="scale(0.015625)"/>
       <path id="Helvetica-64" d="M 769 1634 
Q 769 1097 997 734 
Q 1225 372 1728 372 
Q 2119 372 2370 708 
Q 2622 1044 2622 1672 
Q 2622 2306 2362 2611 
Q 2103 2916 1722 2916 
Q 1297 2916 1033 2591 
Q 769 2266 769 1634 
z
M 1616 3406 
Q 2000 3406 2259 3244 
Q 2409 3150 2600 2916 
L 2600 4606 
L 3141 4606 
L 3141 0 
L 2634 0 
L 2634 466 
Q 2438 156 2169 18 
Q 1900 -119 1553 -119 
Q 994 -119 584 351 
Q 175 822 175 1603 
Q 175 2334 548 2870 
Q 922 3406 1616 3406 
z
" transform="scale(0.015625)"/>
       <path id="Helvetica-74" d="M 525 4281 
L 1094 4281 
L 1094 3347 
L 1628 3347 
L 1628 2888 
L 1094 2888 
L 1094 703 
Q 1094 528 1213 469 
Q 1278 434 1431 434 
Q 1472 434 1519 436 
Q 1566 438 1628 444 
L 1628 0 
Q 1531 -28 1426 -40 
Q 1322 -53 1200 -53 
Q 806 -53 665 148 
Q 525 350 525 672 
L 525 2888 
L 72 2888 
L 72 3347 
L 525 3347 
L 525 4281 
z
" transform="scale(0.015625)"/>
      </defs>
      <use xlink:href="#Helvetica-56"/>
      <use xlink:href="#Helvetica-61" x="66.699219"/>
      <use xlink:href="#Helvetica-6c" x="122.314453"/>
      <use xlink:href="#Helvetica-69" x="144.53125"/>
      <use xlink:href="#Helvetica-64" x="166.748047"/>
      <use xlink:href="#Helvetica-61" x="222.363281"/>
      <use xlink:href="#Helvetica-74" x="277.978516"/>
      <use xlink:href="#Helvetica-69" x="305.761719"/>
      <use xlink:href="#Helvetica-6f" x="327.978516"/>
      <use xlink:href="#Helvetica-6e" x="383.59375"/>
      <use xlink:href="#Helvetica-20" x="439.208984"/>
      <use xlink:href="#Helvetica-4c" x="466.992188"/>
      <use xlink:href="#Helvetica-6f" x="522.607422"/>
      <use xlink:href="#Helvetica-73" x="578.222656"/>
      <use xlink:href="#Helvetica-73" x="628.222656"/>
     </g>
    </g>
    <g id="line2d_35">
     <path d="M 124.13 367.365625 
L 144.13 367.365625 
L 164.13 367.365625 
" style="fill: none; stroke: #ff0000; stroke-width: 1.5; stroke-linecap: square"/>
     <g>
      <use xlink:href="#m61ebd38294" x="144.13" y="367.365625" style="fill: #ff0000; stroke: #ff0000"/>
     </g>
    </g>
    <g id="text_18">
     <!-- Validation Overall pixel accuracy -->
     <g transform="translate(180.13 374.365625) scale(0.2 -0.2)">
      <use xlink:href="#Helvetica-56"/>
      <use xlink:href="#Helvetica-61" x="66.699219"/>
      <use xlink:href="#Helvetica-6c" x="122.314453"/>
      <use xlink:href="#Helvetica-69" x="144.53125"/>
      <use xlink:href="#Helvetica-64" x="166.748047"/>
      <use xlink:href="#Helvetica-61" x="222.363281"/>
      <use xlink:href="#Helvetica-74" x="277.978516"/>
      <use xlink:href="#Helvetica-69" x="305.761719"/>
      <use xlink:href="#Helvetica-6f" x="327.978516"/>
      <use xlink:href="#Helvetica-6e" x="383.59375"/>
      <use xlink:href="#Helvetica-20" x="439.208984"/>
      <use xlink:href="#Helvetica-4f" x="466.992188"/>
      <use xlink:href="#Helvetica-76" x="544.775391"/>
      <use xlink:href="#Helvetica-65" x="594.775391"/>
      <use xlink:href="#Helvetica-72" x="650.390625"/>
      <use xlink:href="#Helvetica-61" x="683.691406"/>
      <use xlink:href="#Helvetica-6c" x="739.306641"/>
      <use xlink:href="#Helvetica-6c" x="761.523438"/>
      <use xlink:href="#Helvetica-20" x="783.740234"/>
      <use xlink:href="#Helvetica-70" x="811.523438"/>
      <use xlink:href="#Helvetica-69" x="867.138672"/>
      <use xlink:href="#Helvetica-78" x="889.355469"/>
      <use xlink:href="#Helvetica-65" x="939.355469"/>
      <use xlink:href="#Helvetica-6c" x="994.970703"/>
      <use xlink:href="#Helvetica-20" x="1017.1875"/>
      <use xlink:href="#Helvetica-61" x="1044.970703"/>
      <use xlink:href="#Helvetica-63" x="1100.585938"/>
      <use xlink:href="#Helvetica-63" x="1150.585938"/>
      <use xlink:href="#Helvetica-75" x="1200.585938"/>
      <use xlink:href="#Helvetica-72" x="1256.201172"/>
      <use xlink:href="#Helvetica-61" x="1289.501953"/>
      <use xlink:href="#Helvetica-63" x="1345.117188"/>
      <use xlink:href="#Helvetica-79" x="1395.117188"/>
     </g>
    </g>
    <g id="line2d_36">
     <path d="M 124.13 396.046875 
L 144.13 396.046875 
L 164.13 396.046875 
" style="fill: none; stroke: #008000; stroke-width: 1.5; stroke-linecap: square"/>
     <g>
      <use xlink:href="#me9a78b6514" x="144.13" y="396.046875" style="fill: #008000; stroke: #008000"/>
     </g>
    </g>
    <g id="text_19">
     <!-- Random pixel accuracy -->
     <g transform="translate(180.13 403.046875) scale(0.2 -0.2)">
      <defs>
       <path id="Helvetica-52" d="M 2622 2488 
Q 3059 2488 3314 2663 
Q 3569 2838 3569 3294 
Q 3569 3784 3213 3963 
Q 3022 4056 2703 4056 
L 1184 4056 
L 1184 2488 
L 2622 2488 
z
M 563 4591 
L 2688 4591 
Q 3213 4591 3553 4438 
Q 4200 4144 4200 3353 
Q 4200 2941 4029 2678 
Q 3859 2416 3553 2256 
Q 3822 2147 3958 1969 
Q 4094 1791 4109 1391 
L 4131 775 
Q 4141 513 4175 384 
Q 4231 166 4375 103 
L 4375 0 
L 3613 0 
Q 3581 59 3562 153 
Q 3544 247 3531 516 
L 3494 1281 
Q 3472 1731 3159 1884 
Q 2981 1969 2600 1969 
L 1184 1969 
L 1184 0 
L 563 0 
L 563 4591 
z
" transform="scale(0.015625)"/>
       <path id="Helvetica-6d" d="M 413 3347 
L 969 3347 
L 969 2872 
Q 1169 3119 1331 3231 
Q 1609 3422 1963 3422 
Q 2363 3422 2606 3225 
Q 2744 3113 2856 2894 
Q 3044 3163 3297 3292 
Q 3550 3422 3866 3422 
Q 4541 3422 4784 2934 
Q 4916 2672 4916 2228 
L 4916 0 
L 4331 0 
L 4331 2325 
Q 4331 2659 4164 2784 
Q 3997 2909 3756 2909 
Q 3425 2909 3186 2687 
Q 2947 2466 2947 1947 
L 2947 0 
L 2375 0 
L 2375 2184 
Q 2375 2525 2294 2681 
Q 2166 2916 1816 2916 
Q 1497 2916 1236 2669 
Q 975 2422 975 1775 
L 975 0 
L 413 0 
L 413 3347 
z
" transform="scale(0.015625)"/>
      </defs>
      <use xlink:href="#Helvetica-52"/>
      <use xlink:href="#Helvetica-61" x="72.216797"/>
      <use xlink:href="#Helvetica-6e" x="127.832031"/>
      <use xlink:href="#Helvetica-64" x="183.447266"/>
      <use xlink:href="#Helvetica-6f" x="239.0625"/>
      <use xlink:href="#Helvetica-6d" x="294.677734"/>
      <use xlink:href="#Helvetica-20" x="377.978516"/>
      <use xlink:href="#Helvetica-70" x="405.761719"/>
      <use xlink:href="#Helvetica-69" x="461.376953"/>
      <use xlink:href="#Helvetica-78" x="483.59375"/>
      <use xlink:href="#Helvetica-65" x="533.59375"/>
      <use xlink:href="#Helvetica-6c" x="589.208984"/>
      <use xlink:href="#Helvetica-20" x="611.425781"/>
      <use xlink:href="#Helvetica-61" x="639.208984"/>
      <use xlink:href="#Helvetica-63" x="694.824219"/>
      <use xlink:href="#Helvetica-63" x="744.824219"/>
      <use xlink:href="#Helvetica-75" x="794.824219"/>
      <use xlink:href="#Helvetica-72" x="850.439453"/>
      <use xlink:href="#Helvetica-61" x="883.740234"/>
      <use xlink:href="#Helvetica-63" x="939.355469"/>
      <use xlink:href="#Helvetica-79" x="989.355469"/>
     </g>
    </g>
    <g id="line2d_37">
     <path d="M 124.13 425.071875 
L 144.13 425.071875 
L 164.13 425.071875 
" style="fill: none; stroke: #2ca02c; stroke-width: 1.5; stroke-linecap: square"/>
    </g>
    <g id="text_20">
     <!-- Validation PerClass accuracy -->
     <g transform="translate(180.13 432.071875) scale(0.2 -0.2)">
      <defs>
       <path id="Helvetica-50" d="M 547 4591 
L 2613 4591 
Q 3225 4591 3600 4245 
Q 3975 3900 3975 3275 
Q 3975 2738 3640 2339 
Q 3306 1941 2613 1941 
L 1169 1941 
L 1169 0 
L 547 0 
L 547 4591 
z
M 3347 3272 
Q 3347 3778 2972 3959 
Q 2766 4056 2406 4056 
L 1169 4056 
L 1169 2466 
L 2406 2466 
Q 2825 2466 3086 2644 
Q 3347 2822 3347 3272 
z
" transform="scale(0.015625)"/>
       <path id="Helvetica-43" d="M 2422 4716 
Q 3294 4716 3775 4256 
Q 4256 3797 4309 3213 
L 3703 3213 
Q 3600 3656 3292 3915 
Q 2984 4175 2428 4175 
Q 1750 4175 1333 3698 
Q 916 3222 916 2238 
Q 916 1431 1292 929 
Q 1669 428 2416 428 
Q 3103 428 3463 956 
Q 3653 1234 3747 1688 
L 4353 1688 
Q 4272 963 3816 472 
Q 3269 -119 2341 -119 
Q 1541 -119 997 366 
Q 281 1006 281 2344 
Q 281 3359 819 4009 
Q 1400 4716 2422 4716 
z
M 2297 4716 
L 2297 4716 
z
" transform="scale(0.015625)"/>
      </defs>
      <use xlink:href="#Helvetica-56"/>
      <use xlink:href="#Helvetica-61" x="66.699219"/>
      <use xlink:href="#Helvetica-6c" x="122.314453"/>
      <use xlink:href="#Helvetica-69" x="144.53125"/>
      <use xlink:href="#Helvetica-64" x="166.748047"/>
      <use xlink:href="#Helvetica-61" x="222.363281"/>
      <use xlink:href="#Helvetica-74" x="277.978516"/>
      <use xlink:href="#Helvetica-69" x="305.761719"/>
      <use xlink:href="#Helvetica-6f" x="327.978516"/>
      <use xlink:href="#Helvetica-6e" x="383.59375"/>
      <use xlink:href="#Helvetica-20" x="439.208984"/>
      <use xlink:href="#Helvetica-50" x="466.992188"/>
      <use xlink:href="#Helvetica-65" x="533.691406"/>
      <use xlink:href="#Helvetica-72" x="589.306641"/>
      <use xlink:href="#Helvetica-43" x="622.607422"/>
      <use xlink:href="#Helvetica-6c" x="694.824219"/>
      <use xlink:href="#Helvetica-61" x="717.041016"/>
      <use xlink:href="#Helvetica-73" x="772.65625"/>
      <use xlink:href="#Helvetica-73" x="822.65625"/>
      <use xlink:href="#Helvetica-20" x="872.65625"/>
      <use xlink:href="#Helvetica-61" x="900.439453"/>
      <use xlink:href="#Helvetica-63" x="956.054688"/>
      <use xlink:href="#Helvetica-63" x="1006.054688"/>
      <use xlink:href="#Helvetica-75" x="1056.054688"/>
      <use xlink:href="#Helvetica-72" x="1111.669922"/>
      <use xlink:href="#Helvetica-61" x="1144.970703"/>
      <use xlink:href="#Helvetica-63" x="1200.585938"/>
      <use xlink:href="#Helvetica-79" x="1250.585938"/>
     </g>
    </g>
    <g id="line2d_38">
     <path d="M 124.13 453.70625 
L 144.13 453.70625 
L 164.13 453.70625 
" style="fill: none; stroke: #ff7f0e; stroke-width: 1.5; stroke-linecap: square"/>
    </g>
    <g id="text_21">
     <!-- Validation Jaccard index -->
     <g transform="translate(180.13 460.70625) scale(0.2 -0.2)">
      <defs>
       <path id="Helvetica-4a" d="M 2741 1369 
Q 2741 788 2569 466 
Q 2250 -122 1356 -122 
Q 841 -122 475 158 
Q 109 438 109 1153 
L 109 1481 
L 694 1481 
L 694 1153 
Q 694 778 861 589 
Q 1028 400 1381 400 
Q 1878 400 2031 741 
Q 2125 950 2125 1531 
L 2125 4591 
L 2741 4591 
L 2741 1369 
z
" transform="scale(0.015625)"/>
      </defs>
      <use xlink:href="#Helvetica-56"/>
      <use xlink:href="#Helvetica-61" x="66.699219"/>
      <use xlink:href="#Helvetica-6c" x="122.314453"/>
      <use xlink:href="#Helvetica-69" x="144.53125"/>
      <use xlink:href="#Helvetica-64" x="166.748047"/>
      <use xlink:href="#Helvetica-61" x="222.363281"/>
      <use xlink:href="#Helvetica-74" x="277.978516"/>
      <use xlink:href="#Helvetica-69" x="305.761719"/>
      <use xlink:href="#Helvetica-6f" x="327.978516"/>
      <use xlink:href="#Helvetica-6e" x="383.59375"/>
      <use xlink:href="#Helvetica-20" x="439.208984"/>
      <use xlink:href="#Helvetica-4a" x="466.992188"/>
      <use xlink:href="#Helvetica-61" x="516.992188"/>
      <use xlink:href="#Helvetica-63" x="572.607422"/>
      <use xlink:href="#Helvetica-63" x="622.607422"/>
      <use xlink:href="#Helvetica-61" x="672.607422"/>
      <use xlink:href="#Helvetica-72" x="728.222656"/>
      <use xlink:href="#Helvetica-64" x="761.523438"/>
      <use xlink:href="#Helvetica-20" x="817.138672"/>
      <use xlink:href="#Helvetica-69" x="844.921875"/>
      <use xlink:href="#Helvetica-6e" x="867.138672"/>
      <use xlink:href="#Helvetica-64" x="922.753906"/>
      <use xlink:href="#Helvetica-65" x="978.369141"/>
      <use xlink:href="#Helvetica-78" x="1033.984375"/>
     </g>
    </g>
   </g>
  </g>
 </g>
 <defs>
  <clipPath id="pa8846a75cc">
   <rect x="106.13" y="40.32" width="704.275" height="442.555"/>
  </clipPath>
 </defs>
</svg>
