<?xml version="1.0" encoding="utf-8" standalone="no"?>
<!DOCTYPE svg PUBLIC "-//W3C//DTD SVG 1.1//EN"
  "http://www.w3.org/Graphics/SVG/1.1/DTD/svg11.dtd">
<svg xmlns:xlink="http://www.w3.org/1999/xlink" width="864pt" height="576pt" viewBox="0 0 864 576" xmlns="http://www.w3.org/2000/svg" version="1.1">
 <metadata>
  <rdf:RDF xmlns:dc="http://purl.org/dc/elements/1.1/" xmlns:cc="http://creativecommons.org/ns#" xmlns:rdf="http://www.w3.org/1999/02/22-rdf-syntax-ns#">
   <cc:Work>
    <dc:type rdf:resource="http://purl.org/dc/dcmitype/StillImage"/>
    <dc:date>2024-05-14T01:21:38.798723</dc:date>
    <dc:format>image/svg+xml</dc:format>
    <dc:creator>
     <cc:Agent>
      <dc:title>Matplotlib v3.8.3, https://matplotlib.org/</dc:title>
     </cc:Agent>
    </dc:creator>
   </cc:Work>
  </rdf:RDF>
 </metadata>
 <defs>
  <style type="text/css">*{stroke-linejoin: round; stroke-linecap: butt}</style>
 </defs>
 <g id="figure_1">
  <g id="patch_1">
   <path d="M 0 576 
L 864 576 
L 864 0 
L 0 0 
z
" style="fill: #ffffff"/>
  </g>
  <g id="axes_1">
   <g id="patch_2">
    <path d="M 106.13 482.875 
L 810.405 482.875 
L 810.405 40.32 
L 106.13 40.32 
z
" style="fill: #ffffff"/>
   </g>
   <g id="matplotlib.axis_1">
    <g id="xtick_1">
     <g id="line2d_1">
      <path d="M 106.13 482.875 
L 106.13 40.32 
" clip-path="url(#pe7cc048571)" style="fill: none; stroke: #b0b0b0; stroke-width: 0.8; stroke-linecap: square"/>
     </g>
     <g id="line2d_2">
      <defs>
       <path id="mc13056ba64" d="M 0 0 
L 0 3.5 
" style="stroke: #000000; stroke-width: 0.8"/>
      </defs>
      <g>
       <use xlink:href="#mc13056ba64" x="106.13" y="482.875" style="stroke: #000000; stroke-width: 0.8"/>
      </g>
     </g>
     <g id="text_1">
      <!-- 0 -->
      <g transform="translate(98.344688 509.960625) scale(0.28 -0.28)">
       <defs>
        <path id="Helvetica-30" d="M 1731 4475 
Q 2600 4475 2988 3759 
Q 3288 3206 3288 2244 
Q 3288 1331 3016 734 
Q 2622 -122 1728 -122 
Q 922 -122 528 578 
Q 200 1163 200 2147 
Q 200 2909 397 3456 
Q 766 4475 1731 4475 
z
M 1725 391 
Q 2163 391 2422 778 
Q 2681 1166 2681 2222 
Q 2681 2984 2493 3476 
Q 2306 3969 1766 3969 
Q 1269 3969 1039 3501 
Q 809 3034 809 2125 
Q 809 1441 956 1025 
Q 1181 391 1725 391 
z
" transform="scale(0.015625)"/>
       </defs>
       <use xlink:href="#Helvetica-30"/>
      </g>
     </g>
    </g>
    <g id="xtick_2">
     <g id="line2d_3">
      <path d="M 246.985 482.875 
L 246.985 40.32 
" clip-path="url(#pe7cc048571)" style="fill: none; stroke: #b0b0b0; stroke-width: 0.8; stroke-linecap: square"/>
     </g>
     <g id="line2d_4">
      <g>
       <use xlink:href="#mc13056ba64" x="246.985" y="482.875" style="stroke: #000000; stroke-width: 0.8"/>
      </g>
     </g>
     <g id="text_2">
      <!-- 20 -->
      <g transform="translate(231.414375 509.960625) scale(0.28 -0.28)">
       <defs>
        <path id="Helvetica-32" d="M 200 0 
Q 231 578 439 1006 
Q 647 1434 1250 1784 
L 1850 2131 
Q 2253 2366 2416 2531 
Q 2672 2791 2672 3125 
Q 2672 3516 2437 3745 
Q 2203 3975 1813 3975 
Q 1234 3975 1013 3538 
Q 894 3303 881 2888 
L 309 2888 
Q 319 3472 525 3841 
Q 891 4491 1816 4491 
Q 2584 4491 2939 4075 
Q 3294 3659 3294 3150 
Q 3294 2613 2916 2231 
Q 2697 2009 2131 1694 
L 1703 1456 
Q 1397 1288 1222 1134 
Q 909 863 828 531 
L 3272 531 
L 3272 0 
L 200 0 
z
" transform="scale(0.015625)"/>
       </defs>
       <use xlink:href="#Helvetica-32"/>
       <use xlink:href="#Helvetica-30" x="55.615234"/>
      </g>
     </g>
    </g>
    <g id="xtick_3">
     <g id="line2d_5">
      <path d="M 387.84 482.875 
L 387.84 40.32 
" clip-path="url(#pe7cc048571)" style="fill: none; stroke: #b0b0b0; stroke-width: 0.8; stroke-linecap: square"/>
     </g>
     <g id="line2d_6">
      <g>
       <use xlink:href="#mc13056ba64" x="387.84" y="482.875" style="stroke: #000000; stroke-width: 0.8"/>
      </g>
     </g>
     <g id="text_3">
      <!-- 40 -->
      <g transform="translate(372.269375 509.960625) scale(0.28 -0.28)">
       <defs>
        <path id="Helvetica-34" d="M 2116 1584 
L 2116 3613 
L 681 1584 
L 2116 1584 
z
M 2125 0 
L 2125 1094 
L 163 1094 
L 163 1644 
L 2213 4488 
L 2688 4488 
L 2688 1584 
L 3347 1584 
L 3347 1094 
L 2688 1094 
L 2688 0 
L 2125 0 
z
" transform="scale(0.015625)"/>
       </defs>
       <use xlink:href="#Helvetica-34"/>
       <use xlink:href="#Helvetica-30" x="55.615234"/>
      </g>
     </g>
    </g>
    <g id="xtick_4">
     <g id="line2d_7">
      <path d="M 528.695 482.875 
L 528.695 40.32 
" clip-path="url(#pe7cc048571)" style="fill: none; stroke: #b0b0b0; stroke-width: 0.8; stroke-linecap: square"/>
     </g>
     <g id="line2d_8">
      <g>
       <use xlink:href="#mc13056ba64" x="528.695" y="482.875" style="stroke: #000000; stroke-width: 0.8"/>
      </g>
     </g>
     <g id="text_4">
      <!-- 60 -->
      <g transform="translate(513.124375 509.960625) scale(0.28 -0.28)">
       <defs>
        <path id="Helvetica-36" d="M 1872 4494 
Q 2622 4494 2917 4105 
Q 3213 3716 3213 3303 
L 2656 3303 
Q 2606 3569 2497 3719 
Q 2294 4000 1881 4000 
Q 1409 4000 1131 3564 
Q 853 3128 822 2316 
Q 1016 2600 1309 2741 
Q 1578 2866 1909 2866 
Q 2472 2866 2890 2506 
Q 3309 2147 3309 1434 
Q 3309 825 2912 354 
Q 2516 -116 1781 -116 
Q 1153 -116 697 361 
Q 241 838 241 1966 
Q 241 2800 444 3381 
Q 834 4494 1872 4494 
z
M 1831 384 
Q 2275 384 2495 682 
Q 2716 981 2716 1388 
Q 2716 1731 2519 2042 
Q 2322 2353 1803 2353 
Q 1441 2353 1167 2112 
Q 894 1872 894 1388 
Q 894 963 1142 673 
Q 1391 384 1831 384 
z
" transform="scale(0.015625)"/>
       </defs>
       <use xlink:href="#Helvetica-36"/>
       <use xlink:href="#Helvetica-30" x="55.615234"/>
      </g>
     </g>
    </g>
    <g id="xtick_5">
     <g id="line2d_9">
      <path d="M 669.55 482.875 
L 669.55 40.32 
" clip-path="url(#pe7cc048571)" style="fill: none; stroke: #b0b0b0; stroke-width: 0.8; stroke-linecap: square"/>
     </g>
     <g id="line2d_10">
      <g>
       <use xlink:href="#mc13056ba64" x="669.55" y="482.875" style="stroke: #000000; stroke-width: 0.8"/>
      </g>
     </g>
     <g id="text_5">
      <!-- 80 -->
      <g transform="translate(653.979375 509.960625) scale(0.28 -0.28)">
       <defs>
        <path id="Helvetica-38" d="M 1741 2600 
Q 2113 2600 2322 2808 
Q 2531 3016 2531 3303 
Q 2531 3553 2331 3762 
Q 2131 3972 1722 3972 
Q 1316 3972 1134 3762 
Q 953 3553 953 3272 
Q 953 2956 1187 2778 
Q 1422 2600 1741 2600 
z
M 1775 384 
Q 2166 384 2423 595 
Q 2681 806 2681 1225 
Q 2681 1659 2415 1884 
Q 2150 2109 1734 2109 
Q 1331 2109 1076 1879 
Q 822 1650 822 1244 
Q 822 894 1055 639 
Q 1288 384 1775 384 
z
M 975 2384 
Q 741 2484 609 2619 
Q 363 2869 363 3269 
Q 363 3769 725 4128 
Q 1088 4488 1753 4488 
Q 2397 4488 2762 4148 
Q 3128 3809 3128 3356 
Q 3128 2938 2916 2678 
Q 2797 2531 2547 2391 
Q 2825 2263 2984 2097 
Q 3281 1784 3281 1284 
Q 3281 694 2884 283 
Q 2488 -128 1763 -128 
Q 1109 -128 657 226 
Q 206 581 206 1256 
Q 206 1653 400 1942 
Q 594 2231 975 2384 
z
" transform="scale(0.015625)"/>
       </defs>
       <use xlink:href="#Helvetica-38"/>
       <use xlink:href="#Helvetica-30" x="55.615234"/>
      </g>
     </g>
    </g>
    <g id="xtick_6">
     <g id="line2d_11">
      <path d="M 810.405 482.875 
L 810.405 40.32 
" clip-path="url(#pe7cc048571)" style="fill: none; stroke: #b0b0b0; stroke-width: 0.8; stroke-linecap: square"/>
     </g>
     <g id="line2d_12">
      <g>
       <use xlink:href="#mc13056ba64" x="810.405" y="482.875" style="stroke: #000000; stroke-width: 0.8"/>
      </g>
     </g>
     <g id="text_6">
      <!-- 100 -->
      <g transform="translate(787.049062 509.960625) scale(0.28 -0.28)">
       <defs>
        <path id="Helvetica-31" d="M 613 3169 
L 613 3600 
Q 1222 3659 1462 3798 
Q 1703 3938 1822 4456 
L 2266 4456 
L 2266 0 
L 1666 0 
L 1666 3169 
L 613 3169 
z
" transform="scale(0.015625)"/>
       </defs>
       <use xlink:href="#Helvetica-31"/>
       <use xlink:href="#Helvetica-30" x="55.615234"/>
       <use xlink:href="#Helvetica-30" x="111.230469"/>
      </g>
     </g>
    </g>
    <g id="text_7">
     <!-- Epochs -->
     <g transform="translate(411.573125 539.948125) scale(0.28 -0.28)">
      <defs>
       <path id="Helvetica-45" d="M 547 4591 
L 3894 4591 
L 3894 4028 
L 1153 4028 
L 1153 2634 
L 3688 2634 
L 3688 2103 
L 1153 2103 
L 1153 547 
L 3941 547 
L 3941 0 
L 547 0 
L 547 4591 
z
M 2244 4591 
L 2244 4591 
z
" transform="scale(0.015625)"/>
       <path id="Helvetica-70" d="M 1825 378 
Q 2219 378 2480 708 
Q 2741 1038 2741 1694 
Q 2741 2094 2625 2381 
Q 2406 2934 1825 2934 
Q 1241 2934 1025 2350 
Q 909 2038 909 1556 
Q 909 1169 1025 897 
Q 1244 378 1825 378 
z
M 369 3331 
L 916 3331 
L 916 2888 
Q 1084 3116 1284 3241 
Q 1569 3428 1953 3428 
Q 2522 3428 2919 2992 
Q 3316 2556 3316 1747 
Q 3316 653 2744 184 
Q 2381 -113 1900 -113 
Q 1522 -113 1266 53 
Q 1116 147 931 375 
L 931 -1334 
L 369 -1334 
L 369 3331 
z
" transform="scale(0.015625)"/>
       <path id="Helvetica-6f" d="M 1741 363 
Q 2300 363 2508 786 
Q 2716 1209 2716 1728 
Q 2716 2197 2566 2491 
Q 2328 2953 1747 2953 
Q 1231 2953 997 2559 
Q 763 2166 763 1609 
Q 763 1075 997 719 
Q 1231 363 1741 363 
z
M 1763 3444 
Q 2409 3444 2856 3012 
Q 3303 2581 3303 1744 
Q 3303 934 2909 406 
Q 2516 -122 1688 -122 
Q 997 -122 590 345 
Q 184 813 184 1600 
Q 184 2444 612 2944 
Q 1041 3444 1763 3444 
z
M 1744 3428 
L 1744 3428 
z
" transform="scale(0.015625)"/>
       <path id="Helvetica-63" d="M 1703 3444 
Q 2269 3444 2623 3169 
Q 2978 2894 3050 2222 
L 2503 2222 
Q 2453 2531 2275 2736 
Q 2097 2941 1703 2941 
Q 1166 2941 934 2416 
Q 784 2075 784 1575 
Q 784 1072 996 728 
Q 1209 384 1666 384 
Q 2016 384 2220 598 
Q 2425 813 2503 1184 
L 3050 1184 
Q 2956 519 2581 211 
Q 2206 -97 1622 -97 
Q 966 -97 575 383 
Q 184 863 184 1581 
Q 184 2463 612 2953 
Q 1041 3444 1703 3444 
z
M 1616 3428 
L 1616 3428 
z
" transform="scale(0.015625)"/>
       <path id="Helvetica-68" d="M 413 4606 
L 975 4606 
L 975 2894 
Q 1175 3147 1334 3250 
Q 1606 3428 2013 3428 
Q 2741 3428 3000 2919 
Q 3141 2641 3141 2147 
L 3141 0 
L 2563 0 
L 2563 2109 
Q 2563 2478 2469 2650 
Q 2316 2925 1894 2925 
Q 1544 2925 1259 2684 
Q 975 2444 975 1775 
L 975 0 
L 413 0 
L 413 4606 
z
" transform="scale(0.015625)"/>
       <path id="Helvetica-73" d="M 747 1050 
Q 772 769 888 619 
Q 1100 347 1625 347 
Q 1938 347 2175 483 
Q 2413 619 2413 903 
Q 2413 1119 2222 1231 
Q 2100 1300 1741 1391 
L 1294 1503 
Q 866 1609 663 1741 
Q 300 1969 300 2372 
Q 300 2847 642 3140 
Q 984 3434 1563 3434 
Q 2319 3434 2653 2991 
Q 2863 2709 2856 2384 
L 2325 2384 
Q 2309 2575 2191 2731 
Q 1997 2953 1519 2953 
Q 1200 2953 1036 2831 
Q 872 2709 872 2509 
Q 872 2291 1088 2159 
Q 1213 2081 1456 2022 
L 1828 1931 
Q 2434 1784 2641 1647 
Q 2969 1431 2969 969 
Q 2969 522 2630 197 
Q 2291 -128 1597 -128 
Q 850 -128 539 211 
Q 228 550 206 1050 
L 747 1050 
z
M 1578 3428 
L 1578 3428 
z
" transform="scale(0.015625)"/>
      </defs>
      <use xlink:href="#Helvetica-45"/>
      <use xlink:href="#Helvetica-70" x="66.699219"/>
      <use xlink:href="#Helvetica-6f" x="122.314453"/>
      <use xlink:href="#Helvetica-63" x="177.929688"/>
      <use xlink:href="#Helvetica-68" x="227.929688"/>
      <use xlink:href="#Helvetica-73" x="283.544922"/>
     </g>
    </g>
   </g>
   <g id="matplotlib.axis_2">
    <g id="ytick_1">
     <g id="line2d_13">
      <path d="M 106.13 482.875 
L 810.405 482.875 
" clip-path="url(#pe7cc048571)" style="fill: none; stroke: #b0b0b0; stroke-width: 0.8; stroke-linecap: square"/>
     </g>
     <g id="line2d_14">
      <defs>
       <path id="m14fa38b88e" d="M 0 0 
L -3.5 0 
" style="stroke: #000000; stroke-width: 0.8"/>
      </defs>
      <g>
       <use xlink:href="#m14fa38b88e" x="106.13" y="482.875" style="stroke: #000000; stroke-width: 0.8"/>
      </g>
     </g>
     <g id="text_8">
      <!-- 0.0 -->
      <g transform="translate(60.21 492.917812) scale(0.28 -0.28)">
       <defs>
        <path id="Helvetica-2e" d="M 547 681 
L 1200 681 
L 1200 0 
L 547 0 
L 547 681 
z
" transform="scale(0.015625)"/>
       </defs>
       <use xlink:href="#Helvetica-30"/>
       <use xlink:href="#Helvetica-2e" x="55.615234"/>
       <use xlink:href="#Helvetica-30" x="83.398438"/>
      </g>
     </g>
    </g>
    <g id="ytick_2">
     <g id="line2d_15">
      <path d="M 106.13 394.364 
L 810.405 394.364 
" clip-path="url(#pe7cc048571)" style="fill: none; stroke: #b0b0b0; stroke-width: 0.8; stroke-linecap: square"/>
     </g>
     <g id="line2d_16">
      <g>
       <use xlink:href="#m14fa38b88e" x="106.13" y="394.364" style="stroke: #000000; stroke-width: 0.8"/>
      </g>
     </g>
     <g id="text_9">
      <!-- 0.2 -->
      <g transform="translate(60.21 404.406813) scale(0.28 -0.28)">
       <use xlink:href="#Helvetica-30"/>
       <use xlink:href="#Helvetica-2e" x="55.615234"/>
       <use xlink:href="#Helvetica-32" x="83.398438"/>
      </g>
     </g>
    </g>
    <g id="ytick_3">
     <g id="line2d_17">
      <path d="M 106.13 305.853 
L 810.405 305.853 
" clip-path="url(#pe7cc048571)" style="fill: none; stroke: #b0b0b0; stroke-width: 0.8; stroke-linecap: square"/>
     </g>
     <g id="line2d_18">
      <g>
       <use xlink:href="#m14fa38b88e" x="106.13" y="305.853" style="stroke: #000000; stroke-width: 0.8"/>
      </g>
     </g>
     <g id="text_10">
      <!-- 0.4 -->
      <g transform="translate(60.21 315.895812) scale(0.28 -0.28)">
       <use xlink:href="#Helvetica-30"/>
       <use xlink:href="#Helvetica-2e" x="55.615234"/>
       <use xlink:href="#Helvetica-34" x="83.398438"/>
      </g>
     </g>
    </g>
    <g id="ytick_4">
     <g id="line2d_19">
      <path d="M 106.13 217.342 
L 810.405 217.342 
" clip-path="url(#pe7cc048571)" style="fill: none; stroke: #b0b0b0; stroke-width: 0.8; stroke-linecap: square"/>
     </g>
     <g id="line2d_20">
      <g>
       <use xlink:href="#m14fa38b88e" x="106.13" y="217.342" style="stroke: #000000; stroke-width: 0.8"/>
      </g>
     </g>
     <g id="text_11">
      <!-- 0.6 -->
      <g transform="translate(60.21 227.384812) scale(0.28 -0.28)">
       <use xlink:href="#Helvetica-30"/>
       <use xlink:href="#Helvetica-2e" x="55.615234"/>
       <use xlink:href="#Helvetica-36" x="83.398438"/>
      </g>
     </g>
    </g>
    <g id="ytick_5">
     <g id="line2d_21">
      <path d="M 106.13 128.831 
L 810.405 128.831 
" clip-path="url(#pe7cc048571)" style="fill: none; stroke: #b0b0b0; stroke-width: 0.8; stroke-linecap: square"/>
     </g>
     <g id="line2d_22">
      <g>
       <use xlink:href="#m14fa38b88e" x="106.13" y="128.831" style="stroke: #000000; stroke-width: 0.8"/>
      </g>
     </g>
     <g id="text_12">
      <!-- 0.8 -->
      <g transform="translate(60.21 138.873812) scale(0.28 -0.28)">
       <use xlink:href="#Helvetica-30"/>
       <use xlink:href="#Helvetica-2e" x="55.615234"/>
       <use xlink:href="#Helvetica-38" x="83.398438"/>
      </g>
     </g>
    </g>
    <g id="ytick_6">
     <g id="line2d_23">
      <path d="M 106.13 40.32 
L 810.405 40.32 
" clip-path="url(#pe7cc048571)" style="fill: none; stroke: #b0b0b0; stroke-width: 0.8; stroke-linecap: square"/>
     </g>
     <g id="line2d_24">
      <g>
       <use xlink:href="#m14fa38b88e" x="106.13" y="40.32" style="stroke: #000000; stroke-width: 0.8"/>
      </g>
     </g>
     <g id="text_13">
      <!-- 1.0 -->
      <g transform="translate(60.21 50.362812) scale(0.28 -0.28)">
       <use xlink:href="#Helvetica-31"/>
       <use xlink:href="#Helvetica-2e" x="55.615234"/>
       <use xlink:href="#Helvetica-30" x="83.398438"/>
      </g>
     </g>
    </g>
    <g id="text_14">
     <!-- Loss/accuracy -->
     <g transform="translate(50.2075 351.075) rotate(-90) scale(0.28 -0.28)">
      <defs>
       <path id="Helvetica-4c" d="M 488 4591 
L 1109 4591 
L 1109 547 
L 3434 547 
L 3434 0 
L 488 0 
L 488 4591 
z
" transform="scale(0.015625)"/>
       <path id="Helvetica-2f" d="M 1456 4591 
L 1931 4591 
L 475 0 
L 0 0 
L 1456 4591 
z
" transform="scale(0.015625)"/>
       <path id="Helvetica-61" d="M 844 891 
Q 844 647 1022 506 
Q 1200 366 1444 366 
Q 1741 366 2019 503 
Q 2488 731 2488 1250 
L 2488 1703 
Q 2384 1638 2221 1594 
Q 2059 1550 1903 1531 
L 1563 1488 
Q 1256 1447 1103 1359 
Q 844 1213 844 891 
z
M 2206 2028 
Q 2400 2053 2466 2191 
Q 2503 2266 2503 2406 
Q 2503 2694 2298 2823 
Q 2094 2953 1713 2953 
Q 1272 2953 1088 2716 
Q 984 2584 953 2325 
L 428 2325 
Q 444 2944 830 3186 
Q 1216 3428 1725 3428 
Q 2316 3428 2684 3203 
Q 3050 2978 3050 2503 
L 3050 575 
Q 3050 488 3086 434 
Q 3122 381 3238 381 
Q 3275 381 3322 386 
Q 3369 391 3422 400 
L 3422 -16 
Q 3291 -53 3222 -62 
Q 3153 -72 3034 -72 
Q 2744 -72 2613 134 
Q 2544 244 2516 444 
Q 2344 219 2022 53 
Q 1700 -113 1313 -113 
Q 847 -113 551 170 
Q 256 453 256 878 
Q 256 1344 547 1600 
Q 838 1856 1309 1916 
L 2206 2028 
z
M 1741 3428 
L 1741 3428 
z
" transform="scale(0.015625)"/>
       <path id="Helvetica-75" d="M 975 3347 
L 975 1125 
Q 975 869 1056 706 
Q 1206 406 1616 406 
Q 2203 406 2416 931 
Q 2531 1213 2531 1703 
L 2531 3347 
L 3094 3347 
L 3094 0 
L 2563 0 
L 2569 494 
Q 2459 303 2297 172 
Q 1975 -91 1516 -91 
Q 800 -91 541 388 
Q 400 644 400 1072 
L 400 3347 
L 975 3347 
z
M 1747 3428 
L 1747 3428 
z
" transform="scale(0.015625)"/>
       <path id="Helvetica-72" d="M 428 3347 
L 963 3347 
L 963 2769 
Q 1028 2938 1284 3180 
Q 1541 3422 1875 3422 
Q 1891 3422 1928 3419 
Q 1966 3416 2056 3406 
L 2056 2813 
Q 2006 2822 1964 2825 
Q 1922 2828 1872 2828 
Q 1447 2828 1219 2554 
Q 991 2281 991 1925 
L 991 0 
L 428 0 
L 428 3347 
z
" transform="scale(0.015625)"/>
       <path id="Helvetica-79" d="M 2503 3347 
L 3125 3347 
Q 3006 3025 2597 1878 
Q 2291 1016 2084 472 
Q 1597 -809 1397 -1090 
Q 1197 -1372 709 -1372 
Q 591 -1372 527 -1362 
Q 463 -1353 369 -1328 
L 369 -816 
Q 516 -856 581 -865 
Q 647 -875 697 -875 
Q 853 -875 926 -823 
Q 1000 -772 1050 -697 
Q 1066 -672 1162 -440 
Q 1259 -209 1303 -97 
L 66 3347 
L 703 3347 
L 1600 622 
L 2503 3347 
z
M 1597 3428 
L 1597 3428 
z
" transform="scale(0.015625)"/>
      </defs>
      <use xlink:href="#Helvetica-4c"/>
      <use xlink:href="#Helvetica-6f" x="55.615234"/>
      <use xlink:href="#Helvetica-73" x="111.230469"/>
      <use xlink:href="#Helvetica-73" x="161.230469"/>
      <use xlink:href="#Helvetica-2f" x="211.230469"/>
      <use xlink:href="#Helvetica-61" x="239.013672"/>
      <use xlink:href="#Helvetica-63" x="294.628906"/>
      <use xlink:href="#Helvetica-63" x="344.628906"/>
      <use xlink:href="#Helvetica-75" x="394.628906"/>
      <use xlink:href="#Helvetica-72" x="450.244141"/>
      <use xlink:href="#Helvetica-61" x="483.544922"/>
      <use xlink:href="#Helvetica-63" x="539.160156"/>
      <use xlink:href="#Helvetica-79" x="589.160156"/>
     </g>
    </g>
   </g>
   <g id="line2d_25">
    <path clip-path="url(#pe7cc048571)" style="fill: none; stroke-dasharray: 5.55,2.4; stroke-dashoffset: 0; stroke: #0000ff; stroke-width: 1.5"/>
   </g>
   <g id="line2d_26">
    <path d="M 113.17275 266.833797 
L 120.2155 264.158203 
L 127.25825 258.922473 
L 134.301 257.149638 
L 141.34375 257.71118 
L 148.3865 256.427479 
L 155.42925 262.541871 
L 162.472 259.008414 
L 169.51475 258.445553 
L 176.5575 258.671589 
L 183.60025 257.052065 
L 190.643 257.301841 
L 197.68575 258.152542 
L 204.7285 257.964359 
L 211.77125 260.620948 
L 218.814 261.261335 
L 225.85675 260.41488 
L 232.8995 259.404748 
L 239.94225 257.584406 
L 246.985 259.921131 
L 254.02775 257.339193 
L 261.0705 256.719882 
L 268.11325 258.134157 
L 275.156 259.123107 
L 282.19875 257.503635 
L 289.2415 260.102244 
L 296.28425 265.496943 
L 303.327 259.559589 
L 310.36975 256.574775 
L 317.4125 259.710895 
L 324.45525 257.693269 
L 331.498 257.343677 
L 338.54075 259.37043 
L 345.5835 258.62548 
L 352.62625 258.235529 
L 359.669 260.344265 
L 366.71175 258.321601 
L 373.7545 261.78443 
L 380.79725 257.69232 
L 387.84 257.497041 
L 394.88275 259.204088 
L 401.9255 259.265761 
L 408.96825 257.464806 
L 416.011 256.507247 
L 423.05375 257.546949 
L 430.0965 257.144547 
L 437.13925 256.170765 
L 444.182 255.761584 
L 451.22475 255.491391 
L 458.2675 254.453324 
L 465.31025 255.365065 
L 472.353 254.993869 
L 479.39575 254.180915 
L 486.4385 253.083998 
L 493.48125 253.626416 
L 500.524 253.729397 
L 507.56675 253.096 
L 514.6095 253.662475 
L 521.65225 253.663372 
L 528.695 253.006604 
L 535.73775 253.732351 
L 542.7805 253.326943 
L 549.82325 252.534327 
L 556.866 252.004386 
L 563.90875 254.113808 
L 570.9515 255.912626 
L 577.99425 255.038844 
L 585.037 253.37569 
L 592.07975 252.670333 
L 599.1225 252.182783 
L 606.16525 252.5697 
L 613.208 253.871075 
L 620.25075 253.336149 
L 627.2935 253.021825 
L 634.33625 252.165505 
L 641.379 251.274128 
L 648.42175 251.952341 
L 655.4645 252.629315 
L 662.50725 253.20555 
L 669.55 254.044592 
L 676.59275 253.316972 
L 683.6355 252.946699 
L 690.67825 252.048121 
L 697.721 252.910482 
L 704.76375 253.194576 
L 711.8065 254.486402 
L 718.84925 253.885847 
L 725.892 254.6653 
L 732.93475 254.68089 
L 739.9775 254.150844 
L 747.02025 253.832747 
L 754.063 254.041031 
L 761.10575 254.349895 
L 768.1485 254.162002 
L 775.19125 253.140448 
L 782.234 252.703623 
L 789.27675 252.820321 
L 796.3195 253.525994 
L 803.36225 256.005188 
L 810.405 257.663805 
" clip-path="url(#pe7cc048571)" style="fill: none; stroke: #0000ff; stroke-width: 1.5; stroke-linecap: square"/>
    <defs>
     <path id="m29c75150c6" d="M 0 1.5 
C 0.397805 1.5 0.77937 1.341951 1.06066 1.06066 
C 1.341951 0.77937 1.5 0.397805 1.5 0 
C 1.5 -0.397805 1.341951 -0.77937 1.06066 -1.06066 
C 0.77937 -1.341951 0.397805 -1.5 0 -1.5 
C -0.397805 -1.5 -0.77937 -1.341951 -1.06066 -1.06066 
C -1.341951 -0.77937 -1.5 -0.397805 -1.5 0 
C -1.5 0.397805 -1.341951 0.77937 -1.06066 1.06066 
C -0.77937 1.341951 -0.397805 1.5 0 1.5 
z
" style="stroke: #0000ff"/>
    </defs>
    <g clip-path="url(#pe7cc048571)">
     <use xlink:href="#m29c75150c6" x="113.17275" y="266.833797" style="fill: #0000ff; stroke: #0000ff"/>
     <use xlink:href="#m29c75150c6" x="120.2155" y="264.158203" style="fill: #0000ff; stroke: #0000ff"/>
     <use xlink:href="#m29c75150c6" x="127.25825" y="258.922473" style="fill: #0000ff; stroke: #0000ff"/>
     <use xlink:href="#m29c75150c6" x="134.301" y="257.149638" style="fill: #0000ff; stroke: #0000ff"/>
     <use xlink:href="#m29c75150c6" x="141.34375" y="257.71118" style="fill: #0000ff; stroke: #0000ff"/>
     <use xlink:href="#m29c75150c6" x="148.3865" y="256.427479" style="fill: #0000ff; stroke: #0000ff"/>
     <use xlink:href="#m29c75150c6" x="155.42925" y="262.541871" style="fill: #0000ff; stroke: #0000ff"/>
     <use xlink:href="#m29c75150c6" x="162.472" y="259.008414" style="fill: #0000ff; stroke: #0000ff"/>
     <use xlink:href="#m29c75150c6" x="169.51475" y="258.445553" style="fill: #0000ff; stroke: #0000ff"/>
     <use xlink:href="#m29c75150c6" x="176.5575" y="258.671589" style="fill: #0000ff; stroke: #0000ff"/>
     <use xlink:href="#m29c75150c6" x="183.60025" y="257.052065" style="fill: #0000ff; stroke: #0000ff"/>
     <use xlink:href="#m29c75150c6" x="190.643" y="257.301841" style="fill: #0000ff; stroke: #0000ff"/>
     <use xlink:href="#m29c75150c6" x="197.68575" y="258.152542" style="fill: #0000ff; stroke: #0000ff"/>
     <use xlink:href="#m29c75150c6" x="204.7285" y="257.964359" style="fill: #0000ff; stroke: #0000ff"/>
     <use xlink:href="#m29c75150c6" x="211.77125" y="260.620948" style="fill: #0000ff; stroke: #0000ff"/>
     <use xlink:href="#m29c75150c6" x="218.814" y="261.261335" style="fill: #0000ff; stroke: #0000ff"/>
     <use xlink:href="#m29c75150c6" x="225.85675" y="260.41488" style="fill: #0000ff; stroke: #0000ff"/>
     <use xlink:href="#m29c75150c6" x="232.8995" y="259.404748" style="fill: #0000ff; stroke: #0000ff"/>
     <use xlink:href="#m29c75150c6" x="239.94225" y="257.584406" style="fill: #0000ff; stroke: #0000ff"/>
     <use xlink:href="#m29c75150c6" x="246.985" y="259.921131" style="fill: #0000ff; stroke: #0000ff"/>
     <use xlink:href="#m29c75150c6" x="254.02775" y="257.339193" style="fill: #0000ff; stroke: #0000ff"/>
     <use xlink:href="#m29c75150c6" x="261.0705" y="256.719882" style="fill: #0000ff; stroke: #0000ff"/>
     <use xlink:href="#m29c75150c6" x="268.11325" y="258.134157" style="fill: #0000ff; stroke: #0000ff"/>
     <use xlink:href="#m29c75150c6" x="275.156" y="259.123107" style="fill: #0000ff; stroke: #0000ff"/>
     <use xlink:href="#m29c75150c6" x="282.19875" y="257.503635" style="fill: #0000ff; stroke: #0000ff"/>
     <use xlink:href="#m29c75150c6" x="289.2415" y="260.102244" style="fill: #0000ff; stroke: #0000ff"/>
     <use xlink:href="#m29c75150c6" x="296.28425" y="265.496943" style="fill: #0000ff; stroke: #0000ff"/>
     <use xlink:href="#m29c75150c6" x="303.327" y="259.559589" style="fill: #0000ff; stroke: #0000ff"/>
     <use xlink:href="#m29c75150c6" x="310.36975" y="256.574775" style="fill: #0000ff; stroke: #0000ff"/>
     <use xlink:href="#m29c75150c6" x="317.4125" y="259.710895" style="fill: #0000ff; stroke: #0000ff"/>
     <use xlink:href="#m29c75150c6" x="324.45525" y="257.693269" style="fill: #0000ff; stroke: #0000ff"/>
     <use xlink:href="#m29c75150c6" x="331.498" y="257.343677" style="fill: #0000ff; stroke: #0000ff"/>
     <use xlink:href="#m29c75150c6" x="338.54075" y="259.37043" style="fill: #0000ff; stroke: #0000ff"/>
     <use xlink:href="#m29c75150c6" x="345.5835" y="258.62548" style="fill: #0000ff; stroke: #0000ff"/>
     <use xlink:href="#m29c75150c6" x="352.62625" y="258.235529" style="fill: #0000ff; stroke: #0000ff"/>
     <use xlink:href="#m29c75150c6" x="359.669" y="260.344265" style="fill: #0000ff; stroke: #0000ff"/>
     <use xlink:href="#m29c75150c6" x="366.71175" y="258.321601" style="fill: #0000ff; stroke: #0000ff"/>
     <use xlink:href="#m29c75150c6" x="373.7545" y="261.78443" style="fill: #0000ff; stroke: #0000ff"/>
     <use xlink:href="#m29c75150c6" x="380.79725" y="257.69232" style="fill: #0000ff; stroke: #0000ff"/>
     <use xlink:href="#m29c75150c6" x="387.84" y="257.497041" style="fill: #0000ff; stroke: #0000ff"/>
     <use xlink:href="#m29c75150c6" x="394.88275" y="259.204088" style="fill: #0000ff; stroke: #0000ff"/>
     <use xlink:href="#m29c75150c6" x="401.9255" y="259.265761" style="fill: #0000ff; stroke: #0000ff"/>
     <use xlink:href="#m29c75150c6" x="408.96825" y="257.464806" style="fill: #0000ff; stroke: #0000ff"/>
     <use xlink:href="#m29c75150c6" x="416.011" y="256.507247" style="fill: #0000ff; stroke: #0000ff"/>
     <use xlink:href="#m29c75150c6" x="423.05375" y="257.546949" style="fill: #0000ff; stroke: #0000ff"/>
     <use xlink:href="#m29c75150c6" x="430.0965" y="257.144547" style="fill: #0000ff; stroke: #0000ff"/>
     <use xlink:href="#m29c75150c6" x="437.13925" y="256.170765" style="fill: #0000ff; stroke: #0000ff"/>
     <use xlink:href="#m29c75150c6" x="444.182" y="255.761584" style="fill: #0000ff; stroke: #0000ff"/>
     <use xlink:href="#m29c75150c6" x="451.22475" y="255.491391" style="fill: #0000ff; stroke: #0000ff"/>
     <use xlink:href="#m29c75150c6" x="458.2675" y="254.453324" style="fill: #0000ff; stroke: #0000ff"/>
     <use xlink:href="#m29c75150c6" x="465.31025" y="255.365065" style="fill: #0000ff; stroke: #0000ff"/>
     <use xlink:href="#m29c75150c6" x="472.353" y="254.993869" style="fill: #0000ff; stroke: #0000ff"/>
     <use xlink:href="#m29c75150c6" x="479.39575" y="254.180915" style="fill: #0000ff; stroke: #0000ff"/>
     <use xlink:href="#m29c75150c6" x="486.4385" y="253.083998" style="fill: #0000ff; stroke: #0000ff"/>
     <use xlink:href="#m29c75150c6" x="493.48125" y="253.626416" style="fill: #0000ff; stroke: #0000ff"/>
     <use xlink:href="#m29c75150c6" x="500.524" y="253.729397" style="fill: #0000ff; stroke: #0000ff"/>
     <use xlink:href="#m29c75150c6" x="507.56675" y="253.096" style="fill: #0000ff; stroke: #0000ff"/>
     <use xlink:href="#m29c75150c6" x="514.6095" y="253.662475" style="fill: #0000ff; stroke: #0000ff"/>
     <use xlink:href="#m29c75150c6" x="521.65225" y="253.663372" style="fill: #0000ff; stroke: #0000ff"/>
     <use xlink:href="#m29c75150c6" x="528.695" y="253.006604" style="fill: #0000ff; stroke: #0000ff"/>
     <use xlink:href="#m29c75150c6" x="535.73775" y="253.732351" style="fill: #0000ff; stroke: #0000ff"/>
     <use xlink:href="#m29c75150c6" x="542.7805" y="253.326943" style="fill: #0000ff; stroke: #0000ff"/>
     <use xlink:href="#m29c75150c6" x="549.82325" y="252.534327" style="fill: #0000ff; stroke: #0000ff"/>
     <use xlink:href="#m29c75150c6" x="556.866" y="252.004386" style="fill: #0000ff; stroke: #0000ff"/>
     <use xlink:href="#m29c75150c6" x="563.90875" y="254.113808" style="fill: #0000ff; stroke: #0000ff"/>
     <use xlink:href="#m29c75150c6" x="570.9515" y="255.912626" style="fill: #0000ff; stroke: #0000ff"/>
     <use xlink:href="#m29c75150c6" x="577.99425" y="255.038844" style="fill: #0000ff; stroke: #0000ff"/>
     <use xlink:href="#m29c75150c6" x="585.037" y="253.37569" style="fill: #0000ff; stroke: #0000ff"/>
     <use xlink:href="#m29c75150c6" x="592.07975" y="252.670333" style="fill: #0000ff; stroke: #0000ff"/>
     <use xlink:href="#m29c75150c6" x="599.1225" y="252.182783" style="fill: #0000ff; stroke: #0000ff"/>
     <use xlink:href="#m29c75150c6" x="606.16525" y="252.5697" style="fill: #0000ff; stroke: #0000ff"/>
     <use xlink:href="#m29c75150c6" x="613.208" y="253.871075" style="fill: #0000ff; stroke: #0000ff"/>
     <use xlink:href="#m29c75150c6" x="620.25075" y="253.336149" style="fill: #0000ff; stroke: #0000ff"/>
     <use xlink:href="#m29c75150c6" x="627.2935" y="253.021825" style="fill: #0000ff; stroke: #0000ff"/>
     <use xlink:href="#m29c75150c6" x="634.33625" y="252.165505" style="fill: #0000ff; stroke: #0000ff"/>
     <use xlink:href="#m29c75150c6" x="641.379" y="251.274128" style="fill: #0000ff; stroke: #0000ff"/>
     <use xlink:href="#m29c75150c6" x="648.42175" y="251.952341" style="fill: #0000ff; stroke: #0000ff"/>
     <use xlink:href="#m29c75150c6" x="655.4645" y="252.629315" style="fill: #0000ff; stroke: #0000ff"/>
     <use xlink:href="#m29c75150c6" x="662.50725" y="253.20555" style="fill: #0000ff; stroke: #0000ff"/>
     <use xlink:href="#m29c75150c6" x="669.55" y="254.044592" style="fill: #0000ff; stroke: #0000ff"/>
     <use xlink:href="#m29c75150c6" x="676.59275" y="253.316972" style="fill: #0000ff; stroke: #0000ff"/>
     <use xlink:href="#m29c75150c6" x="683.6355" y="252.946699" style="fill: #0000ff; stroke: #0000ff"/>
     <use xlink:href="#m29c75150c6" x="690.67825" y="252.048121" style="fill: #0000ff; stroke: #0000ff"/>
     <use xlink:href="#m29c75150c6" x="697.721" y="252.910482" style="fill: #0000ff; stroke: #0000ff"/>
     <use xlink:href="#m29c75150c6" x="704.76375" y="253.194576" style="fill: #0000ff; stroke: #0000ff"/>
     <use xlink:href="#m29c75150c6" x="711.8065" y="254.486402" style="fill: #0000ff; stroke: #0000ff"/>
     <use xlink:href="#m29c75150c6" x="718.84925" y="253.885847" style="fill: #0000ff; stroke: #0000ff"/>
     <use xlink:href="#m29c75150c6" x="725.892" y="254.6653" style="fill: #0000ff; stroke: #0000ff"/>
     <use xlink:href="#m29c75150c6" x="732.93475" y="254.68089" style="fill: #0000ff; stroke: #0000ff"/>
     <use xlink:href="#m29c75150c6" x="739.9775" y="254.150844" style="fill: #0000ff; stroke: #0000ff"/>
     <use xlink:href="#m29c75150c6" x="747.02025" y="253.832747" style="fill: #0000ff; stroke: #0000ff"/>
     <use xlink:href="#m29c75150c6" x="754.063" y="254.041031" style="fill: #0000ff; stroke: #0000ff"/>
     <use xlink:href="#m29c75150c6" x="761.10575" y="254.349895" style="fill: #0000ff; stroke: #0000ff"/>
     <use xlink:href="#m29c75150c6" x="768.1485" y="254.162002" style="fill: #0000ff; stroke: #0000ff"/>
     <use xlink:href="#m29c75150c6" x="775.19125" y="253.140448" style="fill: #0000ff; stroke: #0000ff"/>
     <use xlink:href="#m29c75150c6" x="782.234" y="252.703623" style="fill: #0000ff; stroke: #0000ff"/>
     <use xlink:href="#m29c75150c6" x="789.27675" y="252.820321" style="fill: #0000ff; stroke: #0000ff"/>
     <use xlink:href="#m29c75150c6" x="796.3195" y="253.525994" style="fill: #0000ff; stroke: #0000ff"/>
     <use xlink:href="#m29c75150c6" x="803.36225" y="256.005188" style="fill: #0000ff; stroke: #0000ff"/>
     <use xlink:href="#m29c75150c6" x="810.405" y="257.663805" style="fill: #0000ff; stroke: #0000ff"/>
    </g>
   </g>
   <g id="line2d_27">
    <path clip-path="url(#pe7cc048571)" style="fill: none; stroke-dasharray: 5.55,2.4; stroke-dashoffset: 0; stroke: #ff0000; stroke-width: 1.5"/>
   </g>
   <g id="line2d_28">
    <path d="M 113.17275 262.428101 
L 120.2155 276.490918 
L 127.25825 268.682364 
L 134.301 252.708503 
L 141.34375 273.0661 
L 148.3865 263.791056 
L 155.42925 261.787701 
L 162.472 263.31498 
L 169.51475 267.183231 
L 176.5575 265.66835 
L 183.60025 262.649824 
L 190.643 270.596798 
L 197.68575 256.6274 
L 204.7285 263.025728 
L 211.77125 261.04039 
L 218.814 251.631423 
L 225.85675 258.693773 
L 232.8995 261.274497 
L 239.94225 276.3401 
L 246.985 258.727537 
L 254.02775 251.551496 
L 261.0705 261.702169 
L 268.11325 264.281759 
L 275.156 255.194661 
L 282.19875 254.661185 
L 289.2415 274.323252 
L 296.28425 273.04021 
L 303.327 253.582997 
L 310.36975 263.748284 
L 317.4125 260.288581 
L 324.45525 265.211398 
L 331.498 261.046008 
L 338.54075 264.88614 
L 345.5835 273.227035 
L 352.62625 268.850065 
L 359.669 260.101743 
L 366.71175 262.244653 
L 373.7545 259.051674 
L 380.79725 262.496751 
L 387.84 263.843945 
L 394.88275 257.949825 
L 401.9255 267.280026 
L 408.96825 255.022463 
L 416.011 260.253682 
L 423.05375 256.437186 
L 430.0965 261.976781 
L 437.13925 254.048944 
L 444.182 271.83257 
L 451.22475 258.756791 
L 458.2675 260.91322 
L 465.31025 261.554741 
L 472.353 236.887675 
L 479.39575 256.430433 
L 486.4385 256.994296 
L 493.48125 251.436698 
L 500.524 239.476287 
L 507.56675 250.415909 
L 514.6095 249.588685 
L 521.65225 255.165407 
L 528.695 258.367394 
L 535.73775 262.572166 
L 542.7805 251.003407 
L 549.82325 265.685232 
L 556.866 252.974106 
L 563.90875 252.241422 
L 570.9515 253.533459 
L 577.99425 254.278541 
L 585.037 253.245355 
L 592.07975 255.049474 
L 599.1225 264.464086 
L 606.16525 245.353511 
L 613.208 267.615413 
L 620.25075 260.088237 
L 627.2935 256.643148 
L 634.33625 237.917485 
L 641.379 241.944454 
L 648.42175 241.331053 
L 655.4645 260.313324 
L 662.50725 253.631375 
L 669.55 246.78625 
L 676.59275 258.988656 
L 683.6355 261.62339 
L 690.67825 265.724615 
L 697.721 255.302706 
L 704.76375 253.882365 
L 711.8065 251.27914 
L 718.84925 251.185734 
L 725.892 268.446014 
L 732.93475 254.431588 
L 739.9775 257.193505 
L 747.02025 262.466363 
L 754.063 248.270744 
L 761.10575 274.255724 
L 768.1485 245.512203 
L 775.19125 260.217676 
L 782.234 245.986037 
L 789.27675 255.21943 
L 796.3195 268.847809 
L 803.36225 269.472448 
L 810.405 269.823597 
" clip-path="url(#pe7cc048571)" style="fill: none; stroke: #ff0000; stroke-width: 1.5; stroke-linecap: square"/>
    <defs>
     <path id="m08309da1f6" d="M 0 1.5 
C 0.397805 1.5 0.77937 1.341951 1.06066 1.06066 
C 1.341951 0.77937 1.5 0.397805 1.5 0 
C 1.5 -0.397805 1.341951 -0.77937 1.06066 -1.06066 
C 0.77937 -1.341951 0.397805 -1.5 0 -1.5 
C -0.397805 -1.5 -0.77937 -1.341951 -1.06066 -1.06066 
C -1.341951 -0.77937 -1.5 -0.397805 -1.5 0 
C -1.5 0.397805 -1.341951 0.77937 -1.06066 1.06066 
C -0.77937 1.341951 -0.397805 1.5 0 1.5 
z
" style="stroke: #ff0000"/>
    </defs>
    <g clip-path="url(#pe7cc048571)">
     <use xlink:href="#m08309da1f6" x="113.17275" y="262.428101" style="fill: #ff0000; stroke: #ff0000"/>
     <use xlink:href="#m08309da1f6" x="120.2155" y="276.490918" style="fill: #ff0000; stroke: #ff0000"/>
     <use xlink:href="#m08309da1f6" x="127.25825" y="268.682364" style="fill: #ff0000; stroke: #ff0000"/>
     <use xlink:href="#m08309da1f6" x="134.301" y="252.708503" style="fill: #ff0000; stroke: #ff0000"/>
     <use xlink:href="#m08309da1f6" x="141.34375" y="273.0661" style="fill: #ff0000; stroke: #ff0000"/>
     <use xlink:href="#m08309da1f6" x="148.3865" y="263.791056" style="fill: #ff0000; stroke: #ff0000"/>
     <use xlink:href="#m08309da1f6" x="155.42925" y="261.787701" style="fill: #ff0000; stroke: #ff0000"/>
     <use xlink:href="#m08309da1f6" x="162.472" y="263.31498" style="fill: #ff0000; stroke: #ff0000"/>
     <use xlink:href="#m08309da1f6" x="169.51475" y="267.183231" style="fill: #ff0000; stroke: #ff0000"/>
     <use xlink:href="#m08309da1f6" x="176.5575" y="265.66835" style="fill: #ff0000; stroke: #ff0000"/>
     <use xlink:href="#m08309da1f6" x="183.60025" y="262.649824" style="fill: #ff0000; stroke: #ff0000"/>
     <use xlink:href="#m08309da1f6" x="190.643" y="270.596798" style="fill: #ff0000; stroke: #ff0000"/>
     <use xlink:href="#m08309da1f6" x="197.68575" y="256.6274" style="fill: #ff0000; stroke: #ff0000"/>
     <use xlink:href="#m08309da1f6" x="204.7285" y="263.025728" style="fill: #ff0000; stroke: #ff0000"/>
     <use xlink:href="#m08309da1f6" x="211.77125" y="261.04039" style="fill: #ff0000; stroke: #ff0000"/>
     <use xlink:href="#m08309da1f6" x="218.814" y="251.631423" style="fill: #ff0000; stroke: #ff0000"/>
     <use xlink:href="#m08309da1f6" x="225.85675" y="258.693773" style="fill: #ff0000; stroke: #ff0000"/>
     <use xlink:href="#m08309da1f6" x="232.8995" y="261.274497" style="fill: #ff0000; stroke: #ff0000"/>
     <use xlink:href="#m08309da1f6" x="239.94225" y="276.3401" style="fill: #ff0000; stroke: #ff0000"/>
     <use xlink:href="#m08309da1f6" x="246.985" y="258.727537" style="fill: #ff0000; stroke: #ff0000"/>
     <use xlink:href="#m08309da1f6" x="254.02775" y="251.551496" style="fill: #ff0000; stroke: #ff0000"/>
     <use xlink:href="#m08309da1f6" x="261.0705" y="261.702169" style="fill: #ff0000; stroke: #ff0000"/>
     <use xlink:href="#m08309da1f6" x="268.11325" y="264.281759" style="fill: #ff0000; stroke: #ff0000"/>
     <use xlink:href="#m08309da1f6" x="275.156" y="255.194661" style="fill: #ff0000; stroke: #ff0000"/>
     <use xlink:href="#m08309da1f6" x="282.19875" y="254.661185" style="fill: #ff0000; stroke: #ff0000"/>
     <use xlink:href="#m08309da1f6" x="289.2415" y="274.323252" style="fill: #ff0000; stroke: #ff0000"/>
     <use xlink:href="#m08309da1f6" x="296.28425" y="273.04021" style="fill: #ff0000; stroke: #ff0000"/>
     <use xlink:href="#m08309da1f6" x="303.327" y="253.582997" style="fill: #ff0000; stroke: #ff0000"/>
     <use xlink:href="#m08309da1f6" x="310.36975" y="263.748284" style="fill: #ff0000; stroke: #ff0000"/>
     <use xlink:href="#m08309da1f6" x="317.4125" y="260.288581" style="fill: #ff0000; stroke: #ff0000"/>
     <use xlink:href="#m08309da1f6" x="324.45525" y="265.211398" style="fill: #ff0000; stroke: #ff0000"/>
     <use xlink:href="#m08309da1f6" x="331.498" y="261.046008" style="fill: #ff0000; stroke: #ff0000"/>
     <use xlink:href="#m08309da1f6" x="338.54075" y="264.88614" style="fill: #ff0000; stroke: #ff0000"/>
     <use xlink:href="#m08309da1f6" x="345.5835" y="273.227035" style="fill: #ff0000; stroke: #ff0000"/>
     <use xlink:href="#m08309da1f6" x="352.62625" y="268.850065" style="fill: #ff0000; stroke: #ff0000"/>
     <use xlink:href="#m08309da1f6" x="359.669" y="260.101743" style="fill: #ff0000; stroke: #ff0000"/>
     <use xlink:href="#m08309da1f6" x="366.71175" y="262.244653" style="fill: #ff0000; stroke: #ff0000"/>
     <use xlink:href="#m08309da1f6" x="373.7545" y="259.051674" style="fill: #ff0000; stroke: #ff0000"/>
     <use xlink:href="#m08309da1f6" x="380.79725" y="262.496751" style="fill: #ff0000; stroke: #ff0000"/>
     <use xlink:href="#m08309da1f6" x="387.84" y="263.843945" style="fill: #ff0000; stroke: #ff0000"/>
     <use xlink:href="#m08309da1f6" x="394.88275" y="257.949825" style="fill: #ff0000; stroke: #ff0000"/>
     <use xlink:href="#m08309da1f6" x="401.9255" y="267.280026" style="fill: #ff0000; stroke: #ff0000"/>
     <use xlink:href="#m08309da1f6" x="408.96825" y="255.022463" style="fill: #ff0000; stroke: #ff0000"/>
     <use xlink:href="#m08309da1f6" x="416.011" y="260.253682" style="fill: #ff0000; stroke: #ff0000"/>
     <use xlink:href="#m08309da1f6" x="423.05375" y="256.437186" style="fill: #ff0000; stroke: #ff0000"/>
     <use xlink:href="#m08309da1f6" x="430.0965" y="261.976781" style="fill: #ff0000; stroke: #ff0000"/>
     <use xlink:href="#m08309da1f6" x="437.13925" y="254.048944" style="fill: #ff0000; stroke: #ff0000"/>
     <use xlink:href="#m08309da1f6" x="444.182" y="271.83257" style="fill: #ff0000; stroke: #ff0000"/>
     <use xlink:href="#m08309da1f6" x="451.22475" y="258.756791" style="fill: #ff0000; stroke: #ff0000"/>
     <use xlink:href="#m08309da1f6" x="458.2675" y="260.91322" style="fill: #ff0000; stroke: #ff0000"/>
     <use xlink:href="#m08309da1f6" x="465.31025" y="261.554741" style="fill: #ff0000; stroke: #ff0000"/>
     <use xlink:href="#m08309da1f6" x="472.353" y="236.887675" style="fill: #ff0000; stroke: #ff0000"/>
     <use xlink:href="#m08309da1f6" x="479.39575" y="256.430433" style="fill: #ff0000; stroke: #ff0000"/>
     <use xlink:href="#m08309da1f6" x="486.4385" y="256.994296" style="fill: #ff0000; stroke: #ff0000"/>
     <use xlink:href="#m08309da1f6" x="493.48125" y="251.436698" style="fill: #ff0000; stroke: #ff0000"/>
     <use xlink:href="#m08309da1f6" x="500.524" y="239.476287" style="fill: #ff0000; stroke: #ff0000"/>
     <use xlink:href="#m08309da1f6" x="507.56675" y="250.415909" style="fill: #ff0000; stroke: #ff0000"/>
     <use xlink:href="#m08309da1f6" x="514.6095" y="249.588685" style="fill: #ff0000; stroke: #ff0000"/>
     <use xlink:href="#m08309da1f6" x="521.65225" y="255.165407" style="fill: #ff0000; stroke: #ff0000"/>
     <use xlink:href="#m08309da1f6" x="528.695" y="258.367394" style="fill: #ff0000; stroke: #ff0000"/>
     <use xlink:href="#m08309da1f6" x="535.73775" y="262.572166" style="fill: #ff0000; stroke: #ff0000"/>
     <use xlink:href="#m08309da1f6" x="542.7805" y="251.003407" style="fill: #ff0000; stroke: #ff0000"/>
     <use xlink:href="#m08309da1f6" x="549.82325" y="265.685232" style="fill: #ff0000; stroke: #ff0000"/>
     <use xlink:href="#m08309da1f6" x="556.866" y="252.974106" style="fill: #ff0000; stroke: #ff0000"/>
     <use xlink:href="#m08309da1f6" x="563.90875" y="252.241422" style="fill: #ff0000; stroke: #ff0000"/>
     <use xlink:href="#m08309da1f6" x="570.9515" y="253.533459" style="fill: #ff0000; stroke: #ff0000"/>
     <use xlink:href="#m08309da1f6" x="577.99425" y="254.278541" style="fill: #ff0000; stroke: #ff0000"/>
     <use xlink:href="#m08309da1f6" x="585.037" y="253.245355" style="fill: #ff0000; stroke: #ff0000"/>
     <use xlink:href="#m08309da1f6" x="592.07975" y="255.049474" style="fill: #ff0000; stroke: #ff0000"/>
     <use xlink:href="#m08309da1f6" x="599.1225" y="264.464086" style="fill: #ff0000; stroke: #ff0000"/>
     <use xlink:href="#m08309da1f6" x="606.16525" y="245.353511" style="fill: #ff0000; stroke: #ff0000"/>
     <use xlink:href="#m08309da1f6" x="613.208" y="267.615413" style="fill: #ff0000; stroke: #ff0000"/>
     <use xlink:href="#m08309da1f6" x="620.25075" y="260.088237" style="fill: #ff0000; stroke: #ff0000"/>
     <use xlink:href="#m08309da1f6" x="627.2935" y="256.643148" style="fill: #ff0000; stroke: #ff0000"/>
     <use xlink:href="#m08309da1f6" x="634.33625" y="237.917485" style="fill: #ff0000; stroke: #ff0000"/>
     <use xlink:href="#m08309da1f6" x="641.379" y="241.944454" style="fill: #ff0000; stroke: #ff0000"/>
     <use xlink:href="#m08309da1f6" x="648.42175" y="241.331053" style="fill: #ff0000; stroke: #ff0000"/>
     <use xlink:href="#m08309da1f6" x="655.4645" y="260.313324" style="fill: #ff0000; stroke: #ff0000"/>
     <use xlink:href="#m08309da1f6" x="662.50725" y="253.631375" style="fill: #ff0000; stroke: #ff0000"/>
     <use xlink:href="#m08309da1f6" x="669.55" y="246.78625" style="fill: #ff0000; stroke: #ff0000"/>
     <use xlink:href="#m08309da1f6" x="676.59275" y="258.988656" style="fill: #ff0000; stroke: #ff0000"/>
     <use xlink:href="#m08309da1f6" x="683.6355" y="261.62339" style="fill: #ff0000; stroke: #ff0000"/>
     <use xlink:href="#m08309da1f6" x="690.67825" y="265.724615" style="fill: #ff0000; stroke: #ff0000"/>
     <use xlink:href="#m08309da1f6" x="697.721" y="255.302706" style="fill: #ff0000; stroke: #ff0000"/>
     <use xlink:href="#m08309da1f6" x="704.76375" y="253.882365" style="fill: #ff0000; stroke: #ff0000"/>
     <use xlink:href="#m08309da1f6" x="711.8065" y="251.27914" style="fill: #ff0000; stroke: #ff0000"/>
     <use xlink:href="#m08309da1f6" x="718.84925" y="251.185734" style="fill: #ff0000; stroke: #ff0000"/>
     <use xlink:href="#m08309da1f6" x="725.892" y="268.446014" style="fill: #ff0000; stroke: #ff0000"/>
     <use xlink:href="#m08309da1f6" x="732.93475" y="254.431588" style="fill: #ff0000; stroke: #ff0000"/>
     <use xlink:href="#m08309da1f6" x="739.9775" y="257.193505" style="fill: #ff0000; stroke: #ff0000"/>
     <use xlink:href="#m08309da1f6" x="747.02025" y="262.466363" style="fill: #ff0000; stroke: #ff0000"/>
     <use xlink:href="#m08309da1f6" x="754.063" y="248.270744" style="fill: #ff0000; stroke: #ff0000"/>
     <use xlink:href="#m08309da1f6" x="761.10575" y="274.255724" style="fill: #ff0000; stroke: #ff0000"/>
     <use xlink:href="#m08309da1f6" x="768.1485" y="245.512203" style="fill: #ff0000; stroke: #ff0000"/>
     <use xlink:href="#m08309da1f6" x="775.19125" y="260.217676" style="fill: #ff0000; stroke: #ff0000"/>
     <use xlink:href="#m08309da1f6" x="782.234" y="245.986037" style="fill: #ff0000; stroke: #ff0000"/>
     <use xlink:href="#m08309da1f6" x="789.27675" y="255.21943" style="fill: #ff0000; stroke: #ff0000"/>
     <use xlink:href="#m08309da1f6" x="796.3195" y="268.847809" style="fill: #ff0000; stroke: #ff0000"/>
     <use xlink:href="#m08309da1f6" x="803.36225" y="269.472448" style="fill: #ff0000; stroke: #ff0000"/>
     <use xlink:href="#m08309da1f6" x="810.405" y="269.823597" style="fill: #ff0000; stroke: #ff0000"/>
    </g>
   </g>
   <g id="line2d_29">
    <path d="M 113.17275 325.284109 
L 120.2155 323.676969 
L 127.25825 320.403906 
L 134.301 321.238345 
L 141.34375 322.344666 
L 148.3865 321.842831 
L 155.42925 324.202742 
L 162.472 323.496963 
L 169.51475 323.315019 
L 176.5575 322.959175 
L 183.60025 322.446222 
L 190.643 322.405428 
L 197.68575 323.28202 
L 204.7285 323.965337 
L 211.77125 323.180041 
L 218.814 323.50129 
L 225.85675 322.416309 
L 232.8995 323.75708 
L 239.94225 322.025949 
L 246.985 321.828257 
L 254.02775 322.318999 
L 261.0705 321.429905 
L 268.11325 321.366504 
L 275.156 319.854696 
L 282.19875 320.367412 
L 289.2415 325.75334 
L 296.28425 326.70602 
L 303.327 320.370445 
L 310.36975 321.454634 
L 317.4125 319.823134 
L 324.45525 323.459454 
L 331.498 321.622902 
L 338.54075 321.846036 
L 345.5835 322.758898 
L 352.62625 322.856352 
L 359.669 323.274198 
L 366.71175 322.45312 
L 373.7545 322.263302 
L 380.79725 320.08217 
L 387.84 320.394806 
L 394.88275 320.604104 
L 401.9255 320.530469 
L 408.96825 320.692551 
L 416.011 321.693661 
L 423.05375 320.142273 
L 430.0965 321.986276 
L 437.13925 319.573556 
L 444.182 320.849964 
L 451.22475 319.272579 
L 458.2675 318.396502 
L 465.31025 319.147915 
L 472.353 318.641609 
L 479.39575 318.155931 
L 486.4385 319.597336 
L 493.48125 318.724951 
L 500.524 318.937323 
L 507.56675 317.752198 
L 514.6095 318.800314 
L 521.65225 317.797001 
L 528.695 318.944142 
L 535.73775 320.161608 
L 542.7805 319.620812 
L 549.82325 318.637586 
L 556.866 319.414165 
L 563.90875 320.273544 
L 570.9515 318.456526 
L 577.99425 319.080874 
L 585.037 318.213317 
L 592.07975 319.524571 
L 599.1225 317.156126 
L 606.16525 318.271073 
L 613.208 319.087746 
L 620.25075 320.264892 
L 627.2935 317.450245 
L 634.33625 319.314257 
L 641.379 316.396549 
L 648.42175 316.824881 
L 655.4645 320.409485 
L 662.50725 317.689417 
L 669.55 318.725123 
L 676.59275 317.294257 
L 683.6355 316.82372 
L 690.67825 318.658478 
L 697.721 317.924501 
L 704.76375 318.496383 
L 711.8065 317.845181 
L 718.84925 316.209316 
L 725.892 319.35699 
L 732.93475 318.377457 
L 739.9775 316.39618 
L 747.02025 318.342861 
L 754.063 320.301993 
L 761.10575 322.145061 
L 768.1485 317.856906 
L 775.19125 318.213502 
L 782.234 318.381967 
L 789.27675 319.858969 
L 796.3195 322.748386 
L 803.36225 322.881069 
L 810.405 322.371189 
" clip-path="url(#pe7cc048571)" style="fill: none; stroke: #2ca02c; stroke-width: 1.5; stroke-linecap: square"/>
   </g>
   <g id="line2d_30">
    <path d="M 113.17275 395.603635 
L 120.2155 397.233262 
L 127.25825 397.621611 
L 134.301 390.449823 
L 141.34375 397.757901 
L 148.3865 394.636032 
L 155.42925 395.248293 
L 162.472 393.454559 
L 169.51475 396.790397 
L 176.5575 396.330774 
L 183.60025 394.715147 
L 190.643 397.873253 
L 197.68575 393.132078 
L 204.7285 394.636065 
L 211.77125 393.437908 
L 218.814 391.17013 
L 225.85675 393.100358 
L 232.8995 395.252856 
L 239.94225 398.181221 
L 246.985 393.238422 
L 254.02775 391.999814 
L 261.0705 393.986723 
L 268.11325 393.718824 
L 275.156 390.750338 
L 282.19875 390.99019 
L 289.2415 399.19924 
L 296.28425 397.826089 
L 303.327 390.301063 
L 310.36975 394.704846 
L 317.4125 392.330585 
L 324.45525 394.576087 
L 331.498 393.8107 
L 338.54075 393.658748 
L 345.5835 397.485248 
L 352.62625 396.296363 
L 359.669 394.080662 
L 366.71175 394.074984 
L 373.7545 393.861564 
L 380.79725 393.91198 
L 387.84 393.923441 
L 394.88275 391.567671 
L 401.9255 394.813855 
L 408.96825 390.38604 
L 416.011 392.703199 
L 423.05375 391.764434 
L 430.0965 393.642901 
L 437.13925 391.116153 
L 444.182 396.349509 
L 451.22475 392.526517 
L 458.2675 393.544266 
L 465.31025 392.689647 
L 472.353 385.142944 
L 479.39575 392.839892 
L 486.4385 391.374331 
L 493.48125 389.18729 
L 500.524 386.654772 
L 507.56675 389.239467 
L 514.6095 388.995711 
L 521.65225 390.402778 
L 528.695 392.662194 
L 535.73775 392.667938 
L 542.7805 390.16561 
L 549.82325 394.863769 
L 556.866 390.562426 
L 563.90875 391.100662 
L 570.9515 390.698287 
L 577.99425 390.800774 
L 585.037 389.859911 
L 592.07975 389.944718 
L 599.1225 392.695675 
L 606.16525 386.418667 
L 613.208 393.982482 
L 620.25075 391.187586 
L 627.2935 391.337843 
L 634.33625 384.391109 
L 641.379 386.113713 
L 648.42175 385.062385 
L 655.4645 391.752478 
L 662.50725 389.371352 
L 669.55 387.307306 
L 676.59275 391.229778 
L 683.6355 391.585002 
L 690.67825 394.365529 
L 697.721 389.709212 
L 704.76375 389.145111 
L 711.8065 389.04155 
L 718.84925 388.9046 
L 725.892 396.864704 
L 732.93475 391.406724 
L 739.9775 390.395708 
L 747.02025 392.810064 
L 754.063 388.274257 
L 761.10575 396.274713 
L 768.1485 387.050593 
L 775.19125 391.982319 
L 782.234 387.703746 
L 789.27675 389.825659 
L 796.3195 397.490972 
L 803.36225 396.854542 
L 810.405 396.422399 
" clip-path="url(#pe7cc048571)" style="fill: none; stroke: #ff7f0e; stroke-width: 1.5; stroke-linecap: square"/>
   </g>
   <g id="patch_3">
    <path d="M 106.13 482.875 
L 106.13 40.32 
" style="fill: none; stroke: #000000; stroke-width: 0.8; stroke-linejoin: miter; stroke-linecap: square"/>
   </g>
   <g id="patch_4">
    <path d="M 810.405 482.875 
L 810.405 40.32 
" style="fill: none; stroke: #000000; stroke-width: 0.8; stroke-linejoin: miter; stroke-linecap: square"/>
   </g>
   <g id="patch_5">
    <path d="M 106.13 482.875 
L 810.405 482.875 
" style="fill: none; stroke: #000000; stroke-width: 0.8; stroke-linejoin: miter; stroke-linecap: square"/>
   </g>
   <g id="patch_6">
    <path d="M 106.13 40.32 
L 810.405 40.32 
" style="fill: none; stroke: #000000; stroke-width: 0.8; stroke-linejoin: miter; stroke-linecap: square"/>
   </g>
   <g id="legend_1">
    <g id="patch_7">
     <path d="M 443.395625 229.335625 
L 796.405 229.335625 
Q 800.405 229.335625 800.405 225.335625 
L 800.405 54.32 
Q 800.405 50.32 796.405 50.32 
L 443.395625 50.32 
Q 439.395625 50.32 439.395625 54.32 
L 439.395625 225.335625 
Q 439.395625 229.335625 443.395625 229.335625 
z
" style="fill: #ffffff; opacity: 0.8; stroke: #cccccc; stroke-linejoin: miter"/>
    </g>
    <g id="line2d_31">
     <path d="M 447.395625 65.666875 
L 467.395625 65.666875 
L 487.395625 65.666875 
" style="fill: none; stroke-dasharray: 5.55,2.4; stroke-dashoffset: 0; stroke: #0000ff; stroke-width: 1.5"/>
    </g>
    <g id="text_15">
     <!-- Training Loss -->
     <g transform="translate(503.395625 72.666875) scale(0.2 -0.2)">
      <defs>
       <path id="Helvetica-54" d="M 3828 4591 
L 3828 4044 
L 2281 4044 
L 2281 0 
L 1650 0 
L 1650 4044 
L 103 4044 
L 103 4591 
L 3828 4591 
z
" transform="scale(0.015625)"/>
       <path id="Helvetica-69" d="M 413 3331 
L 984 3331 
L 984 0 
L 413 0 
L 413 3331 
z
M 413 4591 
L 984 4591 
L 984 3953 
L 413 3953 
L 413 4591 
z
" transform="scale(0.015625)"/>
       <path id="Helvetica-6e" d="M 413 3347 
L 947 3347 
L 947 2872 
Q 1184 3166 1450 3294 
Q 1716 3422 2041 3422 
Q 2753 3422 3003 2925 
Q 3141 2653 3141 2147 
L 3141 0 
L 2569 0 
L 2569 2109 
Q 2569 2416 2478 2603 
Q 2328 2916 1934 2916 
Q 1734 2916 1606 2875 
Q 1375 2806 1200 2600 
Q 1059 2434 1017 2257 
Q 975 2081 975 1753 
L 975 0 
L 413 0 
L 413 3347 
z
M 1734 3428 
L 1734 3428 
z
" transform="scale(0.015625)"/>
       <path id="Helvetica-67" d="M 1594 3406 
Q 1988 3406 2281 3213 
Q 2441 3103 2606 2894 
L 2606 3316 
L 3125 3316 
L 3125 272 
Q 3125 -366 2938 -734 
Q 2588 -1416 1616 -1416 
Q 1075 -1416 706 -1173 
Q 338 -931 294 -416 
L 866 -416 
Q 906 -641 1028 -763 
Q 1219 -950 1628 -950 
Q 2275 -950 2475 -494 
Q 2594 -225 2584 466 
Q 2416 209 2178 84 
Q 1941 -41 1550 -41 
Q 1006 -41 598 345 
Q 191 731 191 1622 
Q 191 2463 602 2934 
Q 1013 3406 1594 3406 
z
M 2606 1688 
Q 2606 2309 2350 2609 
Q 2094 2909 1697 2909 
Q 1103 2909 884 2353 
Q 769 2056 769 1575 
Q 769 1009 998 714 
Q 1228 419 1616 419 
Q 2222 419 2469 966 
Q 2606 1275 2606 1688 
z
M 1659 3428 
L 1659 3428 
z
" transform="scale(0.015625)"/>
       <path id="Helvetica-20" transform="scale(0.015625)"/>
      </defs>
      <use xlink:href="#Helvetica-54"/>
      <use xlink:href="#Helvetica-72" x="61.083984"/>
      <use xlink:href="#Helvetica-61" x="94.384766"/>
      <use xlink:href="#Helvetica-69" x="150"/>
      <use xlink:href="#Helvetica-6e" x="172.216797"/>
      <use xlink:href="#Helvetica-69" x="227.832031"/>
      <use xlink:href="#Helvetica-6e" x="250.048828"/>
      <use xlink:href="#Helvetica-67" x="305.664062"/>
      <use xlink:href="#Helvetica-20" x="361.279297"/>
      <use xlink:href="#Helvetica-4c" x="389.0625"/>
      <use xlink:href="#Helvetica-6f" x="444.677734"/>
      <use xlink:href="#Helvetica-73" x="500.292969"/>
      <use xlink:href="#Helvetica-73" x="550.292969"/>
     </g>
    </g>
    <g id="line2d_32">
     <path d="M 447.395625 94.829375 
L 467.395625 94.829375 
L 487.395625 94.829375 
" style="fill: none; stroke: #0000ff; stroke-width: 1.5; stroke-linecap: square"/>
     <g>
      <use xlink:href="#m29c75150c6" x="467.395625" y="94.829375" style="fill: #0000ff; stroke: #0000ff"/>
     </g>
    </g>
    <g id="text_16">
     <!-- Training Overall pixel accuracy -->
     <g transform="translate(503.395625 101.829375) scale(0.2 -0.2)">
      <defs>
       <path id="Helvetica-4f" d="M 2469 4716 
Q 3684 4716 4269 3934 
Q 4725 3325 4725 2375 
Q 4725 1347 4203 666 
Q 3591 -134 2456 -134 
Q 1397 -134 791 566 
Q 250 1241 250 2272 
Q 250 3203 713 3866 
Q 1306 4716 2469 4716 
z
M 2531 422 
Q 3353 422 3720 1011 
Q 4088 1600 4088 2366 
Q 4088 3175 3664 3669 
Q 3241 4163 2506 4163 
Q 1794 4163 1344 3673 
Q 894 3184 894 2231 
Q 894 1469 1280 945 
Q 1666 422 2531 422 
z
M 2488 4716 
L 2488 4716 
z
" transform="scale(0.015625)"/>
       <path id="Helvetica-76" d="M 688 3347 
L 1581 622 
L 2516 3347 
L 3131 3347 
L 1869 0 
L 1269 0 
L 34 3347 
L 688 3347 
z
" transform="scale(0.015625)"/>
       <path id="Helvetica-65" d="M 1806 3422 
Q 2163 3422 2497 3255 
Q 2831 3088 3006 2822 
Q 3175 2569 3231 2231 
Q 3281 2000 3281 1494 
L 828 1494 
Q 844 984 1069 676 
Q 1294 369 1766 369 
Q 2206 369 2469 659 
Q 2619 828 2681 1050 
L 3234 1050 
Q 3213 866 3089 639 
Q 2966 413 2813 269 
Q 2556 19 2178 -69 
Q 1975 -119 1719 -119 
Q 1094 -119 659 336 
Q 225 791 225 1609 
Q 225 2416 662 2919 
Q 1100 3422 1806 3422 
z
M 2703 1941 
Q 2669 2306 2544 2525 
Q 2313 2931 1772 2931 
Q 1384 2931 1121 2651 
Q 859 2372 844 1941 
L 2703 1941 
z
M 1753 3428 
L 1753 3428 
z
" transform="scale(0.015625)"/>
       <path id="Helvetica-6c" d="M 428 4591 
L 991 4591 
L 991 0 
L 428 0 
L 428 4591 
z
" transform="scale(0.015625)"/>
       <path id="Helvetica-78" d="M 94 3347 
L 822 3347 
L 1591 2169 
L 2369 3347 
L 3053 3331 
L 1925 1716 
L 3103 0 
L 2384 0 
L 1553 1256 
L 747 0 
L 34 0 
L 1213 1716 
L 94 3347 
z
" transform="scale(0.015625)"/>
      </defs>
      <use xlink:href="#Helvetica-54"/>
      <use xlink:href="#Helvetica-72" x="61.083984"/>
      <use xlink:href="#Helvetica-61" x="94.384766"/>
      <use xlink:href="#Helvetica-69" x="150"/>
      <use xlink:href="#Helvetica-6e" x="172.216797"/>
      <use xlink:href="#Helvetica-69" x="227.832031"/>
      <use xlink:href="#Helvetica-6e" x="250.048828"/>
      <use xlink:href="#Helvetica-67" x="305.664062"/>
      <use xlink:href="#Helvetica-20" x="361.279297"/>
      <use xlink:href="#Helvetica-4f" x="389.0625"/>
      <use xlink:href="#Helvetica-76" x="466.845703"/>
      <use xlink:href="#Helvetica-65" x="516.845703"/>
      <use xlink:href="#Helvetica-72" x="572.460938"/>
      <use xlink:href="#Helvetica-61" x="605.761719"/>
      <use xlink:href="#Helvetica-6c" x="661.376953"/>
      <use xlink:href="#Helvetica-6c" x="683.59375"/>
      <use xlink:href="#Helvetica-20" x="705.810547"/>
      <use xlink:href="#Helvetica-70" x="733.59375"/>
      <use xlink:href="#Helvetica-69" x="789.208984"/>
      <use xlink:href="#Helvetica-78" x="811.425781"/>
      <use xlink:href="#Helvetica-65" x="861.425781"/>
      <use xlink:href="#Helvetica-6c" x="917.041016"/>
      <use xlink:href="#Helvetica-20" x="939.257812"/>
      <use xlink:href="#Helvetica-61" x="967.041016"/>
      <use xlink:href="#Helvetica-63" x="1022.65625"/>
      <use xlink:href="#Helvetica-63" x="1072.65625"/>
      <use xlink:href="#Helvetica-75" x="1122.65625"/>
      <use xlink:href="#Helvetica-72" x="1178.271484"/>
      <use xlink:href="#Helvetica-61" x="1211.572266"/>
      <use xlink:href="#Helvetica-63" x="1267.1875"/>
      <use xlink:href="#Helvetica-79" x="1317.1875"/>
     </g>
    </g>
    <g id="line2d_33">
     <path d="M 447.395625 123.60125 
L 467.395625 123.60125 
L 487.395625 123.60125 
" style="fill: none; stroke-dasharray: 5.55,2.4; stroke-dashoffset: 0; stroke: #ff0000; stroke-width: 1.5"/>
    </g>
    <g id="text_17">
     <!-- Validation Loss -->
     <g transform="translate(503.395625 130.60125) scale(0.2 -0.2)">
      <defs>
       <path id="Helvetica-56" d="M 850 4591 
L 2169 681 
L 3472 4591 
L 4169 4591 
L 2494 0 
L 1834 0 
L 163 4591 
L 850 4591 
z
" transform="scale(0.015625)"/>
       <path id="Helvetica-64" d="M 769 1634 
Q 769 1097 997 734 
Q 1225 372 1728 372 
Q 2119 372 2370 708 
Q 2622 1044 2622 1672 
Q 2622 2306 2362 2611 
Q 2103 2916 1722 2916 
Q 1297 2916 1033 2591 
Q 769 2266 769 1634 
z
M 1616 3406 
Q 2000 3406 2259 3244 
Q 2409 3150 2600 2916 
L 2600 4606 
L 3141 4606 
L 3141 0 
L 2634 0 
L 2634 466 
Q 2438 156 2169 18 
Q 1900 -119 1553 -119 
Q 994 -119 584 351 
Q 175 822 175 1603 
Q 175 2334 548 2870 
Q 922 3406 1616 3406 
z
" transform="scale(0.015625)"/>
       <path id="Helvetica-74" d="M 525 4281 
L 1094 4281 
L 1094 3347 
L 1628 3347 
L 1628 2888 
L 1094 2888 
L 1094 703 
Q 1094 528 1213 469 
Q 1278 434 1431 434 
Q 1472 434 1519 436 
Q 1566 438 1628 444 
L 1628 0 
Q 1531 -28 1426 -40 
Q 1322 -53 1200 -53 
Q 806 -53 665 148 
Q 525 350 525 672 
L 525 2888 
L 72 2888 
L 72 3347 
L 525 3347 
L 525 4281 
z
" transform="scale(0.015625)"/>
      </defs>
      <use xlink:href="#Helvetica-56"/>
      <use xlink:href="#Helvetica-61" x="66.699219"/>
      <use xlink:href="#Helvetica-6c" x="122.314453"/>
      <use xlink:href="#Helvetica-69" x="144.53125"/>
      <use xlink:href="#Helvetica-64" x="166.748047"/>
      <use xlink:href="#Helvetica-61" x="222.363281"/>
      <use xlink:href="#Helvetica-74" x="277.978516"/>
      <use xlink:href="#Helvetica-69" x="305.761719"/>
      <use xlink:href="#Helvetica-6f" x="327.978516"/>
      <use xlink:href="#Helvetica-6e" x="383.59375"/>
      <use xlink:href="#Helvetica-20" x="439.208984"/>
      <use xlink:href="#Helvetica-4c" x="466.992188"/>
      <use xlink:href="#Helvetica-6f" x="522.607422"/>
      <use xlink:href="#Helvetica-73" x="578.222656"/>
      <use xlink:href="#Helvetica-73" x="628.222656"/>
     </g>
    </g>
    <g id="line2d_34">
     <path d="M 447.395625 152.5075 
L 467.395625 152.5075 
L 487.395625 152.5075 
" style="fill: none; stroke: #ff0000; stroke-width: 1.5; stroke-linecap: square"/>
     <g>
      <use xlink:href="#m08309da1f6" x="467.395625" y="152.5075" style="fill: #ff0000; stroke: #ff0000"/>
     </g>
    </g>
    <g id="text_18">
     <!-- Validation Overall pixel accuracy -->
     <g transform="translate(503.395625 159.5075) scale(0.2 -0.2)">
      <use xlink:href="#Helvetica-56"/>
      <use xlink:href="#Helvetica-61" x="66.699219"/>
      <use xlink:href="#Helvetica-6c" x="122.314453"/>
      <use xlink:href="#Helvetica-69" x="144.53125"/>
      <use xlink:href="#Helvetica-64" x="166.748047"/>
      <use xlink:href="#Helvetica-61" x="222.363281"/>
      <use xlink:href="#Helvetica-74" x="277.978516"/>
      <use xlink:href="#Helvetica-69" x="305.761719"/>
      <use xlink:href="#Helvetica-6f" x="327.978516"/>
      <use xlink:href="#Helvetica-6e" x="383.59375"/>
      <use xlink:href="#Helvetica-20" x="439.208984"/>
      <use xlink:href="#Helvetica-4f" x="466.992188"/>
      <use xlink:href="#Helvetica-76" x="544.775391"/>
      <use xlink:href="#Helvetica-65" x="594.775391"/>
      <use xlink:href="#Helvetica-72" x="650.390625"/>
      <use xlink:href="#Helvetica-61" x="683.691406"/>
      <use xlink:href="#Helvetica-6c" x="739.306641"/>
      <use xlink:href="#Helvetica-6c" x="761.523438"/>
      <use xlink:href="#Helvetica-20" x="783.740234"/>
      <use xlink:href="#Helvetica-70" x="811.523438"/>
      <use xlink:href="#Helvetica-69" x="867.138672"/>
      <use xlink:href="#Helvetica-78" x="889.355469"/>
      <use xlink:href="#Helvetica-65" x="939.355469"/>
      <use xlink:href="#Helvetica-6c" x="994.970703"/>
      <use xlink:href="#Helvetica-20" x="1017.1875"/>
      <use xlink:href="#Helvetica-61" x="1044.970703"/>
      <use xlink:href="#Helvetica-63" x="1100.585938"/>
      <use xlink:href="#Helvetica-63" x="1150.585938"/>
      <use xlink:href="#Helvetica-75" x="1200.585938"/>
      <use xlink:href="#Helvetica-72" x="1256.201172"/>
      <use xlink:href="#Helvetica-61" x="1289.501953"/>
      <use xlink:href="#Helvetica-63" x="1345.117188"/>
      <use xlink:href="#Helvetica-79" x="1395.117188"/>
     </g>
    </g>
    <g id="line2d_35">
     <path d="M 447.395625 181.5325 
L 467.395625 181.5325 
L 487.395625 181.5325 
" style="fill: none; stroke: #2ca02c; stroke-width: 1.5; stroke-linecap: square"/>
    </g>
    <g id="text_19">
     <!-- Validation PerClass accuracy -->
     <g transform="translate(503.395625 188.5325) scale(0.2 -0.2)">
      <defs>
       <path id="Helvetica-50" d="M 547 4591 
L 2613 4591 
Q 3225 4591 3600 4245 
Q 3975 3900 3975 3275 
Q 3975 2738 3640 2339 
Q 3306 1941 2613 1941 
L 1169 1941 
L 1169 0 
L 547 0 
L 547 4591 
z
M 3347 3272 
Q 3347 3778 2972 3959 
Q 2766 4056 2406 4056 
L 1169 4056 
L 1169 2466 
L 2406 2466 
Q 2825 2466 3086 2644 
Q 3347 2822 3347 3272 
z
" transform="scale(0.015625)"/>
       <path id="Helvetica-43" d="M 2422 4716 
Q 3294 4716 3775 4256 
Q 4256 3797 4309 3213 
L 3703 3213 
Q 3600 3656 3292 3915 
Q 2984 4175 2428 4175 
Q 1750 4175 1333 3698 
Q 916 3222 916 2238 
Q 916 1431 1292 929 
Q 1669 428 2416 428 
Q 3103 428 3463 956 
Q 3653 1234 3747 1688 
L 4353 1688 
Q 4272 963 3816 472 
Q 3269 -119 2341 -119 
Q 1541 -119 997 366 
Q 281 1006 281 2344 
Q 281 3359 819 4009 
Q 1400 4716 2422 4716 
z
M 2297 4716 
L 2297 4716 
z
" transform="scale(0.015625)"/>
      </defs>
      <use xlink:href="#Helvetica-56"/>
      <use xlink:href="#Helvetica-61" x="66.699219"/>
      <use xlink:href="#Helvetica-6c" x="122.314453"/>
      <use xlink:href="#Helvetica-69" x="144.53125"/>
      <use xlink:href="#Helvetica-64" x="166.748047"/>
      <use xlink:href="#Helvetica-61" x="222.363281"/>
      <use xlink:href="#Helvetica-74" x="277.978516"/>
      <use xlink:href="#Helvetica-69" x="305.761719"/>
      <use xlink:href="#Helvetica-6f" x="327.978516"/>
      <use xlink:href="#Helvetica-6e" x="383.59375"/>
      <use xlink:href="#Helvetica-20" x="439.208984"/>
      <use xlink:href="#Helvetica-50" x="466.992188"/>
      <use xlink:href="#Helvetica-65" x="533.691406"/>
      <use xlink:href="#Helvetica-72" x="589.306641"/>
      <use xlink:href="#Helvetica-43" x="622.607422"/>
      <use xlink:href="#Helvetica-6c" x="694.824219"/>
      <use xlink:href="#Helvetica-61" x="717.041016"/>
      <use xlink:href="#Helvetica-73" x="772.65625"/>
      <use xlink:href="#Helvetica-73" x="822.65625"/>
      <use xlink:href="#Helvetica-20" x="872.65625"/>
      <use xlink:href="#Helvetica-61" x="900.439453"/>
      <use xlink:href="#Helvetica-63" x="956.054688"/>
      <use xlink:href="#Helvetica-63" x="1006.054688"/>
      <use xlink:href="#Helvetica-75" x="1056.054688"/>
      <use xlink:href="#Helvetica-72" x="1111.669922"/>
      <use xlink:href="#Helvetica-61" x="1144.970703"/>
      <use xlink:href="#Helvetica-63" x="1200.585938"/>
      <use xlink:href="#Helvetica-79" x="1250.585938"/>
     </g>
    </g>
    <g id="line2d_36">
     <path d="M 447.395625 210.166875 
L 467.395625 210.166875 
L 487.395625 210.166875 
" style="fill: none; stroke: #ff7f0e; stroke-width: 1.5; stroke-linecap: square"/>
    </g>
    <g id="text_20">
     <!-- Validation Jaccard index -->
     <g transform="translate(503.395625 217.166875) scale(0.2 -0.2)">
      <defs>
       <path id="Helvetica-4a" d="M 2741 1369 
Q 2741 788 2569 466 
Q 2250 -122 1356 -122 
Q 841 -122 475 158 
Q 109 438 109 1153 
L 109 1481 
L 694 1481 
L 694 1153 
Q 694 778 861 589 
Q 1028 400 1381 400 
Q 1878 400 2031 741 
Q 2125 950 2125 1531 
L 2125 4591 
L 2741 4591 
L 2741 1369 
z
" transform="scale(0.015625)"/>
      </defs>
      <use xlink:href="#Helvetica-56"/>
      <use xlink:href="#Helvetica-61" x="66.699219"/>
      <use xlink:href="#Helvetica-6c" x="122.314453"/>
      <use xlink:href="#Helvetica-69" x="144.53125"/>
      <use xlink:href="#Helvetica-64" x="166.748047"/>
      <use xlink:href="#Helvetica-61" x="222.363281"/>
      <use xlink:href="#Helvetica-74" x="277.978516"/>
      <use xlink:href="#Helvetica-69" x="305.761719"/>
      <use xlink:href="#Helvetica-6f" x="327.978516"/>
      <use xlink:href="#Helvetica-6e" x="383.59375"/>
      <use xlink:href="#Helvetica-20" x="439.208984"/>
      <use xlink:href="#Helvetica-4a" x="466.992188"/>
      <use xlink:href="#Helvetica-61" x="516.992188"/>
      <use xlink:href="#Helvetica-63" x="572.607422"/>
      <use xlink:href="#Helvetica-63" x="622.607422"/>
      <use xlink:href="#Helvetica-61" x="672.607422"/>
      <use xlink:href="#Helvetica-72" x="728.222656"/>
      <use xlink:href="#Helvetica-64" x="761.523438"/>
      <use xlink:href="#Helvetica-20" x="817.138672"/>
      <use xlink:href="#Helvetica-69" x="844.921875"/>
      <use xlink:href="#Helvetica-6e" x="867.138672"/>
      <use xlink:href="#Helvetica-64" x="922.753906"/>
      <use xlink:href="#Helvetica-65" x="978.369141"/>
      <use xlink:href="#Helvetica-78" x="1033.984375"/>
     </g>
    </g>
   </g>
  </g>
 </g>
 <defs>
  <clipPath id="pe7cc048571">
   <rect x="106.13" y="40.32" width="704.275" height="442.555"/>
  </clipPath>
 </defs>
</svg>
