<?xml version="1.0" encoding="utf-8" standalone="no"?>
<!DOCTYPE svg PUBLIC "-//W3C//DTD SVG 1.1//EN"
  "http://www.w3.org/Graphics/SVG/1.1/DTD/svg11.dtd">
<svg xmlns:xlink="http://www.w3.org/1999/xlink" width="864pt" height="576pt" viewBox="0 0 864 576" xmlns="http://www.w3.org/2000/svg" version="1.1">
 <metadata>
  <rdf:RDF xmlns:dc="http://purl.org/dc/elements/1.1/" xmlns:cc="http://creativecommons.org/ns#" xmlns:rdf="http://www.w3.org/1999/02/22-rdf-syntax-ns#">
   <cc:Work>
    <dc:type rdf:resource="http://purl.org/dc/dcmitype/StillImage"/>
    <dc:date>2024-05-14T01:25:38.036774</dc:date>
    <dc:format>image/svg+xml</dc:format>
    <dc:creator>
     <cc:Agent>
      <dc:title>Matplotlib v3.8.3, https://matplotlib.org/</dc:title>
     </cc:Agent>
    </dc:creator>
   </cc:Work>
  </rdf:RDF>
 </metadata>
 <defs>
  <style type="text/css">*{stroke-linejoin: round; stroke-linecap: butt}</style>
 </defs>
 <g id="figure_1">
  <g id="patch_1">
   <path d="M 0 576 
L 864 576 
L 864 0 
L 0 0 
z
" style="fill: #ffffff"/>
  </g>
  <g id="axes_1">
   <g id="patch_2">
    <path d="M 106.13 482.875 
L 810.405 482.875 
L 810.405 40.32 
L 106.13 40.32 
z
" style="fill: #ffffff"/>
   </g>
   <g id="matplotlib.axis_1">
    <g id="xtick_1">
     <g id="line2d_1">
      <path d="M 106.13 482.875 
L 106.13 40.32 
" clip-path="url(#p8b1f1c122e)" style="fill: none; stroke: #b0b0b0; stroke-width: 0.8; stroke-linecap: square"/>
     </g>
     <g id="line2d_2">
      <defs>
       <path id="m25d785418a" d="M 0 0 
L 0 3.5 
" style="stroke: #000000; stroke-width: 0.8"/>
      </defs>
      <g>
       <use xlink:href="#m25d785418a" x="106.13" y="482.875" style="stroke: #000000; stroke-width: 0.8"/>
      </g>
     </g>
     <g id="text_1">
      <!-- 0 -->
      <g transform="translate(98.344688 509.960625) scale(0.28 -0.28)">
       <defs>
        <path id="Helvetica-30" d="M 1731 4475 
Q 2600 4475 2988 3759 
Q 3288 3206 3288 2244 
Q 3288 1331 3016 734 
Q 2622 -122 1728 -122 
Q 922 -122 528 578 
Q 200 1163 200 2147 
Q 200 2909 397 3456 
Q 766 4475 1731 4475 
z
M 1725 391 
Q 2163 391 2422 778 
Q 2681 1166 2681 2222 
Q 2681 2984 2493 3476 
Q 2306 3969 1766 3969 
Q 1269 3969 1039 3501 
Q 809 3034 809 2125 
Q 809 1441 956 1025 
Q 1181 391 1725 391 
z
" transform="scale(0.015625)"/>
       </defs>
       <use xlink:href="#Helvetica-30"/>
      </g>
     </g>
    </g>
    <g id="xtick_2">
     <g id="line2d_3">
      <path d="M 246.985 482.875 
L 246.985 40.32 
" clip-path="url(#p8b1f1c122e)" style="fill: none; stroke: #b0b0b0; stroke-width: 0.8; stroke-linecap: square"/>
     </g>
     <g id="line2d_4">
      <g>
       <use xlink:href="#m25d785418a" x="246.985" y="482.875" style="stroke: #000000; stroke-width: 0.8"/>
      </g>
     </g>
     <g id="text_2">
      <!-- 20 -->
      <g transform="translate(231.414375 509.960625) scale(0.28 -0.28)">
       <defs>
        <path id="Helvetica-32" d="M 200 0 
Q 231 578 439 1006 
Q 647 1434 1250 1784 
L 1850 2131 
Q 2253 2366 2416 2531 
Q 2672 2791 2672 3125 
Q 2672 3516 2437 3745 
Q 2203 3975 1813 3975 
Q 1234 3975 1013 3538 
Q 894 3303 881 2888 
L 309 2888 
Q 319 3472 525 3841 
Q 891 4491 1816 4491 
Q 2584 4491 2939 4075 
Q 3294 3659 3294 3150 
Q 3294 2613 2916 2231 
Q 2697 2009 2131 1694 
L 1703 1456 
Q 1397 1288 1222 1134 
Q 909 863 828 531 
L 3272 531 
L 3272 0 
L 200 0 
z
" transform="scale(0.015625)"/>
       </defs>
       <use xlink:href="#Helvetica-32"/>
       <use xlink:href="#Helvetica-30" x="55.615234"/>
      </g>
     </g>
    </g>
    <g id="xtick_3">
     <g id="line2d_5">
      <path d="M 387.84 482.875 
L 387.84 40.32 
" clip-path="url(#p8b1f1c122e)" style="fill: none; stroke: #b0b0b0; stroke-width: 0.8; stroke-linecap: square"/>
     </g>
     <g id="line2d_6">
      <g>
       <use xlink:href="#m25d785418a" x="387.84" y="482.875" style="stroke: #000000; stroke-width: 0.8"/>
      </g>
     </g>
     <g id="text_3">
      <!-- 40 -->
      <g transform="translate(372.269375 509.960625) scale(0.28 -0.28)">
       <defs>
        <path id="Helvetica-34" d="M 2116 1584 
L 2116 3613 
L 681 1584 
L 2116 1584 
z
M 2125 0 
L 2125 1094 
L 163 1094 
L 163 1644 
L 2213 4488 
L 2688 4488 
L 2688 1584 
L 3347 1584 
L 3347 1094 
L 2688 1094 
L 2688 0 
L 2125 0 
z
" transform="scale(0.015625)"/>
       </defs>
       <use xlink:href="#Helvetica-34"/>
       <use xlink:href="#Helvetica-30" x="55.615234"/>
      </g>
     </g>
    </g>
    <g id="xtick_4">
     <g id="line2d_7">
      <path d="M 528.695 482.875 
L 528.695 40.32 
" clip-path="url(#p8b1f1c122e)" style="fill: none; stroke: #b0b0b0; stroke-width: 0.8; stroke-linecap: square"/>
     </g>
     <g id="line2d_8">
      <g>
       <use xlink:href="#m25d785418a" x="528.695" y="482.875" style="stroke: #000000; stroke-width: 0.8"/>
      </g>
     </g>
     <g id="text_4">
      <!-- 60 -->
      <g transform="translate(513.124375 509.960625) scale(0.28 -0.28)">
       <defs>
        <path id="Helvetica-36" d="M 1872 4494 
Q 2622 4494 2917 4105 
Q 3213 3716 3213 3303 
L 2656 3303 
Q 2606 3569 2497 3719 
Q 2294 4000 1881 4000 
Q 1409 4000 1131 3564 
Q 853 3128 822 2316 
Q 1016 2600 1309 2741 
Q 1578 2866 1909 2866 
Q 2472 2866 2890 2506 
Q 3309 2147 3309 1434 
Q 3309 825 2912 354 
Q 2516 -116 1781 -116 
Q 1153 -116 697 361 
Q 241 838 241 1966 
Q 241 2800 444 3381 
Q 834 4494 1872 4494 
z
M 1831 384 
Q 2275 384 2495 682 
Q 2716 981 2716 1388 
Q 2716 1731 2519 2042 
Q 2322 2353 1803 2353 
Q 1441 2353 1167 2112 
Q 894 1872 894 1388 
Q 894 963 1142 673 
Q 1391 384 1831 384 
z
" transform="scale(0.015625)"/>
       </defs>
       <use xlink:href="#Helvetica-36"/>
       <use xlink:href="#Helvetica-30" x="55.615234"/>
      </g>
     </g>
    </g>
    <g id="xtick_5">
     <g id="line2d_9">
      <path d="M 669.55 482.875 
L 669.55 40.32 
" clip-path="url(#p8b1f1c122e)" style="fill: none; stroke: #b0b0b0; stroke-width: 0.8; stroke-linecap: square"/>
     </g>
     <g id="line2d_10">
      <g>
       <use xlink:href="#m25d785418a" x="669.55" y="482.875" style="stroke: #000000; stroke-width: 0.8"/>
      </g>
     </g>
     <g id="text_5">
      <!-- 80 -->
      <g transform="translate(653.979375 509.960625) scale(0.28 -0.28)">
       <defs>
        <path id="Helvetica-38" d="M 1741 2600 
Q 2113 2600 2322 2808 
Q 2531 3016 2531 3303 
Q 2531 3553 2331 3762 
Q 2131 3972 1722 3972 
Q 1316 3972 1134 3762 
Q 953 3553 953 3272 
Q 953 2956 1187 2778 
Q 1422 2600 1741 2600 
z
M 1775 384 
Q 2166 384 2423 595 
Q 2681 806 2681 1225 
Q 2681 1659 2415 1884 
Q 2150 2109 1734 2109 
Q 1331 2109 1076 1879 
Q 822 1650 822 1244 
Q 822 894 1055 639 
Q 1288 384 1775 384 
z
M 975 2384 
Q 741 2484 609 2619 
Q 363 2869 363 3269 
Q 363 3769 725 4128 
Q 1088 4488 1753 4488 
Q 2397 4488 2762 4148 
Q 3128 3809 3128 3356 
Q 3128 2938 2916 2678 
Q 2797 2531 2547 2391 
Q 2825 2263 2984 2097 
Q 3281 1784 3281 1284 
Q 3281 694 2884 283 
Q 2488 -128 1763 -128 
Q 1109 -128 657 226 
Q 206 581 206 1256 
Q 206 1653 400 1942 
Q 594 2231 975 2384 
z
" transform="scale(0.015625)"/>
       </defs>
       <use xlink:href="#Helvetica-38"/>
       <use xlink:href="#Helvetica-30" x="55.615234"/>
      </g>
     </g>
    </g>
    <g id="xtick_6">
     <g id="line2d_11">
      <path d="M 810.405 482.875 
L 810.405 40.32 
" clip-path="url(#p8b1f1c122e)" style="fill: none; stroke: #b0b0b0; stroke-width: 0.8; stroke-linecap: square"/>
     </g>
     <g id="line2d_12">
      <g>
       <use xlink:href="#m25d785418a" x="810.405" y="482.875" style="stroke: #000000; stroke-width: 0.8"/>
      </g>
     </g>
     <g id="text_6">
      <!-- 100 -->
      <g transform="translate(787.049062 509.960625) scale(0.28 -0.28)">
       <defs>
        <path id="Helvetica-31" d="M 613 3169 
L 613 3600 
Q 1222 3659 1462 3798 
Q 1703 3938 1822 4456 
L 2266 4456 
L 2266 0 
L 1666 0 
L 1666 3169 
L 613 3169 
z
" transform="scale(0.015625)"/>
       </defs>
       <use xlink:href="#Helvetica-31"/>
       <use xlink:href="#Helvetica-30" x="55.615234"/>
       <use xlink:href="#Helvetica-30" x="111.230469"/>
      </g>
     </g>
    </g>
    <g id="text_7">
     <!-- Epochs -->
     <g transform="translate(411.573125 539.948125) scale(0.28 -0.28)">
      <defs>
       <path id="Helvetica-45" d="M 547 4591 
L 3894 4591 
L 3894 4028 
L 1153 4028 
L 1153 2634 
L 3688 2634 
L 3688 2103 
L 1153 2103 
L 1153 547 
L 3941 547 
L 3941 0 
L 547 0 
L 547 4591 
z
M 2244 4591 
L 2244 4591 
z
" transform="scale(0.015625)"/>
       <path id="Helvetica-70" d="M 1825 378 
Q 2219 378 2480 708 
Q 2741 1038 2741 1694 
Q 2741 2094 2625 2381 
Q 2406 2934 1825 2934 
Q 1241 2934 1025 2350 
Q 909 2038 909 1556 
Q 909 1169 1025 897 
Q 1244 378 1825 378 
z
M 369 3331 
L 916 3331 
L 916 2888 
Q 1084 3116 1284 3241 
Q 1569 3428 1953 3428 
Q 2522 3428 2919 2992 
Q 3316 2556 3316 1747 
Q 3316 653 2744 184 
Q 2381 -113 1900 -113 
Q 1522 -113 1266 53 
Q 1116 147 931 375 
L 931 -1334 
L 369 -1334 
L 369 3331 
z
" transform="scale(0.015625)"/>
       <path id="Helvetica-6f" d="M 1741 363 
Q 2300 363 2508 786 
Q 2716 1209 2716 1728 
Q 2716 2197 2566 2491 
Q 2328 2953 1747 2953 
Q 1231 2953 997 2559 
Q 763 2166 763 1609 
Q 763 1075 997 719 
Q 1231 363 1741 363 
z
M 1763 3444 
Q 2409 3444 2856 3012 
Q 3303 2581 3303 1744 
Q 3303 934 2909 406 
Q 2516 -122 1688 -122 
Q 997 -122 590 345 
Q 184 813 184 1600 
Q 184 2444 612 2944 
Q 1041 3444 1763 3444 
z
M 1744 3428 
L 1744 3428 
z
" transform="scale(0.015625)"/>
       <path id="Helvetica-63" d="M 1703 3444 
Q 2269 3444 2623 3169 
Q 2978 2894 3050 2222 
L 2503 2222 
Q 2453 2531 2275 2736 
Q 2097 2941 1703 2941 
Q 1166 2941 934 2416 
Q 784 2075 784 1575 
Q 784 1072 996 728 
Q 1209 384 1666 384 
Q 2016 384 2220 598 
Q 2425 813 2503 1184 
L 3050 1184 
Q 2956 519 2581 211 
Q 2206 -97 1622 -97 
Q 966 -97 575 383 
Q 184 863 184 1581 
Q 184 2463 612 2953 
Q 1041 3444 1703 3444 
z
M 1616 3428 
L 1616 3428 
z
" transform="scale(0.015625)"/>
       <path id="Helvetica-68" d="M 413 4606 
L 975 4606 
L 975 2894 
Q 1175 3147 1334 3250 
Q 1606 3428 2013 3428 
Q 2741 3428 3000 2919 
Q 3141 2641 3141 2147 
L 3141 0 
L 2563 0 
L 2563 2109 
Q 2563 2478 2469 2650 
Q 2316 2925 1894 2925 
Q 1544 2925 1259 2684 
Q 975 2444 975 1775 
L 975 0 
L 413 0 
L 413 4606 
z
" transform="scale(0.015625)"/>
       <path id="Helvetica-73" d="M 747 1050 
Q 772 769 888 619 
Q 1100 347 1625 347 
Q 1938 347 2175 483 
Q 2413 619 2413 903 
Q 2413 1119 2222 1231 
Q 2100 1300 1741 1391 
L 1294 1503 
Q 866 1609 663 1741 
Q 300 1969 300 2372 
Q 300 2847 642 3140 
Q 984 3434 1563 3434 
Q 2319 3434 2653 2991 
Q 2863 2709 2856 2384 
L 2325 2384 
Q 2309 2575 2191 2731 
Q 1997 2953 1519 2953 
Q 1200 2953 1036 2831 
Q 872 2709 872 2509 
Q 872 2291 1088 2159 
Q 1213 2081 1456 2022 
L 1828 1931 
Q 2434 1784 2641 1647 
Q 2969 1431 2969 969 
Q 2969 522 2630 197 
Q 2291 -128 1597 -128 
Q 850 -128 539 211 
Q 228 550 206 1050 
L 747 1050 
z
M 1578 3428 
L 1578 3428 
z
" transform="scale(0.015625)"/>
      </defs>
      <use xlink:href="#Helvetica-45"/>
      <use xlink:href="#Helvetica-70" x="66.699219"/>
      <use xlink:href="#Helvetica-6f" x="122.314453"/>
      <use xlink:href="#Helvetica-63" x="177.929688"/>
      <use xlink:href="#Helvetica-68" x="227.929688"/>
      <use xlink:href="#Helvetica-73" x="283.544922"/>
     </g>
    </g>
   </g>
   <g id="matplotlib.axis_2">
    <g id="ytick_1">
     <g id="line2d_13">
      <path d="M 106.13 482.875 
L 810.405 482.875 
" clip-path="url(#p8b1f1c122e)" style="fill: none; stroke: #b0b0b0; stroke-width: 0.8; stroke-linecap: square"/>
     </g>
     <g id="line2d_14">
      <defs>
       <path id="mf09d99cb71" d="M 0 0 
L -3.5 0 
" style="stroke: #000000; stroke-width: 0.8"/>
      </defs>
      <g>
       <use xlink:href="#mf09d99cb71" x="106.13" y="482.875" style="stroke: #000000; stroke-width: 0.8"/>
      </g>
     </g>
     <g id="text_8">
      <!-- 0.0 -->
      <g transform="translate(60.21 492.917812) scale(0.28 -0.28)">
       <defs>
        <path id="Helvetica-2e" d="M 547 681 
L 1200 681 
L 1200 0 
L 547 0 
L 547 681 
z
" transform="scale(0.015625)"/>
       </defs>
       <use xlink:href="#Helvetica-30"/>
       <use xlink:href="#Helvetica-2e" x="55.615234"/>
       <use xlink:href="#Helvetica-30" x="83.398438"/>
      </g>
     </g>
    </g>
    <g id="ytick_2">
     <g id="line2d_15">
      <path d="M 106.13 394.364 
L 810.405 394.364 
" clip-path="url(#p8b1f1c122e)" style="fill: none; stroke: #b0b0b0; stroke-width: 0.8; stroke-linecap: square"/>
     </g>
     <g id="line2d_16">
      <g>
       <use xlink:href="#mf09d99cb71" x="106.13" y="394.364" style="stroke: #000000; stroke-width: 0.8"/>
      </g>
     </g>
     <g id="text_9">
      <!-- 0.2 -->
      <g transform="translate(60.21 404.406813) scale(0.28 -0.28)">
       <use xlink:href="#Helvetica-30"/>
       <use xlink:href="#Helvetica-2e" x="55.615234"/>
       <use xlink:href="#Helvetica-32" x="83.398438"/>
      </g>
     </g>
    </g>
    <g id="ytick_3">
     <g id="line2d_17">
      <path d="M 106.13 305.853 
L 810.405 305.853 
" clip-path="url(#p8b1f1c122e)" style="fill: none; stroke: #b0b0b0; stroke-width: 0.8; stroke-linecap: square"/>
     </g>
     <g id="line2d_18">
      <g>
       <use xlink:href="#mf09d99cb71" x="106.13" y="305.853" style="stroke: #000000; stroke-width: 0.8"/>
      </g>
     </g>
     <g id="text_10">
      <!-- 0.4 -->
      <g transform="translate(60.21 315.895812) scale(0.28 -0.28)">
       <use xlink:href="#Helvetica-30"/>
       <use xlink:href="#Helvetica-2e" x="55.615234"/>
       <use xlink:href="#Helvetica-34" x="83.398438"/>
      </g>
     </g>
    </g>
    <g id="ytick_4">
     <g id="line2d_19">
      <path d="M 106.13 217.342 
L 810.405 217.342 
" clip-path="url(#p8b1f1c122e)" style="fill: none; stroke: #b0b0b0; stroke-width: 0.8; stroke-linecap: square"/>
     </g>
     <g id="line2d_20">
      <g>
       <use xlink:href="#mf09d99cb71" x="106.13" y="217.342" style="stroke: #000000; stroke-width: 0.8"/>
      </g>
     </g>
     <g id="text_11">
      <!-- 0.6 -->
      <g transform="translate(60.21 227.384812) scale(0.28 -0.28)">
       <use xlink:href="#Helvetica-30"/>
       <use xlink:href="#Helvetica-2e" x="55.615234"/>
       <use xlink:href="#Helvetica-36" x="83.398438"/>
      </g>
     </g>
    </g>
    <g id="ytick_5">
     <g id="line2d_21">
      <path d="M 106.13 128.831 
L 810.405 128.831 
" clip-path="url(#p8b1f1c122e)" style="fill: none; stroke: #b0b0b0; stroke-width: 0.8; stroke-linecap: square"/>
     </g>
     <g id="line2d_22">
      <g>
       <use xlink:href="#mf09d99cb71" x="106.13" y="128.831" style="stroke: #000000; stroke-width: 0.8"/>
      </g>
     </g>
     <g id="text_12">
      <!-- 0.8 -->
      <g transform="translate(60.21 138.873812) scale(0.28 -0.28)">
       <use xlink:href="#Helvetica-30"/>
       <use xlink:href="#Helvetica-2e" x="55.615234"/>
       <use xlink:href="#Helvetica-38" x="83.398438"/>
      </g>
     </g>
    </g>
    <g id="ytick_6">
     <g id="line2d_23">
      <path d="M 106.13 40.32 
L 810.405 40.32 
" clip-path="url(#p8b1f1c122e)" style="fill: none; stroke: #b0b0b0; stroke-width: 0.8; stroke-linecap: square"/>
     </g>
     <g id="line2d_24">
      <g>
       <use xlink:href="#mf09d99cb71" x="106.13" y="40.32" style="stroke: #000000; stroke-width: 0.8"/>
      </g>
     </g>
     <g id="text_13">
      <!-- 1.0 -->
      <g transform="translate(60.21 50.362812) scale(0.28 -0.28)">
       <use xlink:href="#Helvetica-31"/>
       <use xlink:href="#Helvetica-2e" x="55.615234"/>
       <use xlink:href="#Helvetica-30" x="83.398438"/>
      </g>
     </g>
    </g>
    <g id="text_14">
     <!-- Loss/accuracy -->
     <g transform="translate(50.2075 351.075) rotate(-90) scale(0.28 -0.28)">
      <defs>
       <path id="Helvetica-4c" d="M 488 4591 
L 1109 4591 
L 1109 547 
L 3434 547 
L 3434 0 
L 488 0 
L 488 4591 
z
" transform="scale(0.015625)"/>
       <path id="Helvetica-2f" d="M 1456 4591 
L 1931 4591 
L 475 0 
L 0 0 
L 1456 4591 
z
" transform="scale(0.015625)"/>
       <path id="Helvetica-61" d="M 844 891 
Q 844 647 1022 506 
Q 1200 366 1444 366 
Q 1741 366 2019 503 
Q 2488 731 2488 1250 
L 2488 1703 
Q 2384 1638 2221 1594 
Q 2059 1550 1903 1531 
L 1563 1488 
Q 1256 1447 1103 1359 
Q 844 1213 844 891 
z
M 2206 2028 
Q 2400 2053 2466 2191 
Q 2503 2266 2503 2406 
Q 2503 2694 2298 2823 
Q 2094 2953 1713 2953 
Q 1272 2953 1088 2716 
Q 984 2584 953 2325 
L 428 2325 
Q 444 2944 830 3186 
Q 1216 3428 1725 3428 
Q 2316 3428 2684 3203 
Q 3050 2978 3050 2503 
L 3050 575 
Q 3050 488 3086 434 
Q 3122 381 3238 381 
Q 3275 381 3322 386 
Q 3369 391 3422 400 
L 3422 -16 
Q 3291 -53 3222 -62 
Q 3153 -72 3034 -72 
Q 2744 -72 2613 134 
Q 2544 244 2516 444 
Q 2344 219 2022 53 
Q 1700 -113 1313 -113 
Q 847 -113 551 170 
Q 256 453 256 878 
Q 256 1344 547 1600 
Q 838 1856 1309 1916 
L 2206 2028 
z
M 1741 3428 
L 1741 3428 
z
" transform="scale(0.015625)"/>
       <path id="Helvetica-75" d="M 975 3347 
L 975 1125 
Q 975 869 1056 706 
Q 1206 406 1616 406 
Q 2203 406 2416 931 
Q 2531 1213 2531 1703 
L 2531 3347 
L 3094 3347 
L 3094 0 
L 2563 0 
L 2569 494 
Q 2459 303 2297 172 
Q 1975 -91 1516 -91 
Q 800 -91 541 388 
Q 400 644 400 1072 
L 400 3347 
L 975 3347 
z
M 1747 3428 
L 1747 3428 
z
" transform="scale(0.015625)"/>
       <path id="Helvetica-72" d="M 428 3347 
L 963 3347 
L 963 2769 
Q 1028 2938 1284 3180 
Q 1541 3422 1875 3422 
Q 1891 3422 1928 3419 
Q 1966 3416 2056 3406 
L 2056 2813 
Q 2006 2822 1964 2825 
Q 1922 2828 1872 2828 
Q 1447 2828 1219 2554 
Q 991 2281 991 1925 
L 991 0 
L 428 0 
L 428 3347 
z
" transform="scale(0.015625)"/>
       <path id="Helvetica-79" d="M 2503 3347 
L 3125 3347 
Q 3006 3025 2597 1878 
Q 2291 1016 2084 472 
Q 1597 -809 1397 -1090 
Q 1197 -1372 709 -1372 
Q 591 -1372 527 -1362 
Q 463 -1353 369 -1328 
L 369 -816 
Q 516 -856 581 -865 
Q 647 -875 697 -875 
Q 853 -875 926 -823 
Q 1000 -772 1050 -697 
Q 1066 -672 1162 -440 
Q 1259 -209 1303 -97 
L 66 3347 
L 703 3347 
L 1600 622 
L 2503 3347 
z
M 1597 3428 
L 1597 3428 
z
" transform="scale(0.015625)"/>
      </defs>
      <use xlink:href="#Helvetica-4c"/>
      <use xlink:href="#Helvetica-6f" x="55.615234"/>
      <use xlink:href="#Helvetica-73" x="111.230469"/>
      <use xlink:href="#Helvetica-73" x="161.230469"/>
      <use xlink:href="#Helvetica-2f" x="211.230469"/>
      <use xlink:href="#Helvetica-61" x="239.013672"/>
      <use xlink:href="#Helvetica-63" x="294.628906"/>
      <use xlink:href="#Helvetica-63" x="344.628906"/>
      <use xlink:href="#Helvetica-75" x="394.628906"/>
      <use xlink:href="#Helvetica-72" x="450.244141"/>
      <use xlink:href="#Helvetica-61" x="483.544922"/>
      <use xlink:href="#Helvetica-63" x="539.160156"/>
      <use xlink:href="#Helvetica-79" x="589.160156"/>
     </g>
    </g>
   </g>
   <g id="line2d_25">
    <path d="M 117.790449 -1 
L 120.2155 109.800689 
L 127.25825 97.993958 
L 134.301 91.534484 
L 141.34375 88.560037 
L 148.3865 86.882797 
L 155.42925 86.095615 
L 162.472 85.696748 
L 169.51475 85.197195 
L 176.5575 84.933544 
L 183.60025 84.817716 
L 190.643 84.630773 
L 197.68575 84.574535 
L 204.7285 84.48564 
L 211.77125 84.24805 
L 218.814 84.274481 
L 225.85675 84.31943 
L 232.8995 84.083687 
L 239.94225 84.052138 
L 246.985 83.996744 
L 254.02775 84.004499 
L 261.0705 84.061687 
L 268.11325 83.9562 
L 275.156 84.004472 
L 282.19875 83.967675 
L 289.2415 83.947258 
L 296.28425 83.879571 
L 303.327 83.943486 
L 310.36975 83.873082 
L 317.4125 83.940136 
L 324.45525 83.856226 
L 331.498 83.837629 
L 338.54075 83.931484 
L 345.5835 83.855224 
L 352.62625 83.859022 
L 359.669 83.727764 
L 366.71175 83.804788 
L 373.7545 83.756437 
L 380.79725 83.76224 
L 387.84 83.737656 
L 394.88275 83.823121 
L 401.9255 83.813915 
L 408.96825 83.712438 
L 416.011 83.67229 
L 423.05375 83.659681 
L 430.0965 83.786825 
L 437.13925 83.681945 
L 444.182 83.767305 
L 451.22475 83.72014 
L 458.2675 83.738869 
L 465.31025 83.623147 
L 472.353 83.74148 
L 479.39575 83.647705 
L 486.4385 83.64855 
L 493.48125 83.722171 
L 500.524 83.731589 
L 507.56675 83.731615 
L 514.6095 83.682868 
L 521.65225 83.75554 
L 528.695 83.706529 
L 535.73775 83.752981 
L 542.7805 83.722198 
L 549.82325 83.669415 
L 556.866 83.772475 
L 563.90875 83.658389 
L 570.9515 83.764219 
L 577.99425 83.719666 
L 585.037 83.708349 
L 592.07975 83.705632 
L 599.1225 83.677592 
L 606.16525 83.692496 
L 613.208 83.704129 
L 620.25075 83.72043 
L 627.2935 83.633065 
L 634.33625 83.700304 
L 641.379 83.685268 
L 648.42175 83.630665 
L 655.4645 83.583342 
L 662.50725 83.672527 
L 669.55 83.606687 
L 676.59275 83.678621 
L 683.6355 83.634727 
L 690.67825 83.641955 
L 697.721 83.557571 
L 704.76375 83.543194 
L 711.8065 83.636073 
L 718.84925 83.757993 
L 725.892 83.670655 
L 732.93475 83.643036 
L 739.9775 83.675798 
L 747.02025 83.634147 
L 754.063 83.560815 
L 761.10575 83.677671 
L 768.1485 83.630533 
L 775.19125 83.608903 
L 782.234 83.72349 
L 789.27675 83.698932 
L 796.3195 83.608639 
L 803.36225 83.616553 
L 810.405 83.819877 
" clip-path="url(#p8b1f1c122e)" style="fill: none; stroke-dasharray: 5.55,2.4; stroke-dashoffset: 0; stroke: #0000ff; stroke-width: 1.5"/>
   </g>
   <g id="line2d_26">
    <path d="M 113.17275 435.03103 
L 120.2155 442.371342 
L 127.25825 442.20658 
L 134.301 451.842602 
L 141.34375 454.03415 
L 148.3865 452.470772 
L 155.42925 451.707673 
L 162.472 451.358095 
L 169.51475 450.998795 
L 176.5575 450.616883 
L 183.60025 450.312659 
L 190.643 450.385535 
L 197.68575 449.978099 
L 204.7285 449.899689 
L 211.77125 449.864593 
L 218.814 449.861355 
L 225.85675 449.908045 
L 232.8995 449.495408 
L 239.94225 449.486453 
L 246.985 449.495115 
L 254.02775 449.69198 
L 261.0705 449.676337 
L 268.11325 449.531738 
L 275.156 449.584706 
L 282.19875 449.644964 
L 289.2415 449.601241 
L 296.28425 449.567362 
L 303.327 449.53519 
L 310.36975 449.479311 
L 317.4125 449.494957 
L 324.45525 449.385388 
L 331.498 449.433175 
L 338.54075 449.516729 
L 345.5835 449.50565 
L 352.62625 449.237738 
L 359.669 449.239993 
L 366.71175 449.243017 
L 373.7545 449.276814 
L 380.79725 449.200508 
L 387.84 449.20704 
L 394.88275 449.096258 
L 401.9255 448.960423 
L 408.96825 448.968847 
L 416.011 448.920918 
L 423.05375 449.259685 
L 430.0965 448.762869 
L 437.13925 448.891034 
L 444.182 448.647539 
L 451.22475 448.646273 
L 458.2675 448.98691 
L 465.31025 448.859572 
L 472.353 448.628366 
L 479.39575 448.685854 
L 486.4385 448.83717 
L 493.48125 448.829378 
L 500.524 448.785996 
L 507.56675 448.878409 
L 514.6095 449.0451 
L 521.65225 448.655219 
L 528.695 448.495224 
L 535.73775 448.303042 
L 542.7805 448.601849 
L 549.82325 448.528484 
L 556.866 448.633236 
L 563.90875 449.106348 
L 570.9515 448.983932 
L 577.99425 449.059437 
L 585.037 448.95607 
L 592.07975 449.278071 
L 599.1225 449.274562 
L 606.16525 448.971874 
L 613.208 448.821643 
L 620.25075 449.238638 
L 627.2935 449.158867 
L 634.33625 448.923041 
L 641.379 449.048731 
L 648.42175 449.425173 
L 655.4645 449.251056 
L 662.50725 449.010911 
L 669.55 448.957073 
L 676.59275 449.262319 
L 683.6355 449.061452 
L 690.67825 449.220404 
L 697.721 449.251432 
L 704.76375 449.217242 
L 711.8065 448.869998 
L 718.84925 448.969787 
L 725.892 449.168393 
L 732.93475 448.871854 
L 739.9775 449.098391 
L 747.02025 449.085169 
L 754.063 448.849416 
L 761.10575 448.876273 
L 768.1485 449.089937 
L 775.19125 448.906756 
L 782.234 449.231012 
L 789.27675 448.693504 
L 796.3195 449.06253 
L 803.36225 449.242829 
L 810.405 448.878551 
" clip-path="url(#p8b1f1c122e)" style="fill: none; stroke: #0000ff; stroke-width: 1.5; stroke-linecap: square"/>
    <defs>
     <path id="md2aa38e91b" d="M 0 1.5 
C 0.397805 1.5 0.77937 1.341951 1.06066 1.06066 
C 1.341951 0.77937 1.5 0.397805 1.5 0 
C 1.5 -0.397805 1.341951 -0.77937 1.06066 -1.06066 
C 0.77937 -1.341951 0.397805 -1.5 0 -1.5 
C -0.397805 -1.5 -0.77937 -1.341951 -1.06066 -1.06066 
C -1.341951 -0.77937 -1.5 -0.397805 -1.5 0 
C -1.5 0.397805 -1.341951 0.77937 -1.06066 1.06066 
C -0.77937 1.341951 -0.397805 1.5 0 1.5 
z
" style="stroke: #0000ff"/>
    </defs>
    <g clip-path="url(#p8b1f1c122e)">
     <use xlink:href="#md2aa38e91b" x="113.17275" y="435.03103" style="fill: #0000ff; stroke: #0000ff"/>
     <use xlink:href="#md2aa38e91b" x="120.2155" y="442.371342" style="fill: #0000ff; stroke: #0000ff"/>
     <use xlink:href="#md2aa38e91b" x="127.25825" y="442.20658" style="fill: #0000ff; stroke: #0000ff"/>
     <use xlink:href="#md2aa38e91b" x="134.301" y="451.842602" style="fill: #0000ff; stroke: #0000ff"/>
     <use xlink:href="#md2aa38e91b" x="141.34375" y="454.03415" style="fill: #0000ff; stroke: #0000ff"/>
     <use xlink:href="#md2aa38e91b" x="148.3865" y="452.470772" style="fill: #0000ff; stroke: #0000ff"/>
     <use xlink:href="#md2aa38e91b" x="155.42925" y="451.707673" style="fill: #0000ff; stroke: #0000ff"/>
     <use xlink:href="#md2aa38e91b" x="162.472" y="451.358095" style="fill: #0000ff; stroke: #0000ff"/>
     <use xlink:href="#md2aa38e91b" x="169.51475" y="450.998795" style="fill: #0000ff; stroke: #0000ff"/>
     <use xlink:href="#md2aa38e91b" x="176.5575" y="450.616883" style="fill: #0000ff; stroke: #0000ff"/>
     <use xlink:href="#md2aa38e91b" x="183.60025" y="450.312659" style="fill: #0000ff; stroke: #0000ff"/>
     <use xlink:href="#md2aa38e91b" x="190.643" y="450.385535" style="fill: #0000ff; stroke: #0000ff"/>
     <use xlink:href="#md2aa38e91b" x="197.68575" y="449.978099" style="fill: #0000ff; stroke: #0000ff"/>
     <use xlink:href="#md2aa38e91b" x="204.7285" y="449.899689" style="fill: #0000ff; stroke: #0000ff"/>
     <use xlink:href="#md2aa38e91b" x="211.77125" y="449.864593" style="fill: #0000ff; stroke: #0000ff"/>
     <use xlink:href="#md2aa38e91b" x="218.814" y="449.861355" style="fill: #0000ff; stroke: #0000ff"/>
     <use xlink:href="#md2aa38e91b" x="225.85675" y="449.908045" style="fill: #0000ff; stroke: #0000ff"/>
     <use xlink:href="#md2aa38e91b" x="232.8995" y="449.495408" style="fill: #0000ff; stroke: #0000ff"/>
     <use xlink:href="#md2aa38e91b" x="239.94225" y="449.486453" style="fill: #0000ff; stroke: #0000ff"/>
     <use xlink:href="#md2aa38e91b" x="246.985" y="449.495115" style="fill: #0000ff; stroke: #0000ff"/>
     <use xlink:href="#md2aa38e91b" x="254.02775" y="449.69198" style="fill: #0000ff; stroke: #0000ff"/>
     <use xlink:href="#md2aa38e91b" x="261.0705" y="449.676337" style="fill: #0000ff; stroke: #0000ff"/>
     <use xlink:href="#md2aa38e91b" x="268.11325" y="449.531738" style="fill: #0000ff; stroke: #0000ff"/>
     <use xlink:href="#md2aa38e91b" x="275.156" y="449.584706" style="fill: #0000ff; stroke: #0000ff"/>
     <use xlink:href="#md2aa38e91b" x="282.19875" y="449.644964" style="fill: #0000ff; stroke: #0000ff"/>
     <use xlink:href="#md2aa38e91b" x="289.2415" y="449.601241" style="fill: #0000ff; stroke: #0000ff"/>
     <use xlink:href="#md2aa38e91b" x="296.28425" y="449.567362" style="fill: #0000ff; stroke: #0000ff"/>
     <use xlink:href="#md2aa38e91b" x="303.327" y="449.53519" style="fill: #0000ff; stroke: #0000ff"/>
     <use xlink:href="#md2aa38e91b" x="310.36975" y="449.479311" style="fill: #0000ff; stroke: #0000ff"/>
     <use xlink:href="#md2aa38e91b" x="317.4125" y="449.494957" style="fill: #0000ff; stroke: #0000ff"/>
     <use xlink:href="#md2aa38e91b" x="324.45525" y="449.385388" style="fill: #0000ff; stroke: #0000ff"/>
     <use xlink:href="#md2aa38e91b" x="331.498" y="449.433175" style="fill: #0000ff; stroke: #0000ff"/>
     <use xlink:href="#md2aa38e91b" x="338.54075" y="449.516729" style="fill: #0000ff; stroke: #0000ff"/>
     <use xlink:href="#md2aa38e91b" x="345.5835" y="449.50565" style="fill: #0000ff; stroke: #0000ff"/>
     <use xlink:href="#md2aa38e91b" x="352.62625" y="449.237738" style="fill: #0000ff; stroke: #0000ff"/>
     <use xlink:href="#md2aa38e91b" x="359.669" y="449.239993" style="fill: #0000ff; stroke: #0000ff"/>
     <use xlink:href="#md2aa38e91b" x="366.71175" y="449.243017" style="fill: #0000ff; stroke: #0000ff"/>
     <use xlink:href="#md2aa38e91b" x="373.7545" y="449.276814" style="fill: #0000ff; stroke: #0000ff"/>
     <use xlink:href="#md2aa38e91b" x="380.79725" y="449.200508" style="fill: #0000ff; stroke: #0000ff"/>
     <use xlink:href="#md2aa38e91b" x="387.84" y="449.20704" style="fill: #0000ff; stroke: #0000ff"/>
     <use xlink:href="#md2aa38e91b" x="394.88275" y="449.096258" style="fill: #0000ff; stroke: #0000ff"/>
     <use xlink:href="#md2aa38e91b" x="401.9255" y="448.960423" style="fill: #0000ff; stroke: #0000ff"/>
     <use xlink:href="#md2aa38e91b" x="408.96825" y="448.968847" style="fill: #0000ff; stroke: #0000ff"/>
     <use xlink:href="#md2aa38e91b" x="416.011" y="448.920918" style="fill: #0000ff; stroke: #0000ff"/>
     <use xlink:href="#md2aa38e91b" x="423.05375" y="449.259685" style="fill: #0000ff; stroke: #0000ff"/>
     <use xlink:href="#md2aa38e91b" x="430.0965" y="448.762869" style="fill: #0000ff; stroke: #0000ff"/>
     <use xlink:href="#md2aa38e91b" x="437.13925" y="448.891034" style="fill: #0000ff; stroke: #0000ff"/>
     <use xlink:href="#md2aa38e91b" x="444.182" y="448.647539" style="fill: #0000ff; stroke: #0000ff"/>
     <use xlink:href="#md2aa38e91b" x="451.22475" y="448.646273" style="fill: #0000ff; stroke: #0000ff"/>
     <use xlink:href="#md2aa38e91b" x="458.2675" y="448.98691" style="fill: #0000ff; stroke: #0000ff"/>
     <use xlink:href="#md2aa38e91b" x="465.31025" y="448.859572" style="fill: #0000ff; stroke: #0000ff"/>
     <use xlink:href="#md2aa38e91b" x="472.353" y="448.628366" style="fill: #0000ff; stroke: #0000ff"/>
     <use xlink:href="#md2aa38e91b" x="479.39575" y="448.685854" style="fill: #0000ff; stroke: #0000ff"/>
     <use xlink:href="#md2aa38e91b" x="486.4385" y="448.83717" style="fill: #0000ff; stroke: #0000ff"/>
     <use xlink:href="#md2aa38e91b" x="493.48125" y="448.829378" style="fill: #0000ff; stroke: #0000ff"/>
     <use xlink:href="#md2aa38e91b" x="500.524" y="448.785996" style="fill: #0000ff; stroke: #0000ff"/>
     <use xlink:href="#md2aa38e91b" x="507.56675" y="448.878409" style="fill: #0000ff; stroke: #0000ff"/>
     <use xlink:href="#md2aa38e91b" x="514.6095" y="449.0451" style="fill: #0000ff; stroke: #0000ff"/>
     <use xlink:href="#md2aa38e91b" x="521.65225" y="448.655219" style="fill: #0000ff; stroke: #0000ff"/>
     <use xlink:href="#md2aa38e91b" x="528.695" y="448.495224" style="fill: #0000ff; stroke: #0000ff"/>
     <use xlink:href="#md2aa38e91b" x="535.73775" y="448.303042" style="fill: #0000ff; stroke: #0000ff"/>
     <use xlink:href="#md2aa38e91b" x="542.7805" y="448.601849" style="fill: #0000ff; stroke: #0000ff"/>
     <use xlink:href="#md2aa38e91b" x="549.82325" y="448.528484" style="fill: #0000ff; stroke: #0000ff"/>
     <use xlink:href="#md2aa38e91b" x="556.866" y="448.633236" style="fill: #0000ff; stroke: #0000ff"/>
     <use xlink:href="#md2aa38e91b" x="563.90875" y="449.106348" style="fill: #0000ff; stroke: #0000ff"/>
     <use xlink:href="#md2aa38e91b" x="570.9515" y="448.983932" style="fill: #0000ff; stroke: #0000ff"/>
     <use xlink:href="#md2aa38e91b" x="577.99425" y="449.059437" style="fill: #0000ff; stroke: #0000ff"/>
     <use xlink:href="#md2aa38e91b" x="585.037" y="448.95607" style="fill: #0000ff; stroke: #0000ff"/>
     <use xlink:href="#md2aa38e91b" x="592.07975" y="449.278071" style="fill: #0000ff; stroke: #0000ff"/>
     <use xlink:href="#md2aa38e91b" x="599.1225" y="449.274562" style="fill: #0000ff; stroke: #0000ff"/>
     <use xlink:href="#md2aa38e91b" x="606.16525" y="448.971874" style="fill: #0000ff; stroke: #0000ff"/>
     <use xlink:href="#md2aa38e91b" x="613.208" y="448.821643" style="fill: #0000ff; stroke: #0000ff"/>
     <use xlink:href="#md2aa38e91b" x="620.25075" y="449.238638" style="fill: #0000ff; stroke: #0000ff"/>
     <use xlink:href="#md2aa38e91b" x="627.2935" y="449.158867" style="fill: #0000ff; stroke: #0000ff"/>
     <use xlink:href="#md2aa38e91b" x="634.33625" y="448.923041" style="fill: #0000ff; stroke: #0000ff"/>
     <use xlink:href="#md2aa38e91b" x="641.379" y="449.048731" style="fill: #0000ff; stroke: #0000ff"/>
     <use xlink:href="#md2aa38e91b" x="648.42175" y="449.425173" style="fill: #0000ff; stroke: #0000ff"/>
     <use xlink:href="#md2aa38e91b" x="655.4645" y="449.251056" style="fill: #0000ff; stroke: #0000ff"/>
     <use xlink:href="#md2aa38e91b" x="662.50725" y="449.010911" style="fill: #0000ff; stroke: #0000ff"/>
     <use xlink:href="#md2aa38e91b" x="669.55" y="448.957073" style="fill: #0000ff; stroke: #0000ff"/>
     <use xlink:href="#md2aa38e91b" x="676.59275" y="449.262319" style="fill: #0000ff; stroke: #0000ff"/>
     <use xlink:href="#md2aa38e91b" x="683.6355" y="449.061452" style="fill: #0000ff; stroke: #0000ff"/>
     <use xlink:href="#md2aa38e91b" x="690.67825" y="449.220404" style="fill: #0000ff; stroke: #0000ff"/>
     <use xlink:href="#md2aa38e91b" x="697.721" y="449.251432" style="fill: #0000ff; stroke: #0000ff"/>
     <use xlink:href="#md2aa38e91b" x="704.76375" y="449.217242" style="fill: #0000ff; stroke: #0000ff"/>
     <use xlink:href="#md2aa38e91b" x="711.8065" y="448.869998" style="fill: #0000ff; stroke: #0000ff"/>
     <use xlink:href="#md2aa38e91b" x="718.84925" y="448.969787" style="fill: #0000ff; stroke: #0000ff"/>
     <use xlink:href="#md2aa38e91b" x="725.892" y="449.168393" style="fill: #0000ff; stroke: #0000ff"/>
     <use xlink:href="#md2aa38e91b" x="732.93475" y="448.871854" style="fill: #0000ff; stroke: #0000ff"/>
     <use xlink:href="#md2aa38e91b" x="739.9775" y="449.098391" style="fill: #0000ff; stroke: #0000ff"/>
     <use xlink:href="#md2aa38e91b" x="747.02025" y="449.085169" style="fill: #0000ff; stroke: #0000ff"/>
     <use xlink:href="#md2aa38e91b" x="754.063" y="448.849416" style="fill: #0000ff; stroke: #0000ff"/>
     <use xlink:href="#md2aa38e91b" x="761.10575" y="448.876273" style="fill: #0000ff; stroke: #0000ff"/>
     <use xlink:href="#md2aa38e91b" x="768.1485" y="449.089937" style="fill: #0000ff; stroke: #0000ff"/>
     <use xlink:href="#md2aa38e91b" x="775.19125" y="448.906756" style="fill: #0000ff; stroke: #0000ff"/>
     <use xlink:href="#md2aa38e91b" x="782.234" y="449.231012" style="fill: #0000ff; stroke: #0000ff"/>
     <use xlink:href="#md2aa38e91b" x="789.27675" y="448.693504" style="fill: #0000ff; stroke: #0000ff"/>
     <use xlink:href="#md2aa38e91b" x="796.3195" y="449.06253" style="fill: #0000ff; stroke: #0000ff"/>
     <use xlink:href="#md2aa38e91b" x="803.36225" y="449.242829" style="fill: #0000ff; stroke: #0000ff"/>
     <use xlink:href="#md2aa38e91b" x="810.405" y="448.878551" style="fill: #0000ff; stroke: #0000ff"/>
    </g>
   </g>
   <g id="line2d_27">
    <path d="M 113.17275 90.420474 
L 120.2155 86.529802 
L 127.25825 88.38499 
L 134.301 86.161508 
L 141.34375 85.854781 
L 148.3865 86.538375 
L 155.42925 86.771454 
L 162.472 87.102423 
L 169.51475 87.165784 
L 176.5575 84.801969 
L 183.60025 85.415951 
L 190.643 86.541303 
L 197.68575 85.190627 
L 204.7285 86.321598 
L 211.77125 87.029513 
L 218.814 87.250907 
L 225.85675 83.884398 
L 232.8995 88.606489 
L 239.94225 86.575595 
L 246.985 87.342545 
L 254.02775 86.00978 
L 261.0705 87.493666 
L 268.11325 87.173222 
L 275.156 88.199076 
L 282.19875 85.685959 
L 289.2415 83.461422 
L 296.28425 87.422181 
L 303.327 88.321076 
L 310.36975 86.908938 
L 317.4125 84.989941 
L 324.45525 87.460957 
L 331.498 85.001099 
L 338.54075 82.535569 
L 345.5835 87.166865 
L 352.62625 88.67502 
L 359.669 86.28691 
L 366.71175 86.564859 
L 373.7545 86.778207 
L 380.79725 88.172434 
L 387.84 89.627885 
L 394.88275 86.312207 
L 401.9255 86.810626 
L 408.96825 87.698547 
L 416.011 87.089155 
L 423.05375 88.238538 
L 430.0965 84.966253 
L 437.13925 85.83017 
L 444.182 83.862214 
L 451.22475 87.318646 
L 458.2675 87.534104 
L 465.31025 87.712765 
L 472.353 88.570245 
L 479.39575 84.683688 
L 486.4385 85.384982 
L 493.48125 85.363933 
L 500.524 87.426507 
L 507.56675 83.730903 
L 514.6095 85.661902 
L 521.65225 86.883193 
L 528.695 82.968041 
L 535.73775 88.365734 
L 542.7805 87.313291 
L 549.82325 91.037938 
L 556.866 83.668518 
L 563.90875 87.258556 
L 570.9515 85.047577 
L 577.99425 88.451437 
L 585.037 85.954148 
L 592.07975 85.221885 
L 599.1225 87.806223 
L 606.16525 86.360981 
L 613.208 87.464307 
L 620.25075 88.118385 
L 627.2935 87.870877 
L 634.33625 86.957237 
L 641.379 85.235285 
L 648.42175 85.898015 
L 655.4645 88.741283 
L 662.50725 88.545107 
L 669.55 86.106272 
L 676.59275 86.971507 
L 683.6355 86.812868 
L 690.67825 84.774614 
L 697.721 87.328116 
L 704.76375 86.193162 
L 711.8065 89.494569 
L 718.84925 90.56297 
L 725.892 86.498386 
L 732.93475 86.141144 
L 739.9775 86.560797 
L 747.02025 88.642311 
L 754.063 84.990574 
L 761.10575 89.621396 
L 768.1485 88.959959 
L 775.19125 85.853013 
L 782.234 88.524426 
L 789.27675 84.860186 
L 796.3195 88.549195 
L 803.36225 87.564044 
L 810.405 89.521448 
" clip-path="url(#p8b1f1c122e)" style="fill: none; stroke-dasharray: 5.55,2.4; stroke-dashoffset: 0; stroke: #ff0000; stroke-width: 1.5"/>
   </g>
   <g id="line2d_28">
    <path d="M 113.17275 415.004319 
L 120.2155 421.535456 
L 127.25825 430.202744 
L 134.301 443.033165 
L 141.34375 439.854823 
L 148.3865 432.426684 
L 155.42925 427.850498 
L 162.472 428.205023 
L 169.51475 426.266958 
L 176.5575 436.808159 
L 183.60025 428.152128 
L 190.643 423.464524 
L 197.68575 431.807671 
L 204.7285 430.47511 
L 211.77125 421.67389 
L 218.814 424.714922 
L 225.85675 431.917968 
L 232.8995 416.48545 
L 239.94225 423.414998 
L 246.985 420.847793 
L 254.02775 437.70854 
L 261.0705 425.310301 
L 268.11325 419.650282 
L 275.156 425.422851 
L 282.19875 427.021022 
L 289.2415 432.628142 
L 296.28425 428.471761 
L 303.327 418.467412 
L 310.36975 425.116717 
L 317.4125 428.376097 
L 324.45525 429.645633 
L 331.498 437.058014 
L 338.54075 434.540327 
L 345.5835 426.65187 
L 352.62625 412.518148 
L 359.669 426.507805 
L 366.71175 415.666099 
L 373.7545 427.186467 
L 380.79725 419.767336 
L 387.84 414.017282 
L 394.88275 422.457221 
L 401.9255 418.651988 
L 408.96825 421.014359 
L 416.011 423.315961 
L 423.05375 417.78087 
L 430.0965 431.240431 
L 437.13925 430.298408 
L 444.182 431.393498 
L 451.22475 423.018835 
L 458.2675 422.782485 
L 465.31025 418.363864 
L 472.353 426.948996 
L 479.39575 423.569193 
L 486.4385 428.333328 
L 493.48125 429.662515 
L 500.524 424.370527 
L 507.56675 430.884782 
L 514.6095 425.697463 
L 521.65225 427.569131 
L 528.695 434.489681 
L 535.73775 424.154436 
L 542.7805 421.257462 
L 549.82325 405.952119 
L 556.866 430.428964 
L 563.90875 417.498378 
L 570.9515 433.475625 
L 577.99425 415.49278 
L 585.037 421.653631 
L 592.07975 427.715441 
L 599.1225 417.615425 
L 606.16525 428.232035 
L 613.208 421.160673 
L 620.25075 418.255818 
L 627.2935 424.829721 
L 634.33625 425.194375 
L 641.379 420.497766 
L 648.42175 430.018164 
L 655.4645 419.661539 
L 662.50725 416.945765 
L 669.55 427.672676 
L 676.59275 425.055942 
L 683.6355 429.088523 
L 690.67825 435.645543 
L 697.721 423.162894 
L 704.76375 426.645117 
L 711.8065 418.534941 
L 718.84925 417.736976 
L 725.892 422.067804 
L 732.93475 427.341782 
L 739.9775 427.527486 
L 747.02025 421.085264 
L 754.063 429.070516 
L 761.10575 417.616552 
L 768.1485 423.994623 
L 775.19125 434.776677 
L 782.234 420.14212 
L 789.27675 432.981543 
L 796.3195 420.916442 
L 803.36225 416.044259 
L 810.405 417.545648 
" clip-path="url(#p8b1f1c122e)" style="fill: none; stroke: #ff0000; stroke-width: 1.5; stroke-linecap: square"/>
    <defs>
     <path id="ma94fb1e12e" d="M 0 1.5 
C 0.397805 1.5 0.77937 1.341951 1.06066 1.06066 
C 1.341951 0.77937 1.5 0.397805 1.5 0 
C 1.5 -0.397805 1.341951 -0.77937 1.06066 -1.06066 
C 0.77937 -1.341951 0.397805 -1.5 0 -1.5 
C -0.397805 -1.5 -0.77937 -1.341951 -1.06066 -1.06066 
C -1.341951 -0.77937 -1.5 -0.397805 -1.5 0 
C -1.5 0.397805 -1.341951 0.77937 -1.06066 1.06066 
C -0.77937 1.341951 -0.397805 1.5 0 1.5 
z
" style="stroke: #ff0000"/>
    </defs>
    <g clip-path="url(#p8b1f1c122e)">
     <use xlink:href="#ma94fb1e12e" x="113.17275" y="415.004319" style="fill: #ff0000; stroke: #ff0000"/>
     <use xlink:href="#ma94fb1e12e" x="120.2155" y="421.535456" style="fill: #ff0000; stroke: #ff0000"/>
     <use xlink:href="#ma94fb1e12e" x="127.25825" y="430.202744" style="fill: #ff0000; stroke: #ff0000"/>
     <use xlink:href="#ma94fb1e12e" x="134.301" y="443.033165" style="fill: #ff0000; stroke: #ff0000"/>
     <use xlink:href="#ma94fb1e12e" x="141.34375" y="439.854823" style="fill: #ff0000; stroke: #ff0000"/>
     <use xlink:href="#ma94fb1e12e" x="148.3865" y="432.426684" style="fill: #ff0000; stroke: #ff0000"/>
     <use xlink:href="#ma94fb1e12e" x="155.42925" y="427.850498" style="fill: #ff0000; stroke: #ff0000"/>
     <use xlink:href="#ma94fb1e12e" x="162.472" y="428.205023" style="fill: #ff0000; stroke: #ff0000"/>
     <use xlink:href="#ma94fb1e12e" x="169.51475" y="426.266958" style="fill: #ff0000; stroke: #ff0000"/>
     <use xlink:href="#ma94fb1e12e" x="176.5575" y="436.808159" style="fill: #ff0000; stroke: #ff0000"/>
     <use xlink:href="#ma94fb1e12e" x="183.60025" y="428.152128" style="fill: #ff0000; stroke: #ff0000"/>
     <use xlink:href="#ma94fb1e12e" x="190.643" y="423.464524" style="fill: #ff0000; stroke: #ff0000"/>
     <use xlink:href="#ma94fb1e12e" x="197.68575" y="431.807671" style="fill: #ff0000; stroke: #ff0000"/>
     <use xlink:href="#ma94fb1e12e" x="204.7285" y="430.47511" style="fill: #ff0000; stroke: #ff0000"/>
     <use xlink:href="#ma94fb1e12e" x="211.77125" y="421.67389" style="fill: #ff0000; stroke: #ff0000"/>
     <use xlink:href="#ma94fb1e12e" x="218.814" y="424.714922" style="fill: #ff0000; stroke: #ff0000"/>
     <use xlink:href="#ma94fb1e12e" x="225.85675" y="431.917968" style="fill: #ff0000; stroke: #ff0000"/>
     <use xlink:href="#ma94fb1e12e" x="232.8995" y="416.48545" style="fill: #ff0000; stroke: #ff0000"/>
     <use xlink:href="#ma94fb1e12e" x="239.94225" y="423.414998" style="fill: #ff0000; stroke: #ff0000"/>
     <use xlink:href="#ma94fb1e12e" x="246.985" y="420.847793" style="fill: #ff0000; stroke: #ff0000"/>
     <use xlink:href="#ma94fb1e12e" x="254.02775" y="437.70854" style="fill: #ff0000; stroke: #ff0000"/>
     <use xlink:href="#ma94fb1e12e" x="261.0705" y="425.310301" style="fill: #ff0000; stroke: #ff0000"/>
     <use xlink:href="#ma94fb1e12e" x="268.11325" y="419.650282" style="fill: #ff0000; stroke: #ff0000"/>
     <use xlink:href="#ma94fb1e12e" x="275.156" y="425.422851" style="fill: #ff0000; stroke: #ff0000"/>
     <use xlink:href="#ma94fb1e12e" x="282.19875" y="427.021022" style="fill: #ff0000; stroke: #ff0000"/>
     <use xlink:href="#ma94fb1e12e" x="289.2415" y="432.628142" style="fill: #ff0000; stroke: #ff0000"/>
     <use xlink:href="#ma94fb1e12e" x="296.28425" y="428.471761" style="fill: #ff0000; stroke: #ff0000"/>
     <use xlink:href="#ma94fb1e12e" x="303.327" y="418.467412" style="fill: #ff0000; stroke: #ff0000"/>
     <use xlink:href="#ma94fb1e12e" x="310.36975" y="425.116717" style="fill: #ff0000; stroke: #ff0000"/>
     <use xlink:href="#ma94fb1e12e" x="317.4125" y="428.376097" style="fill: #ff0000; stroke: #ff0000"/>
     <use xlink:href="#ma94fb1e12e" x="324.45525" y="429.645633" style="fill: #ff0000; stroke: #ff0000"/>
     <use xlink:href="#ma94fb1e12e" x="331.498" y="437.058014" style="fill: #ff0000; stroke: #ff0000"/>
     <use xlink:href="#ma94fb1e12e" x="338.54075" y="434.540327" style="fill: #ff0000; stroke: #ff0000"/>
     <use xlink:href="#ma94fb1e12e" x="345.5835" y="426.65187" style="fill: #ff0000; stroke: #ff0000"/>
     <use xlink:href="#ma94fb1e12e" x="352.62625" y="412.518148" style="fill: #ff0000; stroke: #ff0000"/>
     <use xlink:href="#ma94fb1e12e" x="359.669" y="426.507805" style="fill: #ff0000; stroke: #ff0000"/>
     <use xlink:href="#ma94fb1e12e" x="366.71175" y="415.666099" style="fill: #ff0000; stroke: #ff0000"/>
     <use xlink:href="#ma94fb1e12e" x="373.7545" y="427.186467" style="fill: #ff0000; stroke: #ff0000"/>
     <use xlink:href="#ma94fb1e12e" x="380.79725" y="419.767336" style="fill: #ff0000; stroke: #ff0000"/>
     <use xlink:href="#ma94fb1e12e" x="387.84" y="414.017282" style="fill: #ff0000; stroke: #ff0000"/>
     <use xlink:href="#ma94fb1e12e" x="394.88275" y="422.457221" style="fill: #ff0000; stroke: #ff0000"/>
     <use xlink:href="#ma94fb1e12e" x="401.9255" y="418.651988" style="fill: #ff0000; stroke: #ff0000"/>
     <use xlink:href="#ma94fb1e12e" x="408.96825" y="421.014359" style="fill: #ff0000; stroke: #ff0000"/>
     <use xlink:href="#ma94fb1e12e" x="416.011" y="423.315961" style="fill: #ff0000; stroke: #ff0000"/>
     <use xlink:href="#ma94fb1e12e" x="423.05375" y="417.78087" style="fill: #ff0000; stroke: #ff0000"/>
     <use xlink:href="#ma94fb1e12e" x="430.0965" y="431.240431" style="fill: #ff0000; stroke: #ff0000"/>
     <use xlink:href="#ma94fb1e12e" x="437.13925" y="430.298408" style="fill: #ff0000; stroke: #ff0000"/>
     <use xlink:href="#ma94fb1e12e" x="444.182" y="431.393498" style="fill: #ff0000; stroke: #ff0000"/>
     <use xlink:href="#ma94fb1e12e" x="451.22475" y="423.018835" style="fill: #ff0000; stroke: #ff0000"/>
     <use xlink:href="#ma94fb1e12e" x="458.2675" y="422.782485" style="fill: #ff0000; stroke: #ff0000"/>
     <use xlink:href="#ma94fb1e12e" x="465.31025" y="418.363864" style="fill: #ff0000; stroke: #ff0000"/>
     <use xlink:href="#ma94fb1e12e" x="472.353" y="426.948996" style="fill: #ff0000; stroke: #ff0000"/>
     <use xlink:href="#ma94fb1e12e" x="479.39575" y="423.569193" style="fill: #ff0000; stroke: #ff0000"/>
     <use xlink:href="#ma94fb1e12e" x="486.4385" y="428.333328" style="fill: #ff0000; stroke: #ff0000"/>
     <use xlink:href="#ma94fb1e12e" x="493.48125" y="429.662515" style="fill: #ff0000; stroke: #ff0000"/>
     <use xlink:href="#ma94fb1e12e" x="500.524" y="424.370527" style="fill: #ff0000; stroke: #ff0000"/>
     <use xlink:href="#ma94fb1e12e" x="507.56675" y="430.884782" style="fill: #ff0000; stroke: #ff0000"/>
     <use xlink:href="#ma94fb1e12e" x="514.6095" y="425.697463" style="fill: #ff0000; stroke: #ff0000"/>
     <use xlink:href="#ma94fb1e12e" x="521.65225" y="427.569131" style="fill: #ff0000; stroke: #ff0000"/>
     <use xlink:href="#ma94fb1e12e" x="528.695" y="434.489681" style="fill: #ff0000; stroke: #ff0000"/>
     <use xlink:href="#ma94fb1e12e" x="535.73775" y="424.154436" style="fill: #ff0000; stroke: #ff0000"/>
     <use xlink:href="#ma94fb1e12e" x="542.7805" y="421.257462" style="fill: #ff0000; stroke: #ff0000"/>
     <use xlink:href="#ma94fb1e12e" x="549.82325" y="405.952119" style="fill: #ff0000; stroke: #ff0000"/>
     <use xlink:href="#ma94fb1e12e" x="556.866" y="430.428964" style="fill: #ff0000; stroke: #ff0000"/>
     <use xlink:href="#ma94fb1e12e" x="563.90875" y="417.498378" style="fill: #ff0000; stroke: #ff0000"/>
     <use xlink:href="#ma94fb1e12e" x="570.9515" y="433.475625" style="fill: #ff0000; stroke: #ff0000"/>
     <use xlink:href="#ma94fb1e12e" x="577.99425" y="415.49278" style="fill: #ff0000; stroke: #ff0000"/>
     <use xlink:href="#ma94fb1e12e" x="585.037" y="421.653631" style="fill: #ff0000; stroke: #ff0000"/>
     <use xlink:href="#ma94fb1e12e" x="592.07975" y="427.715441" style="fill: #ff0000; stroke: #ff0000"/>
     <use xlink:href="#ma94fb1e12e" x="599.1225" y="417.615425" style="fill: #ff0000; stroke: #ff0000"/>
     <use xlink:href="#ma94fb1e12e" x="606.16525" y="428.232035" style="fill: #ff0000; stroke: #ff0000"/>
     <use xlink:href="#ma94fb1e12e" x="613.208" y="421.160673" style="fill: #ff0000; stroke: #ff0000"/>
     <use xlink:href="#ma94fb1e12e" x="620.25075" y="418.255818" style="fill: #ff0000; stroke: #ff0000"/>
     <use xlink:href="#ma94fb1e12e" x="627.2935" y="424.829721" style="fill: #ff0000; stroke: #ff0000"/>
     <use xlink:href="#ma94fb1e12e" x="634.33625" y="425.194375" style="fill: #ff0000; stroke: #ff0000"/>
     <use xlink:href="#ma94fb1e12e" x="641.379" y="420.497766" style="fill: #ff0000; stroke: #ff0000"/>
     <use xlink:href="#ma94fb1e12e" x="648.42175" y="430.018164" style="fill: #ff0000; stroke: #ff0000"/>
     <use xlink:href="#ma94fb1e12e" x="655.4645" y="419.661539" style="fill: #ff0000; stroke: #ff0000"/>
     <use xlink:href="#ma94fb1e12e" x="662.50725" y="416.945765" style="fill: #ff0000; stroke: #ff0000"/>
     <use xlink:href="#ma94fb1e12e" x="669.55" y="427.672676" style="fill: #ff0000; stroke: #ff0000"/>
     <use xlink:href="#ma94fb1e12e" x="676.59275" y="425.055942" style="fill: #ff0000; stroke: #ff0000"/>
     <use xlink:href="#ma94fb1e12e" x="683.6355" y="429.088523" style="fill: #ff0000; stroke: #ff0000"/>
     <use xlink:href="#ma94fb1e12e" x="690.67825" y="435.645543" style="fill: #ff0000; stroke: #ff0000"/>
     <use xlink:href="#ma94fb1e12e" x="697.721" y="423.162894" style="fill: #ff0000; stroke: #ff0000"/>
     <use xlink:href="#ma94fb1e12e" x="704.76375" y="426.645117" style="fill: #ff0000; stroke: #ff0000"/>
     <use xlink:href="#ma94fb1e12e" x="711.8065" y="418.534941" style="fill: #ff0000; stroke: #ff0000"/>
     <use xlink:href="#ma94fb1e12e" x="718.84925" y="417.736976" style="fill: #ff0000; stroke: #ff0000"/>
     <use xlink:href="#ma94fb1e12e" x="725.892" y="422.067804" style="fill: #ff0000; stroke: #ff0000"/>
     <use xlink:href="#ma94fb1e12e" x="732.93475" y="427.341782" style="fill: #ff0000; stroke: #ff0000"/>
     <use xlink:href="#ma94fb1e12e" x="739.9775" y="427.527486" style="fill: #ff0000; stroke: #ff0000"/>
     <use xlink:href="#ma94fb1e12e" x="747.02025" y="421.085264" style="fill: #ff0000; stroke: #ff0000"/>
     <use xlink:href="#ma94fb1e12e" x="754.063" y="429.070516" style="fill: #ff0000; stroke: #ff0000"/>
     <use xlink:href="#ma94fb1e12e" x="761.10575" y="417.616552" style="fill: #ff0000; stroke: #ff0000"/>
     <use xlink:href="#ma94fb1e12e" x="768.1485" y="423.994623" style="fill: #ff0000; stroke: #ff0000"/>
     <use xlink:href="#ma94fb1e12e" x="775.19125" y="434.776677" style="fill: #ff0000; stroke: #ff0000"/>
     <use xlink:href="#ma94fb1e12e" x="782.234" y="420.14212" style="fill: #ff0000; stroke: #ff0000"/>
     <use xlink:href="#ma94fb1e12e" x="789.27675" y="432.981543" style="fill: #ff0000; stroke: #ff0000"/>
     <use xlink:href="#ma94fb1e12e" x="796.3195" y="420.916442" style="fill: #ff0000; stroke: #ff0000"/>
     <use xlink:href="#ma94fb1e12e" x="803.36225" y="416.044259" style="fill: #ff0000; stroke: #ff0000"/>
     <use xlink:href="#ma94fb1e12e" x="810.405" y="417.545648" style="fill: #ff0000; stroke: #ff0000"/>
    </g>
   </g>
   <g id="line2d_29">
    <path d="M 113.17275 394.363999 
L 120.2155 394.363999 
L 127.25825 394.363999 
L 134.301 379.146846 
L 141.34375 386.49612 
L 148.3865 381.588939 
L 155.42925 385.043017 
L 162.472 386.204198 
L 169.51475 378.728756 
L 176.5575 386.242268 
L 183.60025 382.482703 
L 190.643 384.486487 
L 197.68575 384.716895 
L 204.7285 389.789771 
L 211.77125 387.279556 
L 218.814 387.572844 
L 225.85675 388.038118 
L 232.8995 377.532367 
L 239.94225 390.209451 
L 246.985 388.379797 
L 254.02775 376.205958 
L 261.0705 390.204472 
L 268.11325 388.822082 
L 275.156 391.590192 
L 282.19875 386.365679 
L 289.2415 379.626971 
L 296.28425 389.788657 
L 303.327 376.756079 
L 310.36975 386.890397 
L 317.4125 395.025053 
L 324.45525 388.111819 
L 331.498 387.939081 
L 338.54075 390.255329 
L 345.5835 385.791713 
L 352.62625 379.470686 
L 359.669 391.870752 
L 366.71175 385.567181 
L 373.7545 388.289451 
L 380.79725 383.300682 
L 387.84 389.819612 
L 394.88275 383.600201 
L 401.9255 375.919015 
L 408.96825 379.402083 
L 416.011 386.50435 
L 423.05375 381.900447 
L 430.0965 377.711376 
L 437.13925 390.0031 
L 444.182 389.228414 
L 451.22475 389.826906 
L 458.2675 386.891083 
L 465.31025 379.037026 
L 472.353 386.903553 
L 479.39575 381.169642 
L 486.4385 385.244336 
L 493.48125 383.753809 
L 500.524 389.252794 
L 507.56675 385.217773 
L 514.6095 390.3769 
L 521.65225 390.805509 
L 528.695 391.849629 
L 535.73775 382.597257 
L 542.7805 383.542248 
L 549.82325 388.541278 
L 556.866 386.448586 
L 563.90875 384.870509 
L 570.9515 389.950336 
L 577.99425 380.070279 
L 585.037 377.634609 
L 592.07975 381.875137 
L 599.1225 382.147718 
L 606.16525 387.943618 
L 613.208 382.56989 
L 620.25075 380.964524 
L 627.2935 384.127919 
L 634.33625 383.753354 
L 641.379 382.462794 
L 648.42175 380.601492 
L 655.4645 385.978359 
L 662.50725 386.074198 
L 669.55 392.056442 
L 676.59275 390.879302 
L 683.6355 385.234932 
L 690.67825 385.843566 
L 697.721 395.592464 
L 704.76375 381.853474 
L 711.8065 389.856641 
L 718.84925 377.281284 
L 725.892 382.847627 
L 732.93475 375.807705 
L 739.9775 388.628103 
L 747.02025 385.20711 
L 754.063 393.395248 
L 761.10575 383.204031 
L 768.1485 385.78343 
L 775.19125 385.472957 
L 782.234 383.098584 
L 789.27675 389.734852 
L 796.3195 379.557121 
L 803.36225 378.289906 
L 810.405 383.959949 
" clip-path="url(#p8b1f1c122e)" style="fill: none; stroke: #2ca02c; stroke-width: 1.5; stroke-linecap: square"/>
   </g>
   <g id="line2d_30">
    <path d="M 113.17275 469.300864 
L 120.2155 470.607091 
L 127.25825 472.340549 
L 134.301 468.973246 
L 141.34375 466.090949 
L 148.3865 465.591429 
L 155.42925 463.207339 
L 162.472 463.879334 
L 169.51475 462.618995 
L 176.5575 464.516446 
L 183.60025 463.94172 
L 190.643 466.189126 
L 197.68575 464.539575 
L 204.7285 467.060416 
L 211.77125 463.944713 
L 218.814 463.935746 
L 225.85675 465.422 
L 232.8995 459.829168 
L 239.94225 465.932641 
L 246.985 466.864639 
L 254.02775 463.590707 
L 261.0705 464.344788 
L 268.11325 464.010457 
L 275.156 464.224188 
L 282.19875 462.808026 
L 289.2415 464.695252 
L 296.28425 466.135173 
L 303.327 459.636875 
L 310.36975 463.208569 
L 317.4125 469.119695 
L 324.45525 464.325457 
L 331.498 466.733908 
L 338.54075 465.58128 
L 345.5835 465.537624 
L 352.62625 462.141747 
L 359.669 466.065791 
L 366.71175 462.982105 
L 373.7545 465.039041 
L 380.79725 463.368061 
L 387.84 462.304984 
L 394.88275 463.597412 
L 401.9255 461.963644 
L 408.96825 461.25865 
L 416.011 464.622812 
L 423.05375 462.040075 
L 430.0965 459.788987 
L 437.13925 462.936872 
L 444.182 465.004823 
L 451.22475 465.301302 
L 458.2675 463.346073 
L 465.31025 458.567344 
L 472.353 464.160271 
L 479.39575 463.012923 
L 486.4385 465.086706 
L 493.48125 464.69836 
L 500.524 463.411254 
L 507.56675 463.87039 
L 514.6095 464.719955 
L 521.65225 463.819265 
L 528.695 466.746154 
L 535.73775 464.665443 
L 542.7805 463.021623 
L 549.82325 461.586127 
L 556.866 463.138947 
L 563.90875 464.661486 
L 570.9515 467.560073 
L 577.99425 460.816377 
L 585.037 462.82482 
L 592.07975 463.35582 
L 599.1225 461.159251 
L 606.16525 465.587895 
L 613.208 461.197287 
L 620.25075 462.212068 
L 627.2935 462.728332 
L 634.33625 463.481697 
L 641.379 464.038379 
L 648.42175 460.278668 
L 655.4645 462.940481 
L 662.50725 461.666901 
L 669.55 466.609386 
L 676.59275 464.957875 
L 683.6355 462.113431 
L 690.67825 464.481314 
L 697.721 466.565657 
L 704.76375 462.449658 
L 711.8065 463.335322 
L 718.84925 459.108984 
L 725.892 462.138097 
L 732.93475 460.465534 
L 739.9775 464.909978 
L 747.02025 464.316115 
L 754.063 469.260836 
L 761.10575 462.838046 
L 768.1485 464.720015 
L 775.19125 462.93787 
L 782.234 462.394849 
L 789.27675 467.717728 
L 796.3195 458.910563 
L 803.36225 461.571523 
L 810.405 464.188054 
" clip-path="url(#p8b1f1c122e)" style="fill: none; stroke: #ff7f0e; stroke-width: 1.5; stroke-linecap: square"/>
   </g>
   <g id="patch_3">
    <path d="M 106.13 482.875 
L 106.13 40.32 
" style="fill: none; stroke: #000000; stroke-width: 0.8; stroke-linejoin: miter; stroke-linecap: square"/>
   </g>
   <g id="patch_4">
    <path d="M 810.405 482.875 
L 810.405 40.32 
" style="fill: none; stroke: #000000; stroke-width: 0.8; stroke-linejoin: miter; stroke-linecap: square"/>
   </g>
   <g id="patch_5">
    <path d="M 106.13 482.875 
L 810.405 482.875 
" style="fill: none; stroke: #000000; stroke-width: 0.8; stroke-linejoin: miter; stroke-linecap: square"/>
   </g>
   <g id="patch_6">
    <path d="M 106.13 40.32 
L 810.405 40.32 
" style="fill: none; stroke: #000000; stroke-width: 0.8; stroke-linejoin: miter; stroke-linecap: square"/>
   </g>
   <g id="legend_1">
    <g id="patch_7">
     <path d="M 443.395625 351.105312 
L 796.405 351.105312 
Q 800.405 351.105312 800.405 347.105312 
L 800.405 176.089687 
Q 800.405 172.089687 796.405 172.089687 
L 443.395625 172.089687 
Q 439.395625 172.089687 439.395625 176.089687 
L 439.395625 347.105312 
Q 439.395625 351.105312 443.395625 351.105312 
z
" style="fill: #ffffff; opacity: 0.8; stroke: #cccccc; stroke-linejoin: miter"/>
    </g>
    <g id="line2d_31">
     <path d="M 447.395625 187.436562 
L 467.395625 187.436562 
L 487.395625 187.436562 
" style="fill: none; stroke-dasharray: 5.55,2.4; stroke-dashoffset: 0; stroke: #0000ff; stroke-width: 1.5"/>
    </g>
    <g id="text_15">
     <!-- Training Loss -->
     <g transform="translate(503.395625 194.436562) scale(0.2 -0.2)">
      <defs>
       <path id="Helvetica-54" d="M 3828 4591 
L 3828 4044 
L 2281 4044 
L 2281 0 
L 1650 0 
L 1650 4044 
L 103 4044 
L 103 4591 
L 3828 4591 
z
" transform="scale(0.015625)"/>
       <path id="Helvetica-69" d="M 413 3331 
L 984 3331 
L 984 0 
L 413 0 
L 413 3331 
z
M 413 4591 
L 984 4591 
L 984 3953 
L 413 3953 
L 413 4591 
z
" transform="scale(0.015625)"/>
       <path id="Helvetica-6e" d="M 413 3347 
L 947 3347 
L 947 2872 
Q 1184 3166 1450 3294 
Q 1716 3422 2041 3422 
Q 2753 3422 3003 2925 
Q 3141 2653 3141 2147 
L 3141 0 
L 2569 0 
L 2569 2109 
Q 2569 2416 2478 2603 
Q 2328 2916 1934 2916 
Q 1734 2916 1606 2875 
Q 1375 2806 1200 2600 
Q 1059 2434 1017 2257 
Q 975 2081 975 1753 
L 975 0 
L 413 0 
L 413 3347 
z
M 1734 3428 
L 1734 3428 
z
" transform="scale(0.015625)"/>
       <path id="Helvetica-67" d="M 1594 3406 
Q 1988 3406 2281 3213 
Q 2441 3103 2606 2894 
L 2606 3316 
L 3125 3316 
L 3125 272 
Q 3125 -366 2938 -734 
Q 2588 -1416 1616 -1416 
Q 1075 -1416 706 -1173 
Q 338 -931 294 -416 
L 866 -416 
Q 906 -641 1028 -763 
Q 1219 -950 1628 -950 
Q 2275 -950 2475 -494 
Q 2594 -225 2584 466 
Q 2416 209 2178 84 
Q 1941 -41 1550 -41 
Q 1006 -41 598 345 
Q 191 731 191 1622 
Q 191 2463 602 2934 
Q 1013 3406 1594 3406 
z
M 2606 1688 
Q 2606 2309 2350 2609 
Q 2094 2909 1697 2909 
Q 1103 2909 884 2353 
Q 769 2056 769 1575 
Q 769 1009 998 714 
Q 1228 419 1616 419 
Q 2222 419 2469 966 
Q 2606 1275 2606 1688 
z
M 1659 3428 
L 1659 3428 
z
" transform="scale(0.015625)"/>
       <path id="Helvetica-20" transform="scale(0.015625)"/>
      </defs>
      <use xlink:href="#Helvetica-54"/>
      <use xlink:href="#Helvetica-72" x="61.083984"/>
      <use xlink:href="#Helvetica-61" x="94.384766"/>
      <use xlink:href="#Helvetica-69" x="150"/>
      <use xlink:href="#Helvetica-6e" x="172.216797"/>
      <use xlink:href="#Helvetica-69" x="227.832031"/>
      <use xlink:href="#Helvetica-6e" x="250.048828"/>
      <use xlink:href="#Helvetica-67" x="305.664062"/>
      <use xlink:href="#Helvetica-20" x="361.279297"/>
      <use xlink:href="#Helvetica-4c" x="389.0625"/>
      <use xlink:href="#Helvetica-6f" x="444.677734"/>
      <use xlink:href="#Helvetica-73" x="500.292969"/>
      <use xlink:href="#Helvetica-73" x="550.292969"/>
     </g>
    </g>
    <g id="line2d_32">
     <path d="M 447.395625 216.599062 
L 467.395625 216.599062 
L 487.395625 216.599062 
" style="fill: none; stroke: #0000ff; stroke-width: 1.5; stroke-linecap: square"/>
     <g>
      <use xlink:href="#md2aa38e91b" x="467.395625" y="216.599062" style="fill: #0000ff; stroke: #0000ff"/>
     </g>
    </g>
    <g id="text_16">
     <!-- Training Overall pixel accuracy -->
     <g transform="translate(503.395625 223.599062) scale(0.2 -0.2)">
      <defs>
       <path id="Helvetica-4f" d="M 2469 4716 
Q 3684 4716 4269 3934 
Q 4725 3325 4725 2375 
Q 4725 1347 4203 666 
Q 3591 -134 2456 -134 
Q 1397 -134 791 566 
Q 250 1241 250 2272 
Q 250 3203 713 3866 
Q 1306 4716 2469 4716 
z
M 2531 422 
Q 3353 422 3720 1011 
Q 4088 1600 4088 2366 
Q 4088 3175 3664 3669 
Q 3241 4163 2506 4163 
Q 1794 4163 1344 3673 
Q 894 3184 894 2231 
Q 894 1469 1280 945 
Q 1666 422 2531 422 
z
M 2488 4716 
L 2488 4716 
z
" transform="scale(0.015625)"/>
       <path id="Helvetica-76" d="M 688 3347 
L 1581 622 
L 2516 3347 
L 3131 3347 
L 1869 0 
L 1269 0 
L 34 3347 
L 688 3347 
z
" transform="scale(0.015625)"/>
       <path id="Helvetica-65" d="M 1806 3422 
Q 2163 3422 2497 3255 
Q 2831 3088 3006 2822 
Q 3175 2569 3231 2231 
Q 3281 2000 3281 1494 
L 828 1494 
Q 844 984 1069 676 
Q 1294 369 1766 369 
Q 2206 369 2469 659 
Q 2619 828 2681 1050 
L 3234 1050 
Q 3213 866 3089 639 
Q 2966 413 2813 269 
Q 2556 19 2178 -69 
Q 1975 -119 1719 -119 
Q 1094 -119 659 336 
Q 225 791 225 1609 
Q 225 2416 662 2919 
Q 1100 3422 1806 3422 
z
M 2703 1941 
Q 2669 2306 2544 2525 
Q 2313 2931 1772 2931 
Q 1384 2931 1121 2651 
Q 859 2372 844 1941 
L 2703 1941 
z
M 1753 3428 
L 1753 3428 
z
" transform="scale(0.015625)"/>
       <path id="Helvetica-6c" d="M 428 4591 
L 991 4591 
L 991 0 
L 428 0 
L 428 4591 
z
" transform="scale(0.015625)"/>
       <path id="Helvetica-78" d="M 94 3347 
L 822 3347 
L 1591 2169 
L 2369 3347 
L 3053 3331 
L 1925 1716 
L 3103 0 
L 2384 0 
L 1553 1256 
L 747 0 
L 34 0 
L 1213 1716 
L 94 3347 
z
" transform="scale(0.015625)"/>
      </defs>
      <use xlink:href="#Helvetica-54"/>
      <use xlink:href="#Helvetica-72" x="61.083984"/>
      <use xlink:href="#Helvetica-61" x="94.384766"/>
      <use xlink:href="#Helvetica-69" x="150"/>
      <use xlink:href="#Helvetica-6e" x="172.216797"/>
      <use xlink:href="#Helvetica-69" x="227.832031"/>
      <use xlink:href="#Helvetica-6e" x="250.048828"/>
      <use xlink:href="#Helvetica-67" x="305.664062"/>
      <use xlink:href="#Helvetica-20" x="361.279297"/>
      <use xlink:href="#Helvetica-4f" x="389.0625"/>
      <use xlink:href="#Helvetica-76" x="466.845703"/>
      <use xlink:href="#Helvetica-65" x="516.845703"/>
      <use xlink:href="#Helvetica-72" x="572.460938"/>
      <use xlink:href="#Helvetica-61" x="605.761719"/>
      <use xlink:href="#Helvetica-6c" x="661.376953"/>
      <use xlink:href="#Helvetica-6c" x="683.59375"/>
      <use xlink:href="#Helvetica-20" x="705.810547"/>
      <use xlink:href="#Helvetica-70" x="733.59375"/>
      <use xlink:href="#Helvetica-69" x="789.208984"/>
      <use xlink:href="#Helvetica-78" x="811.425781"/>
      <use xlink:href="#Helvetica-65" x="861.425781"/>
      <use xlink:href="#Helvetica-6c" x="917.041016"/>
      <use xlink:href="#Helvetica-20" x="939.257812"/>
      <use xlink:href="#Helvetica-61" x="967.041016"/>
      <use xlink:href="#Helvetica-63" x="1022.65625"/>
      <use xlink:href="#Helvetica-63" x="1072.65625"/>
      <use xlink:href="#Helvetica-75" x="1122.65625"/>
      <use xlink:href="#Helvetica-72" x="1178.271484"/>
      <use xlink:href="#Helvetica-61" x="1211.572266"/>
      <use xlink:href="#Helvetica-63" x="1267.1875"/>
      <use xlink:href="#Helvetica-79" x="1317.1875"/>
     </g>
    </g>
    <g id="line2d_33">
     <path d="M 447.395625 245.370937 
L 467.395625 245.370937 
L 487.395625 245.370937 
" style="fill: none; stroke-dasharray: 5.55,2.4; stroke-dashoffset: 0; stroke: #ff0000; stroke-width: 1.5"/>
    </g>
    <g id="text_17">
     <!-- Validation Loss -->
     <g transform="translate(503.395625 252.370937) scale(0.2 -0.2)">
      <defs>
       <path id="Helvetica-56" d="M 850 4591 
L 2169 681 
L 3472 4591 
L 4169 4591 
L 2494 0 
L 1834 0 
L 163 4591 
L 850 4591 
z
" transform="scale(0.015625)"/>
       <path id="Helvetica-64" d="M 769 1634 
Q 769 1097 997 734 
Q 1225 372 1728 372 
Q 2119 372 2370 708 
Q 2622 1044 2622 1672 
Q 2622 2306 2362 2611 
Q 2103 2916 1722 2916 
Q 1297 2916 1033 2591 
Q 769 2266 769 1634 
z
M 1616 3406 
Q 2000 3406 2259 3244 
Q 2409 3150 2600 2916 
L 2600 4606 
L 3141 4606 
L 3141 0 
L 2634 0 
L 2634 466 
Q 2438 156 2169 18 
Q 1900 -119 1553 -119 
Q 994 -119 584 351 
Q 175 822 175 1603 
Q 175 2334 548 2870 
Q 922 3406 1616 3406 
z
" transform="scale(0.015625)"/>
       <path id="Helvetica-74" d="M 525 4281 
L 1094 4281 
L 1094 3347 
L 1628 3347 
L 1628 2888 
L 1094 2888 
L 1094 703 
Q 1094 528 1213 469 
Q 1278 434 1431 434 
Q 1472 434 1519 436 
Q 1566 438 1628 444 
L 1628 0 
Q 1531 -28 1426 -40 
Q 1322 -53 1200 -53 
Q 806 -53 665 148 
Q 525 350 525 672 
L 525 2888 
L 72 2888 
L 72 3347 
L 525 3347 
L 525 4281 
z
" transform="scale(0.015625)"/>
      </defs>
      <use xlink:href="#Helvetica-56"/>
      <use xlink:href="#Helvetica-61" x="66.699219"/>
      <use xlink:href="#Helvetica-6c" x="122.314453"/>
      <use xlink:href="#Helvetica-69" x="144.53125"/>
      <use xlink:href="#Helvetica-64" x="166.748047"/>
      <use xlink:href="#Helvetica-61" x="222.363281"/>
      <use xlink:href="#Helvetica-74" x="277.978516"/>
      <use xlink:href="#Helvetica-69" x="305.761719"/>
      <use xlink:href="#Helvetica-6f" x="327.978516"/>
      <use xlink:href="#Helvetica-6e" x="383.59375"/>
      <use xlink:href="#Helvetica-20" x="439.208984"/>
      <use xlink:href="#Helvetica-4c" x="466.992188"/>
      <use xlink:href="#Helvetica-6f" x="522.607422"/>
      <use xlink:href="#Helvetica-73" x="578.222656"/>
      <use xlink:href="#Helvetica-73" x="628.222656"/>
     </g>
    </g>
    <g id="line2d_34">
     <path d="M 447.395625 274.277187 
L 467.395625 274.277187 
L 487.395625 274.277187 
" style="fill: none; stroke: #ff0000; stroke-width: 1.5; stroke-linecap: square"/>
     <g>
      <use xlink:href="#ma94fb1e12e" x="467.395625" y="274.277187" style="fill: #ff0000; stroke: #ff0000"/>
     </g>
    </g>
    <g id="text_18">
     <!-- Validation Overall pixel accuracy -->
     <g transform="translate(503.395625 281.277187) scale(0.2 -0.2)">
      <use xlink:href="#Helvetica-56"/>
      <use xlink:href="#Helvetica-61" x="66.699219"/>
      <use xlink:href="#Helvetica-6c" x="122.314453"/>
      <use xlink:href="#Helvetica-69" x="144.53125"/>
      <use xlink:href="#Helvetica-64" x="166.748047"/>
      <use xlink:href="#Helvetica-61" x="222.363281"/>
      <use xlink:href="#Helvetica-74" x="277.978516"/>
      <use xlink:href="#Helvetica-69" x="305.761719"/>
      <use xlink:href="#Helvetica-6f" x="327.978516"/>
      <use xlink:href="#Helvetica-6e" x="383.59375"/>
      <use xlink:href="#Helvetica-20" x="439.208984"/>
      <use xlink:href="#Helvetica-4f" x="466.992188"/>
      <use xlink:href="#Helvetica-76" x="544.775391"/>
      <use xlink:href="#Helvetica-65" x="594.775391"/>
      <use xlink:href="#Helvetica-72" x="650.390625"/>
      <use xlink:href="#Helvetica-61" x="683.691406"/>
      <use xlink:href="#Helvetica-6c" x="739.306641"/>
      <use xlink:href="#Helvetica-6c" x="761.523438"/>
      <use xlink:href="#Helvetica-20" x="783.740234"/>
      <use xlink:href="#Helvetica-70" x="811.523438"/>
      <use xlink:href="#Helvetica-69" x="867.138672"/>
      <use xlink:href="#Helvetica-78" x="889.355469"/>
      <use xlink:href="#Helvetica-65" x="939.355469"/>
      <use xlink:href="#Helvetica-6c" x="994.970703"/>
      <use xlink:href="#Helvetica-20" x="1017.1875"/>
      <use xlink:href="#Helvetica-61" x="1044.970703"/>
      <use xlink:href="#Helvetica-63" x="1100.585938"/>
      <use xlink:href="#Helvetica-63" x="1150.585938"/>
      <use xlink:href="#Helvetica-75" x="1200.585938"/>
      <use xlink:href="#Helvetica-72" x="1256.201172"/>
      <use xlink:href="#Helvetica-61" x="1289.501953"/>
      <use xlink:href="#Helvetica-63" x="1345.117188"/>
      <use xlink:href="#Helvetica-79" x="1395.117188"/>
     </g>
    </g>
    <g id="line2d_35">
     <path d="M 447.395625 303.302187 
L 467.395625 303.302187 
L 487.395625 303.302187 
" style="fill: none; stroke: #2ca02c; stroke-width: 1.5; stroke-linecap: square"/>
    </g>
    <g id="text_19">
     <!-- Validation PerClass accuracy -->
     <g transform="translate(503.395625 310.302187) scale(0.2 -0.2)">
      <defs>
       <path id="Helvetica-50" d="M 547 4591 
L 2613 4591 
Q 3225 4591 3600 4245 
Q 3975 3900 3975 3275 
Q 3975 2738 3640 2339 
Q 3306 1941 2613 1941 
L 1169 1941 
L 1169 0 
L 547 0 
L 547 4591 
z
M 3347 3272 
Q 3347 3778 2972 3959 
Q 2766 4056 2406 4056 
L 1169 4056 
L 1169 2466 
L 2406 2466 
Q 2825 2466 3086 2644 
Q 3347 2822 3347 3272 
z
" transform="scale(0.015625)"/>
       <path id="Helvetica-43" d="M 2422 4716 
Q 3294 4716 3775 4256 
Q 4256 3797 4309 3213 
L 3703 3213 
Q 3600 3656 3292 3915 
Q 2984 4175 2428 4175 
Q 1750 4175 1333 3698 
Q 916 3222 916 2238 
Q 916 1431 1292 929 
Q 1669 428 2416 428 
Q 3103 428 3463 956 
Q 3653 1234 3747 1688 
L 4353 1688 
Q 4272 963 3816 472 
Q 3269 -119 2341 -119 
Q 1541 -119 997 366 
Q 281 1006 281 2344 
Q 281 3359 819 4009 
Q 1400 4716 2422 4716 
z
M 2297 4716 
L 2297 4716 
z
" transform="scale(0.015625)"/>
      </defs>
      <use xlink:href="#Helvetica-56"/>
      <use xlink:href="#Helvetica-61" x="66.699219"/>
      <use xlink:href="#Helvetica-6c" x="122.314453"/>
      <use xlink:href="#Helvetica-69" x="144.53125"/>
      <use xlink:href="#Helvetica-64" x="166.748047"/>
      <use xlink:href="#Helvetica-61" x="222.363281"/>
      <use xlink:href="#Helvetica-74" x="277.978516"/>
      <use xlink:href="#Helvetica-69" x="305.761719"/>
      <use xlink:href="#Helvetica-6f" x="327.978516"/>
      <use xlink:href="#Helvetica-6e" x="383.59375"/>
      <use xlink:href="#Helvetica-20" x="439.208984"/>
      <use xlink:href="#Helvetica-50" x="466.992188"/>
      <use xlink:href="#Helvetica-65" x="533.691406"/>
      <use xlink:href="#Helvetica-72" x="589.306641"/>
      <use xlink:href="#Helvetica-43" x="622.607422"/>
      <use xlink:href="#Helvetica-6c" x="694.824219"/>
      <use xlink:href="#Helvetica-61" x="717.041016"/>
      <use xlink:href="#Helvetica-73" x="772.65625"/>
      <use xlink:href="#Helvetica-73" x="822.65625"/>
      <use xlink:href="#Helvetica-20" x="872.65625"/>
      <use xlink:href="#Helvetica-61" x="900.439453"/>
      <use xlink:href="#Helvetica-63" x="956.054688"/>
      <use xlink:href="#Helvetica-63" x="1006.054688"/>
      <use xlink:href="#Helvetica-75" x="1056.054688"/>
      <use xlink:href="#Helvetica-72" x="1111.669922"/>
      <use xlink:href="#Helvetica-61" x="1144.970703"/>
      <use xlink:href="#Helvetica-63" x="1200.585938"/>
      <use xlink:href="#Helvetica-79" x="1250.585938"/>
     </g>
    </g>
    <g id="line2d_36">
     <path d="M 447.395625 331.936562 
L 467.395625 331.936562 
L 487.395625 331.936562 
" style="fill: none; stroke: #ff7f0e; stroke-width: 1.5; stroke-linecap: square"/>
    </g>
    <g id="text_20">
     <!-- Validation Jaccard index -->
     <g transform="translate(503.395625 338.936562) scale(0.2 -0.2)">
      <defs>
       <path id="Helvetica-4a" d="M 2741 1369 
Q 2741 788 2569 466 
Q 2250 -122 1356 -122 
Q 841 -122 475 158 
Q 109 438 109 1153 
L 109 1481 
L 694 1481 
L 694 1153 
Q 694 778 861 589 
Q 1028 400 1381 400 
Q 1878 400 2031 741 
Q 2125 950 2125 1531 
L 2125 4591 
L 2741 4591 
L 2741 1369 
z
" transform="scale(0.015625)"/>
      </defs>
      <use xlink:href="#Helvetica-56"/>
      <use xlink:href="#Helvetica-61" x="66.699219"/>
      <use xlink:href="#Helvetica-6c" x="122.314453"/>
      <use xlink:href="#Helvetica-69" x="144.53125"/>
      <use xlink:href="#Helvetica-64" x="166.748047"/>
      <use xlink:href="#Helvetica-61" x="222.363281"/>
      <use xlink:href="#Helvetica-74" x="277.978516"/>
      <use xlink:href="#Helvetica-69" x="305.761719"/>
      <use xlink:href="#Helvetica-6f" x="327.978516"/>
      <use xlink:href="#Helvetica-6e" x="383.59375"/>
      <use xlink:href="#Helvetica-20" x="439.208984"/>
      <use xlink:href="#Helvetica-4a" x="466.992188"/>
      <use xlink:href="#Helvetica-61" x="516.992188"/>
      <use xlink:href="#Helvetica-63" x="572.607422"/>
      <use xlink:href="#Helvetica-63" x="622.607422"/>
      <use xlink:href="#Helvetica-61" x="672.607422"/>
      <use xlink:href="#Helvetica-72" x="728.222656"/>
      <use xlink:href="#Helvetica-64" x="761.523438"/>
      <use xlink:href="#Helvetica-20" x="817.138672"/>
      <use xlink:href="#Helvetica-69" x="844.921875"/>
      <use xlink:href="#Helvetica-6e" x="867.138672"/>
      <use xlink:href="#Helvetica-64" x="922.753906"/>
      <use xlink:href="#Helvetica-65" x="978.369141"/>
      <use xlink:href="#Helvetica-78" x="1033.984375"/>
     </g>
    </g>
   </g>
  </g>
 </g>
 <defs>
  <clipPath id="p8b1f1c122e">
   <rect x="106.13" y="40.32" width="704.275" height="442.555"/>
  </clipPath>
 </defs>
</svg>
