<?xml version="1.0" encoding="utf-8" standalone="no"?>
<!DOCTYPE svg PUBLIC "-//W3C//DTD SVG 1.1//EN"
  "http://www.w3.org/Graphics/SVG/1.1/DTD/svg11.dtd">
<svg xmlns:xlink="http://www.w3.org/1999/xlink" width="864pt" height="576pt" viewBox="0 0 864 576" xmlns="http://www.w3.org/2000/svg" version="1.1">
 <metadata>
  <rdf:RDF xmlns:dc="http://purl.org/dc/elements/1.1/" xmlns:cc="http://creativecommons.org/ns#" xmlns:rdf="http://www.w3.org/1999/02/22-rdf-syntax-ns#">
   <cc:Work>
    <dc:type rdf:resource="http://purl.org/dc/dcmitype/StillImage"/>
    <dc:date>2024-06-25T04:08:28.860616</dc:date>
    <dc:format>image/svg+xml</dc:format>
    <dc:creator>
     <cc:Agent>
      <dc:title>Matplotlib v3.8.3, https://matplotlib.org/</dc:title>
     </cc:Agent>
    </dc:creator>
   </cc:Work>
  </rdf:RDF>
 </metadata>
 <defs>
  <style type="text/css">*{stroke-linejoin: round; stroke-linecap: butt}</style>
 </defs>
 <g id="figure_1">
  <g id="patch_1">
   <path d="M 0 576 
L 864 576 
L 864 0 
L 0 0 
z
" style="fill: #ffffff"/>
  </g>
  <g id="axes_1">
   <g id="patch_2">
    <path d="M 47.72 534.04 
L 853.2 534.04 
L 853.2 10.8 
L 47.72 10.8 
z
" style="fill: #ffffff"/>
   </g>
   <g id="matplotlib.axis_1">
    <g id="xtick_1">
     <g id="line2d_1">
      <path d="M 69.388757 534.04 
L 69.388757 10.8 
" clip-path="url(#p05e64ff7de)" style="fill: none; stroke: #b0b0b0; stroke-width: 0.8; stroke-linecap: square"/>
     </g>
     <g id="line2d_2">
      <defs>
       <path id="m8bbcb5176e" d="M 0 0 
L 0 3.5 
" style="stroke: #000000; stroke-width: 0.8"/>
      </defs>
      <g>
       <use xlink:href="#m8bbcb5176e" x="69.388757" y="534.04" style="stroke: #000000; stroke-width: 0.8"/>
      </g>
     </g>
     <g id="text_1">
      <!-- 0 -->
      <g transform="translate(66.207507 548.638438) scale(0.1 -0.1)">
       <defs>
        <path id="DejaVuSans-30" d="M 2034 4250 
Q 1547 4250 1301 3770 
Q 1056 3291 1056 2328 
Q 1056 1369 1301 889 
Q 1547 409 2034 409 
Q 2525 409 2770 889 
Q 3016 1369 3016 2328 
Q 3016 3291 2770 3770 
Q 2525 4250 2034 4250 
z
M 2034 4750 
Q 2819 4750 3233 4129 
Q 3647 3509 3647 2328 
Q 3647 1150 3233 529 
Q 2819 -91 2034 -91 
Q 1250 -91 836 529 
Q 422 1150 422 2328 
Q 422 3509 836 4129 
Q 1250 4750 2034 4750 
z
" transform="scale(0.015625)"/>
       </defs>
       <use xlink:href="#DejaVuSans-30"/>
      </g>
     </g>
    </g>
    <g id="xtick_2">
     <g id="line2d_3">
      <path d="M 218.82846 534.04 
L 218.82846 10.8 
" clip-path="url(#p05e64ff7de)" style="fill: none; stroke: #b0b0b0; stroke-width: 0.8; stroke-linecap: square"/>
     </g>
     <g id="line2d_4">
      <g>
       <use xlink:href="#m8bbcb5176e" x="218.82846" y="534.04" style="stroke: #000000; stroke-width: 0.8"/>
      </g>
     </g>
     <g id="text_2">
      <!-- 10 -->
      <g transform="translate(212.46596 548.638438) scale(0.1 -0.1)">
       <defs>
        <path id="DejaVuSans-31" d="M 794 531 
L 1825 531 
L 1825 4091 
L 703 3866 
L 703 4441 
L 1819 4666 
L 2450 4666 
L 2450 531 
L 3481 531 
L 3481 0 
L 794 0 
L 794 531 
z
" transform="scale(0.015625)"/>
       </defs>
       <use xlink:href="#DejaVuSans-31"/>
       <use xlink:href="#DejaVuSans-30" x="63.623047"/>
      </g>
     </g>
    </g>
    <g id="xtick_3">
     <g id="line2d_5">
      <path d="M 368.268163 534.04 
L 368.268163 10.8 
" clip-path="url(#p05e64ff7de)" style="fill: none; stroke: #b0b0b0; stroke-width: 0.8; stroke-linecap: square"/>
     </g>
     <g id="line2d_6">
      <g>
       <use xlink:href="#m8bbcb5176e" x="368.268163" y="534.04" style="stroke: #000000; stroke-width: 0.8"/>
      </g>
     </g>
     <g id="text_3">
      <!-- 20 -->
      <g transform="translate(361.905663 548.638438) scale(0.1 -0.1)">
       <defs>
        <path id="DejaVuSans-32" d="M 1228 531 
L 3431 531 
L 3431 0 
L 469 0 
L 469 531 
Q 828 903 1448 1529 
Q 2069 2156 2228 2338 
Q 2531 2678 2651 2914 
Q 2772 3150 2772 3378 
Q 2772 3750 2511 3984 
Q 2250 4219 1831 4219 
Q 1534 4219 1204 4116 
Q 875 4013 500 3803 
L 500 4441 
Q 881 4594 1212 4672 
Q 1544 4750 1819 4750 
Q 2544 4750 2975 4387 
Q 3406 4025 3406 3419 
Q 3406 3131 3298 2873 
Q 3191 2616 2906 2266 
Q 2828 2175 2409 1742 
Q 1991 1309 1228 531 
z
" transform="scale(0.015625)"/>
       </defs>
       <use xlink:href="#DejaVuSans-32"/>
       <use xlink:href="#DejaVuSans-30" x="63.623047"/>
      </g>
     </g>
    </g>
    <g id="xtick_4">
     <g id="line2d_7">
      <path d="M 517.707866 534.04 
L 517.707866 10.8 
" clip-path="url(#p05e64ff7de)" style="fill: none; stroke: #b0b0b0; stroke-width: 0.8; stroke-linecap: square"/>
     </g>
     <g id="line2d_8">
      <g>
       <use xlink:href="#m8bbcb5176e" x="517.707866" y="534.04" style="stroke: #000000; stroke-width: 0.8"/>
      </g>
     </g>
     <g id="text_4">
      <!-- 30 -->
      <g transform="translate(511.345366 548.638438) scale(0.1 -0.1)">
       <defs>
        <path id="DejaVuSans-33" d="M 2597 2516 
Q 3050 2419 3304 2112 
Q 3559 1806 3559 1356 
Q 3559 666 3084 287 
Q 2609 -91 1734 -91 
Q 1441 -91 1130 -33 
Q 819 25 488 141 
L 488 750 
Q 750 597 1062 519 
Q 1375 441 1716 441 
Q 2309 441 2620 675 
Q 2931 909 2931 1356 
Q 2931 1769 2642 2001 
Q 2353 2234 1838 2234 
L 1294 2234 
L 1294 2753 
L 1863 2753 
Q 2328 2753 2575 2939 
Q 2822 3125 2822 3475 
Q 2822 3834 2567 4026 
Q 2313 4219 1838 4219 
Q 1578 4219 1281 4162 
Q 984 4106 628 3988 
L 628 4550 
Q 988 4650 1302 4700 
Q 1616 4750 1894 4750 
Q 2613 4750 3031 4423 
Q 3450 4097 3450 3541 
Q 3450 3153 3228 2886 
Q 3006 2619 2597 2516 
z
" transform="scale(0.015625)"/>
       </defs>
       <use xlink:href="#DejaVuSans-33"/>
       <use xlink:href="#DejaVuSans-30" x="63.623047"/>
      </g>
     </g>
    </g>
    <g id="xtick_5">
     <g id="line2d_9">
      <path d="M 667.14757 534.04 
L 667.14757 10.8 
" clip-path="url(#p05e64ff7de)" style="fill: none; stroke: #b0b0b0; stroke-width: 0.8; stroke-linecap: square"/>
     </g>
     <g id="line2d_10">
      <g>
       <use xlink:href="#m8bbcb5176e" x="667.14757" y="534.04" style="stroke: #000000; stroke-width: 0.8"/>
      </g>
     </g>
     <g id="text_5">
      <!-- 40 -->
      <g transform="translate(660.78507 548.638438) scale(0.1 -0.1)">
       <defs>
        <path id="DejaVuSans-34" d="M 2419 4116 
L 825 1625 
L 2419 1625 
L 2419 4116 
z
M 2253 4666 
L 3047 4666 
L 3047 1625 
L 3713 1625 
L 3713 1100 
L 3047 1100 
L 3047 0 
L 2419 0 
L 2419 1100 
L 313 1100 
L 313 1709 
L 2253 4666 
z
" transform="scale(0.015625)"/>
       </defs>
       <use xlink:href="#DejaVuSans-34"/>
       <use xlink:href="#DejaVuSans-30" x="63.623047"/>
      </g>
     </g>
    </g>
    <g id="xtick_6">
     <g id="line2d_11">
      <path d="M 816.587273 534.04 
L 816.587273 10.8 
" clip-path="url(#p05e64ff7de)" style="fill: none; stroke: #b0b0b0; stroke-width: 0.8; stroke-linecap: square"/>
     </g>
     <g id="line2d_12">
      <g>
       <use xlink:href="#m8bbcb5176e" x="816.587273" y="534.04" style="stroke: #000000; stroke-width: 0.8"/>
      </g>
     </g>
     <g id="text_6">
      <!-- 50 -->
      <g transform="translate(810.224773 548.638438) scale(0.1 -0.1)">
       <defs>
        <path id="DejaVuSans-35" d="M 691 4666 
L 3169 4666 
L 3169 4134 
L 1269 4134 
L 1269 2991 
Q 1406 3038 1543 3061 
Q 1681 3084 1819 3084 
Q 2600 3084 3056 2656 
Q 3513 2228 3513 1497 
Q 3513 744 3044 326 
Q 2575 -91 1722 -91 
Q 1428 -91 1123 -41 
Q 819 9 494 109 
L 494 744 
Q 775 591 1075 516 
Q 1375 441 1709 441 
Q 2250 441 2565 725 
Q 2881 1009 2881 1497 
Q 2881 1984 2565 2268 
Q 2250 2553 1709 2553 
Q 1456 2553 1204 2497 
Q 953 2441 691 2322 
L 691 4666 
z
" transform="scale(0.015625)"/>
       </defs>
       <use xlink:href="#DejaVuSans-35"/>
       <use xlink:href="#DejaVuSans-30" x="63.623047"/>
      </g>
     </g>
    </g>
    <g id="text_7">
     <!-- Epochs -->
     <g transform="translate(432.544375 562.316562) scale(0.1 -0.1)">
      <defs>
       <path id="DejaVuSans-45" d="M 628 4666 
L 3578 4666 
L 3578 4134 
L 1259 4134 
L 1259 2753 
L 3481 2753 
L 3481 2222 
L 1259 2222 
L 1259 531 
L 3634 531 
L 3634 0 
L 628 0 
L 628 4666 
z
" transform="scale(0.015625)"/>
       <path id="DejaVuSans-70" d="M 1159 525 
L 1159 -1331 
L 581 -1331 
L 581 3500 
L 1159 3500 
L 1159 2969 
Q 1341 3281 1617 3432 
Q 1894 3584 2278 3584 
Q 2916 3584 3314 3078 
Q 3713 2572 3713 1747 
Q 3713 922 3314 415 
Q 2916 -91 2278 -91 
Q 1894 -91 1617 61 
Q 1341 213 1159 525 
z
M 3116 1747 
Q 3116 2381 2855 2742 
Q 2594 3103 2138 3103 
Q 1681 3103 1420 2742 
Q 1159 2381 1159 1747 
Q 1159 1113 1420 752 
Q 1681 391 2138 391 
Q 2594 391 2855 752 
Q 3116 1113 3116 1747 
z
" transform="scale(0.015625)"/>
       <path id="DejaVuSans-6f" d="M 1959 3097 
Q 1497 3097 1228 2736 
Q 959 2375 959 1747 
Q 959 1119 1226 758 
Q 1494 397 1959 397 
Q 2419 397 2687 759 
Q 2956 1122 2956 1747 
Q 2956 2369 2687 2733 
Q 2419 3097 1959 3097 
z
M 1959 3584 
Q 2709 3584 3137 3096 
Q 3566 2609 3566 1747 
Q 3566 888 3137 398 
Q 2709 -91 1959 -91 
Q 1206 -91 779 398 
Q 353 888 353 1747 
Q 353 2609 779 3096 
Q 1206 3584 1959 3584 
z
" transform="scale(0.015625)"/>
       <path id="DejaVuSans-63" d="M 3122 3366 
L 3122 2828 
Q 2878 2963 2633 3030 
Q 2388 3097 2138 3097 
Q 1578 3097 1268 2742 
Q 959 2388 959 1747 
Q 959 1106 1268 751 
Q 1578 397 2138 397 
Q 2388 397 2633 464 
Q 2878 531 3122 666 
L 3122 134 
Q 2881 22 2623 -34 
Q 2366 -91 2075 -91 
Q 1284 -91 818 406 
Q 353 903 353 1747 
Q 353 2603 823 3093 
Q 1294 3584 2113 3584 
Q 2378 3584 2631 3529 
Q 2884 3475 3122 3366 
z
" transform="scale(0.015625)"/>
       <path id="DejaVuSans-68" d="M 3513 2113 
L 3513 0 
L 2938 0 
L 2938 2094 
Q 2938 2591 2744 2837 
Q 2550 3084 2163 3084 
Q 1697 3084 1428 2787 
Q 1159 2491 1159 1978 
L 1159 0 
L 581 0 
L 581 4863 
L 1159 4863 
L 1159 2956 
Q 1366 3272 1645 3428 
Q 1925 3584 2291 3584 
Q 2894 3584 3203 3211 
Q 3513 2838 3513 2113 
z
" transform="scale(0.015625)"/>
       <path id="DejaVuSans-73" d="M 2834 3397 
L 2834 2853 
Q 2591 2978 2328 3040 
Q 2066 3103 1784 3103 
Q 1356 3103 1142 2972 
Q 928 2841 928 2578 
Q 928 2378 1081 2264 
Q 1234 2150 1697 2047 
L 1894 2003 
Q 2506 1872 2764 1633 
Q 3022 1394 3022 966 
Q 3022 478 2636 193 
Q 2250 -91 1575 -91 
Q 1294 -91 989 -36 
Q 684 19 347 128 
L 347 722 
Q 666 556 975 473 
Q 1284 391 1588 391 
Q 1994 391 2212 530 
Q 2431 669 2431 922 
Q 2431 1156 2273 1281 
Q 2116 1406 1581 1522 
L 1381 1569 
Q 847 1681 609 1914 
Q 372 2147 372 2553 
Q 372 3047 722 3315 
Q 1072 3584 1716 3584 
Q 2034 3584 2315 3537 
Q 2597 3491 2834 3397 
z
" transform="scale(0.015625)"/>
      </defs>
      <use xlink:href="#DejaVuSans-45"/>
      <use xlink:href="#DejaVuSans-70" x="63.183594"/>
      <use xlink:href="#DejaVuSans-6f" x="126.660156"/>
      <use xlink:href="#DejaVuSans-63" x="187.841797"/>
      <use xlink:href="#DejaVuSans-68" x="242.822266"/>
      <use xlink:href="#DejaVuSans-73" x="306.201172"/>
     </g>
    </g>
   </g>
   <g id="matplotlib.axis_2">
    <g id="ytick_1">
     <g id="line2d_13">
      <path d="M 47.72 528.562634 
L 853.2 528.562634 
" clip-path="url(#p05e64ff7de)" style="fill: none; stroke: #b0b0b0; stroke-width: 0.8; stroke-linecap: square"/>
     </g>
     <g id="line2d_14">
      <defs>
       <path id="me50a73d3d8" d="M 0 0 
L -3.5 0 
" style="stroke: #000000; stroke-width: 0.8"/>
      </defs>
      <g>
       <use xlink:href="#me50a73d3d8" x="47.72" y="528.562634" style="stroke: #000000; stroke-width: 0.8"/>
      </g>
     </g>
     <g id="text_8">
      <!-- 0.3 -->
      <g transform="translate(24.816875 532.361853) scale(0.1 -0.1)">
       <defs>
        <path id="DejaVuSans-2e" d="M 684 794 
L 1344 794 
L 1344 0 
L 684 0 
L 684 794 
z
" transform="scale(0.015625)"/>
       </defs>
       <use xlink:href="#DejaVuSans-30"/>
       <use xlink:href="#DejaVuSans-2e" x="63.623047"/>
       <use xlink:href="#DejaVuSans-33" x="95.410156"/>
      </g>
     </g>
    </g>
    <g id="ytick_2">
     <g id="line2d_15">
      <path d="M 47.72 450.178737 
L 853.2 450.178737 
" clip-path="url(#p05e64ff7de)" style="fill: none; stroke: #b0b0b0; stroke-width: 0.8; stroke-linecap: square"/>
     </g>
     <g id="line2d_16">
      <g>
       <use xlink:href="#me50a73d3d8" x="47.72" y="450.178737" style="stroke: #000000; stroke-width: 0.8"/>
      </g>
     </g>
     <g id="text_9">
      <!-- 0.4 -->
      <g transform="translate(24.816875 453.977955) scale(0.1 -0.1)">
       <use xlink:href="#DejaVuSans-30"/>
       <use xlink:href="#DejaVuSans-2e" x="63.623047"/>
       <use xlink:href="#DejaVuSans-34" x="95.410156"/>
      </g>
     </g>
    </g>
    <g id="ytick_3">
     <g id="line2d_17">
      <path d="M 47.72 371.794839 
L 853.2 371.794839 
" clip-path="url(#p05e64ff7de)" style="fill: none; stroke: #b0b0b0; stroke-width: 0.8; stroke-linecap: square"/>
     </g>
     <g id="line2d_18">
      <g>
       <use xlink:href="#me50a73d3d8" x="47.72" y="371.794839" style="stroke: #000000; stroke-width: 0.8"/>
      </g>
     </g>
     <g id="text_10">
      <!-- 0.5 -->
      <g transform="translate(24.816875 375.594058) scale(0.1 -0.1)">
       <use xlink:href="#DejaVuSans-30"/>
       <use xlink:href="#DejaVuSans-2e" x="63.623047"/>
       <use xlink:href="#DejaVuSans-35" x="95.410156"/>
      </g>
     </g>
    </g>
    <g id="ytick_4">
     <g id="line2d_19">
      <path d="M 47.72 293.410942 
L 853.2 293.410942 
" clip-path="url(#p05e64ff7de)" style="fill: none; stroke: #b0b0b0; stroke-width: 0.8; stroke-linecap: square"/>
     </g>
     <g id="line2d_20">
      <g>
       <use xlink:href="#me50a73d3d8" x="47.72" y="293.410942" style="stroke: #000000; stroke-width: 0.8"/>
      </g>
     </g>
     <g id="text_11">
      <!-- 0.6 -->
      <g transform="translate(24.816875 297.21016) scale(0.1 -0.1)">
       <defs>
        <path id="DejaVuSans-36" d="M 2113 2584 
Q 1688 2584 1439 2293 
Q 1191 2003 1191 1497 
Q 1191 994 1439 701 
Q 1688 409 2113 409 
Q 2538 409 2786 701 
Q 3034 994 3034 1497 
Q 3034 2003 2786 2293 
Q 2538 2584 2113 2584 
z
M 3366 4563 
L 3366 3988 
Q 3128 4100 2886 4159 
Q 2644 4219 2406 4219 
Q 1781 4219 1451 3797 
Q 1122 3375 1075 2522 
Q 1259 2794 1537 2939 
Q 1816 3084 2150 3084 
Q 2853 3084 3261 2657 
Q 3669 2231 3669 1497 
Q 3669 778 3244 343 
Q 2819 -91 2113 -91 
Q 1303 -91 875 529 
Q 447 1150 447 2328 
Q 447 3434 972 4092 
Q 1497 4750 2381 4750 
Q 2619 4750 2861 4703 
Q 3103 4656 3366 4563 
z
" transform="scale(0.015625)"/>
       </defs>
       <use xlink:href="#DejaVuSans-30"/>
       <use xlink:href="#DejaVuSans-2e" x="63.623047"/>
       <use xlink:href="#DejaVuSans-36" x="95.410156"/>
      </g>
     </g>
    </g>
    <g id="ytick_5">
     <g id="line2d_21">
      <path d="M 47.72 215.027044 
L 853.2 215.027044 
" clip-path="url(#p05e64ff7de)" style="fill: none; stroke: #b0b0b0; stroke-width: 0.8; stroke-linecap: square"/>
     </g>
     <g id="line2d_22">
      <g>
       <use xlink:href="#me50a73d3d8" x="47.72" y="215.027044" style="stroke: #000000; stroke-width: 0.8"/>
      </g>
     </g>
     <g id="text_12">
      <!-- 0.7 -->
      <g transform="translate(24.816875 218.826263) scale(0.1 -0.1)">
       <defs>
        <path id="DejaVuSans-37" d="M 525 4666 
L 3525 4666 
L 3525 4397 
L 1831 0 
L 1172 0 
L 2766 4134 
L 525 4134 
L 525 4666 
z
" transform="scale(0.015625)"/>
       </defs>
       <use xlink:href="#DejaVuSans-30"/>
       <use xlink:href="#DejaVuSans-2e" x="63.623047"/>
       <use xlink:href="#DejaVuSans-37" x="95.410156"/>
      </g>
     </g>
    </g>
    <g id="ytick_6">
     <g id="line2d_23">
      <path d="M 47.72 136.643147 
L 853.2 136.643147 
" clip-path="url(#p05e64ff7de)" style="fill: none; stroke: #b0b0b0; stroke-width: 0.8; stroke-linecap: square"/>
     </g>
     <g id="line2d_24">
      <g>
       <use xlink:href="#me50a73d3d8" x="47.72" y="136.643147" style="stroke: #000000; stroke-width: 0.8"/>
      </g>
     </g>
     <g id="text_13">
      <!-- 0.8 -->
      <g transform="translate(24.816875 140.442365) scale(0.1 -0.1)">
       <defs>
        <path id="DejaVuSans-38" d="M 2034 2216 
Q 1584 2216 1326 1975 
Q 1069 1734 1069 1313 
Q 1069 891 1326 650 
Q 1584 409 2034 409 
Q 2484 409 2743 651 
Q 3003 894 3003 1313 
Q 3003 1734 2745 1975 
Q 2488 2216 2034 2216 
z
M 1403 2484 
Q 997 2584 770 2862 
Q 544 3141 544 3541 
Q 544 4100 942 4425 
Q 1341 4750 2034 4750 
Q 2731 4750 3128 4425 
Q 3525 4100 3525 3541 
Q 3525 3141 3298 2862 
Q 3072 2584 2669 2484 
Q 3125 2378 3379 2068 
Q 3634 1759 3634 1313 
Q 3634 634 3220 271 
Q 2806 -91 2034 -91 
Q 1263 -91 848 271 
Q 434 634 434 1313 
Q 434 1759 690 2068 
Q 947 2378 1403 2484 
z
M 1172 3481 
Q 1172 3119 1398 2916 
Q 1625 2713 2034 2713 
Q 2441 2713 2670 2916 
Q 2900 3119 2900 3481 
Q 2900 3844 2670 4047 
Q 2441 4250 2034 4250 
Q 1625 4250 1398 4047 
Q 1172 3844 1172 3481 
z
" transform="scale(0.015625)"/>
       </defs>
       <use xlink:href="#DejaVuSans-30"/>
       <use xlink:href="#DejaVuSans-2e" x="63.623047"/>
       <use xlink:href="#DejaVuSans-38" x="95.410156"/>
      </g>
     </g>
    </g>
    <g id="ytick_7">
     <g id="line2d_25">
      <path d="M 47.72 58.259249 
L 853.2 58.259249 
" clip-path="url(#p05e64ff7de)" style="fill: none; stroke: #b0b0b0; stroke-width: 0.8; stroke-linecap: square"/>
     </g>
     <g id="line2d_26">
      <g>
       <use xlink:href="#me50a73d3d8" x="47.72" y="58.259249" style="stroke: #000000; stroke-width: 0.8"/>
      </g>
     </g>
     <g id="text_14">
      <!-- 0.9 -->
      <g transform="translate(24.816875 62.058468) scale(0.1 -0.1)">
       <defs>
        <path id="DejaVuSans-39" d="M 703 97 
L 703 672 
Q 941 559 1184 500 
Q 1428 441 1663 441 
Q 2288 441 2617 861 
Q 2947 1281 2994 2138 
Q 2813 1869 2534 1725 
Q 2256 1581 1919 1581 
Q 1219 1581 811 2004 
Q 403 2428 403 3163 
Q 403 3881 828 4315 
Q 1253 4750 1959 4750 
Q 2769 4750 3195 4129 
Q 3622 3509 3622 2328 
Q 3622 1225 3098 567 
Q 2575 -91 1691 -91 
Q 1453 -91 1209 -44 
Q 966 3 703 97 
z
M 1959 2075 
Q 2384 2075 2632 2365 
Q 2881 2656 2881 3163 
Q 2881 3666 2632 3958 
Q 2384 4250 1959 4250 
Q 1534 4250 1286 3958 
Q 1038 3666 1038 3163 
Q 1038 2656 1286 2365 
Q 1534 2075 1959 2075 
z
" transform="scale(0.015625)"/>
       </defs>
       <use xlink:href="#DejaVuSans-30"/>
       <use xlink:href="#DejaVuSans-2e" x="63.623047"/>
       <use xlink:href="#DejaVuSans-39" x="95.410156"/>
      </g>
     </g>
    </g>
    <g id="text_15">
     <!-- Loss -->
     <g transform="translate(18.737188 283.387188) rotate(-90) scale(0.1 -0.1)">
      <defs>
       <path id="DejaVuSans-4c" d="M 628 4666 
L 1259 4666 
L 1259 531 
L 3531 531 
L 3531 0 
L 628 0 
L 628 4666 
z
" transform="scale(0.015625)"/>
      </defs>
      <use xlink:href="#DejaVuSans-4c"/>
      <use xlink:href="#DejaVuSans-6f" x="53.962891"/>
      <use xlink:href="#DejaVuSans-73" x="115.144531"/>
      <use xlink:href="#DejaVuSans-73" x="167.244141"/>
     </g>
    </g>
   </g>
   <g id="line2d_27">
    <path d="M 84.332727 43.938518 
L 99.276698 85.671367 
L 114.220668 136.994475 
L 129.164638 178.995547 
L 144.108609 211.333148 
L 159.052579 227.434882 
L 173.996549 234.593388 
L 188.940519 244.951264 
L 203.88449 248.894516 
L 218.82846 255.918888 
L 233.77243 259.841397 
L 248.716401 264.665843 
L 263.660371 271.388962 
L 278.604341 275.411405 
L 293.548312 277.038818 
L 308.492282 280.907131 
L 323.436252 284.046464 
L 338.380223 287.676549 
L 353.324193 288.277468 
L 368.268163 292.017486 
L 383.212134 297.534142 
L 398.156104 299.933751 
L 413.100074 302.388256 
L 428.044045 304.761842 
L 442.988015 308.277508 
L 457.931985 307.28582 
L 472.875955 309.531158 
L 487.819926 311.930206 
L 502.763896 314.156622 
L 517.707866 317.124632 
L 532.651837 316.910372 
L 547.595807 317.927336 
L 562.539777 320.726778 
L 577.483748 321.654693 
L 592.427718 324.512395 
L 607.371688 322.498931 
L 622.315659 324.81748 
L 637.259629 327.46994 
L 652.203599 327.006052 
L 667.14757 326.443818 
L 682.09154 328.637203 
L 697.03551 330.042834 
L 711.979481 329.615015 
L 726.923451 332.229398 
L 741.867421 329.703597 
L 756.811391 331.863764 
L 771.755362 331.699635 
L 786.699332 333.036026 
L 801.643302 332.69777 
L 816.587273 333.419741 
" clip-path="url(#p05e64ff7de)" style="fill: none; stroke-dasharray: 5.55,2.4; stroke-dashoffset: 0; stroke: #0000ff; stroke-width: 1.5"/>
   </g>
   <g id="line2d_28">
    <path d="M 84.332727 255.716963 
L 99.276698 157.26129 
L 114.220668 168.407106 
L 129.164638 142.26926 
L 144.108609 105.598103 
L 159.052579 95.133098 
L 173.996549 90.928632 
L 188.940519 85.229719 
L 203.88449 81.873322 
L 218.82846 78.436192 
L 233.77243 77.257295 
L 248.716401 73.886088 
L 263.660371 69.963346 
L 278.604341 67.880736 
L 293.548312 66.067609 
L 308.492282 65.032331 
L 323.436252 62.770127 
L 338.380223 61.36585 
L 353.324193 61.114775 
L 368.268163 58.530433 
L 383.212134 55.717582 
L 398.156104 54.359139 
L 413.100074 53.936225 
L 428.044045 51.323011 
L 442.988015 50.388649 
L 457.931985 49.159434 
L 472.875955 49.577161 
L 487.819926 47.412837 
L 502.763896 45.500709 
L 517.707866 43.715521 
L 532.651837 43.448233 
L 547.595807 44.4274 
L 562.539777 42.806575 
L 577.483748 42.280456 
L 592.427718 41.908795 
L 607.371688 40.740316 
L 622.315659 39.571231 
L 637.259629 39.077582 
L 652.203599 38.669573 
L 667.14757 39.259652 
L 682.09154 38.253854 
L 697.03551 37.695405 
L 711.979481 37.562765 
L 726.923451 37.018659 
L 741.867421 36.54697 
L 756.811391 35.918626 
L 771.755362 35.357047 
L 786.699332 34.860735 
L 801.643302 34.739449 
L 816.587273 34.583636 
" clip-path="url(#p05e64ff7de)" style="fill: none; stroke: #0000ff; stroke-width: 1.5; stroke-linecap: square"/>
    <defs>
     <path id="m1e4519f5f0" d="M 0 1.5 
C 0.397805 1.5 0.77937 1.341951 1.06066 1.06066 
C 1.341951 0.77937 1.5 0.397805 1.5 0 
C 1.5 -0.397805 1.341951 -0.77937 1.06066 -1.06066 
C 0.77937 -1.341951 0.397805 -1.5 0 -1.5 
C -0.397805 -1.5 -0.77937 -1.341951 -1.06066 -1.06066 
C -1.341951 -0.77937 -1.5 -0.397805 -1.5 0 
C -1.5 0.397805 -1.341951 0.77937 -1.06066 1.06066 
C -0.77937 1.341951 -0.397805 1.5 0 1.5 
z
" style="stroke: #0000ff"/>
    </defs>
    <g clip-path="url(#p05e64ff7de)">
     <use xlink:href="#m1e4519f5f0" x="84.332727" y="255.716963" style="fill: #0000ff; stroke: #0000ff"/>
     <use xlink:href="#m1e4519f5f0" x="99.276698" y="157.26129" style="fill: #0000ff; stroke: #0000ff"/>
     <use xlink:href="#m1e4519f5f0" x="114.220668" y="168.407106" style="fill: #0000ff; stroke: #0000ff"/>
     <use xlink:href="#m1e4519f5f0" x="129.164638" y="142.26926" style="fill: #0000ff; stroke: #0000ff"/>
     <use xlink:href="#m1e4519f5f0" x="144.108609" y="105.598103" style="fill: #0000ff; stroke: #0000ff"/>
     <use xlink:href="#m1e4519f5f0" x="159.052579" y="95.133098" style="fill: #0000ff; stroke: #0000ff"/>
     <use xlink:href="#m1e4519f5f0" x="173.996549" y="90.928632" style="fill: #0000ff; stroke: #0000ff"/>
     <use xlink:href="#m1e4519f5f0" x="188.940519" y="85.229719" style="fill: #0000ff; stroke: #0000ff"/>
     <use xlink:href="#m1e4519f5f0" x="203.88449" y="81.873322" style="fill: #0000ff; stroke: #0000ff"/>
     <use xlink:href="#m1e4519f5f0" x="218.82846" y="78.436192" style="fill: #0000ff; stroke: #0000ff"/>
     <use xlink:href="#m1e4519f5f0" x="233.77243" y="77.257295" style="fill: #0000ff; stroke: #0000ff"/>
     <use xlink:href="#m1e4519f5f0" x="248.716401" y="73.886088" style="fill: #0000ff; stroke: #0000ff"/>
     <use xlink:href="#m1e4519f5f0" x="263.660371" y="69.963346" style="fill: #0000ff; stroke: #0000ff"/>
     <use xlink:href="#m1e4519f5f0" x="278.604341" y="67.880736" style="fill: #0000ff; stroke: #0000ff"/>
     <use xlink:href="#m1e4519f5f0" x="293.548312" y="66.067609" style="fill: #0000ff; stroke: #0000ff"/>
     <use xlink:href="#m1e4519f5f0" x="308.492282" y="65.032331" style="fill: #0000ff; stroke: #0000ff"/>
     <use xlink:href="#m1e4519f5f0" x="323.436252" y="62.770127" style="fill: #0000ff; stroke: #0000ff"/>
     <use xlink:href="#m1e4519f5f0" x="338.380223" y="61.36585" style="fill: #0000ff; stroke: #0000ff"/>
     <use xlink:href="#m1e4519f5f0" x="353.324193" y="61.114775" style="fill: #0000ff; stroke: #0000ff"/>
     <use xlink:href="#m1e4519f5f0" x="368.268163" y="58.530433" style="fill: #0000ff; stroke: #0000ff"/>
     <use xlink:href="#m1e4519f5f0" x="383.212134" y="55.717582" style="fill: #0000ff; stroke: #0000ff"/>
     <use xlink:href="#m1e4519f5f0" x="398.156104" y="54.359139" style="fill: #0000ff; stroke: #0000ff"/>
     <use xlink:href="#m1e4519f5f0" x="413.100074" y="53.936225" style="fill: #0000ff; stroke: #0000ff"/>
     <use xlink:href="#m1e4519f5f0" x="428.044045" y="51.323011" style="fill: #0000ff; stroke: #0000ff"/>
     <use xlink:href="#m1e4519f5f0" x="442.988015" y="50.388649" style="fill: #0000ff; stroke: #0000ff"/>
     <use xlink:href="#m1e4519f5f0" x="457.931985" y="49.159434" style="fill: #0000ff; stroke: #0000ff"/>
     <use xlink:href="#m1e4519f5f0" x="472.875955" y="49.577161" style="fill: #0000ff; stroke: #0000ff"/>
     <use xlink:href="#m1e4519f5f0" x="487.819926" y="47.412837" style="fill: #0000ff; stroke: #0000ff"/>
     <use xlink:href="#m1e4519f5f0" x="502.763896" y="45.500709" style="fill: #0000ff; stroke: #0000ff"/>
     <use xlink:href="#m1e4519f5f0" x="517.707866" y="43.715521" style="fill: #0000ff; stroke: #0000ff"/>
     <use xlink:href="#m1e4519f5f0" x="532.651837" y="43.448233" style="fill: #0000ff; stroke: #0000ff"/>
     <use xlink:href="#m1e4519f5f0" x="547.595807" y="44.4274" style="fill: #0000ff; stroke: #0000ff"/>
     <use xlink:href="#m1e4519f5f0" x="562.539777" y="42.806575" style="fill: #0000ff; stroke: #0000ff"/>
     <use xlink:href="#m1e4519f5f0" x="577.483748" y="42.280456" style="fill: #0000ff; stroke: #0000ff"/>
     <use xlink:href="#m1e4519f5f0" x="592.427718" y="41.908795" style="fill: #0000ff; stroke: #0000ff"/>
     <use xlink:href="#m1e4519f5f0" x="607.371688" y="40.740316" style="fill: #0000ff; stroke: #0000ff"/>
     <use xlink:href="#m1e4519f5f0" x="622.315659" y="39.571231" style="fill: #0000ff; stroke: #0000ff"/>
     <use xlink:href="#m1e4519f5f0" x="637.259629" y="39.077582" style="fill: #0000ff; stroke: #0000ff"/>
     <use xlink:href="#m1e4519f5f0" x="652.203599" y="38.669573" style="fill: #0000ff; stroke: #0000ff"/>
     <use xlink:href="#m1e4519f5f0" x="667.14757" y="39.259652" style="fill: #0000ff; stroke: #0000ff"/>
     <use xlink:href="#m1e4519f5f0" x="682.09154" y="38.253854" style="fill: #0000ff; stroke: #0000ff"/>
     <use xlink:href="#m1e4519f5f0" x="697.03551" y="37.695405" style="fill: #0000ff; stroke: #0000ff"/>
     <use xlink:href="#m1e4519f5f0" x="711.979481" y="37.562765" style="fill: #0000ff; stroke: #0000ff"/>
     <use xlink:href="#m1e4519f5f0" x="726.923451" y="37.018659" style="fill: #0000ff; stroke: #0000ff"/>
     <use xlink:href="#m1e4519f5f0" x="741.867421" y="36.54697" style="fill: #0000ff; stroke: #0000ff"/>
     <use xlink:href="#m1e4519f5f0" x="756.811391" y="35.918626" style="fill: #0000ff; stroke: #0000ff"/>
     <use xlink:href="#m1e4519f5f0" x="771.755362" y="35.357047" style="fill: #0000ff; stroke: #0000ff"/>
     <use xlink:href="#m1e4519f5f0" x="786.699332" y="34.860735" style="fill: #0000ff; stroke: #0000ff"/>
     <use xlink:href="#m1e4519f5f0" x="801.643302" y="34.739449" style="fill: #0000ff; stroke: #0000ff"/>
     <use xlink:href="#m1e4519f5f0" x="816.587273" y="34.583636" style="fill: #0000ff; stroke: #0000ff"/>
    </g>
   </g>
   <g id="line2d_29">
    <path d="M 84.332727 74.812975 
L 99.276698 83.885338 
L 114.220668 104.28068 
L 129.164638 110.273418 
L 144.108609 131.027153 
L 159.052579 137.689395 
L 173.996549 118.812467 
L 188.940519 131.764776 
L 203.88449 111.258332 
L 218.82846 114.189105 
L 233.77243 117.288259 
L 248.716401 117.159685 
L 263.660371 137.145382 
L 278.604341 142.419279 
L 293.548312 130.587841 
L 308.492282 125.144582 
L 323.436252 130.046818 
L 338.380223 138.845399 
L 353.324193 113.30721 
L 368.268163 137.697711 
L 383.212134 119.136426 
L 398.156104 153.676897 
L 413.100074 116.000363 
L 428.044045 107.87722 
L 442.988015 137.223826 
L 457.931985 125.272923 
L 472.875955 102.926114 
L 487.819926 128.401371 
L 502.763896 108.390538 
L 517.707866 111.394008 
L 532.651837 117.938421 
L 547.595807 120.456232 
L 562.539777 130.340643 
L 577.483748 125.885101 
L 592.427718 120.879893 
L 607.371688 112.958208 
L 622.315659 131.399515 
L 637.259629 117.226308 
L 652.203599 104.610573 
L 667.14757 123.169055 
L 682.09154 87.991271 
L 697.03551 105.045073 
L 711.979481 94.901318 
L 726.923451 101.934193 
L 741.867421 128.255229 
L 756.811391 94.110621 
L 771.755362 89.602752 
L 786.699332 126.840534 
L 801.643302 86.398571 
L 816.587273 82.507972 
" clip-path="url(#p05e64ff7de)" style="fill: none; stroke-dasharray: 5.55,2.4; stroke-dashoffset: 0; stroke: #ff0000; stroke-width: 1.5"/>
   </g>
   <g id="line2d_30">
    <path d="M 84.332727 221.79778 
L 99.276698 236.519018 
L 114.220668 229.219136 
L 129.164638 232.958126 
L 144.108609 180.948181 
L 159.052579 170.946642 
L 173.996549 202.388146 
L 188.940519 152.952123 
L 203.88449 192.886983 
L 218.82846 160.160807 
L 233.77243 175.496092 
L 248.716401 166.288287 
L 263.660371 173.273133 
L 278.604341 166.796372 
L 293.548312 148.316193 
L 308.492282 165.680828 
L 323.436252 158.026571 
L 338.380223 168.391828 
L 353.324193 166.927749 
L 368.268163 159.37852 
L 383.212134 159.018399 
L 398.156104 147.391082 
L 413.100074 156.997927 
L 428.044045 177.645279 
L 442.988015 146.773531 
L 457.931985 174.512767 
L 472.875955 161.376753 
L 487.819926 158.871323 
L 502.763896 155.813844 
L 517.707866 160.925434 
L 532.651837 156.318424 
L 547.595807 183.098863 
L 562.539777 154.512259 
L 577.483748 149.083857 
L 592.427718 162.588588 
L 607.371688 162.090548 
L 622.315659 143.906905 
L 637.259629 157.665375 
L 652.203599 162.067842 
L 667.14757 157.465318 
L 682.09154 167.748394 
L 697.03551 162.089941 
L 711.979481 166.836925 
L 726.923451 169.898422 
L 741.867421 157.557684 
L 756.811391 166.527822 
L 771.755362 165.377145 
L 786.699332 148.836613 
L 801.643302 164.103639 
L 816.587273 176.402282 
" clip-path="url(#p05e64ff7de)" style="fill: none; stroke: #ff0000; stroke-width: 1.5; stroke-linecap: square"/>
    <defs>
     <path id="m41cc7e7e24" d="M 0 1.5 
C 0.397805 1.5 0.77937 1.341951 1.06066 1.06066 
C 1.341951 0.77937 1.5 0.397805 1.5 0 
C 1.5 -0.397805 1.341951 -0.77937 1.06066 -1.06066 
C 0.77937 -1.341951 0.397805 -1.5 0 -1.5 
C -0.397805 -1.5 -0.77937 -1.341951 -1.06066 -1.06066 
C -1.341951 -0.77937 -1.5 -0.397805 -1.5 0 
C -1.5 0.397805 -1.341951 0.77937 -1.06066 1.06066 
C -0.77937 1.341951 -0.397805 1.5 0 1.5 
z
" style="stroke: #ff0000"/>
    </defs>
    <g clip-path="url(#p05e64ff7de)">
     <use xlink:href="#m41cc7e7e24" x="84.332727" y="221.79778" style="fill: #ff0000; stroke: #ff0000"/>
     <use xlink:href="#m41cc7e7e24" x="99.276698" y="236.519018" style="fill: #ff0000; stroke: #ff0000"/>
     <use xlink:href="#m41cc7e7e24" x="114.220668" y="229.219136" style="fill: #ff0000; stroke: #ff0000"/>
     <use xlink:href="#m41cc7e7e24" x="129.164638" y="232.958126" style="fill: #ff0000; stroke: #ff0000"/>
     <use xlink:href="#m41cc7e7e24" x="144.108609" y="180.948181" style="fill: #ff0000; stroke: #ff0000"/>
     <use xlink:href="#m41cc7e7e24" x="159.052579" y="170.946642" style="fill: #ff0000; stroke: #ff0000"/>
     <use xlink:href="#m41cc7e7e24" x="173.996549" y="202.388146" style="fill: #ff0000; stroke: #ff0000"/>
     <use xlink:href="#m41cc7e7e24" x="188.940519" y="152.952123" style="fill: #ff0000; stroke: #ff0000"/>
     <use xlink:href="#m41cc7e7e24" x="203.88449" y="192.886983" style="fill: #ff0000; stroke: #ff0000"/>
     <use xlink:href="#m41cc7e7e24" x="218.82846" y="160.160807" style="fill: #ff0000; stroke: #ff0000"/>
     <use xlink:href="#m41cc7e7e24" x="233.77243" y="175.496092" style="fill: #ff0000; stroke: #ff0000"/>
     <use xlink:href="#m41cc7e7e24" x="248.716401" y="166.288287" style="fill: #ff0000; stroke: #ff0000"/>
     <use xlink:href="#m41cc7e7e24" x="263.660371" y="173.273133" style="fill: #ff0000; stroke: #ff0000"/>
     <use xlink:href="#m41cc7e7e24" x="278.604341" y="166.796372" style="fill: #ff0000; stroke: #ff0000"/>
     <use xlink:href="#m41cc7e7e24" x="293.548312" y="148.316193" style="fill: #ff0000; stroke: #ff0000"/>
     <use xlink:href="#m41cc7e7e24" x="308.492282" y="165.680828" style="fill: #ff0000; stroke: #ff0000"/>
     <use xlink:href="#m41cc7e7e24" x="323.436252" y="158.026571" style="fill: #ff0000; stroke: #ff0000"/>
     <use xlink:href="#m41cc7e7e24" x="338.380223" y="168.391828" style="fill: #ff0000; stroke: #ff0000"/>
     <use xlink:href="#m41cc7e7e24" x="353.324193" y="166.927749" style="fill: #ff0000; stroke: #ff0000"/>
     <use xlink:href="#m41cc7e7e24" x="368.268163" y="159.37852" style="fill: #ff0000; stroke: #ff0000"/>
     <use xlink:href="#m41cc7e7e24" x="383.212134" y="159.018399" style="fill: #ff0000; stroke: #ff0000"/>
     <use xlink:href="#m41cc7e7e24" x="398.156104" y="147.391082" style="fill: #ff0000; stroke: #ff0000"/>
     <use xlink:href="#m41cc7e7e24" x="413.100074" y="156.997927" style="fill: #ff0000; stroke: #ff0000"/>
     <use xlink:href="#m41cc7e7e24" x="428.044045" y="177.645279" style="fill: #ff0000; stroke: #ff0000"/>
     <use xlink:href="#m41cc7e7e24" x="442.988015" y="146.773531" style="fill: #ff0000; stroke: #ff0000"/>
     <use xlink:href="#m41cc7e7e24" x="457.931985" y="174.512767" style="fill: #ff0000; stroke: #ff0000"/>
     <use xlink:href="#m41cc7e7e24" x="472.875955" y="161.376753" style="fill: #ff0000; stroke: #ff0000"/>
     <use xlink:href="#m41cc7e7e24" x="487.819926" y="158.871323" style="fill: #ff0000; stroke: #ff0000"/>
     <use xlink:href="#m41cc7e7e24" x="502.763896" y="155.813844" style="fill: #ff0000; stroke: #ff0000"/>
     <use xlink:href="#m41cc7e7e24" x="517.707866" y="160.925434" style="fill: #ff0000; stroke: #ff0000"/>
     <use xlink:href="#m41cc7e7e24" x="532.651837" y="156.318424" style="fill: #ff0000; stroke: #ff0000"/>
     <use xlink:href="#m41cc7e7e24" x="547.595807" y="183.098863" style="fill: #ff0000; stroke: #ff0000"/>
     <use xlink:href="#m41cc7e7e24" x="562.539777" y="154.512259" style="fill: #ff0000; stroke: #ff0000"/>
     <use xlink:href="#m41cc7e7e24" x="577.483748" y="149.083857" style="fill: #ff0000; stroke: #ff0000"/>
     <use xlink:href="#m41cc7e7e24" x="592.427718" y="162.588588" style="fill: #ff0000; stroke: #ff0000"/>
     <use xlink:href="#m41cc7e7e24" x="607.371688" y="162.090548" style="fill: #ff0000; stroke: #ff0000"/>
     <use xlink:href="#m41cc7e7e24" x="622.315659" y="143.906905" style="fill: #ff0000; stroke: #ff0000"/>
     <use xlink:href="#m41cc7e7e24" x="637.259629" y="157.665375" style="fill: #ff0000; stroke: #ff0000"/>
     <use xlink:href="#m41cc7e7e24" x="652.203599" y="162.067842" style="fill: #ff0000; stroke: #ff0000"/>
     <use xlink:href="#m41cc7e7e24" x="667.14757" y="157.465318" style="fill: #ff0000; stroke: #ff0000"/>
     <use xlink:href="#m41cc7e7e24" x="682.09154" y="167.748394" style="fill: #ff0000; stroke: #ff0000"/>
     <use xlink:href="#m41cc7e7e24" x="697.03551" y="162.089941" style="fill: #ff0000; stroke: #ff0000"/>
     <use xlink:href="#m41cc7e7e24" x="711.979481" y="166.836925" style="fill: #ff0000; stroke: #ff0000"/>
     <use xlink:href="#m41cc7e7e24" x="726.923451" y="169.898422" style="fill: #ff0000; stroke: #ff0000"/>
     <use xlink:href="#m41cc7e7e24" x="741.867421" y="157.557684" style="fill: #ff0000; stroke: #ff0000"/>
     <use xlink:href="#m41cc7e7e24" x="756.811391" y="166.527822" style="fill: #ff0000; stroke: #ff0000"/>
     <use xlink:href="#m41cc7e7e24" x="771.755362" y="165.377145" style="fill: #ff0000; stroke: #ff0000"/>
     <use xlink:href="#m41cc7e7e24" x="786.699332" y="148.836613" style="fill: #ff0000; stroke: #ff0000"/>
     <use xlink:href="#m41cc7e7e24" x="801.643302" y="164.103639" style="fill: #ff0000; stroke: #ff0000"/>
     <use xlink:href="#m41cc7e7e24" x="816.587273" y="176.402282" style="fill: #ff0000; stroke: #ff0000"/>
    </g>
   </g>
   <g id="line2d_31">
    <path d="M 84.332727 427.476988 
L 99.276698 397.804881 
L 114.220668 356.351537 
L 129.164638 406.783476 
L 144.108609 367.34425 
L 159.052579 363.665762 
L 173.996549 376.010892 
L 188.940519 349.508113 
L 203.88449 340.196729 
L 218.82846 391.848819 
L 233.77243 360.577868 
L 248.716401 357.083226 
L 263.660371 329.414865 
L 278.604341 341.932113 
L 293.548312 348.896776 
L 308.492282 351.880717 
L 323.436252 357.964046 
L 338.380223 336.385649 
L 353.324193 352.488971 
L 368.268163 336.588228 
L 383.212134 348.377759 
L 398.156104 322.038641 
L 413.100074 347.859302 
L 428.044045 356.414142 
L 442.988015 329.512557 
L 457.931985 357.68919 
L 472.875955 382.876578 
L 487.819926 345.965722 
L 502.763896 387.489708 
L 517.707866 364.730521 
L 532.651837 353.651375 
L 547.595807 366.884334 
L 562.539777 340.674118 
L 577.483748 354.270468 
L 592.427718 339.083287 
L 607.371688 367.970397 
L 622.315659 354.318637 
L 637.259629 374.349303 
L 652.203599 364.691977 
L 667.14757 353.170015 
L 682.09154 386.925278 
L 697.03551 360.038714 
L 711.979481 370.046233 
L 726.923451 371.783299 
L 741.867421 348.732507 
L 756.811391 377.395312 
L 771.755362 388.651388 
L 786.699332 364.452768 
L 801.643302 398.322123 
L 816.587273 382.0037 
" clip-path="url(#p05e64ff7de)" style="fill: none; stroke: #2ca02c; stroke-width: 1.5; stroke-linecap: square"/>
   </g>
   <g id="line2d_32">
    <path d="M 84.332727 510.256364 
L 99.276698 503.857064 
L 114.220668 484.738405 
L 129.164638 503.539879 
L 144.108609 457.739525 
L 159.052579 449.035693 
L 173.996549 472.775775 
L 188.940519 432.453136 
L 203.88449 459.38308 
L 218.82846 457.421078 
L 233.77243 453.910107 
L 248.716401 451.679509 
L 263.660371 441.907205 
L 278.604341 439.909719 
L 293.548312 431.643447 
L 308.492282 445.671003 
L 323.436252 439.238953 
L 338.380223 438.62514 
L 353.324193 455.302797 
L 368.268163 432.305569 
L 383.212134 439.249816 
L 398.156104 414.888865 
L 413.100074 438.688143 
L 428.044045 455.893693 
L 442.988015 420.292715 
L 457.931985 450.463119 
L 472.875955 456.704644 
L 487.819926 435.32976 
L 502.763896 453.661087 
L 517.707866 442.706825 
L 532.651837 438.939195 
L 547.595807 458.880555 
L 562.539777 431.190002 
L 577.483748 428.731549 
L 592.427718 435.774492 
L 607.371688 443.10493 
L 622.315659 422.433283 
L 637.259629 447.25499 
L 652.203599 445.986834 
L 667.14757 432.907772 
L 682.09154 463.165006 
L 697.03551 438.608414 
L 711.979481 453.744086 
L 726.923451 457.622093 
L 741.867421 436.540334 
L 756.811391 453.816035 
L 771.755362 460.177024 
L 786.699332 436.30839 
L 801.643302 468.03295 
L 816.587273 469.941036 
" clip-path="url(#p05e64ff7de)" style="fill: none; stroke: #ff7f0e; stroke-width: 1.5; stroke-linecap: square"/>
   </g>
   <g id="patch_3">
    <path d="M 47.72 534.04 
L 47.72 10.8 
" style="fill: none; stroke: #000000; stroke-width: 0.8; stroke-linejoin: miter; stroke-linecap: square"/>
   </g>
   <g id="patch_4">
    <path d="M 853.2 534.04 
L 853.2 10.8 
" style="fill: none; stroke: #000000; stroke-width: 0.8; stroke-linejoin: miter; stroke-linecap: square"/>
   </g>
   <g id="patch_5">
    <path d="M 47.72 534.04 
L 853.2 534.04 
" style="fill: none; stroke: #000000; stroke-width: 0.8; stroke-linejoin: miter; stroke-linecap: square"/>
   </g>
   <g id="patch_6">
    <path d="M 47.72 10.8 
L 853.2 10.8 
" style="fill: none; stroke: #000000; stroke-width: 0.8; stroke-linejoin: miter; stroke-linecap: square"/>
   </g>
   <g id="legend_1">
    <g id="patch_7">
     <path d="M 448.325 363.48875 
L 839.2 363.48875 
Q 843.2 363.48875 843.2 359.48875 
L 843.2 185.35125 
Q 843.2 181.35125 839.2 181.35125 
L 448.325 181.35125 
Q 444.325 181.35125 444.325 185.35125 
L 444.325 359.48875 
Q 444.325 363.48875 448.325 363.48875 
z
" style="fill: #ffffff; opacity: 0.8; stroke: #cccccc; stroke-linejoin: miter"/>
    </g>
    <g id="line2d_33">
     <path d="M 452.325 197.548125 
L 472.325 197.548125 
L 492.325 197.548125 
" style="fill: none; stroke-dasharray: 5.55,2.4; stroke-dashoffset: 0; stroke: #0000ff; stroke-width: 1.5"/>
    </g>
    <g id="text_16">
     <!-- Training Loss -->
     <g transform="translate(508.325 204.548125) scale(0.2 -0.2)">
      <defs>
       <path id="DejaVuSans-54" d="M -19 4666 
L 3928 4666 
L 3928 4134 
L 2272 4134 
L 2272 0 
L 1638 0 
L 1638 4134 
L -19 4134 
L -19 4666 
z
" transform="scale(0.015625)"/>
       <path id="DejaVuSans-72" d="M 2631 2963 
Q 2534 3019 2420 3045 
Q 2306 3072 2169 3072 
Q 1681 3072 1420 2755 
Q 1159 2438 1159 1844 
L 1159 0 
L 581 0 
L 581 3500 
L 1159 3500 
L 1159 2956 
Q 1341 3275 1631 3429 
Q 1922 3584 2338 3584 
Q 2397 3584 2469 3576 
Q 2541 3569 2628 3553 
L 2631 2963 
z
" transform="scale(0.015625)"/>
       <path id="DejaVuSans-61" d="M 2194 1759 
Q 1497 1759 1228 1600 
Q 959 1441 959 1056 
Q 959 750 1161 570 
Q 1363 391 1709 391 
Q 2188 391 2477 730 
Q 2766 1069 2766 1631 
L 2766 1759 
L 2194 1759 
z
M 3341 1997 
L 3341 0 
L 2766 0 
L 2766 531 
Q 2569 213 2275 61 
Q 1981 -91 1556 -91 
Q 1019 -91 701 211 
Q 384 513 384 1019 
Q 384 1609 779 1909 
Q 1175 2209 1959 2209 
L 2766 2209 
L 2766 2266 
Q 2766 2663 2505 2880 
Q 2244 3097 1772 3097 
Q 1472 3097 1187 3025 
Q 903 2953 641 2809 
L 641 3341 
Q 956 3463 1253 3523 
Q 1550 3584 1831 3584 
Q 2591 3584 2966 3190 
Q 3341 2797 3341 1997 
z
" transform="scale(0.015625)"/>
       <path id="DejaVuSans-69" d="M 603 3500 
L 1178 3500 
L 1178 0 
L 603 0 
L 603 3500 
z
M 603 4863 
L 1178 4863 
L 1178 4134 
L 603 4134 
L 603 4863 
z
" transform="scale(0.015625)"/>
       <path id="DejaVuSans-6e" d="M 3513 2113 
L 3513 0 
L 2938 0 
L 2938 2094 
Q 2938 2591 2744 2837 
Q 2550 3084 2163 3084 
Q 1697 3084 1428 2787 
Q 1159 2491 1159 1978 
L 1159 0 
L 581 0 
L 581 3500 
L 1159 3500 
L 1159 2956 
Q 1366 3272 1645 3428 
Q 1925 3584 2291 3584 
Q 2894 3584 3203 3211 
Q 3513 2838 3513 2113 
z
" transform="scale(0.015625)"/>
       <path id="DejaVuSans-67" d="M 2906 1791 
Q 2906 2416 2648 2759 
Q 2391 3103 1925 3103 
Q 1463 3103 1205 2759 
Q 947 2416 947 1791 
Q 947 1169 1205 825 
Q 1463 481 1925 481 
Q 2391 481 2648 825 
Q 2906 1169 2906 1791 
z
M 3481 434 
Q 3481 -459 3084 -895 
Q 2688 -1331 1869 -1331 
Q 1566 -1331 1297 -1286 
Q 1028 -1241 775 -1147 
L 775 -588 
Q 1028 -725 1275 -790 
Q 1522 -856 1778 -856 
Q 2344 -856 2625 -561 
Q 2906 -266 2906 331 
L 2906 616 
Q 2728 306 2450 153 
Q 2172 0 1784 0 
Q 1141 0 747 490 
Q 353 981 353 1791 
Q 353 2603 747 3093 
Q 1141 3584 1784 3584 
Q 2172 3584 2450 3431 
Q 2728 3278 2906 2969 
L 2906 3500 
L 3481 3500 
L 3481 434 
z
" transform="scale(0.015625)"/>
       <path id="DejaVuSans-20" transform="scale(0.015625)"/>
      </defs>
      <use xlink:href="#DejaVuSans-54"/>
      <use xlink:href="#DejaVuSans-72" x="46.333984"/>
      <use xlink:href="#DejaVuSans-61" x="87.447266"/>
      <use xlink:href="#DejaVuSans-69" x="148.726562"/>
      <use xlink:href="#DejaVuSans-6e" x="176.509766"/>
      <use xlink:href="#DejaVuSans-69" x="239.888672"/>
      <use xlink:href="#DejaVuSans-6e" x="267.671875"/>
      <use xlink:href="#DejaVuSans-67" x="331.050781"/>
      <use xlink:href="#DejaVuSans-20" x="394.527344"/>
      <use xlink:href="#DejaVuSans-4c" x="426.314453"/>
      <use xlink:href="#DejaVuSans-6f" x="480.277344"/>
      <use xlink:href="#DejaVuSans-73" x="541.458984"/>
      <use xlink:href="#DejaVuSans-73" x="593.558594"/>
     </g>
    </g>
    <g id="line2d_34">
     <path d="M 452.325 226.904375 
L 472.325 226.904375 
L 492.325 226.904375 
" style="fill: none; stroke: #0000ff; stroke-width: 1.5; stroke-linecap: square"/>
     <g>
      <use xlink:href="#m1e4519f5f0" x="472.325" y="226.904375" style="fill: #0000ff; stroke: #0000ff"/>
     </g>
    </g>
    <g id="text_17">
     <!-- Training Overall pixel accuracy -->
     <g transform="translate(508.325 233.904375) scale(0.2 -0.2)">
      <defs>
       <path id="DejaVuSans-4f" d="M 2522 4238 
Q 1834 4238 1429 3725 
Q 1025 3213 1025 2328 
Q 1025 1447 1429 934 
Q 1834 422 2522 422 
Q 3209 422 3611 934 
Q 4013 1447 4013 2328 
Q 4013 3213 3611 3725 
Q 3209 4238 2522 4238 
z
M 2522 4750 
Q 3503 4750 4090 4092 
Q 4678 3434 4678 2328 
Q 4678 1225 4090 567 
Q 3503 -91 2522 -91 
Q 1538 -91 948 565 
Q 359 1222 359 2328 
Q 359 3434 948 4092 
Q 1538 4750 2522 4750 
z
" transform="scale(0.015625)"/>
       <path id="DejaVuSans-76" d="M 191 3500 
L 800 3500 
L 1894 563 
L 2988 3500 
L 3597 3500 
L 2284 0 
L 1503 0 
L 191 3500 
z
" transform="scale(0.015625)"/>
       <path id="DejaVuSans-65" d="M 3597 1894 
L 3597 1613 
L 953 1613 
Q 991 1019 1311 708 
Q 1631 397 2203 397 
Q 2534 397 2845 478 
Q 3156 559 3463 722 
L 3463 178 
Q 3153 47 2828 -22 
Q 2503 -91 2169 -91 
Q 1331 -91 842 396 
Q 353 884 353 1716 
Q 353 2575 817 3079 
Q 1281 3584 2069 3584 
Q 2775 3584 3186 3129 
Q 3597 2675 3597 1894 
z
M 3022 2063 
Q 3016 2534 2758 2815 
Q 2500 3097 2075 3097 
Q 1594 3097 1305 2825 
Q 1016 2553 972 2059 
L 3022 2063 
z
" transform="scale(0.015625)"/>
       <path id="DejaVuSans-6c" d="M 603 4863 
L 1178 4863 
L 1178 0 
L 603 0 
L 603 4863 
z
" transform="scale(0.015625)"/>
       <path id="DejaVuSans-78" d="M 3513 3500 
L 2247 1797 
L 3578 0 
L 2900 0 
L 1881 1375 
L 863 0 
L 184 0 
L 1544 1831 
L 300 3500 
L 978 3500 
L 1906 2253 
L 2834 3500 
L 3513 3500 
z
" transform="scale(0.015625)"/>
       <path id="DejaVuSans-75" d="M 544 1381 
L 544 3500 
L 1119 3500 
L 1119 1403 
Q 1119 906 1312 657 
Q 1506 409 1894 409 
Q 2359 409 2629 706 
Q 2900 1003 2900 1516 
L 2900 3500 
L 3475 3500 
L 3475 0 
L 2900 0 
L 2900 538 
Q 2691 219 2414 64 
Q 2138 -91 1772 -91 
Q 1169 -91 856 284 
Q 544 659 544 1381 
z
M 1991 3584 
L 1991 3584 
z
" transform="scale(0.015625)"/>
       <path id="DejaVuSans-79" d="M 2059 -325 
Q 1816 -950 1584 -1140 
Q 1353 -1331 966 -1331 
L 506 -1331 
L 506 -850 
L 844 -850 
Q 1081 -850 1212 -737 
Q 1344 -625 1503 -206 
L 1606 56 
L 191 3500 
L 800 3500 
L 1894 763 
L 2988 3500 
L 3597 3500 
L 2059 -325 
z
" transform="scale(0.015625)"/>
      </defs>
      <use xlink:href="#DejaVuSans-54"/>
      <use xlink:href="#DejaVuSans-72" x="46.333984"/>
      <use xlink:href="#DejaVuSans-61" x="87.447266"/>
      <use xlink:href="#DejaVuSans-69" x="148.726562"/>
      <use xlink:href="#DejaVuSans-6e" x="176.509766"/>
      <use xlink:href="#DejaVuSans-69" x="239.888672"/>
      <use xlink:href="#DejaVuSans-6e" x="267.671875"/>
      <use xlink:href="#DejaVuSans-67" x="331.050781"/>
      <use xlink:href="#DejaVuSans-20" x="394.527344"/>
      <use xlink:href="#DejaVuSans-4f" x="426.314453"/>
      <use xlink:href="#DejaVuSans-76" x="505.025391"/>
      <use xlink:href="#DejaVuSans-65" x="564.205078"/>
      <use xlink:href="#DejaVuSans-72" x="625.728516"/>
      <use xlink:href="#DejaVuSans-61" x="666.841797"/>
      <use xlink:href="#DejaVuSans-6c" x="728.121094"/>
      <use xlink:href="#DejaVuSans-6c" x="755.904297"/>
      <use xlink:href="#DejaVuSans-20" x="783.6875"/>
      <use xlink:href="#DejaVuSans-70" x="815.474609"/>
      <use xlink:href="#DejaVuSans-69" x="878.951172"/>
      <use xlink:href="#DejaVuSans-78" x="906.734375"/>
      <use xlink:href="#DejaVuSans-65" x="962.789062"/>
      <use xlink:href="#DejaVuSans-6c" x="1024.3125"/>
      <use xlink:href="#DejaVuSans-20" x="1052.095703"/>
      <use xlink:href="#DejaVuSans-61" x="1083.882812"/>
      <use xlink:href="#DejaVuSans-63" x="1145.162109"/>
      <use xlink:href="#DejaVuSans-63" x="1200.142578"/>
      <use xlink:href="#DejaVuSans-75" x="1255.123047"/>
      <use xlink:href="#DejaVuSans-72" x="1318.501953"/>
      <use xlink:href="#DejaVuSans-61" x="1359.615234"/>
      <use xlink:href="#DejaVuSans-63" x="1420.894531"/>
      <use xlink:href="#DejaVuSans-79" x="1475.875"/>
     </g>
    </g>
    <g id="line2d_35">
     <path d="M 452.325 256.260625 
L 472.325 256.260625 
L 492.325 256.260625 
" style="fill: none; stroke-dasharray: 5.55,2.4; stroke-dashoffset: 0; stroke: #ff0000; stroke-width: 1.5"/>
    </g>
    <g id="text_18">
     <!-- Validation Loss -->
     <g transform="translate(508.325 263.260625) scale(0.2 -0.2)">
      <defs>
       <path id="DejaVuSans-56" d="M 1831 0 
L 50 4666 
L 709 4666 
L 2188 738 
L 3669 4666 
L 4325 4666 
L 2547 0 
L 1831 0 
z
" transform="scale(0.015625)"/>
       <path id="DejaVuSans-64" d="M 2906 2969 
L 2906 4863 
L 3481 4863 
L 3481 0 
L 2906 0 
L 2906 525 
Q 2725 213 2448 61 
Q 2172 -91 1784 -91 
Q 1150 -91 751 415 
Q 353 922 353 1747 
Q 353 2572 751 3078 
Q 1150 3584 1784 3584 
Q 2172 3584 2448 3432 
Q 2725 3281 2906 2969 
z
M 947 1747 
Q 947 1113 1208 752 
Q 1469 391 1925 391 
Q 2381 391 2643 752 
Q 2906 1113 2906 1747 
Q 2906 2381 2643 2742 
Q 2381 3103 1925 3103 
Q 1469 3103 1208 2742 
Q 947 2381 947 1747 
z
" transform="scale(0.015625)"/>
       <path id="DejaVuSans-74" d="M 1172 4494 
L 1172 3500 
L 2356 3500 
L 2356 3053 
L 1172 3053 
L 1172 1153 
Q 1172 725 1289 603 
Q 1406 481 1766 481 
L 2356 481 
L 2356 0 
L 1766 0 
Q 1100 0 847 248 
Q 594 497 594 1153 
L 594 3053 
L 172 3053 
L 172 3500 
L 594 3500 
L 594 4494 
L 1172 4494 
z
" transform="scale(0.015625)"/>
      </defs>
      <use xlink:href="#DejaVuSans-56"/>
      <use xlink:href="#DejaVuSans-61" x="60.658203"/>
      <use xlink:href="#DejaVuSans-6c" x="121.9375"/>
      <use xlink:href="#DejaVuSans-69" x="149.720703"/>
      <use xlink:href="#DejaVuSans-64" x="177.503906"/>
      <use xlink:href="#DejaVuSans-61" x="240.980469"/>
      <use xlink:href="#DejaVuSans-74" x="302.259766"/>
      <use xlink:href="#DejaVuSans-69" x="341.46875"/>
      <use xlink:href="#DejaVuSans-6f" x="369.251953"/>
      <use xlink:href="#DejaVuSans-6e" x="430.433594"/>
      <use xlink:href="#DejaVuSans-20" x="493.8125"/>
      <use xlink:href="#DejaVuSans-4c" x="525.599609"/>
      <use xlink:href="#DejaVuSans-6f" x="579.5625"/>
      <use xlink:href="#DejaVuSans-73" x="640.744141"/>
      <use xlink:href="#DejaVuSans-73" x="692.84375"/>
     </g>
    </g>
    <g id="line2d_36">
     <path d="M 452.325 285.616875 
L 472.325 285.616875 
L 492.325 285.616875 
" style="fill: none; stroke: #ff0000; stroke-width: 1.5; stroke-linecap: square"/>
     <g>
      <use xlink:href="#m41cc7e7e24" x="472.325" y="285.616875" style="fill: #ff0000; stroke: #ff0000"/>
     </g>
    </g>
    <g id="text_19">
     <!-- Validation Overall pixel accuracy -->
     <g transform="translate(508.325 292.616875) scale(0.2 -0.2)">
      <use xlink:href="#DejaVuSans-56"/>
      <use xlink:href="#DejaVuSans-61" x="60.658203"/>
      <use xlink:href="#DejaVuSans-6c" x="121.9375"/>
      <use xlink:href="#DejaVuSans-69" x="149.720703"/>
      <use xlink:href="#DejaVuSans-64" x="177.503906"/>
      <use xlink:href="#DejaVuSans-61" x="240.980469"/>
      <use xlink:href="#DejaVuSans-74" x="302.259766"/>
      <use xlink:href="#DejaVuSans-69" x="341.46875"/>
      <use xlink:href="#DejaVuSans-6f" x="369.251953"/>
      <use xlink:href="#DejaVuSans-6e" x="430.433594"/>
      <use xlink:href="#DejaVuSans-20" x="493.8125"/>
      <use xlink:href="#DejaVuSans-4f" x="525.599609"/>
      <use xlink:href="#DejaVuSans-76" x="604.310547"/>
      <use xlink:href="#DejaVuSans-65" x="663.490234"/>
      <use xlink:href="#DejaVuSans-72" x="725.013672"/>
      <use xlink:href="#DejaVuSans-61" x="766.126953"/>
      <use xlink:href="#DejaVuSans-6c" x="827.40625"/>
      <use xlink:href="#DejaVuSans-6c" x="855.189453"/>
      <use xlink:href="#DejaVuSans-20" x="882.972656"/>
      <use xlink:href="#DejaVuSans-70" x="914.759766"/>
      <use xlink:href="#DejaVuSans-69" x="978.236328"/>
      <use xlink:href="#DejaVuSans-78" x="1006.019531"/>
      <use xlink:href="#DejaVuSans-65" x="1062.074219"/>
      <use xlink:href="#DejaVuSans-6c" x="1123.597656"/>
      <use xlink:href="#DejaVuSans-20" x="1151.380859"/>
      <use xlink:href="#DejaVuSans-61" x="1183.167969"/>
      <use xlink:href="#DejaVuSans-63" x="1244.447266"/>
      <use xlink:href="#DejaVuSans-63" x="1299.427734"/>
      <use xlink:href="#DejaVuSans-75" x="1354.408203"/>
      <use xlink:href="#DejaVuSans-72" x="1417.787109"/>
      <use xlink:href="#DejaVuSans-61" x="1458.900391"/>
      <use xlink:href="#DejaVuSans-63" x="1520.179688"/>
      <use xlink:href="#DejaVuSans-79" x="1575.160156"/>
     </g>
    </g>
    <g id="line2d_37">
     <path d="M 452.325 314.973125 
L 472.325 314.973125 
L 492.325 314.973125 
" style="fill: none; stroke: #2ca02c; stroke-width: 1.5; stroke-linecap: square"/>
    </g>
    <g id="text_20">
     <!-- Validation PerClass accuracy -->
     <g transform="translate(508.325 321.973125) scale(0.2 -0.2)">
      <defs>
       <path id="DejaVuSans-50" d="M 1259 4147 
L 1259 2394 
L 2053 2394 
Q 2494 2394 2734 2622 
Q 2975 2850 2975 3272 
Q 2975 3691 2734 3919 
Q 2494 4147 2053 4147 
L 1259 4147 
z
M 628 4666 
L 2053 4666 
Q 2838 4666 3239 4311 
Q 3641 3956 3641 3272 
Q 3641 2581 3239 2228 
Q 2838 1875 2053 1875 
L 1259 1875 
L 1259 0 
L 628 0 
L 628 4666 
z
" transform="scale(0.015625)"/>
       <path id="DejaVuSans-43" d="M 4122 4306 
L 4122 3641 
Q 3803 3938 3442 4084 
Q 3081 4231 2675 4231 
Q 1875 4231 1450 3742 
Q 1025 3253 1025 2328 
Q 1025 1406 1450 917 
Q 1875 428 2675 428 
Q 3081 428 3442 575 
Q 3803 722 4122 1019 
L 4122 359 
Q 3791 134 3420 21 
Q 3050 -91 2638 -91 
Q 1578 -91 968 557 
Q 359 1206 359 2328 
Q 359 3453 968 4101 
Q 1578 4750 2638 4750 
Q 3056 4750 3426 4639 
Q 3797 4528 4122 4306 
z
" transform="scale(0.015625)"/>
      </defs>
      <use xlink:href="#DejaVuSans-56"/>
      <use xlink:href="#DejaVuSans-61" x="60.658203"/>
      <use xlink:href="#DejaVuSans-6c" x="121.9375"/>
      <use xlink:href="#DejaVuSans-69" x="149.720703"/>
      <use xlink:href="#DejaVuSans-64" x="177.503906"/>
      <use xlink:href="#DejaVuSans-61" x="240.980469"/>
      <use xlink:href="#DejaVuSans-74" x="302.259766"/>
      <use xlink:href="#DejaVuSans-69" x="341.46875"/>
      <use xlink:href="#DejaVuSans-6f" x="369.251953"/>
      <use xlink:href="#DejaVuSans-6e" x="430.433594"/>
      <use xlink:href="#DejaVuSans-20" x="493.8125"/>
      <use xlink:href="#DejaVuSans-50" x="525.599609"/>
      <use xlink:href="#DejaVuSans-65" x="582.277344"/>
      <use xlink:href="#DejaVuSans-72" x="643.800781"/>
      <use xlink:href="#DejaVuSans-43" x="684.914062"/>
      <use xlink:href="#DejaVuSans-6c" x="754.738281"/>
      <use xlink:href="#DejaVuSans-61" x="782.521484"/>
      <use xlink:href="#DejaVuSans-73" x="843.800781"/>
      <use xlink:href="#DejaVuSans-73" x="895.900391"/>
      <use xlink:href="#DejaVuSans-20" x="948"/>
      <use xlink:href="#DejaVuSans-61" x="979.787109"/>
      <use xlink:href="#DejaVuSans-63" x="1041.066406"/>
      <use xlink:href="#DejaVuSans-63" x="1096.046875"/>
      <use xlink:href="#DejaVuSans-75" x="1151.027344"/>
      <use xlink:href="#DejaVuSans-72" x="1214.40625"/>
      <use xlink:href="#DejaVuSans-61" x="1255.519531"/>
      <use xlink:href="#DejaVuSans-63" x="1316.798828"/>
      <use xlink:href="#DejaVuSans-79" x="1371.779297"/>
     </g>
    </g>
    <g id="line2d_38">
     <path d="M 452.325 344.329375 
L 472.325 344.329375 
L 492.325 344.329375 
" style="fill: none; stroke: #ff7f0e; stroke-width: 1.5; stroke-linecap: square"/>
    </g>
    <g id="text_21">
     <!-- Validation Jaccard index -->
     <g transform="translate(508.325 351.329375) scale(0.2 -0.2)">
      <defs>
       <path id="DejaVuSans-4a" d="M 628 4666 
L 1259 4666 
L 1259 325 
Q 1259 -519 939 -900 
Q 619 -1281 -91 -1281 
L -331 -1281 
L -331 -750 
L -134 -750 
Q 284 -750 456 -515 
Q 628 -281 628 325 
L 628 4666 
z
" transform="scale(0.015625)"/>
      </defs>
      <use xlink:href="#DejaVuSans-56"/>
      <use xlink:href="#DejaVuSans-61" x="60.658203"/>
      <use xlink:href="#DejaVuSans-6c" x="121.9375"/>
      <use xlink:href="#DejaVuSans-69" x="149.720703"/>
      <use xlink:href="#DejaVuSans-64" x="177.503906"/>
      <use xlink:href="#DejaVuSans-61" x="240.980469"/>
      <use xlink:href="#DejaVuSans-74" x="302.259766"/>
      <use xlink:href="#DejaVuSans-69" x="341.46875"/>
      <use xlink:href="#DejaVuSans-6f" x="369.251953"/>
      <use xlink:href="#DejaVuSans-6e" x="430.433594"/>
      <use xlink:href="#DejaVuSans-20" x="493.8125"/>
      <use xlink:href="#DejaVuSans-4a" x="525.599609"/>
      <use xlink:href="#DejaVuSans-61" x="555.091797"/>
      <use xlink:href="#DejaVuSans-63" x="616.371094"/>
      <use xlink:href="#DejaVuSans-63" x="671.351562"/>
      <use xlink:href="#DejaVuSans-61" x="726.332031"/>
      <use xlink:href="#DejaVuSans-72" x="787.611328"/>
      <use xlink:href="#DejaVuSans-64" x="826.974609"/>
      <use xlink:href="#DejaVuSans-20" x="890.451172"/>
      <use xlink:href="#DejaVuSans-69" x="922.238281"/>
      <use xlink:href="#DejaVuSans-6e" x="950.021484"/>
      <use xlink:href="#DejaVuSans-64" x="1013.400391"/>
      <use xlink:href="#DejaVuSans-65" x="1076.876953"/>
      <use xlink:href="#DejaVuSans-78" x="1136.650391"/>
     </g>
    </g>
   </g>
  </g>
 </g>
 <defs>
  <clipPath id="p05e64ff7de">
   <rect x="47.72" y="10.8" width="805.48" height="523.24"/>
  </clipPath>
 </defs>
</svg>
