<?xml version="1.0" encoding="utf-8" standalone="no"?>
<!DOCTYPE svg PUBLIC "-//W3C//DTD SVG 1.1//EN"
  "http://www.w3.org/Graphics/SVG/1.1/DTD/svg11.dtd">
<svg xmlns:xlink="http://www.w3.org/1999/xlink" width="864pt" height="576pt" viewBox="0 0 864 576" xmlns="http://www.w3.org/2000/svg" version="1.1">
 <metadata>
  <rdf:RDF xmlns:dc="http://purl.org/dc/elements/1.1/" xmlns:cc="http://creativecommons.org/ns#" xmlns:rdf="http://www.w3.org/1999/02/22-rdf-syntax-ns#">
   <cc:Work>
    <dc:type rdf:resource="http://purl.org/dc/dcmitype/StillImage"/>
    <dc:date>2024-06-18T15:18:41.004356</dc:date>
    <dc:format>image/svg+xml</dc:format>
    <dc:creator>
     <cc:Agent>
      <dc:title>Matplotlib v3.8.3, https://matplotlib.org/</dc:title>
     </cc:Agent>
    </dc:creator>
   </cc:Work>
  </rdf:RDF>
 </metadata>
 <defs>
  <style type="text/css">*{stroke-linejoin: round; stroke-linecap: butt}</style>
 </defs>
 <g id="figure_1">
  <g id="patch_1">
   <path d="M 0 576 
L 864 576 
L 864 0 
L 0 0 
z
" style="fill: #ffffff"/>
  </g>
  <g id="axes_1">
   <g id="patch_2">
    <path d="M 47.72 534.04 
L 853.2 534.04 
L 853.2 10.8 
L 47.72 10.8 
z
" style="fill: #ffffff"/>
   </g>
   <g id="matplotlib.axis_1">
    <g id="xtick_1">
     <g id="line2d_1">
      <path d="M 69.388757 534.04 
L 69.388757 10.8 
" clip-path="url(#p18ec7114f8)" style="fill: none; stroke: #b0b0b0; stroke-width: 0.8; stroke-linecap: square"/>
     </g>
     <g id="line2d_2">
      <defs>
       <path id="m729f6fc0b0" d="M 0 0 
L 0 3.5 
" style="stroke: #000000; stroke-width: 0.8"/>
      </defs>
      <g>
       <use xlink:href="#m729f6fc0b0" x="69.388757" y="534.04" style="stroke: #000000; stroke-width: 0.8"/>
      </g>
     </g>
     <g id="text_1">
      <!-- 0 -->
      <g transform="translate(66.207507 548.638438) scale(0.1 -0.1)">
       <defs>
        <path id="DejaVuSans-30" d="M 2034 4250 
Q 1547 4250 1301 3770 
Q 1056 3291 1056 2328 
Q 1056 1369 1301 889 
Q 1547 409 2034 409 
Q 2525 409 2770 889 
Q 3016 1369 3016 2328 
Q 3016 3291 2770 3770 
Q 2525 4250 2034 4250 
z
M 2034 4750 
Q 2819 4750 3233 4129 
Q 3647 3509 3647 2328 
Q 3647 1150 3233 529 
Q 2819 -91 2034 -91 
Q 1250 -91 836 529 
Q 422 1150 422 2328 
Q 422 3509 836 4129 
Q 1250 4750 2034 4750 
z
" transform="scale(0.015625)"/>
       </defs>
       <use xlink:href="#DejaVuSans-30"/>
      </g>
     </g>
    </g>
    <g id="xtick_2">
     <g id="line2d_3">
      <path d="M 218.82846 534.04 
L 218.82846 10.8 
" clip-path="url(#p18ec7114f8)" style="fill: none; stroke: #b0b0b0; stroke-width: 0.8; stroke-linecap: square"/>
     </g>
     <g id="line2d_4">
      <g>
       <use xlink:href="#m729f6fc0b0" x="218.82846" y="534.04" style="stroke: #000000; stroke-width: 0.8"/>
      </g>
     </g>
     <g id="text_2">
      <!-- 10 -->
      <g transform="translate(212.46596 548.638438) scale(0.1 -0.1)">
       <defs>
        <path id="DejaVuSans-31" d="M 794 531 
L 1825 531 
L 1825 4091 
L 703 3866 
L 703 4441 
L 1819 4666 
L 2450 4666 
L 2450 531 
L 3481 531 
L 3481 0 
L 794 0 
L 794 531 
z
" transform="scale(0.015625)"/>
       </defs>
       <use xlink:href="#DejaVuSans-31"/>
       <use xlink:href="#DejaVuSans-30" x="63.623047"/>
      </g>
     </g>
    </g>
    <g id="xtick_3">
     <g id="line2d_5">
      <path d="M 368.268163 534.04 
L 368.268163 10.8 
" clip-path="url(#p18ec7114f8)" style="fill: none; stroke: #b0b0b0; stroke-width: 0.8; stroke-linecap: square"/>
     </g>
     <g id="line2d_6">
      <g>
       <use xlink:href="#m729f6fc0b0" x="368.268163" y="534.04" style="stroke: #000000; stroke-width: 0.8"/>
      </g>
     </g>
     <g id="text_3">
      <!-- 20 -->
      <g transform="translate(361.905663 548.638438) scale(0.1 -0.1)">
       <defs>
        <path id="DejaVuSans-32" d="M 1228 531 
L 3431 531 
L 3431 0 
L 469 0 
L 469 531 
Q 828 903 1448 1529 
Q 2069 2156 2228 2338 
Q 2531 2678 2651 2914 
Q 2772 3150 2772 3378 
Q 2772 3750 2511 3984 
Q 2250 4219 1831 4219 
Q 1534 4219 1204 4116 
Q 875 4013 500 3803 
L 500 4441 
Q 881 4594 1212 4672 
Q 1544 4750 1819 4750 
Q 2544 4750 2975 4387 
Q 3406 4025 3406 3419 
Q 3406 3131 3298 2873 
Q 3191 2616 2906 2266 
Q 2828 2175 2409 1742 
Q 1991 1309 1228 531 
z
" transform="scale(0.015625)"/>
       </defs>
       <use xlink:href="#DejaVuSans-32"/>
       <use xlink:href="#DejaVuSans-30" x="63.623047"/>
      </g>
     </g>
    </g>
    <g id="xtick_4">
     <g id="line2d_7">
      <path d="M 517.707866 534.04 
L 517.707866 10.8 
" clip-path="url(#p18ec7114f8)" style="fill: none; stroke: #b0b0b0; stroke-width: 0.8; stroke-linecap: square"/>
     </g>
     <g id="line2d_8">
      <g>
       <use xlink:href="#m729f6fc0b0" x="517.707866" y="534.04" style="stroke: #000000; stroke-width: 0.8"/>
      </g>
     </g>
     <g id="text_4">
      <!-- 30 -->
      <g transform="translate(511.345366 548.638438) scale(0.1 -0.1)">
       <defs>
        <path id="DejaVuSans-33" d="M 2597 2516 
Q 3050 2419 3304 2112 
Q 3559 1806 3559 1356 
Q 3559 666 3084 287 
Q 2609 -91 1734 -91 
Q 1441 -91 1130 -33 
Q 819 25 488 141 
L 488 750 
Q 750 597 1062 519 
Q 1375 441 1716 441 
Q 2309 441 2620 675 
Q 2931 909 2931 1356 
Q 2931 1769 2642 2001 
Q 2353 2234 1838 2234 
L 1294 2234 
L 1294 2753 
L 1863 2753 
Q 2328 2753 2575 2939 
Q 2822 3125 2822 3475 
Q 2822 3834 2567 4026 
Q 2313 4219 1838 4219 
Q 1578 4219 1281 4162 
Q 984 4106 628 3988 
L 628 4550 
Q 988 4650 1302 4700 
Q 1616 4750 1894 4750 
Q 2613 4750 3031 4423 
Q 3450 4097 3450 3541 
Q 3450 3153 3228 2886 
Q 3006 2619 2597 2516 
z
" transform="scale(0.015625)"/>
       </defs>
       <use xlink:href="#DejaVuSans-33"/>
       <use xlink:href="#DejaVuSans-30" x="63.623047"/>
      </g>
     </g>
    </g>
    <g id="xtick_5">
     <g id="line2d_9">
      <path d="M 667.14757 534.04 
L 667.14757 10.8 
" clip-path="url(#p18ec7114f8)" style="fill: none; stroke: #b0b0b0; stroke-width: 0.8; stroke-linecap: square"/>
     </g>
     <g id="line2d_10">
      <g>
       <use xlink:href="#m729f6fc0b0" x="667.14757" y="534.04" style="stroke: #000000; stroke-width: 0.8"/>
      </g>
     </g>
     <g id="text_5">
      <!-- 40 -->
      <g transform="translate(660.78507 548.638438) scale(0.1 -0.1)">
       <defs>
        <path id="DejaVuSans-34" d="M 2419 4116 
L 825 1625 
L 2419 1625 
L 2419 4116 
z
M 2253 4666 
L 3047 4666 
L 3047 1625 
L 3713 1625 
L 3713 1100 
L 3047 1100 
L 3047 0 
L 2419 0 
L 2419 1100 
L 313 1100 
L 313 1709 
L 2253 4666 
z
" transform="scale(0.015625)"/>
       </defs>
       <use xlink:href="#DejaVuSans-34"/>
       <use xlink:href="#DejaVuSans-30" x="63.623047"/>
      </g>
     </g>
    </g>
    <g id="xtick_6">
     <g id="line2d_11">
      <path d="M 816.587273 534.04 
L 816.587273 10.8 
" clip-path="url(#p18ec7114f8)" style="fill: none; stroke: #b0b0b0; stroke-width: 0.8; stroke-linecap: square"/>
     </g>
     <g id="line2d_12">
      <g>
       <use xlink:href="#m729f6fc0b0" x="816.587273" y="534.04" style="stroke: #000000; stroke-width: 0.8"/>
      </g>
     </g>
     <g id="text_6">
      <!-- 50 -->
      <g transform="translate(810.224773 548.638438) scale(0.1 -0.1)">
       <defs>
        <path id="DejaVuSans-35" d="M 691 4666 
L 3169 4666 
L 3169 4134 
L 1269 4134 
L 1269 2991 
Q 1406 3038 1543 3061 
Q 1681 3084 1819 3084 
Q 2600 3084 3056 2656 
Q 3513 2228 3513 1497 
Q 3513 744 3044 326 
Q 2575 -91 1722 -91 
Q 1428 -91 1123 -41 
Q 819 9 494 109 
L 494 744 
Q 775 591 1075 516 
Q 1375 441 1709 441 
Q 2250 441 2565 725 
Q 2881 1009 2881 1497 
Q 2881 1984 2565 2268 
Q 2250 2553 1709 2553 
Q 1456 2553 1204 2497 
Q 953 2441 691 2322 
L 691 4666 
z
" transform="scale(0.015625)"/>
       </defs>
       <use xlink:href="#DejaVuSans-35"/>
       <use xlink:href="#DejaVuSans-30" x="63.623047"/>
      </g>
     </g>
    </g>
    <g id="text_7">
     <!-- Epochs -->
     <g transform="translate(432.544375 562.316562) scale(0.1 -0.1)">
      <defs>
       <path id="DejaVuSans-45" d="M 628 4666 
L 3578 4666 
L 3578 4134 
L 1259 4134 
L 1259 2753 
L 3481 2753 
L 3481 2222 
L 1259 2222 
L 1259 531 
L 3634 531 
L 3634 0 
L 628 0 
L 628 4666 
z
" transform="scale(0.015625)"/>
       <path id="DejaVuSans-70" d="M 1159 525 
L 1159 -1331 
L 581 -1331 
L 581 3500 
L 1159 3500 
L 1159 2969 
Q 1341 3281 1617 3432 
Q 1894 3584 2278 3584 
Q 2916 3584 3314 3078 
Q 3713 2572 3713 1747 
Q 3713 922 3314 415 
Q 2916 -91 2278 -91 
Q 1894 -91 1617 61 
Q 1341 213 1159 525 
z
M 3116 1747 
Q 3116 2381 2855 2742 
Q 2594 3103 2138 3103 
Q 1681 3103 1420 2742 
Q 1159 2381 1159 1747 
Q 1159 1113 1420 752 
Q 1681 391 2138 391 
Q 2594 391 2855 752 
Q 3116 1113 3116 1747 
z
" transform="scale(0.015625)"/>
       <path id="DejaVuSans-6f" d="M 1959 3097 
Q 1497 3097 1228 2736 
Q 959 2375 959 1747 
Q 959 1119 1226 758 
Q 1494 397 1959 397 
Q 2419 397 2687 759 
Q 2956 1122 2956 1747 
Q 2956 2369 2687 2733 
Q 2419 3097 1959 3097 
z
M 1959 3584 
Q 2709 3584 3137 3096 
Q 3566 2609 3566 1747 
Q 3566 888 3137 398 
Q 2709 -91 1959 -91 
Q 1206 -91 779 398 
Q 353 888 353 1747 
Q 353 2609 779 3096 
Q 1206 3584 1959 3584 
z
" transform="scale(0.015625)"/>
       <path id="DejaVuSans-63" d="M 3122 3366 
L 3122 2828 
Q 2878 2963 2633 3030 
Q 2388 3097 2138 3097 
Q 1578 3097 1268 2742 
Q 959 2388 959 1747 
Q 959 1106 1268 751 
Q 1578 397 2138 397 
Q 2388 397 2633 464 
Q 2878 531 3122 666 
L 3122 134 
Q 2881 22 2623 -34 
Q 2366 -91 2075 -91 
Q 1284 -91 818 406 
Q 353 903 353 1747 
Q 353 2603 823 3093 
Q 1294 3584 2113 3584 
Q 2378 3584 2631 3529 
Q 2884 3475 3122 3366 
z
" transform="scale(0.015625)"/>
       <path id="DejaVuSans-68" d="M 3513 2113 
L 3513 0 
L 2938 0 
L 2938 2094 
Q 2938 2591 2744 2837 
Q 2550 3084 2163 3084 
Q 1697 3084 1428 2787 
Q 1159 2491 1159 1978 
L 1159 0 
L 581 0 
L 581 4863 
L 1159 4863 
L 1159 2956 
Q 1366 3272 1645 3428 
Q 1925 3584 2291 3584 
Q 2894 3584 3203 3211 
Q 3513 2838 3513 2113 
z
" transform="scale(0.015625)"/>
       <path id="DejaVuSans-73" d="M 2834 3397 
L 2834 2853 
Q 2591 2978 2328 3040 
Q 2066 3103 1784 3103 
Q 1356 3103 1142 2972 
Q 928 2841 928 2578 
Q 928 2378 1081 2264 
Q 1234 2150 1697 2047 
L 1894 2003 
Q 2506 1872 2764 1633 
Q 3022 1394 3022 966 
Q 3022 478 2636 193 
Q 2250 -91 1575 -91 
Q 1294 -91 989 -36 
Q 684 19 347 128 
L 347 722 
Q 666 556 975 473 
Q 1284 391 1588 391 
Q 1994 391 2212 530 
Q 2431 669 2431 922 
Q 2431 1156 2273 1281 
Q 2116 1406 1581 1522 
L 1381 1569 
Q 847 1681 609 1914 
Q 372 2147 372 2553 
Q 372 3047 722 3315 
Q 1072 3584 1716 3584 
Q 2034 3584 2315 3537 
Q 2597 3491 2834 3397 
z
" transform="scale(0.015625)"/>
      </defs>
      <use xlink:href="#DejaVuSans-45"/>
      <use xlink:href="#DejaVuSans-70" x="63.183594"/>
      <use xlink:href="#DejaVuSans-6f" x="126.660156"/>
      <use xlink:href="#DejaVuSans-63" x="187.841797"/>
      <use xlink:href="#DejaVuSans-68" x="242.822266"/>
      <use xlink:href="#DejaVuSans-73" x="306.201172"/>
     </g>
    </g>
   </g>
   <g id="matplotlib.axis_2">
    <g id="ytick_1">
     <g id="line2d_13">
      <path d="M 47.72 502.475671 
L 853.2 502.475671 
" clip-path="url(#p18ec7114f8)" style="fill: none; stroke: #b0b0b0; stroke-width: 0.8; stroke-linecap: square"/>
     </g>
     <g id="line2d_14">
      <defs>
       <path id="mf7c20b2ccf" d="M 0 0 
L -3.5 0 
" style="stroke: #000000; stroke-width: 0.8"/>
      </defs>
      <g>
       <use xlink:href="#mf7c20b2ccf" x="47.72" y="502.475671" style="stroke: #000000; stroke-width: 0.8"/>
      </g>
     </g>
     <g id="text_8">
      <!-- 0.1 -->
      <g transform="translate(24.816875 506.27489) scale(0.1 -0.1)">
       <defs>
        <path id="DejaVuSans-2e" d="M 684 794 
L 1344 794 
L 1344 0 
L 684 0 
L 684 794 
z
" transform="scale(0.015625)"/>
       </defs>
       <use xlink:href="#DejaVuSans-30"/>
       <use xlink:href="#DejaVuSans-2e" x="63.623047"/>
       <use xlink:href="#DejaVuSans-31" x="95.410156"/>
      </g>
     </g>
    </g>
    <g id="ytick_2">
     <g id="line2d_15">
      <path d="M 47.72 438.173353 
L 853.2 438.173353 
" clip-path="url(#p18ec7114f8)" style="fill: none; stroke: #b0b0b0; stroke-width: 0.8; stroke-linecap: square"/>
     </g>
     <g id="line2d_16">
      <g>
       <use xlink:href="#mf7c20b2ccf" x="47.72" y="438.173353" style="stroke: #000000; stroke-width: 0.8"/>
      </g>
     </g>
     <g id="text_9">
      <!-- 0.2 -->
      <g transform="translate(24.816875 441.972571) scale(0.1 -0.1)">
       <use xlink:href="#DejaVuSans-30"/>
       <use xlink:href="#DejaVuSans-2e" x="63.623047"/>
       <use xlink:href="#DejaVuSans-32" x="95.410156"/>
      </g>
     </g>
    </g>
    <g id="ytick_3">
     <g id="line2d_17">
      <path d="M 47.72 373.871034 
L 853.2 373.871034 
" clip-path="url(#p18ec7114f8)" style="fill: none; stroke: #b0b0b0; stroke-width: 0.8; stroke-linecap: square"/>
     </g>
     <g id="line2d_18">
      <g>
       <use xlink:href="#mf7c20b2ccf" x="47.72" y="373.871034" style="stroke: #000000; stroke-width: 0.8"/>
      </g>
     </g>
     <g id="text_10">
      <!-- 0.3 -->
      <g transform="translate(24.816875 377.670253) scale(0.1 -0.1)">
       <use xlink:href="#DejaVuSans-30"/>
       <use xlink:href="#DejaVuSans-2e" x="63.623047"/>
       <use xlink:href="#DejaVuSans-33" x="95.410156"/>
      </g>
     </g>
    </g>
    <g id="ytick_4">
     <g id="line2d_19">
      <path d="M 47.72 309.568715 
L 853.2 309.568715 
" clip-path="url(#p18ec7114f8)" style="fill: none; stroke: #b0b0b0; stroke-width: 0.8; stroke-linecap: square"/>
     </g>
     <g id="line2d_20">
      <g>
       <use xlink:href="#mf7c20b2ccf" x="47.72" y="309.568715" style="stroke: #000000; stroke-width: 0.8"/>
      </g>
     </g>
     <g id="text_11">
      <!-- 0.4 -->
      <g transform="translate(24.816875 313.367934) scale(0.1 -0.1)">
       <use xlink:href="#DejaVuSans-30"/>
       <use xlink:href="#DejaVuSans-2e" x="63.623047"/>
       <use xlink:href="#DejaVuSans-34" x="95.410156"/>
      </g>
     </g>
    </g>
    <g id="ytick_5">
     <g id="line2d_21">
      <path d="M 47.72 245.266396 
L 853.2 245.266396 
" clip-path="url(#p18ec7114f8)" style="fill: none; stroke: #b0b0b0; stroke-width: 0.8; stroke-linecap: square"/>
     </g>
     <g id="line2d_22">
      <g>
       <use xlink:href="#mf7c20b2ccf" x="47.72" y="245.266396" style="stroke: #000000; stroke-width: 0.8"/>
      </g>
     </g>
     <g id="text_12">
      <!-- 0.5 -->
      <g transform="translate(24.816875 249.065615) scale(0.1 -0.1)">
       <use xlink:href="#DejaVuSans-30"/>
       <use xlink:href="#DejaVuSans-2e" x="63.623047"/>
       <use xlink:href="#DejaVuSans-35" x="95.410156"/>
      </g>
     </g>
    </g>
    <g id="ytick_6">
     <g id="line2d_23">
      <path d="M 47.72 180.964078 
L 853.2 180.964078 
" clip-path="url(#p18ec7114f8)" style="fill: none; stroke: #b0b0b0; stroke-width: 0.8; stroke-linecap: square"/>
     </g>
     <g id="line2d_24">
      <g>
       <use xlink:href="#mf7c20b2ccf" x="47.72" y="180.964078" style="stroke: #000000; stroke-width: 0.8"/>
      </g>
     </g>
     <g id="text_13">
      <!-- 0.6 -->
      <g transform="translate(24.816875 184.763296) scale(0.1 -0.1)">
       <defs>
        <path id="DejaVuSans-36" d="M 2113 2584 
Q 1688 2584 1439 2293 
Q 1191 2003 1191 1497 
Q 1191 994 1439 701 
Q 1688 409 2113 409 
Q 2538 409 2786 701 
Q 3034 994 3034 1497 
Q 3034 2003 2786 2293 
Q 2538 2584 2113 2584 
z
M 3366 4563 
L 3366 3988 
Q 3128 4100 2886 4159 
Q 2644 4219 2406 4219 
Q 1781 4219 1451 3797 
Q 1122 3375 1075 2522 
Q 1259 2794 1537 2939 
Q 1816 3084 2150 3084 
Q 2853 3084 3261 2657 
Q 3669 2231 3669 1497 
Q 3669 778 3244 343 
Q 2819 -91 2113 -91 
Q 1303 -91 875 529 
Q 447 1150 447 2328 
Q 447 3434 972 4092 
Q 1497 4750 2381 4750 
Q 2619 4750 2861 4703 
Q 3103 4656 3366 4563 
z
" transform="scale(0.015625)"/>
       </defs>
       <use xlink:href="#DejaVuSans-30"/>
       <use xlink:href="#DejaVuSans-2e" x="63.623047"/>
       <use xlink:href="#DejaVuSans-36" x="95.410156"/>
      </g>
     </g>
    </g>
    <g id="ytick_7">
     <g id="line2d_25">
      <path d="M 47.72 116.661759 
L 853.2 116.661759 
" clip-path="url(#p18ec7114f8)" style="fill: none; stroke: #b0b0b0; stroke-width: 0.8; stroke-linecap: square"/>
     </g>
     <g id="line2d_26">
      <g>
       <use xlink:href="#mf7c20b2ccf" x="47.72" y="116.661759" style="stroke: #000000; stroke-width: 0.8"/>
      </g>
     </g>
     <g id="text_14">
      <!-- 0.7 -->
      <g transform="translate(24.816875 120.460977) scale(0.1 -0.1)">
       <defs>
        <path id="DejaVuSans-37" d="M 525 4666 
L 3525 4666 
L 3525 4397 
L 1831 0 
L 1172 0 
L 2766 4134 
L 525 4134 
L 525 4666 
z
" transform="scale(0.015625)"/>
       </defs>
       <use xlink:href="#DejaVuSans-30"/>
       <use xlink:href="#DejaVuSans-2e" x="63.623047"/>
       <use xlink:href="#DejaVuSans-37" x="95.410156"/>
      </g>
     </g>
    </g>
    <g id="ytick_8">
     <g id="line2d_27">
      <path d="M 47.72 52.35944 
L 853.2 52.35944 
" clip-path="url(#p18ec7114f8)" style="fill: none; stroke: #b0b0b0; stroke-width: 0.8; stroke-linecap: square"/>
     </g>
     <g id="line2d_28">
      <g>
       <use xlink:href="#mf7c20b2ccf" x="47.72" y="52.35944" style="stroke: #000000; stroke-width: 0.8"/>
      </g>
     </g>
     <g id="text_15">
      <!-- 0.8 -->
      <g transform="translate(24.816875 56.158659) scale(0.1 -0.1)">
       <defs>
        <path id="DejaVuSans-38" d="M 2034 2216 
Q 1584 2216 1326 1975 
Q 1069 1734 1069 1313 
Q 1069 891 1326 650 
Q 1584 409 2034 409 
Q 2484 409 2743 651 
Q 3003 894 3003 1313 
Q 3003 1734 2745 1975 
Q 2488 2216 2034 2216 
z
M 1403 2484 
Q 997 2584 770 2862 
Q 544 3141 544 3541 
Q 544 4100 942 4425 
Q 1341 4750 2034 4750 
Q 2731 4750 3128 4425 
Q 3525 4100 3525 3541 
Q 3525 3141 3298 2862 
Q 3072 2584 2669 2484 
Q 3125 2378 3379 2068 
Q 3634 1759 3634 1313 
Q 3634 634 3220 271 
Q 2806 -91 2034 -91 
Q 1263 -91 848 271 
Q 434 634 434 1313 
Q 434 1759 690 2068 
Q 947 2378 1403 2484 
z
M 1172 3481 
Q 1172 3119 1398 2916 
Q 1625 2713 2034 2713 
Q 2441 2713 2670 2916 
Q 2900 3119 2900 3481 
Q 2900 3844 2670 4047 
Q 2441 4250 2034 4250 
Q 1625 4250 1398 4047 
Q 1172 3844 1172 3481 
z
" transform="scale(0.015625)"/>
       </defs>
       <use xlink:href="#DejaVuSans-30"/>
       <use xlink:href="#DejaVuSans-2e" x="63.623047"/>
       <use xlink:href="#DejaVuSans-38" x="95.410156"/>
      </g>
     </g>
    </g>
    <g id="text_16">
     <!-- Accuracy -->
     <g transform="translate(18.737188 295.248125) rotate(-90) scale(0.1 -0.1)">
      <defs>
       <path id="DejaVuSans-41" d="M 2188 4044 
L 1331 1722 
L 3047 1722 
L 2188 4044 
z
M 1831 4666 
L 2547 4666 
L 4325 0 
L 3669 0 
L 3244 1197 
L 1141 1197 
L 716 0 
L 50 0 
L 1831 4666 
z
" transform="scale(0.015625)"/>
       <path id="DejaVuSans-75" d="M 544 1381 
L 544 3500 
L 1119 3500 
L 1119 1403 
Q 1119 906 1312 657 
Q 1506 409 1894 409 
Q 2359 409 2629 706 
Q 2900 1003 2900 1516 
L 2900 3500 
L 3475 3500 
L 3475 0 
L 2900 0 
L 2900 538 
Q 2691 219 2414 64 
Q 2138 -91 1772 -91 
Q 1169 -91 856 284 
Q 544 659 544 1381 
z
M 1991 3584 
L 1991 3584 
z
" transform="scale(0.015625)"/>
       <path id="DejaVuSans-72" d="M 2631 2963 
Q 2534 3019 2420 3045 
Q 2306 3072 2169 3072 
Q 1681 3072 1420 2755 
Q 1159 2438 1159 1844 
L 1159 0 
L 581 0 
L 581 3500 
L 1159 3500 
L 1159 2956 
Q 1341 3275 1631 3429 
Q 1922 3584 2338 3584 
Q 2397 3584 2469 3576 
Q 2541 3569 2628 3553 
L 2631 2963 
z
" transform="scale(0.015625)"/>
       <path id="DejaVuSans-61" d="M 2194 1759 
Q 1497 1759 1228 1600 
Q 959 1441 959 1056 
Q 959 750 1161 570 
Q 1363 391 1709 391 
Q 2188 391 2477 730 
Q 2766 1069 2766 1631 
L 2766 1759 
L 2194 1759 
z
M 3341 1997 
L 3341 0 
L 2766 0 
L 2766 531 
Q 2569 213 2275 61 
Q 1981 -91 1556 -91 
Q 1019 -91 701 211 
Q 384 513 384 1019 
Q 384 1609 779 1909 
Q 1175 2209 1959 2209 
L 2766 2209 
L 2766 2266 
Q 2766 2663 2505 2880 
Q 2244 3097 1772 3097 
Q 1472 3097 1187 3025 
Q 903 2953 641 2809 
L 641 3341 
Q 956 3463 1253 3523 
Q 1550 3584 1831 3584 
Q 2591 3584 2966 3190 
Q 3341 2797 3341 1997 
z
" transform="scale(0.015625)"/>
       <path id="DejaVuSans-79" d="M 2059 -325 
Q 1816 -950 1584 -1140 
Q 1353 -1331 966 -1331 
L 506 -1331 
L 506 -850 
L 844 -850 
Q 1081 -850 1212 -737 
Q 1344 -625 1503 -206 
L 1606 56 
L 191 3500 
L 800 3500 
L 1894 763 
L 2988 3500 
L 3597 3500 
L 2059 -325 
z
" transform="scale(0.015625)"/>
      </defs>
      <use xlink:href="#DejaVuSans-41"/>
      <use xlink:href="#DejaVuSans-63" x="66.658203"/>
      <use xlink:href="#DejaVuSans-63" x="121.638672"/>
      <use xlink:href="#DejaVuSans-75" x="176.619141"/>
      <use xlink:href="#DejaVuSans-72" x="239.998047"/>
      <use xlink:href="#DejaVuSans-61" x="281.111328"/>
      <use xlink:href="#DejaVuSans-63" x="342.390625"/>
      <use xlink:href="#DejaVuSans-79" x="397.371094"/>
     </g>
    </g>
   </g>
   <g id="line2d_29">
    <path d="M 84.332727 141.658209 
L 99.276698 128.504632 
L 114.220668 119.602265 
L 129.164638 106.672096 
L 144.108609 126.643962 
L 159.052579 107.425685 
L 173.996549 111.34506 
L 188.940519 104.933193 
L 203.88449 101.630349 
L 218.82846 104.39347 
L 233.77243 105.247706 
L 248.716401 104.645164 
L 263.660371 95.725359 
L 278.604341 92.21827 
L 293.548312 93.353789 
L 308.492282 85.837371 
L 323.436252 81.988595 
L 338.380223 83.328743 
L 353.324193 75.326643 
L 368.268163 69.434608 
L 383.212134 110.066964 
L 398.156104 88.677529 
L 413.100074 91.836148 
L 428.044045 68.803474 
L 442.988015 63.355535 
L 457.931985 69.94593 
L 472.875955 73.910148 
L 487.819926 64.272474 
L 502.763896 65.579776 
L 517.707866 70.689707 
L 532.651837 59.874049 
L 547.595807 56.722444 
L 562.539777 51.808096 
L 577.483748 69.660661 
L 592.427718 48.896228 
L 607.371688 53.208724 
L 622.315659 85.365487 
L 637.259629 59.169519 
L 652.203599 51.627345 
L 667.14757 43.01914 
L 682.09154 56.44875 
L 697.03551 46.223023 
L 711.979481 47.330218 
L 726.923451 46.039397 
L 741.867421 42.692745 
L 756.811391 44.115527 
L 771.755362 34.583636 
L 786.699332 44.229742 
L 801.643302 34.797617 
L 816.587273 37.324297 
" clip-path="url(#p18ec7114f8)" style="fill: none; stroke: #0000ff; stroke-width: 1.5; stroke-linecap: square"/>
    <defs>
     <path id="m4517213bd3" d="M 0 1.5 
C 0.397805 1.5 0.77937 1.341951 1.06066 1.06066 
C 1.341951 0.77937 1.5 0.397805 1.5 0 
C 1.5 -0.397805 1.341951 -0.77937 1.06066 -1.06066 
C 0.77937 -1.341951 0.397805 -1.5 0 -1.5 
C -0.397805 -1.5 -0.77937 -1.341951 -1.06066 -1.06066 
C -1.341951 -0.77937 -1.5 -0.397805 -1.5 0 
C -1.5 0.397805 -1.341951 0.77937 -1.06066 1.06066 
C -0.77937 1.341951 -0.397805 1.5 0 1.5 
z
" style="stroke: #0000ff"/>
    </defs>
    <g clip-path="url(#p18ec7114f8)">
     <use xlink:href="#m4517213bd3" x="84.332727" y="141.658209" style="fill: #0000ff; stroke: #0000ff"/>
     <use xlink:href="#m4517213bd3" x="99.276698" y="128.504632" style="fill: #0000ff; stroke: #0000ff"/>
     <use xlink:href="#m4517213bd3" x="114.220668" y="119.602265" style="fill: #0000ff; stroke: #0000ff"/>
     <use xlink:href="#m4517213bd3" x="129.164638" y="106.672096" style="fill: #0000ff; stroke: #0000ff"/>
     <use xlink:href="#m4517213bd3" x="144.108609" y="126.643962" style="fill: #0000ff; stroke: #0000ff"/>
     <use xlink:href="#m4517213bd3" x="159.052579" y="107.425685" style="fill: #0000ff; stroke: #0000ff"/>
     <use xlink:href="#m4517213bd3" x="173.996549" y="111.34506" style="fill: #0000ff; stroke: #0000ff"/>
     <use xlink:href="#m4517213bd3" x="188.940519" y="104.933193" style="fill: #0000ff; stroke: #0000ff"/>
     <use xlink:href="#m4517213bd3" x="203.88449" y="101.630349" style="fill: #0000ff; stroke: #0000ff"/>
     <use xlink:href="#m4517213bd3" x="218.82846" y="104.39347" style="fill: #0000ff; stroke: #0000ff"/>
     <use xlink:href="#m4517213bd3" x="233.77243" y="105.247706" style="fill: #0000ff; stroke: #0000ff"/>
     <use xlink:href="#m4517213bd3" x="248.716401" y="104.645164" style="fill: #0000ff; stroke: #0000ff"/>
     <use xlink:href="#m4517213bd3" x="263.660371" y="95.725359" style="fill: #0000ff; stroke: #0000ff"/>
     <use xlink:href="#m4517213bd3" x="278.604341" y="92.21827" style="fill: #0000ff; stroke: #0000ff"/>
     <use xlink:href="#m4517213bd3" x="293.548312" y="93.353789" style="fill: #0000ff; stroke: #0000ff"/>
     <use xlink:href="#m4517213bd3" x="308.492282" y="85.837371" style="fill: #0000ff; stroke: #0000ff"/>
     <use xlink:href="#m4517213bd3" x="323.436252" y="81.988595" style="fill: #0000ff; stroke: #0000ff"/>
     <use xlink:href="#m4517213bd3" x="338.380223" y="83.328743" style="fill: #0000ff; stroke: #0000ff"/>
     <use xlink:href="#m4517213bd3" x="353.324193" y="75.326643" style="fill: #0000ff; stroke: #0000ff"/>
     <use xlink:href="#m4517213bd3" x="368.268163" y="69.434608" style="fill: #0000ff; stroke: #0000ff"/>
     <use xlink:href="#m4517213bd3" x="383.212134" y="110.066964" style="fill: #0000ff; stroke: #0000ff"/>
     <use xlink:href="#m4517213bd3" x="398.156104" y="88.677529" style="fill: #0000ff; stroke: #0000ff"/>
     <use xlink:href="#m4517213bd3" x="413.100074" y="91.836148" style="fill: #0000ff; stroke: #0000ff"/>
     <use xlink:href="#m4517213bd3" x="428.044045" y="68.803474" style="fill: #0000ff; stroke: #0000ff"/>
     <use xlink:href="#m4517213bd3" x="442.988015" y="63.355535" style="fill: #0000ff; stroke: #0000ff"/>
     <use xlink:href="#m4517213bd3" x="457.931985" y="69.94593" style="fill: #0000ff; stroke: #0000ff"/>
     <use xlink:href="#m4517213bd3" x="472.875955" y="73.910148" style="fill: #0000ff; stroke: #0000ff"/>
     <use xlink:href="#m4517213bd3" x="487.819926" y="64.272474" style="fill: #0000ff; stroke: #0000ff"/>
     <use xlink:href="#m4517213bd3" x="502.763896" y="65.579776" style="fill: #0000ff; stroke: #0000ff"/>
     <use xlink:href="#m4517213bd3" x="517.707866" y="70.689707" style="fill: #0000ff; stroke: #0000ff"/>
     <use xlink:href="#m4517213bd3" x="532.651837" y="59.874049" style="fill: #0000ff; stroke: #0000ff"/>
     <use xlink:href="#m4517213bd3" x="547.595807" y="56.722444" style="fill: #0000ff; stroke: #0000ff"/>
     <use xlink:href="#m4517213bd3" x="562.539777" y="51.808096" style="fill: #0000ff; stroke: #0000ff"/>
     <use xlink:href="#m4517213bd3" x="577.483748" y="69.660661" style="fill: #0000ff; stroke: #0000ff"/>
     <use xlink:href="#m4517213bd3" x="592.427718" y="48.896228" style="fill: #0000ff; stroke: #0000ff"/>
     <use xlink:href="#m4517213bd3" x="607.371688" y="53.208724" style="fill: #0000ff; stroke: #0000ff"/>
     <use xlink:href="#m4517213bd3" x="622.315659" y="85.365487" style="fill: #0000ff; stroke: #0000ff"/>
     <use xlink:href="#m4517213bd3" x="637.259629" y="59.169519" style="fill: #0000ff; stroke: #0000ff"/>
     <use xlink:href="#m4517213bd3" x="652.203599" y="51.627345" style="fill: #0000ff; stroke: #0000ff"/>
     <use xlink:href="#m4517213bd3" x="667.14757" y="43.01914" style="fill: #0000ff; stroke: #0000ff"/>
     <use xlink:href="#m4517213bd3" x="682.09154" y="56.44875" style="fill: #0000ff; stroke: #0000ff"/>
     <use xlink:href="#m4517213bd3" x="697.03551" y="46.223023" style="fill: #0000ff; stroke: #0000ff"/>
     <use xlink:href="#m4517213bd3" x="711.979481" y="47.330218" style="fill: #0000ff; stroke: #0000ff"/>
     <use xlink:href="#m4517213bd3" x="726.923451" y="46.039397" style="fill: #0000ff; stroke: #0000ff"/>
     <use xlink:href="#m4517213bd3" x="741.867421" y="42.692745" style="fill: #0000ff; stroke: #0000ff"/>
     <use xlink:href="#m4517213bd3" x="756.811391" y="44.115527" style="fill: #0000ff; stroke: #0000ff"/>
     <use xlink:href="#m4517213bd3" x="771.755362" y="34.583636" style="fill: #0000ff; stroke: #0000ff"/>
     <use xlink:href="#m4517213bd3" x="786.699332" y="44.229742" style="fill: #0000ff; stroke: #0000ff"/>
     <use xlink:href="#m4517213bd3" x="801.643302" y="34.797617" style="fill: #0000ff; stroke: #0000ff"/>
     <use xlink:href="#m4517213bd3" x="816.587273" y="37.324297" style="fill: #0000ff; stroke: #0000ff"/>
    </g>
   </g>
   <g id="line2d_30">
    <path d="M 84.332727 418.302649 
L 99.276698 277.177635 
L 114.220668 273.369774 
L 129.164638 386.84414 
L 144.108609 213.393599 
L 159.052579 166.61345 
L 173.996549 257.800933 
L 188.940519 332.090541 
L 203.88449 234.754289 
L 218.82846 172.138848 
L 233.77243 205.302466 
L 248.716401 180.061381 
L 263.660371 259.802876 
L 278.604341 238.017464 
L 293.548312 161.045816 
L 308.492282 235.737496 
L 323.436252 285.171571 
L 338.380223 278.180811 
L 353.324193 374.528452 
L 368.268163 349.140152 
L 383.212134 293.334127 
L 398.156104 214.730566 
L 413.100074 284.570237 
L 428.044045 237.220757 
L 442.988015 265.454811 
L 457.931985 174.011782 
L 472.875955 233.331584 
L 487.819926 194.516396 
L 502.763896 193.444691 
L 517.707866 280.97465 
L 532.651837 202.568627 
L 547.595807 190.391856 
L 562.539777 319.976243 
L 577.483748 274.588328 
L 592.427718 250.688809 
L 607.371688 213.287127 
L 622.315659 184.287564 
L 637.259629 200.159688 
L 652.203599 225.136201 
L 667.14757 246.697667 
L 682.09154 202.157223 
L 697.03551 180.475812 
L 711.979481 280.262455 
L 726.923451 156.383469 
L 741.867421 139.897459 
L 756.811391 162.114837 
L 771.755362 191.200597 
L 786.699332 166.501535 
L 801.643302 211.492035 
L 816.587273 139.372722 
" clip-path="url(#p18ec7114f8)" style="fill: none; stroke: #ff0000; stroke-width: 1.5; stroke-linecap: square"/>
    <defs>
     <path id="mc055397a5c" d="M 0 1.5 
C 0.397805 1.5 0.77937 1.341951 1.06066 1.06066 
C 1.341951 0.77937 1.5 0.397805 1.5 0 
C 1.5 -0.397805 1.341951 -0.77937 1.06066 -1.06066 
C 0.77937 -1.341951 0.397805 -1.5 0 -1.5 
C -0.397805 -1.5 -0.77937 -1.341951 -1.06066 -1.06066 
C -1.341951 -0.77937 -1.5 -0.397805 -1.5 0 
C -1.5 0.397805 -1.341951 0.77937 -1.06066 1.06066 
C -0.77937 1.341951 -0.397805 1.5 0 1.5 
z
" style="stroke: #ff0000"/>
    </defs>
    <g clip-path="url(#p18ec7114f8)">
     <use xlink:href="#mc055397a5c" x="84.332727" y="418.302649" style="fill: #ff0000; stroke: #ff0000"/>
     <use xlink:href="#mc055397a5c" x="99.276698" y="277.177635" style="fill: #ff0000; stroke: #ff0000"/>
     <use xlink:href="#mc055397a5c" x="114.220668" y="273.369774" style="fill: #ff0000; stroke: #ff0000"/>
     <use xlink:href="#mc055397a5c" x="129.164638" y="386.84414" style="fill: #ff0000; stroke: #ff0000"/>
     <use xlink:href="#mc055397a5c" x="144.108609" y="213.393599" style="fill: #ff0000; stroke: #ff0000"/>
     <use xlink:href="#mc055397a5c" x="159.052579" y="166.61345" style="fill: #ff0000; stroke: #ff0000"/>
     <use xlink:href="#mc055397a5c" x="173.996549" y="257.800933" style="fill: #ff0000; stroke: #ff0000"/>
     <use xlink:href="#mc055397a5c" x="188.940519" y="332.090541" style="fill: #ff0000; stroke: #ff0000"/>
     <use xlink:href="#mc055397a5c" x="203.88449" y="234.754289" style="fill: #ff0000; stroke: #ff0000"/>
     <use xlink:href="#mc055397a5c" x="218.82846" y="172.138848" style="fill: #ff0000; stroke: #ff0000"/>
     <use xlink:href="#mc055397a5c" x="233.77243" y="205.302466" style="fill: #ff0000; stroke: #ff0000"/>
     <use xlink:href="#mc055397a5c" x="248.716401" y="180.061381" style="fill: #ff0000; stroke: #ff0000"/>
     <use xlink:href="#mc055397a5c" x="263.660371" y="259.802876" style="fill: #ff0000; stroke: #ff0000"/>
     <use xlink:href="#mc055397a5c" x="278.604341" y="238.017464" style="fill: #ff0000; stroke: #ff0000"/>
     <use xlink:href="#mc055397a5c" x="293.548312" y="161.045816" style="fill: #ff0000; stroke: #ff0000"/>
     <use xlink:href="#mc055397a5c" x="308.492282" y="235.737496" style="fill: #ff0000; stroke: #ff0000"/>
     <use xlink:href="#mc055397a5c" x="323.436252" y="285.171571" style="fill: #ff0000; stroke: #ff0000"/>
     <use xlink:href="#mc055397a5c" x="338.380223" y="278.180811" style="fill: #ff0000; stroke: #ff0000"/>
     <use xlink:href="#mc055397a5c" x="353.324193" y="374.528452" style="fill: #ff0000; stroke: #ff0000"/>
     <use xlink:href="#mc055397a5c" x="368.268163" y="349.140152" style="fill: #ff0000; stroke: #ff0000"/>
     <use xlink:href="#mc055397a5c" x="383.212134" y="293.334127" style="fill: #ff0000; stroke: #ff0000"/>
     <use xlink:href="#mc055397a5c" x="398.156104" y="214.730566" style="fill: #ff0000; stroke: #ff0000"/>
     <use xlink:href="#mc055397a5c" x="413.100074" y="284.570237" style="fill: #ff0000; stroke: #ff0000"/>
     <use xlink:href="#mc055397a5c" x="428.044045" y="237.220757" style="fill: #ff0000; stroke: #ff0000"/>
     <use xlink:href="#mc055397a5c" x="442.988015" y="265.454811" style="fill: #ff0000; stroke: #ff0000"/>
     <use xlink:href="#mc055397a5c" x="457.931985" y="174.011782" style="fill: #ff0000; stroke: #ff0000"/>
     <use xlink:href="#mc055397a5c" x="472.875955" y="233.331584" style="fill: #ff0000; stroke: #ff0000"/>
     <use xlink:href="#mc055397a5c" x="487.819926" y="194.516396" style="fill: #ff0000; stroke: #ff0000"/>
     <use xlink:href="#mc055397a5c" x="502.763896" y="193.444691" style="fill: #ff0000; stroke: #ff0000"/>
     <use xlink:href="#mc055397a5c" x="517.707866" y="280.97465" style="fill: #ff0000; stroke: #ff0000"/>
     <use xlink:href="#mc055397a5c" x="532.651837" y="202.568627" style="fill: #ff0000; stroke: #ff0000"/>
     <use xlink:href="#mc055397a5c" x="547.595807" y="190.391856" style="fill: #ff0000; stroke: #ff0000"/>
     <use xlink:href="#mc055397a5c" x="562.539777" y="319.976243" style="fill: #ff0000; stroke: #ff0000"/>
     <use xlink:href="#mc055397a5c" x="577.483748" y="274.588328" style="fill: #ff0000; stroke: #ff0000"/>
     <use xlink:href="#mc055397a5c" x="592.427718" y="250.688809" style="fill: #ff0000; stroke: #ff0000"/>
     <use xlink:href="#mc055397a5c" x="607.371688" y="213.287127" style="fill: #ff0000; stroke: #ff0000"/>
     <use xlink:href="#mc055397a5c" x="622.315659" y="184.287564" style="fill: #ff0000; stroke: #ff0000"/>
     <use xlink:href="#mc055397a5c" x="637.259629" y="200.159688" style="fill: #ff0000; stroke: #ff0000"/>
     <use xlink:href="#mc055397a5c" x="652.203599" y="225.136201" style="fill: #ff0000; stroke: #ff0000"/>
     <use xlink:href="#mc055397a5c" x="667.14757" y="246.697667" style="fill: #ff0000; stroke: #ff0000"/>
     <use xlink:href="#mc055397a5c" x="682.09154" y="202.157223" style="fill: #ff0000; stroke: #ff0000"/>
     <use xlink:href="#mc055397a5c" x="697.03551" y="180.475812" style="fill: #ff0000; stroke: #ff0000"/>
     <use xlink:href="#mc055397a5c" x="711.979481" y="280.262455" style="fill: #ff0000; stroke: #ff0000"/>
     <use xlink:href="#mc055397a5c" x="726.923451" y="156.383469" style="fill: #ff0000; stroke: #ff0000"/>
     <use xlink:href="#mc055397a5c" x="741.867421" y="139.897459" style="fill: #ff0000; stroke: #ff0000"/>
     <use xlink:href="#mc055397a5c" x="756.811391" y="162.114837" style="fill: #ff0000; stroke: #ff0000"/>
     <use xlink:href="#mc055397a5c" x="771.755362" y="191.200597" style="fill: #ff0000; stroke: #ff0000"/>
     <use xlink:href="#mc055397a5c" x="786.699332" y="166.501535" style="fill: #ff0000; stroke: #ff0000"/>
     <use xlink:href="#mc055397a5c" x="801.643302" y="211.492035" style="fill: #ff0000; stroke: #ff0000"/>
     <use xlink:href="#mc055397a5c" x="816.587273" y="139.372722" style="fill: #ff0000; stroke: #ff0000"/>
    </g>
   </g>
   <g id="line2d_31">
    <path d="M 84.332727 419.459497 
L 99.276698 355.49313 
L 114.220668 352.232714 
L 129.164638 401.248544 
L 144.108609 327.983229 
L 159.052579 308.732508 
L 173.996549 345.3284 
L 188.940519 380.410369 
L 203.88449 328.204205 
L 218.82846 301.742706 
L 233.77243 313.850987 
L 248.716401 345.665239 
L 263.660371 327.729561 
L 278.604341 316.066776 
L 293.548312 302.864216 
L 308.492282 319.235571 
L 323.436252 356.510237 
L 338.380223 354.074526 
L 353.324193 397.565514 
L 368.268163 386.53095 
L 383.212134 339.653814 
L 398.156104 294.945382 
L 413.100074 324.42344 
L 428.044045 331.531386 
L 442.988015 346.384276 
L 457.931985 324.051169 
L 472.875955 310.193732 
L 487.819926 298.69056 
L 502.763896 314.465908 
L 517.707866 346.319867 
L 532.651837 320.816566 
L 547.595807 304.281785 
L 562.539777 333.573956 
L 577.483748 340.913935 
L 592.427718 307.279602 
L 607.371688 318.378422 
L 622.315659 308.204666 
L 637.259629 292.905036 
L 652.203599 325.438612 
L 667.14757 334.810927 
L 682.09154 300.858268 
L 697.03551 318.518661 
L 711.979481 325.899324 
L 726.923451 295.409199 
L 741.867421 305.2419 
L 756.811391 319.12331 
L 771.755362 317.737592 
L 786.699332 306.907368 
L 801.643302 310.069283 
L 816.587273 310.513763 
" clip-path="url(#p18ec7114f8)" style="fill: none; stroke: #2ca02c; stroke-width: 1.5; stroke-linecap: square"/>
   </g>
   <g id="line2d_32">
    <path d="M 84.332727 510.256364 
L 99.276698 446.166961 
L 114.220668 443.783557 
L 129.164638 480.917486 
L 144.108609 400.919812 
L 159.052579 374.93403 
L 173.996549 436.918021 
L 188.940519 464.860319 
L 203.88449 408.773988 
L 218.82846 378.36849 
L 233.77243 400.18441 
L 248.716401 406.893926 
L 263.660371 417.623425 
L 278.604341 411.079578 
L 293.548312 387.295788 
L 308.492282 407.981976 
L 323.436252 454.348595 
L 338.380223 439.350867 
L 353.324193 500.387084 
L 368.268163 487.749524 
L 383.212134 443.640597 
L 398.156104 406.588937 
L 413.100074 427.87256 
L 428.044045 424.924463 
L 442.988015 442.680425 
L 457.931985 387.727103 
L 472.875955 402.432547 
L 487.819926 393.918665 
L 502.763896 401.00486 
L 517.707866 427.106965 
L 532.651837 407.858218 
L 547.595807 391.918198 
L 562.539777 452.754596 
L 577.483748 437.674705 
L 592.427718 418.347377 
L 607.371688 398.185322 
L 622.315659 383.588152 
L 637.259629 381.216524 
L 652.203599 401.59644 
L 667.14757 418.92468 
L 682.09154 385.417661 
L 697.03551 387.090642 
L 711.979481 431.287578 
L 726.923451 366.495806 
L 741.867421 366.003359 
L 756.811391 377.125463 
L 771.755362 385.941057 
L 786.699332 378.290379 
L 801.643302 393.750026 
L 816.587273 375.993278 
" clip-path="url(#p18ec7114f8)" style="fill: none; stroke: #ff7f0e; stroke-width: 1.5; stroke-linecap: square"/>
   </g>
   <g id="patch_3">
    <path d="M 47.72 534.04 
L 47.72 10.8 
" style="fill: none; stroke: #000000; stroke-width: 0.8; stroke-linejoin: miter; stroke-linecap: square"/>
   </g>
   <g id="patch_4">
    <path d="M 853.2 534.04 
L 853.2 10.8 
" style="fill: none; stroke: #000000; stroke-width: 0.8; stroke-linejoin: miter; stroke-linecap: square"/>
   </g>
   <g id="patch_5">
    <path d="M 47.72 534.04 
L 853.2 534.04 
" style="fill: none; stroke: #000000; stroke-width: 0.8; stroke-linejoin: miter; stroke-linecap: square"/>
   </g>
   <g id="patch_6">
    <path d="M 47.72 10.8 
L 853.2 10.8 
" style="fill: none; stroke: #000000; stroke-width: 0.8; stroke-linejoin: miter; stroke-linecap: square"/>
   </g>
   <g id="legend_1">
    <g id="patch_7">
     <path d="M 448.325 524.04 
L 839.2 524.04 
Q 843.2 524.04 843.2 520.04 
L 843.2 404.615 
Q 843.2 400.615 839.2 400.615 
L 448.325 400.615 
Q 444.325 400.615 444.325 404.615 
L 444.325 520.04 
Q 444.325 524.04 448.325 524.04 
z
" style="fill: #ffffff; opacity: 0.8; stroke: #cccccc; stroke-linejoin: miter"/>
    </g>
    <g id="line2d_33">
     <path d="M 452.325 416.811875 
L 472.325 416.811875 
L 492.325 416.811875 
" style="fill: none; stroke: #0000ff; stroke-width: 1.5; stroke-linecap: square"/>
     <g>
      <use xlink:href="#m4517213bd3" x="472.325" y="416.811875" style="fill: #0000ff; stroke: #0000ff"/>
     </g>
    </g>
    <g id="text_17">
     <!-- Training Overall pixel accuracy -->
     <g transform="translate(508.325 423.811875) scale(0.2 -0.2)">
      <defs>
       <path id="DejaVuSans-54" d="M -19 4666 
L 3928 4666 
L 3928 4134 
L 2272 4134 
L 2272 0 
L 1638 0 
L 1638 4134 
L -19 4134 
L -19 4666 
z
" transform="scale(0.015625)"/>
       <path id="DejaVuSans-69" d="M 603 3500 
L 1178 3500 
L 1178 0 
L 603 0 
L 603 3500 
z
M 603 4863 
L 1178 4863 
L 1178 4134 
L 603 4134 
L 603 4863 
z
" transform="scale(0.015625)"/>
       <path id="DejaVuSans-6e" d="M 3513 2113 
L 3513 0 
L 2938 0 
L 2938 2094 
Q 2938 2591 2744 2837 
Q 2550 3084 2163 3084 
Q 1697 3084 1428 2787 
Q 1159 2491 1159 1978 
L 1159 0 
L 581 0 
L 581 3500 
L 1159 3500 
L 1159 2956 
Q 1366 3272 1645 3428 
Q 1925 3584 2291 3584 
Q 2894 3584 3203 3211 
Q 3513 2838 3513 2113 
z
" transform="scale(0.015625)"/>
       <path id="DejaVuSans-67" d="M 2906 1791 
Q 2906 2416 2648 2759 
Q 2391 3103 1925 3103 
Q 1463 3103 1205 2759 
Q 947 2416 947 1791 
Q 947 1169 1205 825 
Q 1463 481 1925 481 
Q 2391 481 2648 825 
Q 2906 1169 2906 1791 
z
M 3481 434 
Q 3481 -459 3084 -895 
Q 2688 -1331 1869 -1331 
Q 1566 -1331 1297 -1286 
Q 1028 -1241 775 -1147 
L 775 -588 
Q 1028 -725 1275 -790 
Q 1522 -856 1778 -856 
Q 2344 -856 2625 -561 
Q 2906 -266 2906 331 
L 2906 616 
Q 2728 306 2450 153 
Q 2172 0 1784 0 
Q 1141 0 747 490 
Q 353 981 353 1791 
Q 353 2603 747 3093 
Q 1141 3584 1784 3584 
Q 2172 3584 2450 3431 
Q 2728 3278 2906 2969 
L 2906 3500 
L 3481 3500 
L 3481 434 
z
" transform="scale(0.015625)"/>
       <path id="DejaVuSans-20" transform="scale(0.015625)"/>
       <path id="DejaVuSans-4f" d="M 2522 4238 
Q 1834 4238 1429 3725 
Q 1025 3213 1025 2328 
Q 1025 1447 1429 934 
Q 1834 422 2522 422 
Q 3209 422 3611 934 
Q 4013 1447 4013 2328 
Q 4013 3213 3611 3725 
Q 3209 4238 2522 4238 
z
M 2522 4750 
Q 3503 4750 4090 4092 
Q 4678 3434 4678 2328 
Q 4678 1225 4090 567 
Q 3503 -91 2522 -91 
Q 1538 -91 948 565 
Q 359 1222 359 2328 
Q 359 3434 948 4092 
Q 1538 4750 2522 4750 
z
" transform="scale(0.015625)"/>
       <path id="DejaVuSans-76" d="M 191 3500 
L 800 3500 
L 1894 563 
L 2988 3500 
L 3597 3500 
L 2284 0 
L 1503 0 
L 191 3500 
z
" transform="scale(0.015625)"/>
       <path id="DejaVuSans-65" d="M 3597 1894 
L 3597 1613 
L 953 1613 
Q 991 1019 1311 708 
Q 1631 397 2203 397 
Q 2534 397 2845 478 
Q 3156 559 3463 722 
L 3463 178 
Q 3153 47 2828 -22 
Q 2503 -91 2169 -91 
Q 1331 -91 842 396 
Q 353 884 353 1716 
Q 353 2575 817 3079 
Q 1281 3584 2069 3584 
Q 2775 3584 3186 3129 
Q 3597 2675 3597 1894 
z
M 3022 2063 
Q 3016 2534 2758 2815 
Q 2500 3097 2075 3097 
Q 1594 3097 1305 2825 
Q 1016 2553 972 2059 
L 3022 2063 
z
" transform="scale(0.015625)"/>
       <path id="DejaVuSans-6c" d="M 603 4863 
L 1178 4863 
L 1178 0 
L 603 0 
L 603 4863 
z
" transform="scale(0.015625)"/>
       <path id="DejaVuSans-78" d="M 3513 3500 
L 2247 1797 
L 3578 0 
L 2900 0 
L 1881 1375 
L 863 0 
L 184 0 
L 1544 1831 
L 300 3500 
L 978 3500 
L 1906 2253 
L 2834 3500 
L 3513 3500 
z
" transform="scale(0.015625)"/>
      </defs>
      <use xlink:href="#DejaVuSans-54"/>
      <use xlink:href="#DejaVuSans-72" x="46.333984"/>
      <use xlink:href="#DejaVuSans-61" x="87.447266"/>
      <use xlink:href="#DejaVuSans-69" x="148.726562"/>
      <use xlink:href="#DejaVuSans-6e" x="176.509766"/>
      <use xlink:href="#DejaVuSans-69" x="239.888672"/>
      <use xlink:href="#DejaVuSans-6e" x="267.671875"/>
      <use xlink:href="#DejaVuSans-67" x="331.050781"/>
      <use xlink:href="#DejaVuSans-20" x="394.527344"/>
      <use xlink:href="#DejaVuSans-4f" x="426.314453"/>
      <use xlink:href="#DejaVuSans-76" x="505.025391"/>
      <use xlink:href="#DejaVuSans-65" x="564.205078"/>
      <use xlink:href="#DejaVuSans-72" x="625.728516"/>
      <use xlink:href="#DejaVuSans-61" x="666.841797"/>
      <use xlink:href="#DejaVuSans-6c" x="728.121094"/>
      <use xlink:href="#DejaVuSans-6c" x="755.904297"/>
      <use xlink:href="#DejaVuSans-20" x="783.6875"/>
      <use xlink:href="#DejaVuSans-70" x="815.474609"/>
      <use xlink:href="#DejaVuSans-69" x="878.951172"/>
      <use xlink:href="#DejaVuSans-78" x="906.734375"/>
      <use xlink:href="#DejaVuSans-65" x="962.789062"/>
      <use xlink:href="#DejaVuSans-6c" x="1024.3125"/>
      <use xlink:href="#DejaVuSans-20" x="1052.095703"/>
      <use xlink:href="#DejaVuSans-61" x="1083.882812"/>
      <use xlink:href="#DejaVuSans-63" x="1145.162109"/>
      <use xlink:href="#DejaVuSans-63" x="1200.142578"/>
      <use xlink:href="#DejaVuSans-75" x="1255.123047"/>
      <use xlink:href="#DejaVuSans-72" x="1318.501953"/>
      <use xlink:href="#DejaVuSans-61" x="1359.615234"/>
      <use xlink:href="#DejaVuSans-63" x="1420.894531"/>
      <use xlink:href="#DejaVuSans-79" x="1475.875"/>
     </g>
    </g>
    <g id="line2d_34">
     <path d="M 452.325 446.168125 
L 472.325 446.168125 
L 492.325 446.168125 
" style="fill: none; stroke: #ff0000; stroke-width: 1.5; stroke-linecap: square"/>
     <g>
      <use xlink:href="#mc055397a5c" x="472.325" y="446.168125" style="fill: #ff0000; stroke: #ff0000"/>
     </g>
    </g>
    <g id="text_18">
     <!-- Validation Overall pixel accuracy -->
     <g transform="translate(508.325 453.168125) scale(0.2 -0.2)">
      <defs>
       <path id="DejaVuSans-56" d="M 1831 0 
L 50 4666 
L 709 4666 
L 2188 738 
L 3669 4666 
L 4325 4666 
L 2547 0 
L 1831 0 
z
" transform="scale(0.015625)"/>
       <path id="DejaVuSans-64" d="M 2906 2969 
L 2906 4863 
L 3481 4863 
L 3481 0 
L 2906 0 
L 2906 525 
Q 2725 213 2448 61 
Q 2172 -91 1784 -91 
Q 1150 -91 751 415 
Q 353 922 353 1747 
Q 353 2572 751 3078 
Q 1150 3584 1784 3584 
Q 2172 3584 2448 3432 
Q 2725 3281 2906 2969 
z
M 947 1747 
Q 947 1113 1208 752 
Q 1469 391 1925 391 
Q 2381 391 2643 752 
Q 2906 1113 2906 1747 
Q 2906 2381 2643 2742 
Q 2381 3103 1925 3103 
Q 1469 3103 1208 2742 
Q 947 2381 947 1747 
z
" transform="scale(0.015625)"/>
       <path id="DejaVuSans-74" d="M 1172 4494 
L 1172 3500 
L 2356 3500 
L 2356 3053 
L 1172 3053 
L 1172 1153 
Q 1172 725 1289 603 
Q 1406 481 1766 481 
L 2356 481 
L 2356 0 
L 1766 0 
Q 1100 0 847 248 
Q 594 497 594 1153 
L 594 3053 
L 172 3053 
L 172 3500 
L 594 3500 
L 594 4494 
L 1172 4494 
z
" transform="scale(0.015625)"/>
      </defs>
      <use xlink:href="#DejaVuSans-56"/>
      <use xlink:href="#DejaVuSans-61" x="60.658203"/>
      <use xlink:href="#DejaVuSans-6c" x="121.9375"/>
      <use xlink:href="#DejaVuSans-69" x="149.720703"/>
      <use xlink:href="#DejaVuSans-64" x="177.503906"/>
      <use xlink:href="#DejaVuSans-61" x="240.980469"/>
      <use xlink:href="#DejaVuSans-74" x="302.259766"/>
      <use xlink:href="#DejaVuSans-69" x="341.46875"/>
      <use xlink:href="#DejaVuSans-6f" x="369.251953"/>
      <use xlink:href="#DejaVuSans-6e" x="430.433594"/>
      <use xlink:href="#DejaVuSans-20" x="493.8125"/>
      <use xlink:href="#DejaVuSans-4f" x="525.599609"/>
      <use xlink:href="#DejaVuSans-76" x="604.310547"/>
      <use xlink:href="#DejaVuSans-65" x="663.490234"/>
      <use xlink:href="#DejaVuSans-72" x="725.013672"/>
      <use xlink:href="#DejaVuSans-61" x="766.126953"/>
      <use xlink:href="#DejaVuSans-6c" x="827.40625"/>
      <use xlink:href="#DejaVuSans-6c" x="855.189453"/>
      <use xlink:href="#DejaVuSans-20" x="882.972656"/>
      <use xlink:href="#DejaVuSans-70" x="914.759766"/>
      <use xlink:href="#DejaVuSans-69" x="978.236328"/>
      <use xlink:href="#DejaVuSans-78" x="1006.019531"/>
      <use xlink:href="#DejaVuSans-65" x="1062.074219"/>
      <use xlink:href="#DejaVuSans-6c" x="1123.597656"/>
      <use xlink:href="#DejaVuSans-20" x="1151.380859"/>
      <use xlink:href="#DejaVuSans-61" x="1183.167969"/>
      <use xlink:href="#DejaVuSans-63" x="1244.447266"/>
      <use xlink:href="#DejaVuSans-63" x="1299.427734"/>
      <use xlink:href="#DejaVuSans-75" x="1354.408203"/>
      <use xlink:href="#DejaVuSans-72" x="1417.787109"/>
      <use xlink:href="#DejaVuSans-61" x="1458.900391"/>
      <use xlink:href="#DejaVuSans-63" x="1520.179688"/>
      <use xlink:href="#DejaVuSans-79" x="1575.160156"/>
     </g>
    </g>
    <g id="line2d_35">
     <path d="M 452.325 475.524375 
L 472.325 475.524375 
L 492.325 475.524375 
" style="fill: none; stroke: #2ca02c; stroke-width: 1.5; stroke-linecap: square"/>
    </g>
    <g id="text_19">
     <!-- Validation PerClass accuracy -->
     <g transform="translate(508.325 482.524375) scale(0.2 -0.2)">
      <defs>
       <path id="DejaVuSans-50" d="M 1259 4147 
L 1259 2394 
L 2053 2394 
Q 2494 2394 2734 2622 
Q 2975 2850 2975 3272 
Q 2975 3691 2734 3919 
Q 2494 4147 2053 4147 
L 1259 4147 
z
M 628 4666 
L 2053 4666 
Q 2838 4666 3239 4311 
Q 3641 3956 3641 3272 
Q 3641 2581 3239 2228 
Q 2838 1875 2053 1875 
L 1259 1875 
L 1259 0 
L 628 0 
L 628 4666 
z
" transform="scale(0.015625)"/>
       <path id="DejaVuSans-43" d="M 4122 4306 
L 4122 3641 
Q 3803 3938 3442 4084 
Q 3081 4231 2675 4231 
Q 1875 4231 1450 3742 
Q 1025 3253 1025 2328 
Q 1025 1406 1450 917 
Q 1875 428 2675 428 
Q 3081 428 3442 575 
Q 3803 722 4122 1019 
L 4122 359 
Q 3791 134 3420 21 
Q 3050 -91 2638 -91 
Q 1578 -91 968 557 
Q 359 1206 359 2328 
Q 359 3453 968 4101 
Q 1578 4750 2638 4750 
Q 3056 4750 3426 4639 
Q 3797 4528 4122 4306 
z
" transform="scale(0.015625)"/>
      </defs>
      <use xlink:href="#DejaVuSans-56"/>
      <use xlink:href="#DejaVuSans-61" x="60.658203"/>
      <use xlink:href="#DejaVuSans-6c" x="121.9375"/>
      <use xlink:href="#DejaVuSans-69" x="149.720703"/>
      <use xlink:href="#DejaVuSans-64" x="177.503906"/>
      <use xlink:href="#DejaVuSans-61" x="240.980469"/>
      <use xlink:href="#DejaVuSans-74" x="302.259766"/>
      <use xlink:href="#DejaVuSans-69" x="341.46875"/>
      <use xlink:href="#DejaVuSans-6f" x="369.251953"/>
      <use xlink:href="#DejaVuSans-6e" x="430.433594"/>
      <use xlink:href="#DejaVuSans-20" x="493.8125"/>
      <use xlink:href="#DejaVuSans-50" x="525.599609"/>
      <use xlink:href="#DejaVuSans-65" x="582.277344"/>
      <use xlink:href="#DejaVuSans-72" x="643.800781"/>
      <use xlink:href="#DejaVuSans-43" x="684.914062"/>
      <use xlink:href="#DejaVuSans-6c" x="754.738281"/>
      <use xlink:href="#DejaVuSans-61" x="782.521484"/>
      <use xlink:href="#DejaVuSans-73" x="843.800781"/>
      <use xlink:href="#DejaVuSans-73" x="895.900391"/>
      <use xlink:href="#DejaVuSans-20" x="948"/>
      <use xlink:href="#DejaVuSans-61" x="979.787109"/>
      <use xlink:href="#DejaVuSans-63" x="1041.066406"/>
      <use xlink:href="#DejaVuSans-63" x="1096.046875"/>
      <use xlink:href="#DejaVuSans-75" x="1151.027344"/>
      <use xlink:href="#DejaVuSans-72" x="1214.40625"/>
      <use xlink:href="#DejaVuSans-61" x="1255.519531"/>
      <use xlink:href="#DejaVuSans-63" x="1316.798828"/>
      <use xlink:href="#DejaVuSans-79" x="1371.779297"/>
     </g>
    </g>
    <g id="line2d_36">
     <path d="M 452.325 504.880625 
L 472.325 504.880625 
L 492.325 504.880625 
" style="fill: none; stroke: #ff7f0e; stroke-width: 1.5; stroke-linecap: square"/>
    </g>
    <g id="text_20">
     <!-- Validation Jaccard index -->
     <g transform="translate(508.325 511.880625) scale(0.2 -0.2)">
      <defs>
       <path id="DejaVuSans-4a" d="M 628 4666 
L 1259 4666 
L 1259 325 
Q 1259 -519 939 -900 
Q 619 -1281 -91 -1281 
L -331 -1281 
L -331 -750 
L -134 -750 
Q 284 -750 456 -515 
Q 628 -281 628 325 
L 628 4666 
z
" transform="scale(0.015625)"/>
      </defs>
      <use xlink:href="#DejaVuSans-56"/>
      <use xlink:href="#DejaVuSans-61" x="60.658203"/>
      <use xlink:href="#DejaVuSans-6c" x="121.9375"/>
      <use xlink:href="#DejaVuSans-69" x="149.720703"/>
      <use xlink:href="#DejaVuSans-64" x="177.503906"/>
      <use xlink:href="#DejaVuSans-61" x="240.980469"/>
      <use xlink:href="#DejaVuSans-74" x="302.259766"/>
      <use xlink:href="#DejaVuSans-69" x="341.46875"/>
      <use xlink:href="#DejaVuSans-6f" x="369.251953"/>
      <use xlink:href="#DejaVuSans-6e" x="430.433594"/>
      <use xlink:href="#DejaVuSans-20" x="493.8125"/>
      <use xlink:href="#DejaVuSans-4a" x="525.599609"/>
      <use xlink:href="#DejaVuSans-61" x="555.091797"/>
      <use xlink:href="#DejaVuSans-63" x="616.371094"/>
      <use xlink:href="#DejaVuSans-63" x="671.351562"/>
      <use xlink:href="#DejaVuSans-61" x="726.332031"/>
      <use xlink:href="#DejaVuSans-72" x="787.611328"/>
      <use xlink:href="#DejaVuSans-64" x="826.974609"/>
      <use xlink:href="#DejaVuSans-20" x="890.451172"/>
      <use xlink:href="#DejaVuSans-69" x="922.238281"/>
      <use xlink:href="#DejaVuSans-6e" x="950.021484"/>
      <use xlink:href="#DejaVuSans-64" x="1013.400391"/>
      <use xlink:href="#DejaVuSans-65" x="1076.876953"/>
      <use xlink:href="#DejaVuSans-78" x="1136.650391"/>
     </g>
    </g>
   </g>
  </g>
 </g>
 <defs>
  <clipPath id="p18ec7114f8">
   <rect x="47.72" y="10.8" width="805.48" height="523.24"/>
  </clipPath>
 </defs>
</svg>
